<svg width="818" height="546" viewBox="0 0 818 546" fill="none" xmlns="http://www.w3.org/2000/svg">
<path d="M654.509 474.583C654.509 474.583 767.066 424.515 764.448 323.396C761.83 222.331 655.163 175.321 582.743 237.728C510.377 300.136 463.478 247.775 425.96 195.031C388.441 142.288 304.786 75.7303 195.011 106.47C80.0001 138.684 44.6079 255.31 55.9509 333.169C64.1309 389.025 94.0697 436.418 134.861 472.836C136.206 474.037 137.569 475.22 138.951 476.385L654.509 474.583Z" fill="#D8DFFD"/>
<mask id="mask0_208_5515" style="mask-type:luminance" maskUnits="userSpaceOnUse" x="53" y="98" width="712" height="379">
<path d="M654.521 474.611C654.521 474.611 767.061 424.499 764.444 323.401C761.826 222.304 655.17 175.293 582.76 237.712C510.357 300.131 463.496 247.786 425.983 195.042C388.469 142.293 304.782 75.7304 194.99 106.487C79.9741 138.711 44.5819 255.332 55.9739 333.153C64.1594 389.052 94.0873 436.445 134.867 472.858C136.194 474.045 137.552 475.215 138.941 476.369L654.521 474.611Z" fill="white"/>
</mask>
<g mask="url(#mask0_208_5515)">
<path d="M142.606 341.141H86.7637V413.103H142.606V341.141Z" fill="#A9B7F2"/>
<path d="M527.447 303.849H430.105V401.364H527.447V303.849Z" fill="#A9B7F2"/>
<path d="M269.069 316.134H213.227V388.097H269.069V316.134Z" fill="#A9B7F2"/>
<path d="M374.754 355.118H318.912V427.081H374.754V355.118Z" fill="#A9B7F2"/>
<path d="M761.559 478.023H30.9219V383.619H761.559V478.023Z" fill="#A9B7F2"/>
<path d="M86.764 311.657H30.9219V383.62H86.764V311.657Z" fill="#A9B7F2"/>
<path d="M326.82 245.918C326.82 266.066 310.569 282.391 290.446 282.391C270.323 282.391 254.018 266.066 254.018 245.918C254.018 225.825 270.323 209.5 290.446 209.5C310.569 209.5 326.82 225.825 326.82 245.918Z" fill="#E9EDFD"/>
<path d="M298.845 229.211C298.845 233.906 295.082 237.674 290.447 237.674C285.811 237.674 281.994 233.906 281.994 229.211C281.994 224.57 285.811 220.802 290.447 220.802C295.082 220.802 298.845 224.57 298.845 229.211Z" fill="#D8DFFD"/>
<path d="M332.982 478.023H247.91V242.97H332.982V478.023Z" fill="#C9D2FC"/>
<path d="M276.321 293.093H259.416V259.787H276.321V293.093Z" fill="#A9B7F2"/>
<path d="M318.913 293.093H302.008V259.787H318.913V293.093Z" fill="#A9B7F2"/>
<path d="M276.321 343.925H259.416V310.564H276.321V343.925Z" fill="#A9B7F2"/>
<path d="M318.913 343.925H302.008V310.564H318.913V343.925Z" fill="#A9B7F2"/>
<path d="M276.321 394.703H259.416V361.397H276.321V394.703Z" fill="#A9B7F2"/>
<path d="M318.913 394.703H302.008V361.397H318.913V394.703Z" fill="#A9B7F2"/>
<path d="M276.321 445.536H259.416V412.176H276.321V445.536Z" fill="#A9B7F2"/>
<path d="M318.913 445.536H302.008V412.176H318.913V445.536Z" fill="#A9B7F2"/>
<path d="M445.539 478.023H352.996V188.588H445.539V478.023Z" fill="#C9D2FC"/>
<path d="M374.755 221.84H362.158V209.172H374.755V221.84Z" fill="#A9B7F2"/>
<path d="M405.566 221.84H392.969V209.172H405.566V221.84Z" fill="#A9B7F2"/>
<path d="M436.431 221.84H423.779V209.172H436.431V221.84Z" fill="#A9B7F2"/>
<path d="M374.755 244.117H362.158V231.504H374.755V244.117Z" fill="#A9B7F2"/>
<path d="M405.566 244.117H392.969V231.504H405.566V244.117Z" fill="#A9B7F2"/>
<path d="M436.431 244.117H423.779V231.504H436.431V244.117Z" fill="#A9B7F2"/>
<path d="M374.755 266.448H362.158V253.835H374.755V266.448Z" fill="#A9B7F2"/>
<path d="M405.566 266.448H392.969V253.835H405.566V266.448Z" fill="#A9B7F2"/>
<path d="M436.431 266.448H423.779V253.835H436.431V266.448Z" fill="#A9B7F2"/>
<path d="M374.755 288.78H362.158V276.112H374.755V288.78Z" fill="#A9B7F2"/>
<path d="M405.566 288.78H392.969V276.112H405.566V288.78Z" fill="#A9B7F2"/>
<path d="M436.431 288.78H423.779V276.112H436.431V288.78Z" fill="#A9B7F2"/>
<path d="M374.755 311.056H362.158V298.443H374.755V311.056Z" fill="#A9B7F2"/>
<path d="M405.566 311.056H392.969V298.443H405.566V311.056Z" fill="#A9B7F2"/>
<path d="M436.431 311.056H423.779V298.443H436.431V311.056Z" fill="#A9B7F2"/>
<path d="M374.755 333.388H362.158V320.775H374.755V333.388Z" fill="#A9B7F2"/>
<path d="M405.566 333.388H392.969V320.775H405.566V333.388Z" fill="#A9B7F2"/>
<path d="M436.431 333.388H423.779V320.775H436.431V333.388Z" fill="#A9B7F2"/>
<path d="M374.755 355.719H362.158V343.052H374.755V355.719Z" fill="#A9B7F2"/>
<path d="M405.566 355.719H392.969V343.052H405.566V355.719Z" fill="#A9B7F2"/>
<path d="M436.431 355.719H423.779V343.052H436.431V355.719Z" fill="#A9B7F2"/>
<path d="M374.755 377.995H362.158V365.383H374.755V377.995Z" fill="#A9B7F2"/>
<path d="M405.566 377.995H392.969V365.383H405.566V377.995Z" fill="#A9B7F2"/>
<path d="M436.431 377.995H423.779V365.383H436.431V377.995Z" fill="#A9B7F2"/>
<path d="M374.755 400.327H362.158V387.715H374.755V400.327Z" fill="#A9B7F2"/>
<path d="M405.566 400.327H392.969V387.715H405.566V400.327Z" fill="#A9B7F2"/>
<path d="M436.431 400.327H423.779V387.715H436.431V400.327Z" fill="#A9B7F2"/>
<path d="M374.755 422.658H362.158V409.991H374.755V422.658Z" fill="#A9B7F2"/>
<path d="M405.566 422.658H392.969V409.991H405.566V422.658Z" fill="#A9B7F2"/>
<path d="M436.431 422.658H423.779V409.991H436.431V422.658Z" fill="#A9B7F2"/>
<path d="M374.755 444.935H362.158V432.322H374.755V444.935Z" fill="#A9B7F2"/>
<path d="M405.566 444.935H392.969V432.322H405.566V444.935Z" fill="#A9B7F2"/>
<path d="M436.431 444.935H423.779V432.322H436.431V444.935Z" fill="#A9B7F2"/>
<path d="M740.51 558.012H647.967V268.577H740.51V558.012Z" fill="#C9D2FC"/>
<path d="M669.726 301.775H657.129V289.162H669.726V301.775Z" fill="#A9B7F2"/>
<path d="M700.537 301.774H687.939V289.161H700.537V301.774Z" fill="#A9B7F2"/>
<path d="M731.402 301.775H718.75V289.162H731.402V301.775Z" fill="#A9B7F2"/>
<path d="M669.726 324.106H657.129V311.438H669.726V324.106Z" fill="#A9B7F2"/>
<path d="M700.537 324.106H687.939V311.438H700.537V324.106Z" fill="#A9B7F2"/>
<path d="M731.402 324.106H718.75V311.438H731.402V324.106Z" fill="#A9B7F2"/>
<path d="M669.726 346.382H657.129V333.77H669.726V346.382Z" fill="#A9B7F2"/>
<path d="M700.537 346.382H687.939V333.77H700.537V346.382Z" fill="#A9B7F2"/>
<path d="M731.402 346.382H718.75V333.77H731.402V346.382Z" fill="#A9B7F2"/>
<path d="M669.726 368.714H657.129V356.102H669.726V368.714Z" fill="#A9B7F2"/>
<path d="M700.537 368.714H687.939V356.102H700.537V368.714Z" fill="#A9B7F2"/>
<path d="M731.402 368.714H718.75V356.102H731.402V368.714Z" fill="#A9B7F2"/>
<path d="M669.726 391.045H657.129V378.378H669.726V391.045Z" fill="#A9B7F2"/>
<path d="M700.537 391.045H687.939V378.378H700.537V391.045Z" fill="#A9B7F2"/>
<path d="M731.402 391.045H718.75V378.378H731.402V391.045Z" fill="#A9B7F2"/>
<path d="M669.726 413.322H657.129V400.709H669.726V413.322Z" fill="#A9B7F2"/>
<path d="M700.537 413.322H687.939V400.709H700.537V413.322Z" fill="#A9B7F2"/>
<path d="M731.402 413.322H718.75V400.709H731.402V413.322Z" fill="#A9B7F2"/>
<path d="M669.726 435.654H657.129V423.041H669.726V435.654Z" fill="#A9B7F2"/>
<path d="M700.537 435.654H687.939V423.041H700.537V435.654Z" fill="#A9B7F2"/>
<path d="M731.402 435.654H718.75V423.041H731.402V435.654Z" fill="#A9B7F2"/>
<path d="M669.726 457.985H657.129V445.317H669.726V457.985Z" fill="#A9B7F2"/>
<path d="M700.537 457.985H687.939V445.317H700.537V457.985Z" fill="#A9B7F2"/>
<path d="M731.402 457.985H718.75V445.317H731.402V457.985Z" fill="#A9B7F2"/>
<path d="M669.726 480.262H657.129V467.649H669.726V480.262Z" fill="#A9B7F2"/>
<path d="M700.537 480.262H687.939V467.649H700.537V480.262Z" fill="#A9B7F2"/>
<path d="M731.402 480.262H718.75V467.649H731.402V480.262Z" fill="#A9B7F2"/>
<path d="M227.678 478.023H113.213V188.588H227.678V478.023Z" fill="#C9D2FC"/>
<path d="M132.953 384.875H125.264V235.162H132.953V384.875Z" fill="#A9B7F2"/>
<path d="M153.623 384.875H145.934V235.162H153.623V384.875Z" fill="#A9B7F2"/>
<path d="M174.291 384.875H166.602V235.162H174.291V384.875Z" fill="#A9B7F2"/>
<path d="M194.959 384.875H187.27V235.162H194.959V384.875Z" fill="#A9B7F2"/>
<path d="M215.681 384.875H207.938V235.162H215.681V384.875Z" fill="#A9B7F2"/>
<path d="M227.678 220.638H113.213V204.641H227.678V220.638Z" fill="#E9EDFD"/>
</g>
<path d="M36.211 230.03C36.211 233.306 33.5934 235.981 30.3759 235.981C27.1039 235.981 24.4863 233.306 24.4863 230.03C24.4863 226.699 27.1039 224.024 30.3759 224.024C33.5934 224.024 36.211 226.699 36.211 230.03Z" stroke="#A9B7F2" stroke-width="2.6" stroke-miterlimit="10"/>
<path d="M732.873 102.102C732.873 105.432 730.255 108.053 727.038 108.053C723.766 108.053 721.148 105.432 721.148 102.102C721.148 98.8258 723.766 96.1504 727.038 96.1504C730.255 96.1504 732.873 98.8258 732.873 102.102Z" stroke="#A9B7F2" stroke-width="2.6" stroke-miterlimit="10"/>
<path d="M457.044 164.291C457.044 167.731 454.317 170.461 450.936 170.461C447.609 170.461 444.883 167.731 444.883 164.291C444.883 160.906 447.609 158.122 450.936 158.122C454.317 158.122 457.044 160.906 457.044 164.291Z" stroke="#A9B7F2" stroke-width="2.6" stroke-miterlimit="10"/>
<path d="M108.086 82.7734H150.786" stroke="#A9B7F2" stroke-width="2" stroke-miterlimit="10"/>
<path d="M739.254 214.414H776.282" stroke="#A9B7F2" stroke-width="2" stroke-miterlimit="10"/>
<path d="M428.414 55.0913H492.927" stroke="#A9B7F2" stroke-width="2" stroke-miterlimit="10"/>
<path d="M539.881 475.785H662.145C677.741 475.785 690.393 463.117 690.393 447.447V121.649C690.393 106.033 677.741 93.3662 662.145 93.3662H539.881C524.23 93.3662 511.578 106.033 511.578 121.649V447.447C511.578 463.117 524.23 475.785 539.881 475.785Z" fill="#1F275F"/>
<path d="M521.283 475.785H643.547C659.198 475.785 671.85 463.117 671.85 447.447V121.649C671.85 106.033 659.198 93.3662 643.547 93.3662H521.283C505.687 93.3662 493.035 106.033 493.035 121.649V447.447C493.035 463.117 505.687 475.785 521.283 475.785Z" fill="#537EEF"/>
<path d="M521.121 467.212H643.766C654.509 467.212 663.18 458.476 663.18 447.72V123.232C663.18 112.476 654.509 103.74 643.766 103.74H521.121C510.378 103.74 501.707 112.476 501.707 123.232V447.72C501.707 458.476 510.378 467.212 521.121 467.212Z" fill="white"/>
<path d="M552.477 113.295H611.101C613.991 113.295 616.336 110.947 616.336 108.054V99.4814H547.242V108.054C547.242 110.947 549.587 113.295 552.477 113.295Z" fill="#537EEF"/>
<path d="M565.893 104.504H592.996" stroke="#312220" stroke-width="1.7" stroke-linecap="round" stroke-linejoin="round"/>
<mask id="mask1_208_5515" style="mask-type:luminance" maskUnits="userSpaceOnUse" x="510" y="168" width="145" height="109">
<path d="M654.481 276.675H510.529V168.73H654.481V276.675Z" fill="white"/>
</mask>
<g mask="url(#mask1_208_5515)">
<path d="M663.561 177.013L484.691 312.257" stroke="white" stroke-width="10.3" stroke-miterlimit="10"/>
<path d="M706.098 199.345L527.229 334.589" stroke="white" stroke-width="10.3" stroke-miterlimit="10"/>
<path d="M620.153 155.392L462.061 274.911" stroke="white" stroke-width="10.3" stroke-miterlimit="10"/>
<path d="M520.738 158.395L586.996 255.91C589.232 259.241 588.632 263.718 585.633 266.284L564.365 284.684C554.658 293.093 553.295 302.211 561.311 312.203L595.667 360.633" stroke="white" stroke-width="10.3" stroke-miterlimit="10"/>
<path d="M654.454 276.658H510.541V168.714H654.454V276.658Z" fill="#D8DFFD"/>
</g>
<path d="M631.114 158.067C631.114 144.308 616.663 133.988 602.157 141.468C599.867 142.67 597.031 145.454 595.777 147.693C591.959 154.572 592.341 161.343 595.068 166.748H595.013L595.177 167.021C595.25 167.13 595.322 167.258 595.395 167.403L612.028 197.543L628.715 167.349C628.788 167.24 628.842 167.13 628.879 167.021L628.988 166.912C630.351 164.237 631.114 161.234 631.114 158.067Z" fill="#EAA947"/>
<path d="M620.48 157.849C620.48 162.544 616.717 166.312 612.027 166.312C607.392 166.312 603.574 162.544 603.574 157.849C603.574 153.208 607.392 149.386 612.027 149.386C616.717 149.386 620.48 153.208 620.48 157.849Z" fill="white"/>
<path d="M439.103 384.82H419.362C399.948 384.82 384.242 405.241 384.242 430.357C384.242 455.527 399.948 475.893 419.362 475.893H439.103C458.517 475.893 474.277 455.527 474.277 430.357C474.277 405.241 458.517 384.82 439.103 384.82Z" fill="black"/>
<path d="M685.593 384.82H665.797C646.438 384.82 630.678 405.241 630.678 430.357C630.678 455.527 646.438 475.893 665.797 475.893H685.593C705.007 475.893 720.712 455.527 720.712 430.357C720.712 405.241 705.007 384.82 685.593 384.82Z" fill="black"/>
<path d="M591.74 373.792H446.027V439.039H591.74V373.792Z" fill="black"/>
<path d="M560.003 431.285C560.003 455.855 544.625 475.784 525.702 475.784C506.724 475.784 491.346 455.855 491.346 431.285C491.346 406.77 506.724 386.841 525.702 386.841C544.625 386.841 560.003 406.77 560.003 431.285Z" fill="black"/>
<path d="M506.396 475.784H525.701L545.388 456.019L525.701 386.841H506.396V475.784Z" fill="black"/>
<path d="M540.699 431.285C540.699 455.855 525.32 475.784 506.397 475.784C487.419 475.784 472.041 455.855 472.041 431.285C472.041 406.77 487.419 386.841 506.397 386.841C525.32 386.841 540.699 406.77 540.699 431.285Z" fill="#414042"/>
<mask id="mask2_208_5515" style="mask-type:luminance" maskUnits="userSpaceOnUse" x="487" y="407" width="34" height="46">
<path d="M520.565 430.362C520.565 442.789 513.148 452.858 503.997 452.858C494.852 452.858 487.436 442.789 487.436 430.362C487.436 417.941 494.852 407.867 503.997 407.867C513.148 407.867 520.565 417.941 520.565 430.362Z" fill="white"/>
</mask>
<g mask="url(#mask2_208_5515)">
<path d="M528.264 430.357C528.264 442.805 520.847 452.852 511.686 452.852C502.579 452.852 495.162 442.805 495.162 430.357C495.162 417.962 502.579 407.861 511.686 407.861C520.847 407.861 528.264 417.962 528.264 430.357Z" fill="white"/>
<path d="M520.574 430.357C520.574 442.805 513.158 452.852 503.996 452.852C494.835 452.852 487.418 442.805 487.418 430.357C487.418 417.962 494.835 407.861 503.996 407.861C513.158 407.861 520.574 417.962 520.574 430.357Z" fill="#B8B8C2"/>
</g>
<path d="M345.25 373.792H199.592V439.039H345.25V373.792Z" fill="black"/>
<path d="M313.513 431.285C313.513 455.855 298.189 475.784 279.212 475.784C260.289 475.784 244.91 455.855 244.91 431.285C244.91 406.77 260.289 386.841 279.212 386.841C298.189 386.841 313.513 406.77 313.513 431.285Z" fill="black"/>
<path d="M259.906 475.784H279.211L298.952 456.019L279.211 386.841H259.906V475.784Z" fill="black"/>
<path d="M294.206 431.285C294.206 455.855 278.883 475.784 259.905 475.784C240.982 475.784 225.604 455.855 225.604 431.285C225.604 406.77 240.982 386.841 259.905 386.841C278.883 386.841 294.206 406.77 294.206 431.285Z" fill="#414042"/>
<mask id="mask3_208_5515" style="mask-type:luminance" maskUnits="userSpaceOnUse" x="240" y="407" width="35" height="46">
<path d="M274.107 430.362C274.107 442.789 266.691 452.858 257.54 452.858C248.389 452.858 240.973 442.789 240.973 430.362C240.973 417.941 248.389 407.867 257.54 407.867C266.691 407.867 274.107 417.941 274.107 430.362Z" fill="white"/>
</mask>
<g mask="url(#mask3_208_5515)">
<path d="M281.83 430.357C281.83 442.805 274.414 452.852 265.252 452.852C256.09 452.852 248.674 442.805 248.674 430.357C248.674 417.962 256.09 407.861 265.252 407.861C274.414 407.861 281.83 417.962 281.83 430.357Z" fill="white"/>
<path d="M274.086 430.357C274.086 442.805 266.67 452.852 257.563 452.852C248.401 452.852 240.984 442.805 240.984 430.357C240.984 417.962 248.401 407.861 257.563 407.861C266.67 407.861 274.086 417.962 274.086 430.357Z" fill="#B8B8C2"/>
</g>
<mask id="mask4_208_5515" style="mask-type:luminance" maskUnits="userSpaceOnUse" x="176" y="291" width="591" height="149">
<path d="M176.426 439.055V361.807C176.426 350.794 184.497 341.403 195.398 339.885C204.963 338.558 217.211 337.395 229.885 337.63C229.885 337.63 303.129 292.552 329.992 292.552L498.254 291.689C520.782 291.378 543.053 296.461 563.22 306.508L638.159 343.843L737.792 365.683C737.792 365.683 758.433 371.291 762.85 384.722C767.273 398.154 765.8 412.918 765.8 412.918H546.969C546.969 412.918 537.109 381.867 505.551 381.867C473.992 381.867 465.447 419.967 467.421 439.055H302.087C302.087 439.055 302.741 382.445 260.009 384.422C217.277 386.393 220.565 439.055 220.565 439.055H176.426Z" fill="white"/>
</mask>
<g mask="url(#mask4_208_5515)">
<path d="M463.805 326.344L580.451 388.206L806.438 387.933L607.936 291.673L572.108 335.899L463.805 326.344Z" fill="#F0C98C"/>
<path d="M176.414 439.038V361.834C176.414 350.804 184.485 341.413 195.392 339.884C204.935 338.574 217.205 337.373 229.911 337.646C229.911 337.646 303.15 292.546 329.98 292.546L498.27 291.673C520.792 291.4 543.042 296.477 563.219 306.524L638.148 343.87L737.78 365.71C737.78 365.71 758.448 371.279 762.866 384.711C767.283 398.143 765.81 412.939 765.81 412.939H546.968C546.968 412.939 537.098 381.872 505.577 381.872C474.002 381.872 465.441 419.983 467.404 439.038H302.059C302.059 439.038 302.768 382.472 260.014 384.438C217.26 386.404 220.586 439.038 220.586 439.038H176.414Z" fill="#EAA947"/>
</g>
<path d="M178.05 412.939C172.27 412.939 167.635 417.58 167.58 423.368V428.61C167.58 434.397 172.27 439.038 178.05 439.038H220.586C220.586 439.038 220.368 424.788 224.131 412.939H178.05Z" fill="#CF8127"/>
<path d="M433.868 270.379H368.591C363.138 270.379 358.721 274.801 358.721 280.261V292.546H443.738V280.261C443.738 274.801 439.321 270.379 433.868 270.379Z" fill="black"/>
<path d="M446.573 270.379H381.296C375.843 270.379 371.426 274.801 371.426 280.261V292.546H456.443V280.261C456.443 274.801 452.026 270.379 446.573 270.379Z" fill="#CF8127"/>
<path d="M394.82 277.259H390.73V275.348H401.092V277.259H397.056V287.578H394.82V277.259Z" fill="black"/>
<path fill-rule="evenodd" clip-rule="evenodd" d="M411.453 284.739H405.345L404.146 287.578H401.801L407.309 275.348H409.545L415.052 287.578H412.653L411.453 284.739ZM410.744 282.992L408.399 277.641L406.163 282.992H410.744Z" fill="black"/>
<path d="M424.978 287.578L421.706 282.937L418.379 287.578H415.816L420.343 281.354L416.089 275.348H418.652L421.761 279.716L424.869 275.348H427.323L423.015 281.244L427.596 287.578H424.978Z" fill="black"/>
<path d="M430.322 275.348H432.558V287.578H430.322V275.348Z" fill="black"/>
<mask id="mask5_208_5515" style="mask-type:luminance" maskUnits="userSpaceOnUse" x="249" y="298" width="220" height="49">
<path d="M466.774 340.742L400.281 303.292C394.631 300.114 388.262 298.443 381.783 298.443H342.187C331.94 298.443 321.9 301.343 313.23 306.803L250.053 342.697C248.253 343.723 248.978 346.48 251.051 346.48H465.274C468.42 346.48 469.517 342.287 466.774 340.742Z" fill="white"/>
</mask>
<g mask="url(#mask5_208_5515)">
<path d="M251.182 296.205L387.624 373.792H442.594L306.151 296.205H251.182Z" fill="#5E5E5E"/>
<path d="M466.751 340.758L400.275 303.303C394.658 300.136 388.278 298.443 381.788 298.443H342.197C331.945 298.443 321.911 301.337 313.24 306.797L250.036 342.724C248.236 343.707 249 346.491 251.072 346.491H465.279C468.442 346.491 469.533 342.287 466.751 340.758Z" fill="black"/>
</g>
<path d="M249.654 344.253V371.116C249.654 371.116 307.678 359.432 313.513 425.989H446.029C446.029 425.989 442.484 360.906 466.97 345.017" stroke="black" stroke-width="1.6" stroke-linecap="round" stroke-linejoin="round"/>
<path d="M357.794 346.491C357.794 346.491 343.943 352.606 350.65 425.989" stroke="black" stroke-width="1.6" stroke-linecap="round" stroke-linejoin="round"/>
<path d="M379.06 359.487H365.754C364.282 359.487 363.137 358.285 363.137 356.866V355.61C363.137 354.136 364.282 352.989 365.754 352.989H379.06C380.533 352.989 381.733 354.136 381.733 355.61V356.866C381.733 358.285 380.533 359.487 379.06 359.487Z" fill="black"/>
<path d="M279.047 359.487H265.741C264.323 359.487 263.123 358.285 263.123 356.866V355.61C263.123 354.136 264.323 352.989 265.741 352.989H279.047C280.519 352.989 281.719 354.136 281.719 355.61V356.866C281.719 358.285 280.519 359.487 279.047 359.487Z" fill="black"/>
<path d="M425.579 306.033L501.653 346.491H631.06L544.025 303.849C536.717 300.3 528.701 298.443 520.63 298.443H427.433C423.234 298.443 421.87 304.067 425.579 306.033Z" fill="black"/>
<path d="M520.574 352.989H640.329" stroke="black" stroke-width="1.6" stroke-linecap="round" stroke-linejoin="round"/>
<path d="M450.227 298.443L534.699 346.491H562.892L478.42 298.443H450.227Z" fill="#5E5E5E"/>
<path d="M502.852 298.443L587.324 346.491H596.485L512.013 298.443H502.852Z" fill="#5E5E5E"/>
<path d="M752.941 439.038H557.385C551.604 439.038 546.969 434.397 546.969 428.61V412.939H765.811L765.647 426.371C765.647 433.36 759.976 439.038 752.941 439.038Z" fill="#CF8127"/>
<path d="M702.171 420.42H666.67V409.664H702.171V420.42Z" fill="white"/>
<path d="M624.57 388.206H729.22" stroke="black" stroke-width="1.6" stroke-linecap="round" stroke-linejoin="round"/>
<path d="M643.711 396.232H712.477" stroke="black" stroke-width="1.6" stroke-linecap="round" stroke-linejoin="round"/>
<path d="M643.711 404.204H712.477" stroke="black" stroke-width="1.6" stroke-linecap="round" stroke-linejoin="round"/>
<path d="M628.933 405.405H583.289C579.417 405.405 576.309 402.292 576.309 398.416V391.864C576.309 387.987 579.417 384.82 583.289 384.82H628.933C632.805 384.82 635.968 387.987 635.968 391.864V398.416C635.968 402.292 632.805 405.405 628.933 405.405Z" fill="white"/>
<path d="M762.921 384.82H728.293C724.421 384.82 721.312 387.987 721.312 391.864V398.416C721.312 402.292 724.421 405.405 728.293 405.405H766.03C766.357 391.591 763.412 385.694 762.921 384.82Z" fill="white"/>
<path d="M576.309 398.416H635.968" stroke="black" stroke-width="1.6" stroke-linecap="round" stroke-linejoin="round"/>
<path d="M721.312 398.416H765.812" stroke="black" stroke-width="1.6" stroke-linecap="round" stroke-linejoin="round"/>
<path d="M352.448 102.32C352.448 81.9544 331.017 66.6118 309.476 77.7502C306.149 79.4974 301.896 83.647 300.096 86.9776C294.479 97.1332 294.97 107.234 299.006 115.151H298.951L299.224 115.588C299.333 115.77 299.442 115.952 299.551 116.134L324.2 160.797L348.904 116.079C348.976 115.934 349.049 115.788 349.122 115.643L349.285 115.424H349.231C351.303 111.493 352.448 107.07 352.448 102.32Z" fill="#EAA947"/>
<path d="M336.689 102.047C336.689 108.927 331.127 114.551 324.201 114.551C317.275 114.551 311.658 108.927 311.658 102.047C311.658 95.1131 317.275 89.4893 324.201 89.4893C331.127 89.4893 336.689 95.1131 336.689 102.047Z" fill="white"/>
<path d="M220.805 453.726H238.419L267.595 469.341L217.479 468.741L220.805 453.726Z" fill="#101010"/>
<path d="M217.262 475.348L217.48 468.741L267.596 469.342L267.432 475.948L217.262 475.348Z" fill="white"/>
<path d="M250.636 459.459L244.855 461.042" stroke="white" stroke-width="2.9" stroke-linecap="round" stroke-linejoin="round"/>
<path d="M244.964 456.565L239.184 458.149" stroke="white" stroke-width="2.9" stroke-linecap="round" stroke-linejoin="round"/>
<path d="M240.328 428.828H222.332L220.805 453.726H238.801L240.328 428.828Z" fill="#EBB28B"/>
<path d="M252.052 265.192L240.982 445.7H215.951L220.259 265.192H252.052Z" fill="#98BDFC"/>
<path d="M180.287 453.726H197.902L227.077 469.341L176.906 468.741L180.287 453.726Z" fill="#101010"/>
<path d="M176.742 475.348L176.906 468.741L227.076 469.342L226.913 475.948L176.742 475.348Z" fill="white"/>
<path d="M210.116 459.459L204.336 461.042" stroke="white" stroke-width="2.9" stroke-linecap="round" stroke-linejoin="round"/>
<path d="M204.445 456.565L198.664 458.149" stroke="white" stroke-width="2.9" stroke-linecap="round" stroke-linejoin="round"/>
<path d="M201.555 428.828H183.559L180.287 453.726H198.229L201.555 428.828Z" fill="#EBB28B"/>
<path d="M199.046 265.192L174.561 445.7H201.936L237.547 265.192H199.046Z" fill="#98BDFC"/>
<path d="M217.916 364.782L231.877 293.911L242.074 287.25" stroke="#171717" stroke-width="1.3" stroke-linecap="round" stroke-linejoin="round"/>
<path d="M195.447 291.673L210.771 279.606" stroke="#171717" stroke-width="1.3" stroke-linecap="round" stroke-linejoin="round"/>
<path d="M256.797 196.614L284.609 233.196C287.717 236.691 287.881 241.823 285.1 245.481C281.555 250.122 274.738 250.505 270.648 246.355L240.71 211.684C236.62 207.534 236.456 200.873 240.382 196.56C244.8 191.7 252.434 191.755 256.797 196.614Z" fill="#EBB28B"/>
<path d="M243.164 182.691C243.164 182.691 256.743 184.439 267.159 204.641L251.18 223.86L243.164 182.691Z" fill="#537EEF"/>
<path d="M265.523 234.725L303.697 210.756L311.331 218.618L283.628 247.01L265.523 234.725Z" fill="#EBB28B"/>
<path d="M309.858 195.795L328.781 201.31C328.781 201.31 328.781 215.997 311.276 218.618C310.349 218.782 306.041 217.144 305.332 216.489L302.387 208.19C301.351 206.825 301.46 204.914 302.605 203.658L309.858 195.795Z" fill="#EBB28B"/>
<path d="M308.277 198.198L314.985 189.408C315.967 188.206 317.657 187.933 318.802 188.807C319.893 189.681 320.057 191.319 319.184 192.574L313.022 202.239L308.277 198.198Z" fill="#E9B0A0"/>
<path d="M316.348 205.242L324.419 197.27C325.509 196.178 327.145 196.069 328.127 197.052C329.054 197.98 328.945 199.563 328.018 200.71L320.329 209.555L316.348 205.242Z" fill="#E9B0A0"/>
<path d="M313.24 199.782L320.875 192.301C321.966 191.155 323.711 191.155 324.692 192.192C325.674 193.175 325.619 194.868 324.638 196.014L317.439 204.423L313.24 199.782Z" fill="#E9B0A0"/>
<path d="M326.055 176.74L329.055 176.904V196.724L318.475 213.322L315.258 213.049L320.929 192.192L326.055 176.74Z" fill="#36438D"/>
<path d="M308.331 204.204L317.165 212.558C317.983 213.54 319.51 213.54 320.328 212.503L339.578 188.479C340.015 187.878 340.015 187.005 339.524 186.404L330.253 177.559C329.599 176.685 328.29 176.685 327.636 177.559L308.331 201.747C307.731 202.457 307.731 203.494 308.331 204.204Z" fill="#050907"/>
<path d="M305.387 204.04L314.222 212.339C315.04 213.377 316.567 213.377 317.385 212.339L336.635 188.261C337.071 187.66 337.071 186.841 336.58 186.241L327.31 177.341C326.655 176.522 325.347 176.522 324.692 177.341L305.387 201.529C304.788 202.293 304.788 203.276 305.387 204.04Z" fill="white"/>
<path d="M304.46 210.865C303.424 210.374 300.806 207.699 301.297 203.604C301.897 198.198 304.678 194.103 304.678 194.103C305.605 192.356 306.641 191.537 308.168 191.755C309.804 191.974 310.84 193.721 310.513 194.922L308.823 198.69C308.823 198.69 310.731 203.44 306.805 210.702L304.46 210.865Z" fill="#EBB28B"/>
<path d="M217.533 178.815C217.533 178.815 207.227 181.217 199.865 184.93C195.284 187.278 194.738 192.356 195.338 197.488L199.047 265.192H252.053L255.761 199.781C256.307 192.574 252.053 185.585 245.291 183.238C237.656 180.671 232.857 178.16 228.767 177.941L217.533 178.815Z" fill="#537EEF"/>
<path d="M254.67 219.656L255.761 199.781" stroke="#171717" stroke-width="1.3" stroke-linecap="round" stroke-linejoin="round"/>
<path d="M217.534 178.815L211.426 180.508C211.426 180.508 215.952 189.298 232.421 187.769C243.982 186.732 239.347 181.108 239.347 181.108L233.621 179.033L217.534 178.815Z" fill="#EBB28B"/>
<path d="M167.416 217.69L194.792 258.04L187.43 266.121L157.219 236.473L167.416 217.69Z" fill="#EBB28B"/>
<path d="M219.934 259.896L208.263 253.945L209.409 251.378C209.79 250.45 209.572 249.304 208.754 248.703C207.936 247.993 206.791 247.993 205.918 248.648L194.412 257.712L187.432 266.12C193.758 271.58 197.902 271.471 200.247 270.434C200.538 270.543 200.829 270.634 201.119 270.707L210.826 273.491C211.754 273.928 212.79 273.546 213.226 272.672C213.553 272.017 213.662 270.98 211.808 270.052L213.662 270.98C214.589 271.417 215.734 270.98 216.171 270.052C216.607 269.233 216.062 268.141 214.971 267.431L216.389 267.977C217.425 268.414 218.679 267.922 219.061 266.83C219.388 265.847 218.897 264.81 217.97 264.319L215.898 263.281L218.352 263.882C219.497 264.264 220.752 263.663 221.133 262.517C221.46 261.479 220.915 260.387 219.934 259.896Z" fill="#EBB28B"/>
<path d="M216.553 263.609L209.627 260.333" stroke="#171717" stroke-width="0.8" stroke-linecap="round" stroke-linejoin="round"/>
<path d="M214.698 267.267L207.99 264.482" stroke="#171717" stroke-width="0.8" stroke-linecap="round" stroke-linejoin="round"/>
<path d="M212.408 270.27L206.736 268.031" stroke="#171717" stroke-width="0.8" stroke-linecap="round" stroke-linejoin="round"/>
<path d="M205.808 206.606L171.016 236.636C167.744 239.967 162.618 240.458 158.8 237.838C154.001 234.562 153.183 227.791 157.055 223.478L189.775 191.428C193.702 187.114 200.3 186.568 204.881 190.226C210.007 194.321 210.443 201.965 205.808 206.606Z" fill="#EBB28B"/>
<path d="M207.391 181.818C207.391 181.818 189.231 185.367 174.344 204.313L190.104 224.897L212.735 208.681L207.391 181.818Z" fill="#537EEF"/>
<path d="M197.793 219.383L210.935 209.992" stroke="#171717" stroke-width="1.3" stroke-linecap="round" stroke-linejoin="round"/>
<path d="M245.673 121.977C245.673 121.977 251.835 127.491 246.709 139.776L238.311 123.178L245.673 121.977Z" fill="#1F275F"/>
<path d="M211.317 123.451C211.317 123.451 204.173 122.686 202.537 133.77C200.901 144.799 209.027 151.406 218.025 156.757L211.317 123.451Z" fill="#1F275F"/>
<path d="M246.817 137.592C246.817 149.222 237.601 158.667 226.258 158.667C214.915 158.667 205.699 149.222 205.699 137.592C205.699 125.962 214.915 116.571 226.258 116.571C237.601 116.571 246.817 125.962 246.817 137.592Z" fill="#1F275F"/>
<path d="M239.511 146.655C240.438 149.385 243.383 150.86 246.109 149.931C248.891 149.058 250.308 146.055 249.436 143.325C248.509 140.595 245.564 139.121 242.837 140.049C240.111 140.977 238.638 143.925 239.511 146.655Z" fill="#DD8161"/>
<path d="M233.676 158.777L234.003 181.49L217.098 178.706L218.297 146.109L233.676 158.777Z" fill="#EBB28B"/>
<path d="M233.839 170.297L221.951 158.667L234.221 160.797L233.839 170.297Z" fill="#171717"/>
<path d="M244.364 127.491C244.364 127.491 248.945 145.782 246.873 152.826C244.801 159.814 239.347 164.401 230.24 162.872C230.24 162.872 219.77 162.708 216.661 147.202C211.971 123.888 233.076 115.37 244.364 127.491Z" fill="#EBB28B"/>
<path d="M219.605 147.202C219.605 147.202 226.313 131.75 219.005 128.747C216.824 127.819 215.57 127.382 214.534 135.135C213.498 142.834 216.17 144.089 216.17 144.089L219.605 147.202Z" fill="#1F275F"/>
<path d="M210.335 148.949C211.262 151.788 214.316 153.317 217.152 152.334C219.933 151.406 221.46 148.348 220.533 145.509C219.606 142.724 216.497 141.196 213.716 142.124C210.88 143.052 209.353 146.11 210.335 148.949Z" fill="#EBB28B"/>
<path d="M212.953 145.727C212.953 145.727 216.88 144.471 218.025 148.785" stroke="#171717" stroke-width="0.8" stroke-linecap="round" stroke-linejoin="round"/>
<path d="M240.602 145.127L241.747 149.113C241.802 149.386 241.638 149.659 241.365 149.768L240.057 149.932" stroke="#1E0B07" stroke-width="0.7" stroke-linecap="round" stroke-linejoin="round"/>
<path d="M232.367 143.926C232.313 144.635 232.858 145.236 233.621 145.291C234.33 145.345 234.93 144.799 234.985 144.035C235.039 143.325 234.494 142.724 233.73 142.67C233.021 142.615 232.422 143.161 232.367 143.926Z" fill="#171717"/>
<path d="M243.274 143.598C243.219 144.253 243.71 144.854 244.419 144.908C245.073 144.908 245.619 144.417 245.673 143.762C245.728 143.106 245.237 142.506 244.528 142.451C243.874 142.451 243.328 142.943 243.274 143.598Z" fill="#171717"/>
<path d="M236.128 135.08L226.312 138.193C226.312 138.193 228.494 135.19 231.33 134.316C234.165 133.442 236.128 135.08 236.128 135.08Z" fill="#171717"/>
<path d="M241.637 134.862L246.817 136.5C246.817 136.5 245.945 134.316 244.418 133.824C242.946 133.333 241.637 134.862 241.637 134.862Z" fill="#171717"/>
<path d="M233.676 150.915C233.676 150.915 237.275 152.771 240.929 152.771C240.929 152.771 235.966 156.375 233.676 150.915Z" fill="white"/>
<path d="M216.824 128.911C216.824 128.911 222.278 133.606 235.802 130.876C249.326 128.146 249.871 118.974 248.235 115.752C248.235 115.752 243.273 119.629 235.093 117.499C230.512 116.353 220.26 112.039 214.152 116.626C212.025 118.264 210.826 120.885 211.316 123.451C211.698 125.471 213.061 127.764 216.824 128.911Z" fill="#1F275F"/>
<path d="M155.311 368.496H120.137V292.984C120.137 285.449 126.244 279.334 133.77 279.334H141.677C149.203 279.334 155.311 285.449 155.311 292.984V368.496Z" stroke="#101010" stroke-width="5.7" stroke-miterlimit="10"/>
<path d="M127.881 467.758C127.881 472.29 124.228 475.948 119.701 475.948C115.175 475.948 111.521 472.29 111.521 467.758C111.521 463.227 115.175 459.568 119.701 459.568C124.228 459.568 127.881 463.227 127.881 467.758Z" fill="#101010"/>
<path d="M163.872 467.758C163.872 472.29 160.218 475.948 155.746 475.948C151.22 475.948 147.566 472.29 147.566 467.758C147.566 463.227 151.22 459.568 155.746 459.568C160.218 459.568 163.872 463.227 163.872 467.758Z" fill="#101010"/>
<path d="M165.672 465.847H109.776C101.814 465.847 95.3242 459.35 95.3242 451.378V357.03C95.3242 349.003 101.814 342.561 109.776 342.561H165.672C173.634 342.561 180.069 349.003 180.069 357.03V451.378C180.069 459.35 173.634 465.847 165.672 465.847Z" fill="#537EEF"/>
<path d="M112.993 447.283H109.885V362.053H112.993V447.283Z" stroke="#171717" stroke-width="1.2" stroke-linecap="round" stroke-linejoin="round"/>
<path d="M129.407 447.283H126.354V362.053H129.407V447.283Z" stroke="#171717" stroke-width="1.2" stroke-linecap="round" stroke-linejoin="round"/>
<path d="M145.876 447.283H142.768V362.053H145.876V447.283Z" stroke="#171717" stroke-width="1.2" stroke-linecap="round" stroke-linejoin="round"/>
<path d="M162.347 447.283H159.238V362.053H162.347V447.283Z" stroke="#171717" stroke-width="1.2" stroke-linecap="round" stroke-linejoin="round"/>
<path d="M42.1543 475.894H779.118" stroke="black" stroke-width="2" stroke-linecap="round" stroke-linejoin="round"/>
</svg>
