<?xml version="1.0" standalone="no"?>
<!DOCTYPE svg PUBLIC "-//W3C//DTD SVG 20010904//EN"
 "http://www.w3.org/TR/2001/REC-SVG-20010904/DTD/svg10.dtd">
<svg version="1.0" xmlns="http://www.w3.org/2000/svg"
 width="294.000000pt" height="125.000000pt" viewBox="0 0 294.000000 125.000000"
 preserveAspectRatio="xMidYMid meet">

<g transform="translate(0.000000,125.000000) scale(0.100000,-0.100000)"
fill="#000000" stroke="none">
<path d="M1747 893 c-12 -11 -7 -137 6 -163 13 -26 47 -40 47 -20 0 6 -7 18
-15 26 -8 9 -15 29 -15 45 0 17 6 32 15 35 8 4 15 12 15 19 0 7 -7 15 -15 19
-8 3 -15 15 -15 26 0 20 -11 26 -23 13z"/>
<path d="M613 869 c-64 -31 -103 -97 -103 -171 0 -175 182 -268 323 -164 31
23 77 108 77 143 0 23 0 23 -42 -7 -29 -21 -53 -30 -80 -30 -40 0 -78 14 -78
29 0 4 29 28 65 52 69 46 85 74 67 113 -25 55 -151 74 -229 35z"/>
<path d="M1099 831 c-49 -39 -18 -131 45 -131 27 0 66 27 66 46 0 18 -14 18
-30 -1 -14 -16 -60 -21 -60 -5 0 5 20 18 45 29 50 22 57 42 23 65 -30 21 -61
20 -89 -3z m61 -25 c0 -7 -10 -16 -22 -20 -36 -9 -39 -7 -28 14 12 23 50 27
50 6z"/>
<path d="M1266 829 c-56 -44 -17 -135 56 -127 30 3 33 0 36 -25 2 -16 8 -26
15 -24 8 2 12 29 12 75 0 61 -3 74 -24 96 -30 31 -59 33 -95 5z m78 -31 c13
-19 14 -25 2 -43 -26 -39 -76 -26 -76 19 0 46 48 62 74 24z"/>
<path d="M1419 838 c-4 -60 4 -105 23 -120 48 -42 101 3 96 81 -4 59 -22 55
-28 -5 -10 -91 -70 -80 -70 13 0 24 -4 43 -10 43 -5 0 -10 -6 -11 -12z"/>
<path d="M1592 827 c-27 -29 -28 -67 -3 -98 16 -20 29 -24 70 -24 28 0 53 5
55 10 8 23 -12 109 -30 122 -27 20 -68 16 -92 -10z m83 -27 c17 -18 17 -21 1
-45 -9 -14 -21 -25 -27 -25 -24 0 -49 22 -49 43 0 46 43 62 75 27z"/>
<path d="M1846 828 c-30 -42 -19 -91 25 -113 49 -26 99 7 99 65 0 46 -25 70
-73 70 -26 0 -40 -6 -51 -22z m92 -46 c3 -26 -1 -34 -20 -41 -30 -11 -58 4
-58 32 0 31 20 48 50 45 20 -2 26 -9 28 -36z"/>
<path d="M2016 834 c-20 -20 -23 -128 -3 -122 6 3 13 25 15 51 2 34 8 50 23
57 10 6 19 15 19 20 0 16 -37 12 -54 -6z"/>
<path d="M950 805 c-7 -8 -22 -15 -33 -15 -20 0 -20 -1 -2 -13 12 -9 15 -19
10 -28 -7 -11 -6 -12 6 -2 11 9 19 9 26 2 7 -7 10 2 9 30 0 23 -1 41 -2 41 -1
0 -7 -7 -14 -15z"/>
</g>
</svg>
