<svg width="951" height="545" viewBox="0 0 951 545" fill="none" xmlns="http://www.w3.org/2000/svg">
<path d="M180.881 468.876V534.136H212.517V468.876H180.881Z" fill="#DCEAF9"/>
<path d="M683.483 534.105V285.311H646.521V256.757H637.867V207.709H591.49V256.757H548.092V189.53L500.257 171.415V228.744H489.321V152.411L441.485 168.274V282.931H380.938V350.634H358.336V367.703H306.38V338.325H276.55V258.502H239.715V405.869H202.848V534.105H683.483Z" fill="#E9EDFD"/>
<path d="M481.523 186.453H449.252V174.619H481.523V186.453Z" fill="#C9D2FC"/>
<path d="M481.523 208.693H449.252V196.859H481.523V208.693Z" fill="#C9D2FC"/>
<path d="M481.523 228.68H449.252V216.846H481.523V228.68Z" fill="#C9D2FC"/>
<path d="M239.715 312.849V331.091H276.899V312.849H239.715Z" fill="#C9D2FC"/>
<path d="M239.715 387.151H276.899V368.908H239.715V387.151Z" fill="#C9D2FC"/>
<path d="M239.715 414.752H276.899V396.478H239.715V414.752Z" fill="#C9D2FC"/>
<path d="M276.899 443.623H239.715V425.349H276.899V443.623Z" fill="#C9D2FC"/>
<path d="M239.715 471.89H276.899V453.616H239.715V471.89Z" fill="#C9D2FC"/>
<path d="M276.899 500.76H239.715V482.486H276.899V500.76Z" fill="#C9D2FC"/>
<path d="M541.119 216.846H507.168V228.68H541.119V216.846Z" fill="#C9D2FC"/>
<path d="M541.119 197.049H507.168V208.883H541.119V197.049Z" fill="#C9D2FC"/>
<path d="M448.428 236.262V248.096H541.119V236.262H448.428Z" fill="#C9D2FC"/>
<path d="M448.428 265.863H541.119V254.029H448.428V265.863Z" fill="#C9D2FC"/>
<path d="M448.428 283.09H541.119V271.7H448.428V283.09Z" fill="#C9D2FC"/>
<path d="M239.715 359.581H276.899V341.307H239.715V359.581Z" fill="#C9D2FC"/>
<path d="M390.83 306.027H398.945V294.574H390.83V306.027Z" fill="#C9D2FC"/>
<path d="M406.014 306.027H414.129V294.574H406.014V306.027Z" fill="#C9D2FC"/>
<path d="M420.85 306.027H428.965V294.574H420.85V306.027Z" fill="#C9D2FC"/>
<path d="M434.893 306.027H443.008V294.574H434.893V306.027Z" fill="#C9D2FC"/>
<path d="M449.221 306.027H457.336V294.574H449.221V306.027Z" fill="#C9D2FC"/>
<path d="M463.74 306.027H471.855V294.574H463.74V306.027Z" fill="#C9D2FC"/>
<path d="M478.893 306.027H487.008V294.574H478.893V306.027Z" fill="#C9D2FC"/>
<path d="M493.727 306.027H501.842V294.574H493.727V306.027Z" fill="#C9D2FC"/>
<path d="M507.803 306.027H515.918V294.574H507.803V306.027Z" fill="#C9D2FC"/>
<path d="M522.131 306.027H530.246V294.574H522.131V306.027Z" fill="#C9D2FC"/>
<path d="M537.061 306.027H545.176V294.574H537.061V306.027Z" fill="#C9D2FC"/>
<path d="M552.246 306.027H560.361V294.574H552.246V306.027Z" fill="#C9D2FC"/>
<path d="M567.082 306.027H575.197V294.574H567.082V306.027Z" fill="#C9D2FC"/>
<path d="M581.125 306.027H589.24V294.574H581.125V306.027Z" fill="#C9D2FC"/>
<path d="M595.484 306.027H603.6V294.574H595.484V306.027Z" fill="#C9D2FC"/>
<path d="M609.971 306.027H618.086V294.574H609.971V306.027Z" fill="#C9D2FC"/>
<path d="M625.156 306.027H633.271V294.574H625.156V306.027Z" fill="#C9D2FC"/>
<path d="M639.992 306.027H648.076V294.574H639.992V306.027Z" fill="#C9D2FC"/>
<path d="M654.035 306.027H662.15V294.574H654.035V306.027Z" fill="#C9D2FC"/>
<path d="M668.363 294.574V306.027H676.479V294.574H668.363Z" fill="#C9D2FC"/>
<path d="M390.83 326.205H398.945V314.784H390.83V326.205Z" fill="#C9D2FC"/>
<path d="M406.014 326.205H414.129V314.784H406.014V326.205Z" fill="#C9D2FC"/>
<path d="M420.85 326.205H428.965V314.784H420.85V326.205Z" fill="#C9D2FC"/>
<path d="M434.893 326.205H443.008V314.784H434.893V326.205Z" fill="#C9D2FC"/>
<path d="M449.221 326.205H457.336V314.784H449.221V326.205Z" fill="#C9D2FC"/>
<path d="M463.74 326.205H471.855V314.784H463.74V326.205Z" fill="#C9D2FC"/>
<path d="M478.893 326.205H487.008V314.784H478.893V326.205Z" fill="#C9D2FC"/>
<path d="M493.727 326.205H501.842V314.784H493.727V326.205Z" fill="#C9D2FC"/>
<path d="M507.803 326.205H515.918V314.784H507.803V326.205Z" fill="#C9D2FC"/>
<path d="M522.131 326.205H530.246V314.784H522.131V326.205Z" fill="#C9D2FC"/>
<path d="M537.061 326.205H545.176V314.784H537.061V326.205Z" fill="#C9D2FC"/>
<path d="M552.246 326.205H560.361V314.784H552.246V326.205Z" fill="#C9D2FC"/>
<path d="M567.082 326.205H575.197V314.784H567.082V326.205Z" fill="#C9D2FC"/>
<path d="M581.125 326.205H589.24V314.784H581.125V326.205Z" fill="#C9D2FC"/>
<path d="M595.484 326.205H603.6V314.784H595.484V326.205Z" fill="#C9D2FC"/>
<path d="M609.971 326.205H618.086V314.784H609.971V326.205Z" fill="#C9D2FC"/>
<path d="M625.156 326.205H633.271V314.784H625.156V326.205Z" fill="#C9D2FC"/>
<path d="M639.992 326.205H648.076V314.784H639.992V326.205Z" fill="#C9D2FC"/>
<path d="M654.035 326.205H662.15V314.784H654.035V326.205Z" fill="#C9D2FC"/>
<path d="M668.363 326.205H676.479V314.784H668.363V326.205Z" fill="#C9D2FC"/>
<path d="M390.83 346.097H398.945V334.676H390.83V346.097Z" fill="#C9D2FC"/>
<path d="M406.014 346.097H414.129V334.676H406.014V346.097Z" fill="#C9D2FC"/>
<path d="M420.85 346.097H428.965V334.676H420.85V346.097Z" fill="#C9D2FC"/>
<path d="M434.893 346.097H443.008V334.676H434.893V346.097Z" fill="#C9D2FC"/>
<path d="M449.221 346.097H457.336V334.676H449.221V346.097Z" fill="#C9D2FC"/>
<path d="M463.74 346.097H471.855V334.676H463.74V346.097Z" fill="#C9D2FC"/>
<path d="M478.893 346.097H487.008V334.676H478.893V346.097Z" fill="#C9D2FC"/>
<path d="M493.727 346.097H501.842V334.676H493.727V346.097Z" fill="#C9D2FC"/>
<path d="M507.803 346.097H515.918V334.676H507.803V346.097Z" fill="#C9D2FC"/>
<path d="M522.131 346.097H530.246V334.676H522.131V346.097Z" fill="#C9D2FC"/>
<path d="M537.061 346.097H545.176V334.676H537.061V346.097Z" fill="#C9D2FC"/>
<path d="M552.246 346.097H560.361V334.676H552.246V346.097Z" fill="#C9D2FC"/>
<path d="M567.082 346.097H575.197V334.676H567.082V346.097Z" fill="#C9D2FC"/>
<path d="M581.125 346.097H589.24V334.676H581.125V346.097Z" fill="#C9D2FC"/>
<path d="M595.484 346.097H603.6V334.676H595.484V346.097Z" fill="#C9D2FC"/>
<path d="M609.971 346.097H618.086V334.676H609.971V346.097Z" fill="#C9D2FC"/>
<path d="M625.156 346.097H633.271V334.676H625.156V346.097Z" fill="#C9D2FC"/>
<path d="M639.992 346.097H648.076V334.676H639.992V346.097Z" fill="#C9D2FC"/>
<path d="M654.035 346.097H662.15V334.676H654.035V346.097Z" fill="#C9D2FC"/>
<path d="M668.363 346.097H676.479V334.676H668.363V346.097Z" fill="#C9D2FC"/>
<path d="M390.83 367.227H398.945V355.806H390.83V367.227Z" fill="#C9D2FC"/>
<path d="M406.014 367.227H414.129V355.806H406.014V367.227Z" fill="#C9D2FC"/>
<path d="M420.85 367.227H428.965V355.806H420.85V367.227Z" fill="#C9D2FC"/>
<path d="M434.893 367.227H443.008V355.806H434.893V367.227Z" fill="#C9D2FC"/>
<path d="M449.221 367.227H457.336V355.806H449.221V367.227Z" fill="#C9D2FC"/>
<path d="M463.74 367.227H471.855V355.806H463.74V367.227Z" fill="#C9D2FC"/>
<path d="M478.893 367.227H487.008V355.806H478.893V367.227Z" fill="#C9D2FC"/>
<path d="M493.727 367.227H501.842V355.806H493.727V367.227Z" fill="#C9D2FC"/>
<path d="M507.803 367.227H515.918V355.806H507.803V367.227Z" fill="#C9D2FC"/>
<path d="M522.131 367.227H530.246V355.806H522.131V367.227Z" fill="#C9D2FC"/>
<path d="M537.061 367.227H545.176V355.806H537.061V367.227Z" fill="#C9D2FC"/>
<path d="M552.246 367.227H560.361V355.806H552.246V367.227Z" fill="#C9D2FC"/>
<path d="M567.082 367.227H575.197V355.806H567.082V367.227Z" fill="#C9D2FC"/>
<path d="M581.125 367.227H589.24V355.806H581.125V367.227Z" fill="#C9D2FC"/>
<path d="M595.484 367.227H603.6V355.806H595.484V367.227Z" fill="#C9D2FC"/>
<path d="M609.971 367.227H618.086V355.806H609.971V367.227Z" fill="#C9D2FC"/>
<path d="M625.156 367.227H633.271V355.806H625.156V367.227Z" fill="#C9D2FC"/>
<path d="M639.992 367.227H648.076V355.806H639.992V367.227Z" fill="#C9D2FC"/>
<path d="M654.035 367.227H662.15V355.806H654.035V367.227Z" fill="#C9D2FC"/>
<path d="M668.363 367.227H676.479V355.806H668.363V367.227Z" fill="#C9D2FC"/>
<path d="M390.83 387.436H398.945V375.983H390.83V387.436Z" fill="#C9D2FC"/>
<path d="M406.014 387.436H414.129V375.983H406.014V387.436Z" fill="#C9D2FC"/>
<path d="M420.85 387.436H428.965V375.983H420.85V387.436Z" fill="#C9D2FC"/>
<path d="M434.893 387.436H443.008V375.983H434.893V387.436Z" fill="#C9D2FC"/>
<path d="M449.221 387.436H457.336V375.983H449.221V387.436Z" fill="#C9D2FC"/>
<path d="M463.74 387.436H471.855V375.983H463.74V387.436Z" fill="#C9D2FC"/>
<path d="M478.893 387.436H487.008V375.983H478.893V387.436Z" fill="#C9D2FC"/>
<path d="M493.727 387.436H501.842V375.983H493.727V387.436Z" fill="#C9D2FC"/>
<path d="M507.803 387.436H515.918V375.983H507.803V387.436Z" fill="#C9D2FC"/>
<path d="M522.131 387.436H530.246V375.983H522.131V387.436Z" fill="#C9D2FC"/>
<path d="M537.061 387.436H545.176V375.983H537.061V387.436Z" fill="#C9D2FC"/>
<path d="M552.246 387.436H560.361V375.983H552.246V387.436Z" fill="#C9D2FC"/>
<path d="M567.082 387.436H575.197V375.983H567.082V387.436Z" fill="#C9D2FC"/>
<path d="M581.125 387.436H589.24V375.983H581.125V387.436Z" fill="#C9D2FC"/>
<path d="M595.484 387.436H603.6V375.983H595.484V387.436Z" fill="#C9D2FC"/>
<path d="M609.971 387.436H618.086V375.983H609.971V387.436Z" fill="#C9D2FC"/>
<path d="M625.156 387.436H633.271V375.983H625.156V387.436Z" fill="#C9D2FC"/>
<path d="M654.035 387.436H662.15V375.983H654.035V387.436Z" fill="#C9D2FC"/>
<path d="M639.992 387.436H648.076V375.983H639.992V387.436Z" fill="#C9D2FC"/>
<path d="M668.363 387.436H676.479V375.983H668.363V387.436Z" fill="#C9D2FC"/>
<path d="M390.83 407.328H398.945V395.875H390.83V407.328Z" fill="#C9D2FC"/>
<path d="M406.014 407.328H414.129V395.875H406.014V407.328Z" fill="#C9D2FC"/>
<path d="M420.85 407.328H428.965V395.875H420.85V407.328Z" fill="#C9D2FC"/>
<path d="M434.893 407.328H443.008V395.875H434.893V407.328Z" fill="#C9D2FC"/>
<path d="M449.221 407.328H457.336V395.875H449.221V407.328Z" fill="#C9D2FC"/>
<path d="M463.74 407.328H471.855V395.875H463.74V407.328Z" fill="#C9D2FC"/>
<path d="M478.893 407.328H487.008V395.875H478.893V407.328Z" fill="#C9D2FC"/>
<path d="M493.727 407.328H501.842V395.875H493.727V407.328Z" fill="#C9D2FC"/>
<path d="M507.803 407.328H515.918V395.875H507.803V407.328Z" fill="#C9D2FC"/>
<path d="M522.131 407.328H530.246V395.875H522.131V407.328Z" fill="#C9D2FC"/>
<path d="M537.061 407.328H545.176V395.875H537.061V407.328Z" fill="#C9D2FC"/>
<path d="M552.246 407.328H560.361V395.875H552.246V407.328Z" fill="#C9D2FC"/>
<path d="M567.082 407.328H575.197V395.875H567.082V407.328Z" fill="#C9D2FC"/>
<path d="M581.125 407.328H589.24V395.875H581.125V407.328Z" fill="#C9D2FC"/>
<path d="M595.484 407.328H603.6V395.875H595.484V407.328Z" fill="#C9D2FC"/>
<path d="M609.971 407.328H618.086V395.875H609.971V407.328Z" fill="#C9D2FC"/>
<path d="M625.156 407.328H633.271V395.875H625.156V407.328Z" fill="#C9D2FC"/>
<path d="M654.035 407.328H662.15V395.875H654.035V407.328Z" fill="#C9D2FC"/>
<path d="M668.363 407.328H676.479V395.875H668.363V407.328Z" fill="#C9D2FC"/>
<path d="M744.506 373.255V495.463H762.543V373.255H744.506Z" fill="#C9D2FC"/>
<path d="M744.505 532.455H725.137V447.557H744.505V532.455Z" fill="#A9B7F2"/>
<path d="M319.568 338.325V314.53H320.551V338.325H333.928V367.703H306.381V338.325H319.568Z" fill="#C9D2FC"/>
<path d="M239.715 276.776V258.502H247.133V250.571H248.084V258.502H276.36H276.899H282.225V250.571H283.207V258.502H290.086V338.325H276.36V303.934H239.715V285.66H276.36V276.776H239.715Z" fill="#C9D2FC"/>
<path d="M641.006 391.053V494.067H744.506V373.255L641.006 391.053Z" fill="#E9EDFD"/>
<path d="M641.006 534.231H770.12V447.334H641.006V534.231Z" fill="#E9EDFD"/>
<path d="M641.006 424.048H770.12V395.812H641.006V424.048Z" fill="#C9D2FC"/>
<path d="M649.787 480.139H656.412V470.812H649.787V480.139Z" fill="#C9D2FC"/>
<path d="M662.182 480.139H668.839V470.812H662.182V480.139Z" fill="#C9D2FC"/>
<path d="M674.322 480.139H680.948V470.812H674.322V480.139Z" fill="#C9D2FC"/>
<path d="M685.797 480.139H692.454V470.812H685.797V480.139Z" fill="#C9D2FC"/>
<path d="M697.527 480.139H704.153V470.812H697.527V480.139Z" fill="#C9D2FC"/>
<path d="M709.383 480.139H716.008V470.812H709.383V480.139Z" fill="#C9D2FC"/>
<path d="M721.777 480.139H728.403V470.812H721.777V480.139Z" fill="#C9D2FC"/>
<path d="M733.887 480.139H740.544V470.812H733.887V480.139Z" fill="#C9D2FC"/>
<path d="M745.395 480.139H752.02V470.812H745.395V480.139Z" fill="#C9D2FC"/>
<path d="M757.123 470.812V480.139H763.748V470.812H757.123Z" fill="#C9D2FC"/>
<path d="M649.787 496.668H656.412V487.309H649.787V496.668Z" fill="#C9D2FC"/>
<path d="M662.182 496.668H668.839V487.309H662.182V496.668Z" fill="#C9D2FC"/>
<path d="M674.322 496.668H680.948V487.309H674.322V496.668Z" fill="#C9D2FC"/>
<path d="M685.797 496.668H692.454V487.309H685.797V496.668Z" fill="#C9D2FC"/>
<path d="M697.527 496.668H704.153V487.309H697.527V496.668Z" fill="#C9D2FC"/>
<path d="M709.383 496.668H716.008V487.309H709.383V496.668Z" fill="#C9D2FC"/>
<path d="M721.777 496.668H728.403V487.309H721.777V496.668Z" fill="#C9D2FC"/>
<path d="M733.887 496.668H740.544V487.309H733.887V496.668Z" fill="#C9D2FC"/>
<path d="M745.395 496.668H752.02V487.309H745.395V496.668Z" fill="#C9D2FC"/>
<path d="M757.123 496.668H763.748V487.309H757.123V496.668Z" fill="#C9D2FC"/>
<path d="M649.787 446.89H656.412V437.531H649.787V446.89Z" fill="#C9D2FC"/>
<path d="M662.182 446.89H668.839V437.531H662.182V446.89Z" fill="#C9D2FC"/>
<path d="M674.322 446.89H680.948V437.531H674.322V446.89Z" fill="#C9D2FC"/>
<path d="M685.797 446.89H692.454V437.531H685.797V446.89Z" fill="#C9D2FC"/>
<path d="M697.527 446.89H704.153V437.531H697.527V446.89Z" fill="#C9D2FC"/>
<path d="M709.383 446.89H716.008V437.531H709.383V446.89Z" fill="#C9D2FC"/>
<path d="M721.777 446.89H728.403V437.531H721.777V446.89Z" fill="#C9D2FC"/>
<path d="M733.887 446.89H740.544V437.531H733.887V446.89Z" fill="#C9D2FC"/>
<path d="M649.787 463.388H656.412V454.061H649.787V463.388Z" fill="#C9D2FC"/>
<path d="M662.182 463.388H668.839V454.061H662.182V463.388Z" fill="#C9D2FC"/>
<path d="M674.322 463.388H680.948V454.061H674.322V463.388Z" fill="#C9D2FC"/>
<path d="M685.797 463.388H692.454V454.061H685.797V463.388Z" fill="#C9D2FC"/>
<path d="M697.527 463.388H704.153V454.061H697.527V463.388Z" fill="#C9D2FC"/>
<path d="M709.383 463.388H716.008V454.061H709.383V463.388Z" fill="#C9D2FC"/>
<path d="M721.777 463.388H728.403V454.061H721.777V463.388Z" fill="#C9D2FC"/>
<path d="M733.887 463.388H740.544V454.061H733.887V463.388Z" fill="#C9D2FC"/>
<path d="M745.395 463.388H752.02V454.061H745.395V463.388Z" fill="#C9D2FC"/>
<path d="M757.123 463.388H763.748V454.061H757.123V463.388Z" fill="#C9D2FC"/>
<path d="M649.787 512.912H656.412V503.553H649.787V512.912Z" fill="#C9D2FC"/>
<path d="M662.182 512.912H668.839V503.553H662.182V512.912Z" fill="#C9D2FC"/>
<path d="M674.322 512.912H680.948V503.553H674.322V512.912Z" fill="#C9D2FC"/>
<path d="M685.797 512.912H692.454V503.553H685.797V512.912Z" fill="#C9D2FC"/>
<path d="M697.527 512.912H704.153V503.553H697.527V512.912Z" fill="#C9D2FC"/>
<path d="M709.383 512.912H716.008V503.553H709.383V512.912Z" fill="#C9D2FC"/>
<path d="M721.777 512.912H728.403V503.553H721.777V512.912Z" fill="#C9D2FC"/>
<path d="M733.887 512.912H740.544V503.553H733.887V512.912Z" fill="#C9D2FC"/>
<path d="M745.395 512.912H752.02V503.553H745.395V512.912Z" fill="#C9D2FC"/>
<path d="M757.123 512.912H763.748V503.553H757.123V512.912Z" fill="#C9D2FC"/>
<path d="M735.662 353.838V378.33H737.564V353.838H735.662Z" fill="#E9EDFD"/>
<path d="M650.865 413.388H656.413V403.743H650.865V413.388Z" fill="#E9EDFD"/>
<path d="M706.182 413.388H711.761V403.743H706.182V413.388Z" fill="#E9EDFD"/>
<path d="M750.18 403.743V413.388H755.759V403.743H750.18Z" fill="#E9EDFD"/>
<path d="M297.156 534.454H482.95V425.666H297.156V534.454Z" fill="#C9D2FC"/>
<path d="M413.24 451.649H423.131V436.516H413.24V451.649Z" fill="#E9EDFD"/>
<path d="M395.236 451.649H405.158V436.516H395.236V451.649Z" fill="#E9EDFD"/>
<path d="M377.77 451.649H387.692V436.516H377.77V451.649Z" fill="#E9EDFD"/>
<path d="M360.176 451.649H370.098V436.516H360.176V451.649Z" fill="#E9EDFD"/>
<path d="M342.709 451.649H352.631V436.516H342.709V451.649Z" fill="#E9EDFD"/>
<path d="M324.387 451.649H334.309V436.516H324.387V451.649Z" fill="#E9EDFD"/>
<path d="M306.92 451.649H316.842V436.516H306.92V451.649Z" fill="#E9EDFD"/>
<path d="M465.768 474.047H475.658V458.914H465.768V474.047Z" fill="#E9EDFD"/>
<path d="M448.301 474.047H458.191V458.914H448.301V474.047Z" fill="#E9EDFD"/>
<path d="M430.707 474.047H440.629V458.914H430.707V474.047Z" fill="#E9EDFD"/>
<path d="M413.24 474.047H423.131V458.914H413.24V474.047Z" fill="#E9EDFD"/>
<path d="M395.236 474.047H405.158V458.914H395.236V474.047Z" fill="#E9EDFD"/>
<path d="M377.77 474.047H387.692V458.914H377.77V474.047Z" fill="#E9EDFD"/>
<path d="M360.176 474.047H370.098V458.914H360.176V474.047Z" fill="#E9EDFD"/>
<path d="M342.709 474.047H352.631V458.914H342.709V474.047Z" fill="#E9EDFD"/>
<path d="M324.387 474.047H334.309V458.914H324.387V474.047Z" fill="#E9EDFD"/>
<path d="M306.92 474.047H316.842V458.914H306.92V474.047Z" fill="#E9EDFD"/>
<path d="M465.768 498.096H475.658V482.963H465.768V498.096Z" fill="#E9EDFD"/>
<path d="M448.301 498.096H458.191V482.963H448.301V498.096Z" fill="#E9EDFD"/>
<path d="M430.707 498.096H440.629V482.963H430.707V498.096Z" fill="#E9EDFD"/>
<path d="M413.24 498.096H423.131V482.963H413.24V498.096Z" fill="#E9EDFD"/>
<path d="M395.236 498.096H405.158V482.963H395.236V498.096Z" fill="#E9EDFD"/>
<path d="M377.77 498.096H387.692V482.963H377.77V498.096Z" fill="#E9EDFD"/>
<path d="M360.176 498.096H370.098V482.963H360.176V498.096Z" fill="#E9EDFD"/>
<path d="M342.709 498.096H352.631V482.963H342.709V498.096Z" fill="#E9EDFD"/>
<path d="M324.387 498.096H334.309V482.963H324.387V498.096Z" fill="#E9EDFD"/>
<path d="M306.92 498.096H316.842V482.963H306.92V498.096Z" fill="#E9EDFD"/>
<path d="M465.768 520.462H475.658V505.329H465.768V520.462Z" fill="#E9EDFD"/>
<path d="M448.301 520.462H458.191V505.329H448.301V520.462Z" fill="#E9EDFD"/>
<path d="M361.158 430.329H322.389V396.478L361.158 411.357V430.329Z" fill="#C9D2FC"/>
<path d="M552.277 534.454H641.006V437.849L552.277 468.591V534.454Z" fill="#C9D2FC"/>
<path d="M554.623 474.46H638.66V471.478H554.623V474.46Z" fill="#E9EDFD"/>
<path d="M554.623 484.073H638.66V481.059H554.623V484.073Z" fill="#E9EDFD"/>
<path d="M554.623 493.654H638.66V490.672H554.623V493.654Z" fill="#E9EDFD"/>
<path d="M554.623 503.235H638.66V500.253H554.623V503.235Z" fill="#E9EDFD"/>
<path d="M554.623 512.848H638.66V509.866H554.623V512.848Z" fill="#E9EDFD"/>
<path d="M554.623 522.429H638.66V519.447H554.623V522.429Z" fill="#E9EDFD"/>
<path d="M314.939 425.348H322.389V396.478H314.939V425.348Z" fill="#C9D2FC"/>
<path d="M345.689 420.907V410.977H330.568V420.907H345.689Z" fill="#E9EDFD"/>
<path d="M627.914 255.964H633.049V212.31H627.914V255.964Z" fill="#C9D2FC"/>
<path d="M617.707 255.964H622.842V212.31H617.707V255.964Z" fill="#C9D2FC"/>
<path d="M607.594 255.964H612.761V212.31H607.594V255.964Z" fill="#C9D2FC"/>
<path d="M597.164 255.964H602.299V212.31H597.164V255.964Z" fill="#C9D2FC"/>
<path d="M114.85 511.199H521.909L505.362 450.095H114.85V511.199Z" fill="black"/>
<path d="M300.262 390.291C300.283 390.291 300.293 390.302 300.293 390.323C300.293 390.323 300.283 390.312 300.262 390.291Z" fill="#163560"/>
<path d="M417.172 436.358C411.064 436.125 404.724 436.009 398.152 436.009C398.152 436.009 361.665 404.346 319.504 393.56C362.87 404.283 417.172 436.358 417.172 436.358Z" fill="black"/>
<path d="M86.9535 460.152V425.19C86.9535 425.19 127.942 420.494 152.731 411.516C210.108 390.418 240.952 390.006 293.035 390.006C332.597 390.006 372.666 416.529 389.689 429.314C395.395 433.597 402.369 435.977 409.533 436.135C472.109 437.499 510.783 449.999 529.993 458.438C538.996 462.404 544.797 471.351 544.797 481.186V492.956C546.096 492.956 547.142 494.003 547.142 495.304V514.815C547.142 516.116 546.096 517.163 544.797 517.163H518.074H507.454C511.163 510.532 513.192 502.855 513.002 494.669C512.399 471.351 493.379 452.379 470.08 451.84C445.385 451.3 425.193 471.192 425.193 495.78C425.193 503.553 427.19 510.85 430.74 517.163H200.978C204.656 510.532 206.716 502.855 206.494 494.669C205.924 471.351 186.904 452.379 163.604 451.84C138.878 451.3 118.685 471.192 118.685 495.78C118.685 503.553 120.714 510.85 124.233 517.163H115.071C83.308 517.163 78.8066 484.676 78.5213 468.749C78.4262 464.022 82.2302 460.152 86.9535 460.152Z" fill="#EAA947"/>
<path d="M313.165 396.319C349.43 405.52 388.294 436.896 388.294 436.896L285.396 434.707C281.37 434.612 277.725 432.233 276.044 428.553L260.258 394.511H298.425C303.402 394.511 308.347 395.114 313.165 396.319Z" fill="black"/>
<path d="M254.202 395.304L268.657 428.425C269.767 430.964 267.896 433.819 265.138 433.819C250.556 433.819 212.294 433.28 190.263 427.759C184.969 426.427 183.194 419.764 187.125 415.989C196.064 407.391 215.528 395.304 254.202 395.304Z" fill="black"/>
<path d="M542.133 469.955H527.075C527.075 469.955 502.508 446.985 463.041 440.481C463.041 440.481 535.919 448.508 542.133 469.955Z" fill="#CF8127"/>
<path d="M86.9531 460.152H90.9473C93.1663 460.152 95.1951 458.851 96.1778 456.852C98.4602 451.966 103.501 442.734 111.267 436.135C114.279 433.597 112.472 428.68 108.541 428.68H86.9531V460.152Z" fill="#B64C41"/>
<path d="M284.317 444.415H304.32C305.43 444.415 306.317 443.527 306.317 442.417C306.317 441.306 305.43 440.418 304.32 440.418H284.317C283.208 440.418 282.32 441.306 282.32 442.417C282.32 443.527 283.208 444.415 284.317 444.415Z" fill="black"/>
<path d="M195.905 444.415H215.908C217.017 444.415 217.905 443.527 217.905 442.417C217.905 441.306 217.017 440.418 215.908 440.418H195.905C194.796 440.418 193.908 441.306 193.908 442.417C193.908 443.527 194.796 444.415 195.905 444.415Z" fill="black"/>
<path d="M212.834 457.392H393.144C400.593 457.392 405.19 465.577 401.29 471.954L389.688 491.053C387.152 495.209 381.636 496.351 377.674 493.527C362.268 482.518 317.856 459.708 212.834 457.392Z" fill="#CF8127"/>
<path d="M278.642 373.255H287.898C289.103 373.255 290.181 374.016 290.593 375.158L296.045 390.323H275.789V376.11C275.789 374.524 277.057 373.255 278.642 373.255Z" fill="#F1A34F"/>
<path d="M275.789 390.07V379.695H279.752C282.478 379.695 284.919 381.409 285.838 384.01L287.994 390.07H275.789Z" fill="black"/>
<path d="M124.043 496.002C124.043 517.132 141.161 534.232 162.241 534.232C183.322 534.232 200.44 517.132 200.44 496.002C200.44 474.904 183.322 457.772 162.241 457.772C141.161 457.772 124.043 474.904 124.043 496.002Z" fill="#414042"/>
<path fill-rule="evenodd" clip-rule="evenodd" d="M162.24 472.334C175.3 472.334 185.92 482.93 185.92 496.001C185.92 509.073 175.3 519.701 162.24 519.701C149.18 519.701 138.592 509.073 138.592 496.001C138.592 482.93 149.18 472.334 162.24 472.334ZM159.007 474.935C153.839 475.697 149.306 478.362 146.073 482.137L154.252 487.213C155.615 485.976 157.231 485.088 159.007 484.58V474.935ZM165.473 474.935V484.58C167.28 485.088 168.897 485.976 170.228 487.213L178.439 482.137C175.174 478.362 170.64 475.697 165.473 474.935ZM181.894 504.282C182.972 501.744 183.542 498.952 183.542 496.001C183.542 493.051 182.94 490.196 181.862 487.626L173.652 492.702C173.969 493.749 174.127 494.859 174.127 496.001C174.127 497.112 173.969 498.191 173.684 499.206L181.894 504.282ZM165.473 517.099C170.672 516.306 175.237 513.641 178.502 509.802L170.292 504.758C168.96 505.995 167.312 506.947 165.473 507.454V517.099ZM167.629 496.001C167.629 493.051 165.22 490.64 162.24 490.64C159.292 490.64 156.883 493.051 156.883 496.001C156.883 498.984 159.292 501.395 162.24 501.395C165.22 501.395 167.629 498.984 167.629 496.001ZM159.007 517.099V507.454C157.168 506.947 155.551 505.995 154.188 504.726L145.978 509.802C149.243 513.641 153.808 516.306 159.007 517.099ZM150.796 499.206C150.511 498.191 150.352 497.112 150.352 496.001C150.352 494.859 150.543 493.749 150.828 492.702L142.649 487.626C141.54 490.196 140.938 493.051 140.938 496.001C140.938 498.952 141.508 501.744 142.586 504.282L150.796 499.206Z" fill="#BDBFC1"/>
<path d="M430.867 496.066C430.867 517.163 447.953 534.295 469.066 534.295C490.146 534.295 507.232 517.163 507.232 496.066C507.232 474.968 490.146 457.836 469.066 457.836C447.953 457.836 430.867 474.968 430.867 496.066Z" fill="#414042"/>
<path fill-rule="evenodd" clip-rule="evenodd" d="M469.065 472.397C482.125 472.397 492.713 482.994 492.713 496.065C492.713 509.136 482.125 519.732 469.065 519.732C455.973 519.732 445.385 509.136 445.385 496.065C445.385 482.994 455.973 472.397 469.065 472.397ZM465.8 474.967C460.664 475.76 456.131 478.394 452.866 482.201L461.076 487.245C462.408 486.04 464.024 485.12 465.8 484.612V474.967ZM472.298 474.967V484.644C474.073 485.151 475.69 486.04 477.021 487.245L485.232 482.201C481.998 478.394 477.465 475.76 472.298 474.967ZM488.719 504.345C489.765 501.807 490.367 499.015 490.367 496.065C490.367 493.083 489.765 490.259 488.655 487.689L480.477 492.765C480.762 493.812 480.92 494.923 480.92 496.065C480.92 497.175 480.794 498.254 480.508 499.269L488.719 504.345ZM472.298 517.163C477.497 516.369 482.062 513.704 485.295 509.866L477.116 504.79C475.753 506.059 474.105 506.979 472.298 507.518V517.163ZM474.422 496.065C474.422 493.083 472.013 490.703 469.065 490.703C466.085 490.703 463.676 493.083 463.676 496.065C463.676 499.047 466.085 501.427 469.065 501.427C472.013 501.427 474.422 499.047 474.422 496.065ZM465.8 517.163V507.518C463.993 506.979 462.344 506.059 460.981 504.79L452.803 509.866C456.068 513.704 460.632 516.369 465.8 517.163ZM457.621 499.269C457.336 498.254 457.177 497.175 457.177 496.065C457.177 494.923 457.336 493.812 457.653 492.765L449.442 487.689C448.365 490.259 447.731 493.083 447.731 496.065C447.731 498.984 448.333 501.807 449.411 504.345L457.621 499.269Z" fill="#BDBFC1"/>
<path d="M665.732 404.219C664.052 404.219 662.562 403.87 661.263 403.235C645.127 395.208 660.122 340.164 660.122 340.164C660.122 340.164 660.882 337.689 663.799 336.357C665.32 335.691 667.444 335.31 670.361 335.786C678.856 337.214 680.505 340.735 680.822 342.702C681.202 344.701 688.873 404.092 665.732 404.219Z" fill="#2B478B"/>
<path d="M661.263 403.236C645.127 395.209 660.122 340.165 660.122 340.165C660.122 340.165 660.882 337.69 663.799 336.357C670.044 338.007 671.312 340.958 671.66 342.703C671.977 344.574 678.571 395.558 661.263 403.236Z" fill="#233862"/>
<path d="M694.452 516.846C694.452 516.846 698.13 520.24 697.401 522.683C696.671 525.094 693.375 526.712 692.931 529.663C692.487 532.613 695.086 534.707 693.47 534.707C691.885 534.707 681.392 534.231 681.392 534.231C681.392 534.231 680.187 532.169 683.072 531.535C685.925 530.9 687.003 527.41 686.844 524.206C686.654 520.97 687.098 516.655 687.098 516.655L693.184 515.228L694.452 516.846Z" fill="#233862"/>
<path d="M649.375 525.951C649.375 525.951 650.262 533.121 648.646 533.946C647.029 534.739 627.787 534.485 627.787 534.485C627.787 534.485 627.787 532.043 631.084 531.503C634.412 530.964 640.245 528.997 641.228 524.619C642.211 520.209 649.375 525.951 649.375 525.951Z" fill="#233862"/>
<path d="M631.939 416.402C631.939 416.402 633.049 430.013 634.317 446.351C636.06 468.528 638.153 495.812 638.343 500.983C638.723 509.93 640.15 524.302 640.15 524.302C640.15 524.302 643.542 527.696 650.357 526.269C650.357 526.269 656.444 505.774 658.155 484.105C658.198 483.746 658.229 483.386 658.25 483.026C659.867 460.977 662.371 414.53 662.371 414.53L631.939 416.402Z" fill="#2B478B"/>
<path d="M631.939 416.402C631.939 416.402 633.049 430.013 634.317 446.351L658.155 484.105C658.198 483.746 658.229 483.386 658.25 483.026C659.867 460.977 662.371 414.53 662.371 414.53L631.939 416.402Z" fill="#233862"/>
<path d="M636.916 418.02C636.916 418.02 656.538 467.258 669.44 490.387C682.342 513.515 686.368 519.987 686.368 519.987C686.368 519.987 693.786 517.036 694.452 515.006C694.452 515.006 689.506 470.336 680.884 459.454C676.002 453.299 670.264 434.835 669.979 428.363C669.726 421.922 668.236 409.137 668.236 409.137L636.916 418.02Z" fill="#2B478B"/>
<path d="M602.268 362.214L598.116 362.341C597.323 362.373 596.531 362.151 595.833 361.77C594.343 361.009 591.395 360.152 589.018 363.833C589.018 363.833 587.75 366.085 589.367 366.751C591.015 367.386 590.444 366.878 592.727 367.862C594.439 368.591 596.182 368.56 597.387 367.83C598.433 367.195 599.701 367.195 600.874 367.481L604.646 368.401L602.268 362.214Z" fill="#AB7041"/>
<path d="M646.998 342.005C646.11 336.865 646.078 333.82 646.078 333.82L656.032 325.793C655.683 336.834 662.753 342.132 662.753 342.132C662.753 342.132 649.47 348.667 641.799 346.256C641.799 346.256 643.701 343.845 646.998 342.005Z" fill="#9C5F33"/>
<path d="M643.733 333.629C643.733 333.629 656.413 335.723 657.586 327.823C658.79 319.892 661.231 314.847 653.179 313.166C645.159 311.484 643.13 314.276 642.084 316.814C641.038 319.352 640.468 332.867 643.733 333.629Z" fill="#AB7041"/>
<path d="M597.767 364.784C597.925 362.372 598.781 359.929 598.781 359.929C598.781 359.929 621.7 358.66 623.856 358.28C626.011 357.931 653.971 344.511 653.971 344.511L667.443 359.771C667.443 359.771 631.432 369.701 625.948 370.558C616.882 371.922 598.274 368.305 598.274 368.305C598.274 368.305 597.64 366.687 597.767 364.784Z" fill="#963333"/>
<path d="M669.726 411.675C669.758 412.119 669.251 412.627 668.649 413.007C668.173 413.356 667.602 413.61 667.254 413.769C665.563 414.53 663.904 415.207 662.277 415.799C658.346 417.29 654.51 418.274 650.294 418.655C645.825 419.099 640.816 418.655 637.012 418.306C634.888 418.052 633.145 417.83 632.067 417.83H631.908C631.623 417.83 631.338 417.735 631.116 417.544C630.926 417.417 630.799 410.691 630.862 401.681C630.862 400.412 630.894 399.112 630.894 397.747C630.894 397.335 630.894 396.859 630.957 396.415V396.288C630.989 392.068 631.116 387.563 631.338 383.153V383.058C631.75 373.223 632.511 363.737 633.842 358.471C635.364 352.284 638.914 348.223 642.116 345.209L644.779 342.862C645 342.925 645.222 342.925 645.444 342.957C647.885 343.369 650.453 343.147 653.021 341.878C656.064 340.387 659.36 338.737 659.899 339.118C659.963 339.181 660.058 339.245 660.121 339.308C661.041 340.038 661.896 340.958 662.657 342.068C662.689 342.1 662.689 342.1 662.689 342.132C662.721 342.132 662.721 342.132 662.721 342.132C663.355 343.02 663.957 344.035 664.464 345.178C665.352 346.954 666.081 349.016 666.747 351.301C668.458 357.456 669.283 365.26 669.283 373.572C669.283 375.698 669.219 377.824 669.061 380.013C669.029 380.647 669.029 381.218 668.997 381.821C668.744 387.214 668.775 392.195 668.902 396.573V396.7C669.029 401.142 669.283 404.886 669.505 407.678C669.6 409.391 669.695 410.723 669.726 411.675Z" fill="#B64C41"/>
<path d="M669.504 407.709C669.092 401.808 668.394 391.687 669.092 380.012C669.197 377.855 669.261 375.708 669.282 373.572C666.651 367.195 664.495 362.595 664.495 362.595H657.902C657.902 362.595 653.052 395.716 669.504 407.709Z" fill="#963333"/>
<path d="M657.617 327.062C657.617 327.062 656.317 326.84 656.507 325.032C656.729 323.255 656.729 320.907 655.271 321.351C653.813 321.796 653.749 322.938 653.147 322.271C652.545 321.605 652.545 318.718 648.202 318.528C643.859 318.306 642.116 319.829 640.087 318.94C638.09 318.052 637.963 315.006 637.963 315.006C637.963 315.006 638.533 316.085 639.421 316.434C639.421 316.434 636.061 311.834 639.928 308.693C643.827 305.52 647.79 307.614 650.041 307.741C655.018 308.027 658.219 308.344 659.836 311.612C661.453 314.848 660.787 323.921 657.617 327.062Z" fill="#2B478B"/>
<path d="M689.506 527.728C688.492 530.107 689.601 532.867 692.011 533.851C694.42 534.866 697.178 533.756 698.224 531.408C699.238 529.029 698.129 526.268 695.719 525.253C693.31 524.238 690.521 525.348 689.506 527.728Z" fill="#4A82D3"/>
<path d="M733.221 526.744L726.501 529.156C725.803 529.378 725.106 529.505 724.377 529.505L686.21 529.187L682.025 522.366L733.221 526.744Z" fill="#4A82D3"/>
<path d="M711.411 451.269L700.696 425.063L700.664 425.031C700.601 424.778 698.952 419.162 689.347 417.925H689.284L681.391 416.465C680.376 416.18 677.428 415.736 676.065 416.878C675.463 417.385 675.209 418.179 675.336 419.289C675.526 421.478 682.659 438.451 687.382 449.365L685.892 450C684.656 447.208 673.973 422.588 673.688 419.416C673.529 417.766 673.973 416.497 675.019 415.641C677.206 413.8 681.327 414.752 681.771 414.879L689.569 416.307C699.903 417.639 702.027 423.858 702.249 424.555L712.932 450.666L711.411 451.269Z" fill="#4A82D3"/>
<path d="M690.933 443.559L670.328 447.683C670.328 447.683 664.336 450.094 665.541 460.5C666.619 469.669 671.31 521.097 671.31 521.097C671.31 521.097 672.293 531.788 695.371 528.647L690.933 443.559Z" fill="#4A82D3"/>
<path d="M679.552 457.709L685.195 515.291C685.417 517.639 686.241 519.765 687.541 521.541C689.918 524.872 693.849 527.03 698.224 527.062L717.307 527.125H717.783L729.765 527.188C730.97 527.188 732.111 527.03 733.22 526.744C733.474 526.681 733.728 526.607 733.981 526.522C738.134 525.158 741.304 521.795 742.477 517.702C742.984 515.958 743.111 514.086 742.794 512.15L734.013 457.074C733.094 451.173 728.244 446.7 722.252 446.129L718.892 445.812L718.068 445.748L717.402 445.685L706.117 444.638L704.754 444.511L693.849 443.496C692.137 443.337 690.489 443.527 688.967 443.972C688.862 443.993 688.756 444.024 688.65 444.067L688.016 444.257C682.659 446.256 678.95 451.617 679.552 457.709Z" fill="#739AF0"/>
<path d="M687.541 521.541C689.919 524.872 693.849 527.029 698.224 527.061L717.307 527.125H717.783L729.765 527.188C730.97 527.188 732.111 527.029 733.221 526.744C733.474 526.68 733.728 526.606 733.982 526.522C738.134 525.158 742.889 520.177 742.953 514.91C742.953 514.91 702.535 514.466 694.103 515.767C689.728 516.465 688.429 519.479 687.541 521.541Z" fill="#6793E7"/>
<path d="M717.402 445.685C717.497 445.748 726.342 451.046 727.546 455.742C728.751 460.564 736.834 516.782 736.929 517.353C736.929 517.385 737.151 522.842 732.618 526.871L733.221 526.744C733.474 526.681 733.728 526.607 733.981 526.522C738.261 522.302 737.659 517.48 737.627 517.258C737.31 514.942 729.448 460.437 728.244 455.583C727.166 451.332 720.921 447.112 718.892 445.811L718.068 445.748L717.402 445.685Z" fill="#4A82D3"/>
<path d="M704.754 444.511C706.022 445.367 710.872 449.016 711.95 455.773C713.186 463.673 718.036 521.224 718.068 521.795L718.1 521.827V521.89C718.1 521.922 718.797 524.999 716.832 527.125H717.307H717.783C719.653 524.872 718.924 522.08 718.797 521.7C718.639 519.923 713.884 463.515 712.647 455.647C711.76 449.841 708.114 446.224 706.117 444.638L704.754 444.511Z" fill="#4A82D3"/>
<path d="M688.018 444.257C688.049 444.289 689.92 445.304 691.505 447.081C693.09 448.857 694.801 451.618 695.404 455.488C696.64 463.388 700.539 520.748 700.571 521.319V521.351V521.414C700.603 521.414 700.761 524.936 698.796 527.062H700C701.49 525.126 701.395 521.637 701.268 521.224C701.141 519.384 697.337 463.229 696.133 455.361C694.992 447.969 690.015 444.606 688.969 443.972C688.863 443.993 688.757 444.025 688.652 444.067L688.018 444.257Z" fill="#4A82D3"/>
<path d="M680.314 404.536L682.755 410.342C683.072 411.04 683.041 411.833 682.755 412.531C682.153 414.086 681.678 417.1 685.577 419.067C685.577 419.067 687.986 420.082 688.461 418.369C688.905 416.687 688.43 417.29 689.159 414.911C689.761 412.848 689.349 410.818 688.113 409.771C687.669 409.422 687.447 408.819 687.383 408.248L687.003 404.568L680.314 404.536Z" fill="#AB7041"/>
<path d="M685.703 410.342C683.325 410.818 680.726 410.628 680.726 410.628C680.726 410.628 673.657 388.769 672.737 386.77C671.85 384.771 651.752 361.135 651.752 361.135L660.121 340.196C660.121 340.196 681.835 376.522 684.054 381.599C687.7 390.038 688.968 408.946 688.968 408.946C688.968 408.946 687.573 409.993 685.703 410.342Z" fill="#B64C41"/>
<path d="M658.283 386.389C655.556 383.057 652.957 378.33 651.277 371.668C650.548 368.749 649.977 365.45 649.692 361.769C649.692 361.769 648.931 354.726 652.45 349.809C653.654 348.096 655.398 346.604 657.871 345.811C659.329 345.304 661.041 345.05 663.038 345.113C663.481 345.113 666.937 345.018 667.444 345.082C666.905 343.939 667.634 342.385 667.032 341.465C667.032 341.465 665.288 342.099 665.257 342.099C665.13 342.099 662.055 342.099 661.262 342.131C660.692 342.163 660.026 342.163 659.265 342.29C656.666 342.67 653.147 343.686 650.389 346.287C649.502 347.08 648.741 348.032 648.075 349.174C647.79 349.618 647.536 350.221 647.314 350.856C645.634 355.932 645.888 366.274 649.185 375.887C651.277 382.074 654.637 387.975 659.582 392.004C662.087 394.098 665.352 395.811 668.775 396.7C669.092 396.763 669.378 396.573 669.441 396.255L669.695 394.923C669.758 394.574 669.568 394.257 669.251 394.161C667.571 393.59 662.435 391.56 658.283 386.389Z" fill="#233862"/>
<path d="M783.561 375.92C783.561 375.92 779.884 377.887 779.186 380.203C778.489 382.519 778.299 409.327 777.158 411.707C776.016 414.086 774.939 427.728 776.682 434.327C776.682 434.327 775.319 440.165 775.763 441.307C776.206 442.481 779.662 443.877 780.93 443.782C782.166 443.686 782.832 436.421 781.437 434.327L783.561 375.92Z" fill="#FFB27D"/>
<path d="M818.272 365.545C815.99 363.578 815.451 360.279 815.356 358.375C815.799 361.77 818.843 364.752 818.843 364.752C815.229 360.437 821.093 344.638 811.9 340.64C805.877 338.007 801.439 339.72 799.094 341.243C793.831 340.514 787.555 348.096 787.555 348.096L800.108 364.752C800.108 364.752 800.996 362.69 802.264 362.785C801.566 365.418 801.186 367.576 802.485 368.94C809.047 375.666 806.353 378.934 810.093 380.076C814.69 381.503 823.788 370.368 818.272 365.545Z" fill="#2B478B"/>
<path d="M786.034 375.126C786.034 375.126 782.008 375.38 779.947 377.759C777.855 380.139 777.602 399.523 777.602 399.523C777.602 399.523 778.172 401.712 780.581 401.522C782.991 401.363 786.034 375.126 786.034 375.126Z" fill="#2B478B"/>
<path d="M827.212 423.476C826.927 424.174 825.722 424.745 823.979 425.19C820.08 426.173 813.518 426.3 808.731 424.523C803.596 422.62 799.855 395.399 798.27 381.471C797.699 376.586 797.414 373.35 797.414 373.35C797.414 373.35 800.362 368.718 811.806 370.272C823.25 371.795 824.391 375.666 825.405 382.614C826.451 389.561 828.131 421.287 827.212 423.476Z" fill="#EE9849"/>
<path d="M823.978 425.19C820.079 426.173 813.517 426.3 808.731 424.523C803.595 422.62 799.855 395.399 798.27 381.471C799.633 376.681 800.679 373.508 800.679 373.508C800.679 373.508 815.039 371.763 817.828 376.11C820.333 379.98 823.376 417.353 823.978 425.19Z" fill="#E58638"/>
<path d="M813.58 426.871C809.65 418.051 807.779 415.545 807.716 412.785C807.652 410.564 808.73 408.216 810.854 402.41C811.33 401.014 811.678 399.619 811.9 398.191C813.549 386.992 807.082 374.904 803.056 374.079C801.946 373.762 800.044 369.733 800.076 363.197L799.569 363.292L791.105 364.974C791.105 364.974 791.295 367.639 791.295 370.177C791.295 372.271 791.168 374.238 790.693 374.492C790.091 374.555 789.742 374.587 789.742 374.587C789.742 374.587 782.673 384.39 782.071 393.527C781.468 402.664 787.745 406.63 782.039 424.872C776.206 443.495 815.768 431.757 813.58 426.871Z" fill="#FFB27D"/>
<path d="M791.105 364.974C791.105 364.974 791.296 367.639 791.296 370.177C796.051 370.019 798.555 365.704 799.569 363.293L791.105 364.974Z" fill="#E8945B"/>
<path d="M800.457 362.373C800.457 362.373 802.93 358.471 803.532 355.108C803.944 352.697 802.74 343.813 793.8 345.082C793.8 345.082 791.201 345.336 788.792 346.986C786.826 348.318 784.037 351.142 787.175 358.883L787.967 361.516L800.457 362.373Z" fill="#2B478B"/>
<path d="M789.521 367.354C789.521 367.354 800.743 367.544 800.743 360.565C800.743 353.585 802.201 348.89 795.037 348.477C787.872 348.065 786.478 350.73 785.907 353.046C785.336 355.393 786.604 367.132 789.521 367.354Z" fill="#FFB27D"/>
<path d="M789.932 348.286C789.932 348.286 793.007 356.503 797.698 357.709C802.421 358.914 804.45 357.677 804.45 357.677C804.45 357.677 806.13 349.999 805.37 344.955C805.37 344.955 792.246 344.384 789.932 348.286Z" fill="#2B478B"/>
<path d="M790.694 348.952C790.694 348.952 788.411 350.792 787.841 352.569C787.27 354.346 787.016 358.026 785.97 357.899C785.97 357.899 783.656 352.315 786.256 349.174C789.014 345.843 790.694 348.952 790.694 348.952Z" fill="#2B478B"/>
<path d="M803.658 511.547C800.837 522.778 796.589 531.408 796.589 531.408L792.912 531.122C792.912 531.122 794.719 522.493 794.624 510.849C794.529 502.696 793.515 493.051 790.313 483.851C779.25 452.22 781.025 429.219 781.025 429.219L801.852 431.63L802.803 431.757C802.898 441.306 803.151 454.314 803.373 464.466C803.563 473.571 803.722 480.424 803.722 480.424C807.716 489.054 806.258 501.205 803.658 511.547Z" fill="#4A82D3"/>
<path d="M810.854 402.411C808.73 408.217 807.653 410.564 807.716 412.785C801.027 402.379 788.918 400.825 788.918 400.825L811.9 398.191C811.679 399.619 811.33 401.015 810.854 402.411Z" fill="#CB7D45"/>
<path d="M828.163 436.23L824.803 437.246C824.803 437.246 813.708 418.813 812.694 414.022C812.377 412.468 811.553 409.327 810.633 405.837C808.668 398.572 806.164 389.689 806.164 389.689L805.339 386.104L802.486 373.857C802.486 373.857 807.907 374.397 811.077 375.729C812.123 376.173 812.916 376.681 813.201 377.316C815.515 382.423 817.861 395.336 819.478 404.568C820.397 409.676 821.094 413.673 821.443 414.53C822.457 416.878 825.532 429.854 828.163 436.23Z" fill="#FFB27D"/>
<path d="M815.61 509.77C814.405 522.524 809.143 530.805 809.143 530.805L807.368 532.074C807.368 532.074 805.688 523.095 804.515 512.372C803.405 502.188 801.852 491.433 800.109 488.133C793.166 475.094 791.074 425.856 791.074 425.856L812.155 424.809C814.279 428.394 815.198 434.231 815.42 440.894C815.99 457.708 812.028 479.599 811.457 482.772C811.394 483.026 811.489 483.279 811.584 483.501C815.8 491.814 816.402 501.331 815.61 509.77Z" fill="#739AF0"/>
<path d="M790.25 349.238C790.25 349.238 792.437 357.835 798.397 360.596C798.397 360.596 792.437 355.297 791.962 349.65C791.455 343.971 790.25 349.238 790.25 349.238Z" fill="#2B478B"/>
<path d="M816.243 433.248C816.275 433.946 816.243 434.517 816.117 434.93C815.673 436.326 814.12 436.992 810.379 436.611C808.128 436.357 807.082 432.55 806.638 429.283C805.275 433.946 803.373 436.548 800.901 437.119C797.287 437.912 779.059 440.133 777.855 431.472C776.555 421.922 780.486 405.044 780.676 395.939C780.169 392.703 779.979 389.911 780.042 387.5C780.169 381.028 782.071 377.379 783.561 375.92C783.973 375.602 784.385 375.412 786.033 375.127C786.889 374.968 788.062 374.809 789.742 374.587L790.408 374.524C790.091 375.095 785.97 381.345 786.287 382.963C786.636 384.644 801.249 383.121 802.264 382.201C803.278 381.281 804.863 374.175 804.863 374.175C804.863 374.175 810.537 374.302 813.073 376.174C813.073 376.174 813.803 377.094 813.929 377.347C816.656 382.487 818.653 395.495 820.555 404.759C815.926 407.297 811.901 406.535 810.664 406.218C812.281 416.91 815.99 428.363 816.243 433.248Z" fill="#2B478B"/>
<path d="M789.741 374.587C789.741 374.587 789.731 374.598 789.71 374.619C789.202 375.412 781.436 387.848 780.675 395.938C780.168 392.702 779.978 389.911 780.041 387.499C781.024 384.454 783.465 377.664 786.032 375.126C786.349 374.809 789.741 374.587 789.741 374.587Z" fill="#E58638"/>
<path d="M815.609 509.771C814.404 522.524 809.142 530.805 809.142 530.805L807.335 532.423C807.335 532.423 805.687 523.095 804.514 512.372C805.75 512.467 811.266 512.658 815.609 509.771Z" fill="#FFB27D"/>
<path d="M803.658 511.548C800.837 522.779 796.589 531.408 796.589 531.408L792.912 531.122C792.912 531.122 794.719 522.493 794.624 510.85C795.86 511.484 798.46 512.119 803.658 511.548Z" fill="#FFB27D"/>
<path d="M798.713 534.485H796.367C795.575 534.358 795.004 534.136 794.18 534.041C792.944 533.882 792.373 534.39 792.278 534.485C792.257 534.506 792.246 534.517 792.246 534.517H782.229C781.976 534.168 782.197 533.311 782.451 532.708C782.61 532.296 782.958 531.979 783.402 531.852C784.448 531.534 786.54 531.281 788.474 529.536C789.552 528.552 793.673 525.951 793.673 525.951L793.705 525.919C793.8 525.919 794.243 526.078 796.114 527.664C797.096 528.489 798.745 526.49 798.745 526.49C798.745 526.49 799.062 526.744 799.284 527.22C799.474 527.6 799.601 528.14 799.506 528.774C799.347 529.694 799.823 531.344 800.203 532.486C800.457 533.184 800.647 533.66 800.647 533.66C800.647 533.66 800.774 534.231 798.713 534.485Z" fill="#E58638"/>
<path d="M799.285 527.22C798.714 527.632 797.541 528.425 796.749 528.52C795.671 528.647 793.674 525.951 793.674 525.951L793.706 525.919C793.801 525.919 794.244 526.078 796.115 527.664C797.097 528.489 798.746 526.49 798.746 526.49C798.746 526.49 799.063 526.744 799.285 527.22Z" fill="#963333"/>
<path d="M798.713 534.485H796.367C795.575 534.358 795.004 534.136 794.18 534.041C792.944 533.882 792.373 534.39 792.278 534.485C792.257 534.506 792.246 534.517 792.246 534.517H782.229C781.976 534.168 782.197 533.311 782.451 532.708C782.768 532.423 782.831 533.882 783.022 534.104C783.18 534.358 791.2 534.2 791.644 533.851C792.12 533.533 793.514 532.93 795.448 533.406C797.128 533.787 799.601 532.772 800.203 532.486C800.457 533.184 800.647 533.66 800.647 533.66C800.647 533.66 800.774 534.231 798.713 534.485Z" fill="#963333"/>
<path d="M811.33 534.485H808.953C808.16 534.358 807.59 534.136 806.766 534.041C805.561 533.882 804.991 534.39 804.864 534.485C804.843 534.506 804.832 534.517 804.832 534.517H794.815C794.561 534.168 794.815 533.311 795.037 532.708C795.195 532.296 795.544 531.979 795.988 531.852C797.034 531.534 799.158 531.281 801.06 529.536C802.138 528.552 806.29 525.951 806.29 525.951V525.919C806.385 525.919 806.829 526.078 808.699 527.664C809.682 528.489 811.33 526.49 811.33 526.49C811.33 526.49 811.648 526.744 811.869 527.22C812.06 527.6 812.218 528.14 812.091 528.774C811.933 529.694 812.44 531.344 812.82 532.486C813.042 533.184 813.232 533.66 813.232 533.66C813.232 533.66 813.359 534.231 811.33 534.485Z" fill="#E58638"/>
<path d="M811.868 527.22C811.329 527.632 810.125 528.425 809.332 528.52C808.286 528.647 806.289 525.951 806.289 525.951V525.919C806.384 525.919 806.828 526.078 808.698 527.664C809.681 528.489 811.329 526.49 811.329 526.49C811.329 526.49 811.646 526.744 811.868 527.22Z" fill="#963333"/>
<path d="M811.329 534.485H808.952C808.159 534.358 807.589 534.136 806.765 534.041C805.56 533.882 804.99 534.39 804.863 534.485C804.842 534.506 804.831 534.517 804.831 534.517H794.814C794.465 534.073 794.814 533.311 795.036 532.708C795.353 532.423 795.448 533.882 795.606 534.104C795.765 534.358 803.785 534.2 804.26 533.851C804.704 533.533 806.099 532.93 808.033 533.406C809.713 533.787 812.185 532.772 812.819 532.486C813.041 533.184 813.231 533.66 813.231 533.66C813.231 533.66 813.358 534.231 811.329 534.485Z" fill="#963333"/>
<path d="M816.244 433.249C813.739 432.392 810.538 430.171 806.67 425.19C796.463 411.992 805.814 396.447 807.051 396.161C808.319 395.876 810.664 406.218 810.664 406.218C812.281 416.91 815.99 428.363 816.244 433.249Z" fill="#233862"/>
<path d="M809.207 373.857C809.207 373.857 800.235 380.234 799.475 395.082C798.714 409.93 812.06 412.944 812.06 412.944L811.204 408.248C811.204 408.248 800.362 404.346 803.184 392.512C806.037 380.678 814.152 374.587 814.152 374.587L809.207 373.857Z" fill="#E58638"/>
<path d="M813.295 449.27L803.88 450.856C803.88 450.856 801.851 451.554 802.073 457.994C802.199 461.516 802.073 466.56 801.946 470.431C801.851 473.318 804.419 475.57 807.272 475.094L813.231 474.079C813.802 473.984 814.214 473.476 814.182 472.874L813.295 449.27Z" fill="#963333"/>
<path fill-rule="evenodd" clip-rule="evenodd" d="M859.038 466.243C848.546 468.02 811.33 475.221 810.696 474.492C807.97 471.414 809.999 465.006 809.46 460.056C809.365 459.105 809.238 458.312 809.111 457.804C808.255 454.663 808.889 449.301 815.546 448.857C817.036 448.762 819.096 448.54 821.442 448.223C822.71 446.129 825.246 442.988 829.367 442.036C834.122 440.926 839.258 443.496 841.445 444.796C844.235 444.257 846.834 443.686 849.021 443.178C858.436 440.958 859.007 448.223 859.007 448.223C859.546 450.444 859.609 453.267 860.148 455.583C860.254 456.048 860.391 456.493 860.56 456.916C861.384 458.978 861.86 460.564 862.145 461.77C862.589 463.864 861.162 465.894 859.038 466.243ZM823.693 447.905C828.289 447.239 833.774 446.287 838.846 445.336C836.468 444.162 832.949 442.925 829.748 443.654C826.926 444.32 824.961 446.224 823.693 447.905Z" fill="#B64C41"/>
<path d="M827.941 435.691C827.941 435.691 828.955 438.103 830.033 438.769C831.079 439.435 832.823 442.227 832.379 443.464C832.157 444.099 830.287 446.034 828.163 445.844C826.832 445.717 825.944 439.721 825.532 438.61C825.151 437.468 824.803 437.246 824.803 437.246L827.941 435.691Z" fill="#FFB27D"/>
<path d="M743.174 428.87C743.174 428.87 752.177 424.777 758.993 428.362C765.776 431.947 761.624 461.547 751.892 464.435C751.892 464.435 730.97 489.847 743.174 428.87Z" fill="#233862"/>
<path fill-rule="evenodd" clip-rule="evenodd" d="M724.123 470.145L723.996 475.095L722.538 474.746C722.474 474.746 722.411 474.724 722.348 474.682C722.189 474.619 722.031 474.492 721.904 474.301L720.731 472.43C720.509 472.081 720.541 471.636 720.763 471.319C720.784 471.277 720.805 471.235 720.826 471.192C721.048 470.875 721.428 470.05 721.682 469.416C719.875 460.564 721.08 455.424 721.08 455.424C720.858 452.823 719.336 434.803 722.887 426.427C724.598 422.398 727.642 422.557 727.642 422.557C727.642 422.557 726.786 428.838 727.229 432.296C727.642 435.469 724.598 465.291 724.123 470.145ZM723.521 470.494L723.457 470.463L723.489 470.494C723.489 470.515 723.499 470.515 723.521 470.494Z" fill="#A05F32"/>
<path d="M753.159 530.329L751.986 534.517H742.223C742.223 534.517 739.306 529.187 753.159 530.329Z" fill="#233862"/>
<path d="M732.206 530.329L731.033 534.517H721.27C721.27 534.517 718.353 529.187 732.206 530.329Z" fill="#233862"/>
<path d="M751.258 404.314C751.892 401.554 751.099 399.523 749.831 397.556C748.627 395.653 746.915 395.557 745.267 393.971C743.713 392.448 740.829 391.465 738.515 391.465C731.16 391.465 724.788 395.97 726.247 403.616C726.722 406.059 726.31 407.962 728.275 410.786C730.748 414.339 733.728 417.194 738.515 417.194C741.051 417.194 743.301 416.592 745.267 414.752C746.313 413.736 747.866 413.609 748.785 412.499C750.687 410.278 750.561 407.359 751.258 404.314Z" fill="#2B478B"/>
<path d="M733.412 413.388C733.412 413.388 735.029 419.606 731.764 422.271L740.925 426.966L742.13 420.907C742.13 420.907 740.418 416.148 740.893 409.549L733.412 413.388Z" fill="#A05F32"/>
<path d="M733.189 416.528C733.189 416.528 742.572 417.671 742.762 411.04C742.952 404.441 739.053 400.158 736.454 400.19C731.255 400.285 730.367 402.41 729.765 404.6C729.163 406.789 728.877 416.053 733.189 416.528Z" fill="#AF7041"/>
<path d="M724.218 466.528L742.762 468.051C742.762 468.051 744.949 500.602 732.777 530.773L722.379 530.551L724.218 466.528Z" fill="#963333"/>
<path d="M753.002 468.4C753.002 468.4 758.708 490.577 754.08 531.027H741.495L735.472 478.489C735.219 476.935 732.302 474.777 732.302 474.777L732.207 468.749L753.002 468.4Z" fill="#B64C41"/>
<path d="M753.415 435.501L754.651 425.539C754.461 425.285 754.302 425.063 754.112 424.841C751.988 422.208 743.809 421.066 742.129 420.907C742.129 420.907 742.066 421.034 741.844 421.288C740.322 422.652 738.294 424.08 735.567 423.731C733.253 423.445 732.873 422.208 732.936 420.907C728.086 421.7 725.328 423.223 725.328 423.223C720.383 425.095 719.4 441.529 719.4 441.529C720.066 441.307 723.331 441.878 724.853 442.164L724.251 466.529C736.043 471.669 753.034 468.369 753.034 468.369L752.971 468.21L751.83 448.731L752.907 439.848L753.415 435.501Z" fill="#F1A34F"/>
<path d="M735.694 412.721C735.694 412.721 735.504 413.546 733.444 413.387C733.444 413.387 731.7 413.26 731.763 412.34C731.763 412.34 733.444 411.706 735.694 412.721Z" fill="white"/>
<path opacity="0.4" d="M745.87 467.576C746.662 468.591 750.625 468.94 753.002 468.21L751.829 448.762L753.414 435.501L751.893 434.803C751.893 434.803 745.14 440.228 745.933 444.543C746.725 448.857 744.823 466.275 745.87 467.576Z" fill="#D86713"/>
<path d="M760.356 436.484C760.356 436.484 755.158 438.451 752.907 439.847C752.463 440.101 752.178 440.323 751.988 440.545L744.855 426.332L743.492 423.667L742.256 421.129L742.129 420.907C742.129 420.886 742.235 420.897 742.446 420.939C743.143 421.002 744.855 421.224 746.852 421.668C748.088 421.954 749.452 422.303 750.656 422.779H750.72C752.178 423.318 753.414 424.016 754.111 424.841C754.302 425.063 754.46 425.285 754.65 425.539C757.028 428.934 760.356 436.484 760.356 436.484Z" fill="#F1A34F"/>
<path d="M752.939 463.229C752.939 463.229 727.294 435.691 743.492 423.667C744.443 422.905 745.553 422.239 746.853 421.668C748.089 421.954 749.452 422.302 750.657 422.778C749.357 423.127 746.853 424.079 744.855 426.332C740.925 430.71 739.34 440.259 752.717 459.644L752.939 463.229Z" fill="#233862"/>
<path d="M734.109 400.254C734.109 400.254 742.129 400.254 740.291 405.774C739.15 409.232 742.985 409.771 742.985 409.771L744.856 404.219L743.683 399.873L734.109 400.254Z" fill="#2B478B"/>
<path d="M760.135 436.548C757.663 437.309 753.922 438.959 752.781 440.101C754.049 442.988 754.746 444.923 754.746 444.923C753.795 444.479 748.913 444.099 746.346 443.908C746.06 443.877 743.746 443.115 743.746 443.115C743.746 443.115 743.746 439.149 739.182 438.832C739.182 438.832 737.311 438.864 737.692 440.133C738.072 441.434 738.135 440.863 738.643 442.703C739.15 444.543 740.45 445.939 741.844 446.034C748.596 451.681 757.853 451.745 760.642 451.586C761.15 451.586 761.593 451.237 761.689 450.729C762.766 446.129 762.037 441.37 760.135 436.548Z" fill="#A05F32"/>
<path d="M876.695 536.294H74.3042C73.8604 536.294 73.5117 535.849 73.5117 535.278C73.5117 534.707 73.8604 534.231 74.3042 534.231H876.695C877.139 534.231 877.487 534.707 877.487 535.278C877.487 535.849 877.139 536.294 876.695 536.294Z" fill="#2E3552"/>
<path d="M222.26 474.7V472.4H232.26V474.7H228.46V486H226.06V474.7H222.26ZM239.222 477.96C238.595 477.96 237.995 478.06 237.422 478.26C236.862 478.447 236.322 478.753 235.802 479.18V486H233.502V475.86H235.682V477.42C236.362 476.78 236.969 476.327 237.502 476.06C238.035 475.793 238.609 475.66 239.222 475.66V477.96ZM248.916 486.1C248.236 486.1 247.69 485.96 247.276 485.68C246.876 485.4 246.583 485.053 246.396 484.64C245.823 485.173 245.27 485.567 244.736 485.82C244.203 486.073 243.63 486.2 243.016 486.2C242.123 486.2 241.463 485.913 241.036 485.34C240.623 484.767 240.416 484.04 240.416 483.16C240.416 482.573 240.523 482.06 240.736 481.62C240.963 481.167 241.33 480.813 241.836 480.56C242.343 480.307 243.036 480.18 243.916 480.18C244.263 480.18 244.623 480.207 244.996 480.26C245.37 480.3 245.743 480.353 246.116 480.42V479.24C246.116 478.68 245.963 478.3 245.656 478.1C245.35 477.887 244.936 477.78 244.416 477.78C244.016 477.78 243.576 477.833 243.096 477.94C242.63 478.047 242.123 478.213 241.576 478.44L240.916 476.48C242.263 475.933 243.483 475.66 244.576 475.66C245.563 475.66 246.323 475.827 246.856 476.16C247.403 476.493 247.783 476.933 247.996 477.48C248.21 478.027 248.316 478.613 248.316 479.24V483.14C248.316 483.34 248.37 483.533 248.476 483.72C248.596 483.893 248.823 483.98 249.156 483.98H249.376V486.1H248.916ZM242.636 483.12C242.636 483.48 242.716 483.767 242.876 483.98C243.036 484.18 243.27 484.28 243.576 484.28C243.883 484.28 244.23 484.2 244.616 484.04C245.003 483.88 245.503 483.507 246.116 482.92V482.06C245.423 481.94 244.743 481.88 244.076 481.88C243.556 481.88 243.183 481.987 242.956 482.2C242.743 482.413 242.636 482.72 242.636 483.12ZM259.14 475.86L255.54 486H253.44L249.84 475.86H252.16L253.9 480.92L254.56 483.02L255.2 480.92L256.86 475.86H259.14ZM268.565 485.42C267.872 485.7 267.218 485.9 266.605 486.02C265.992 486.14 265.412 486.2 264.865 486.2C263.358 486.2 262.218 485.773 261.445 484.92C260.672 484.067 260.285 482.933 260.285 481.52V480.32C260.285 479.373 260.458 478.553 260.805 477.86C261.152 477.167 261.645 476.627 262.285 476.24C262.925 475.853 263.678 475.66 264.545 475.66C265.252 475.66 265.912 475.807 266.525 476.1C267.152 476.38 267.658 476.827 268.045 477.44C268.445 478.04 268.645 478.813 268.645 479.76C268.645 480.04 268.625 480.34 268.585 480.66C268.545 480.967 268.478 481.293 268.385 481.64H262.505C262.532 482.467 262.738 483.087 263.125 483.5C263.512 483.913 264.132 484.12 264.985 484.12C265.438 484.12 265.905 484.067 266.385 483.96C266.878 483.853 267.385 483.693 267.905 483.48L268.565 485.42ZM264.545 477.6C263.932 477.6 263.452 477.8 263.105 478.2C262.772 478.587 262.578 479.147 262.525 479.88H266.365C266.378 479.813 266.385 479.753 266.385 479.7C266.385 479.633 266.385 479.573 266.385 479.52C266.385 478.88 266.205 478.4 265.845 478.08C265.485 477.76 265.052 477.6 264.545 477.6ZM271.235 483.14V471.2H273.535V483.14C273.535 483.34 273.582 483.533 273.675 483.72C273.782 483.893 273.982 483.98 274.275 483.98H274.595V486.1H274.035C273.275 486.1 272.695 485.953 272.295 485.66C271.895 485.367 271.615 484.993 271.455 484.54C271.308 484.087 271.235 483.62 271.235 483.14ZM288.286 486H280.046V484.1C280.046 483.14 280.173 482.34 280.426 481.7C280.679 481.047 281.019 480.513 281.446 480.1C281.873 479.673 282.339 479.333 282.846 479.08L284.206 478.4C284.726 478.133 285.146 477.853 285.466 477.56C285.799 477.253 285.966 476.86 285.966 476.38V476.02C285.966 475.527 285.793 475.14 285.446 474.86C285.113 474.567 284.573 474.42 283.826 474.42C283.373 474.42 282.913 474.487 282.446 474.62C281.993 474.753 281.439 474.94 280.786 475.18L280.046 473.12C280.793 472.787 281.473 472.553 282.086 472.42C282.713 472.273 283.319 472.2 283.906 472.2C284.986 472.2 285.846 472.373 286.486 472.72C287.139 473.067 287.606 473.533 287.886 474.12C288.179 474.693 288.326 475.327 288.326 476.02V476.38C288.326 477.1 288.179 477.713 287.886 478.22C287.606 478.727 287.233 479.153 286.766 479.5C286.299 479.847 285.793 480.153 285.246 480.42L283.886 481.1C283.393 481.34 283.026 481.673 282.786 482.1C282.559 482.527 282.433 483.073 282.406 483.74H288.286V486ZM299.444 482.92H298.024V486H295.704V482.92H289.864V480.98C290.464 480.047 291.057 479.1 291.644 478.14C292.244 477.167 292.804 476.2 293.324 475.24C293.844 474.267 294.27 473.32 294.604 472.4H297.224C296.73 473.76 296.064 475.16 295.224 476.6C294.384 478.027 293.517 479.42 292.624 480.78H295.704V478.72H298.024V480.78H299.444V482.92Z" fill="black"/>
</svg>
