<svg width="16" height="16" viewBox="0 0 16 16" fill="none" xmlns="http://www.w3.org/2000/svg">
<path d="M7.99967 2.66634C10.9403 2.66634 13.333 5.05901 13.333 7.99967C13.333 10.9403 10.9403 13.333 7.99967 13.333C5.05901 13.333 2.66634 10.9403 2.66634 7.99967C2.66634 5.05901 5.05901 2.66634 7.99967 2.66634ZM7.99967 1.33301C4.31767 1.33301 1.33301 4.31767 1.33301 7.99967C1.33301 11.6817 4.31767 14.6663 7.99967 14.6663C11.6817 14.6663 14.6663 11.6817 14.6663 7.99967C14.6663 4.31767 11.6817 1.33301 7.99967 1.33301ZM11.333 7.33301H8.66634V4.66634H7.33301V7.33301H4.66634V8.66634H7.33301V11.333H8.66634V8.66634H11.333V7.33301Z" fill="#FF8000"/>
</svg>
