<svg width="1440" height="549" viewBox="0 0 1440 549" fill="none" xmlns="http://www.w3.org/2000/svg">
<mask id="path-1-inside-1_208_4764" fill="white">
<path d="M0 0H1440V549H0V0Z"/>
</mask>
<path d="M1440 548H0V550H1440V548Z" fill="#DFDFDF" mask="url(#path-1-inside-1_208_4764)"/>
<g opacity="0.5">
<g opacity="0.4">
<path d="M700.318 420.436H1139V343.544H700.318V420.436Z" fill="#54737A"/>
<path d="M1070.74 381.581H1115.34V248.833H1070.74V381.581Z" fill="#54737A"/>
<path d="M1088.63 263.155H1097.43V254.357H1088.63V263.155Z" fill="#3F565C"/>
<path d="M1075.63 263.155H1084.43V254.357H1075.63V263.155Z" fill="#3F565C"/>
<path d="M1101.65 277.087H1110.45V268.289H1101.65V277.087Z" fill="#3F565C"/>
<path d="M1075.63 277.087H1084.43V268.289H1075.63V277.087Z" fill="#3F565C"/>
<path d="M1101.65 291.036H1110.45V282.238H1101.65V291.036Z" fill="#3F565C"/>
<path d="M1088.63 291.036H1097.43V282.238H1088.63V291.036Z" fill="#3F565C"/>
<path d="M1101.65 304.968H1110.45V296.17H1101.65V304.968Z" fill="#3F565C"/>
<path d="M1075.63 304.968H1084.43V296.17H1075.63V304.968Z" fill="#3F565C"/>
<path d="M1088.63 318.918H1097.43V310.12H1088.63V318.918Z" fill="#3F565C"/>
<path d="M1075.63 318.918H1084.43V310.12H1075.63V318.918Z" fill="#3F565C"/>
<path d="M1101.65 332.85H1110.45V324.052H1101.65V332.85Z" fill="#3F565C"/>
<path d="M1088.63 332.85H1097.43V324.052H1088.63V332.85Z" fill="#3F565C"/>
<path d="M1088.63 346.799H1097.43V338.001H1088.63V346.799Z" fill="#3F565C"/>
<path d="M1075.63 346.799H1084.43V338.001H1075.63V346.799Z" fill="#3F565C"/>
<path d="M1101.65 360.73H1110.45V351.933H1101.65V360.73Z" fill="#3F565C"/>
<path d="M1088.63 360.73H1097.43V351.933H1088.63V360.73Z" fill="#3F565C"/>
<path d="M1075.63 360.73H1084.43V351.933H1075.63V360.73Z" fill="#3F565C"/>
<path d="M1015.14 350.296H1059.76V217.548H1015.14V350.296Z" fill="#54737A"/>
<path d="M1033.05 231.87H1041.85V223.072H1033.05V231.87Z" fill="#3F565C"/>
<path d="M1020.03 231.87H1028.83V223.072H1020.03V231.87Z" fill="#3F565C"/>
<path d="M1046.05 245.801H1054.85V237.003H1046.05V245.801Z" fill="#3F565C"/>
<path d="M1020.03 245.801H1028.83V237.003H1020.03V245.801Z" fill="#3F565C"/>
<path d="M1046.05 259.751H1054.85V250.954H1046.05V259.751Z" fill="#3F565C"/>
<path d="M1033.05 259.751H1041.85V250.954H1033.05V259.751Z" fill="#3F565C"/>
<path d="M1046.05 273.683H1054.85V264.885H1046.05V273.683Z" fill="#3F565C"/>
<path d="M1020.03 273.683H1028.83V264.885H1020.03V273.683Z" fill="#3F565C"/>
<path d="M1033.05 287.633H1041.85V278.835H1033.05V287.633Z" fill="#3F565C"/>
<path d="M1020.03 287.633H1028.83V278.835H1020.03V287.633Z" fill="#3F565C"/>
<path d="M1046.05 301.564H1054.85V292.767H1046.05V301.564Z" fill="#3F565C"/>
<path d="M1033.05 301.564H1041.85V292.767H1033.05V301.564Z" fill="#3F565C"/>
<path d="M1033.05 315.514H1041.85V306.716H1033.05V315.514Z" fill="#3F565C"/>
<path d="M1020.03 315.514H1028.83V306.716H1020.03V315.514Z" fill="#3F565C"/>
<path d="M1046.05 329.445H1054.85V320.647H1046.05V329.445Z" fill="#3F565C"/>
<path d="M1033.05 329.445H1041.85V320.647H1033.05V329.445Z" fill="#3F565C"/>
<path d="M1020.03 329.445H1028.83V320.647H1020.03V329.445Z" fill="#3F565C"/>
<path d="M805.037 366.069H849.64V233.339H805.037V366.069Z" fill="#54737A"/>
<path d="M822.93 247.643H831.727V238.845H822.93V247.643Z" fill="#3F565C"/>
<path d="M809.928 247.643H818.726V238.845H809.928V247.643Z" fill="#3F565C"/>
<path d="M835.949 261.593H844.747V252.795H835.949V261.593Z" fill="#3F565C"/>
<path d="M809.928 261.593H818.726V252.795H809.928V261.593Z" fill="#3F565C"/>
<path d="M835.949 275.524H844.747V266.727H835.949V275.524Z" fill="#3F565C"/>
<path d="M822.93 275.524H831.727V266.727H822.93V275.524Z" fill="#3F565C"/>
<path d="M835.949 289.474H844.747V280.676H835.949V289.474Z" fill="#3F565C"/>
<path d="M809.928 289.474H818.726V280.676H809.928V289.474Z" fill="#3F565C"/>
<path d="M822.93 303.405H831.727V294.607H822.93V303.405Z" fill="#3F565C"/>
<path d="M809.928 303.405H818.726V294.607H809.928V303.405Z" fill="#3F565C"/>
<path d="M835.949 317.355H844.747V308.558H835.949V317.355Z" fill="#3F565C"/>
<path d="M822.93 317.355H831.727V308.558H822.93V317.355Z" fill="#3F565C"/>
<path d="M822.93 331.287H831.727V322.489H822.93V331.287Z" fill="#3F565C"/>
<path d="M809.928 331.287H818.726V322.489H809.928V331.287Z" fill="#3F565C"/>
<path d="M835.949 345.237H844.747V336.439H835.949V345.237Z" fill="#3F565C"/>
<path d="M822.93 345.237H831.727V336.439H822.93V345.237Z" fill="#3F565C"/>
<path d="M809.928 345.237H818.726V336.439H809.928V345.237Z" fill="#3F565C"/>
<path d="M739.509 250.377V243.606C739.509 233.99 747.302 226.197 756.919 226.197C766.535 226.197 774.328 233.99 774.328 243.606V250.377H779.22V373.211H734.617V250.377H739.509Z" fill="#54737A"/>
<path d="M752.51 268.717H761.326V259.919H752.51V268.717Z" fill="#3F565C"/>
<path d="M748.307 249.261H765.53V242.918C765.53 238.175 761.68 234.307 756.918 234.307C752.157 234.307 748.307 238.175 748.307 242.918V249.261Z" fill="#3F565C"/>
<path d="M739.508 268.716H748.306V259.918H739.508V268.716Z" fill="#3F565C"/>
<path d="M765.529 282.667H774.327V273.869H765.529V282.667Z" fill="#3F565C"/>
<path d="M739.508 282.667H748.306V273.869H739.508V282.667Z" fill="#3F565C"/>
<path d="M752.51 296.598H761.326V287.8H752.51V296.598Z" fill="#3F565C"/>
<path d="M739.508 296.598H748.306V287.8H739.508V296.598Z" fill="#3F565C"/>
<path d="M765.529 310.548H774.327V301.75H765.529V310.548Z" fill="#3F565C"/>
<path d="M752.51 310.548H761.326V301.75H752.51V310.548Z" fill="#3F565C"/>
<path d="M752.51 324.479H761.326V315.682H752.51V324.479Z" fill="#3F565C"/>
<path d="M739.508 324.479H748.306V315.682H739.508V324.479Z" fill="#3F565C"/>
<path d="M752.51 338.43H761.326V329.632H752.51V338.43Z" fill="#3F565C"/>
<path d="M739.508 338.43H748.306V329.632H739.508V338.43Z" fill="#3F565C"/>
<path d="M765.529 352.36H774.327V343.562H765.529V352.36Z" fill="#3F565C"/>
<path d="M752.51 352.36H761.326V343.562H752.51V352.36Z" fill="#3F565C"/>
<path d="M739.508 352.36H748.306V343.562H739.508V352.36Z" fill="#3F565C"/>
<path d="M874.693 350.742H919.296V265.331H874.693V350.742Z" fill="#54737A"/>
<path d="M905.607 288.079H914.405V279.281H905.607V288.079Z" fill="#3F565C"/>
<path d="M879.586 288.079H888.384V279.281H879.586V288.079Z" fill="#3F565C"/>
<path d="M892.605 302.011H901.403V293.213H892.605V302.011Z" fill="#3F565C"/>
<path d="M879.586 302.011H888.384V293.213H879.586V302.011Z" fill="#3F565C"/>
<path d="M905.607 315.961H914.405V307.163H905.607V315.961Z" fill="#3F565C"/>
<path d="M892.605 315.961H901.403V307.163H892.605V315.961Z" fill="#3F565C"/>
<path d="M905.607 329.892H914.405V321.094H905.607V329.892Z" fill="#3F565C"/>
<path d="M892.605 329.892H901.403V321.094H892.605V329.892Z" fill="#3F565C"/>
<path d="M879.586 329.892H888.384V321.094H879.586V329.892Z" fill="#3F565C"/>
<path d="M987.576 385.264H1032.18V299.871H987.576V385.264Z" fill="#54737A"/>
<path d="M1018.49 322.601H1027.29V313.803H1018.49V322.601Z" fill="#3F565C"/>
<path d="M992.469 322.601H1001.27V313.803H992.469V322.601Z" fill="#3F565C"/>
<path d="M1005.49 336.551H1014.29V327.753H1005.49V336.551Z" fill="#3F565C"/>
<path d="M992.469 336.551H1001.27V327.753H992.469V336.551Z" fill="#3F565C"/>
<path d="M1018.49 350.482H1027.29V341.685H1018.49V350.482Z" fill="#3F565C"/>
<path d="M1005.49 350.482H1014.29V341.685H1005.49V350.482Z" fill="#3F565C"/>
<path d="M1018.49 364.432H1027.29V355.634H1018.49V364.432Z" fill="#3F565C"/>
<path d="M1005.49 364.432H1014.29V355.634H1005.49V364.432Z" fill="#3F565C"/>
<path d="M992.469 364.432H1001.27V355.634H992.469V364.432Z" fill="#3F565C"/>
<path d="M855.312 406.858H899.915V321.447H855.312V406.858Z" fill="#54737A"/>
<path d="M886.225 344.195H895.022V335.397H886.225V344.195Z" fill="#3F565C"/>
<path d="M860.203 344.195H869.001V335.397H860.203V344.195Z" fill="#3F565C"/>
<path d="M873.225 358.127H882.022V349.329H873.225V358.127Z" fill="#3F565C"/>
<path d="M860.203 358.127H869.001V349.329H860.203V358.127Z" fill="#3F565C"/>
<path d="M886.225 372.077H895.022V363.279H886.225V372.077Z" fill="#3F565C"/>
<path d="M873.225 372.077H882.022V363.279H873.225V372.077Z" fill="#3F565C"/>
<path d="M886.225 386.008H895.022V377.21H886.225V386.008Z" fill="#3F565C"/>
<path d="M873.225 386.008H882.022V377.21H873.225V386.008Z" fill="#3F565C"/>
<path d="M860.203 386.008H869.001V377.21H860.203V386.008Z" fill="#3F565C"/>
<path d="M999.109 355.634H1043.71V242.342L999.109 270.223V355.634Z" fill="#54737A"/>
<path d="M1030.02 292.952H1038.82V284.154H1030.02V292.952Z" fill="#3F565C"/>
<path d="M1030.02 279.02H1038.82V270.223H1030.02V279.02Z" fill="#3F565C"/>
<path d="M1017 292.952H1025.8V284.154H1017V292.952Z" fill="#3F565C"/>
<path d="M1004 292.952H1012.8V284.154H1004V292.952Z" fill="#3F565C"/>
<path d="M1030.02 306.902H1038.82V298.104H1030.02V306.902Z" fill="#3F565C"/>
<path d="M1017 306.902H1025.8V298.104H1017V306.902Z" fill="#3F565C"/>
<path d="M1004 306.902H1012.8V298.104H1004V306.902Z" fill="#3F565C"/>
<path d="M1030.02 320.834H1038.82V312.036H1030.02V320.834Z" fill="#3F565C"/>
<path d="M1017 320.834H1025.8V312.036H1017V320.834Z" fill="#3F565C"/>
<path d="M1004 320.834H1012.8V312.036H1004V320.834Z" fill="#3F565C"/>
<path d="M1030.02 334.784H1038.82V325.986H1030.02V334.784Z" fill="#3F565C"/>
<path d="M1017 334.784H1025.8V325.986H1017V334.784Z" fill="#3F565C"/>
<path d="M1004 334.784H1012.8V325.986H1004V334.784Z" fill="#3F565C"/>
<path d="M1084.59 422.036H1129.2V283.243H1084.59V422.036Z" fill="#709AA3"/>
<path d="M1102.51 297.565H1111.3V288.768H1102.51V297.565Z" fill="#54737A"/>
<path d="M1089.49 297.565H1098.28V288.768H1089.49V297.565Z" fill="#54737A"/>
<path d="M1115.51 311.496H1124.31V302.698H1115.51V311.496Z" fill="#54737A"/>
<path d="M1089.49 311.496H1098.28V302.698H1089.49V311.496Z" fill="#54737A"/>
<path d="M1115.51 325.446H1124.31V316.648H1115.51V325.446Z" fill="#54737A"/>
<path d="M1102.51 325.446H1111.3V316.648H1102.51V325.446Z" fill="#54737A"/>
<path d="M1115.51 339.378H1124.31V330.58H1115.51V339.378Z" fill="#54737A"/>
<path d="M1089.49 339.378H1098.28V330.58H1089.49V339.378Z" fill="#54737A"/>
<path d="M1102.51 353.328H1111.3V344.53H1102.51V353.328Z" fill="#54737A"/>
<path d="M1089.49 353.328H1098.28V344.53H1089.49V353.328Z" fill="#54737A"/>
<path d="M1115.51 367.26H1124.31V358.462H1115.51V367.26Z" fill="#54737A"/>
<path d="M1102.51 367.26H1111.3V358.462H1102.51V367.26Z" fill="#54737A"/>
<path d="M1102.51 381.209H1111.3V372.411H1102.51V381.209Z" fill="#54737A"/>
<path d="M1089.49 381.209H1098.28V372.411H1089.49V381.209Z" fill="#54737A"/>
<path d="M1115.51 395.141H1124.31V386.343H1115.51V395.141Z" fill="#54737A"/>
<path d="M1102.51 395.141H1111.3V386.343H1102.51V395.141Z" fill="#54737A"/>
<path d="M1089.49 395.141H1098.28V386.343H1089.49V395.141Z" fill="#54737A"/>
<path d="M938.007 280.974V274.204C938.007 264.587 945.8 256.794 955.417 256.794C965.033 256.794 972.826 264.587 972.826 274.204V280.974H977.737V419.693H933.115V280.974H938.007Z" fill="#709AA3"/>
<path d="M951.027 299.313H959.825V290.516H951.027V299.313Z" fill="#54737A"/>
<path d="M946.805 279.858H964.028V273.515C964.028 268.754 960.178 264.903 955.416 264.903C950.673 264.903 946.805 268.754 946.805 273.515V279.858Z" fill="#54737A"/>
<path d="M938.008 299.313H946.806V290.516H938.008V299.313Z" fill="#54737A"/>
<path d="M964.029 313.245H972.827V304.447H964.029V313.245Z" fill="#54737A"/>
<path d="M938.008 313.245H946.806V304.447H938.008V313.245Z" fill="#54737A"/>
<path d="M951.027 327.195H959.825V318.397H951.027V327.195Z" fill="#54737A"/>
<path d="M938.008 327.195H946.806V318.397H938.008V327.195Z" fill="#54737A"/>
<path d="M964.029 341.126H972.827V332.328H964.029V341.126Z" fill="#54737A"/>
<path d="M951.027 341.126H959.825V332.328H951.027V341.126Z" fill="#54737A"/>
<path d="M951.027 355.076H959.825V346.278H951.027V355.076Z" fill="#54737A"/>
<path d="M938.008 355.076H946.806V346.278H938.008V355.076Z" fill="#54737A"/>
<path d="M951.027 369.008H959.825V360.21H951.027V369.008Z" fill="#54737A"/>
<path d="M938.008 369.008H946.806V360.21H938.008V369.008Z" fill="#54737A"/>
<path d="M964.029 382.958H972.827V374.16H964.029V382.958Z" fill="#54737A"/>
<path d="M951.027 382.958H959.825V374.16H951.027V382.958Z" fill="#54737A"/>
<path d="M938.008 382.958H946.806V374.16H938.008V382.958Z" fill="#54737A"/>
<path d="M979.895 418.018H1024.5V316.723H979.895V418.018Z" fill="#709AA3"/>
<path d="M1010.81 339.452H1019.61V330.654H1010.81V339.452Z" fill="#54737A"/>
<path d="M984.787 339.452H993.585V330.654H984.787V339.452Z" fill="#54737A"/>
<path d="M997.789 353.402H1006.61V344.604H997.789V353.402Z" fill="#54737A"/>
<path d="M984.787 353.402H993.585V344.604H984.787V353.402Z" fill="#54737A"/>
<path d="M1010.81 367.334H1019.61V358.536H1010.81V367.334Z" fill="#54737A"/>
<path d="M997.789 367.334H1006.61V358.536H997.789V367.334Z" fill="#54737A"/>
<path d="M1010.81 381.284H1019.61V372.486H1010.81V381.284Z" fill="#54737A"/>
<path d="M997.789 381.284H1006.61V372.486H997.789V381.284Z" fill="#54737A"/>
<path d="M984.787 381.284H993.585V372.486H984.787V381.284Z" fill="#54737A"/>
<path d="M882.729 419.693H927.331V304.856H882.729V419.693Z" fill="#709AA3"/>
<path d="M913.643 327.604H922.44V318.788H913.643V327.604Z" fill="#54737A"/>
<path d="M887.621 327.604H896.419V318.788H887.621V327.604Z" fill="#54737A"/>
<path d="M900.641 341.535H909.438V332.737H900.641V341.535Z" fill="#54737A"/>
<path d="M887.621 341.535H896.419V332.737H887.621V341.535Z" fill="#54737A"/>
<path d="M913.643 355.485H922.44V346.688H913.643V355.485Z" fill="#54737A"/>
<path d="M900.641 355.485H909.438V346.688H900.641V355.485Z" fill="#54737A"/>
<path d="M913.643 369.417H922.44V360.619H913.643V369.417Z" fill="#54737A"/>
<path d="M900.641 369.417H909.438V360.619H900.641V369.417Z" fill="#54737A"/>
<path d="M887.621 369.417H896.419V360.619H887.621V369.417Z" fill="#54737A"/>
<path d="M1033.63 419.693H1078.25V300.374L1033.63 328.255V419.693Z" fill="#709AA3"/>
<path d="M1064.54 351.003H1073.36V342.205H1064.54V351.003Z" fill="#54737A"/>
<path d="M1064.54 337.053H1073.36V328.255H1064.54V337.053Z" fill="#54737A"/>
<path d="M1051.54 351.003H1060.34V342.205H1051.54V351.003Z" fill="#54737A"/>
<path d="M1038.52 351.003H1047.32V342.205H1038.52V351.003Z" fill="#54737A"/>
<path d="M1064.54 364.935H1073.36V356.137H1064.54V364.935Z" fill="#54737A"/>
<path d="M1051.54 364.935H1060.34V356.137H1051.54V364.935Z" fill="#54737A"/>
<path d="M1038.52 364.935H1047.32V356.137H1038.52V364.935Z" fill="#54737A"/>
<path d="M1064.54 378.885H1073.36V370.087H1064.54V378.885Z" fill="#54737A"/>
<path d="M1051.54 378.885H1060.34V370.087H1051.54V378.885Z" fill="#54737A"/>
<path d="M1038.52 378.885H1047.32V370.087H1038.52V378.885Z" fill="#54737A"/>
<path d="M1064.54 392.815H1073.36V384.018H1064.54V392.815Z" fill="#54737A"/>
<path d="M1051.54 392.815H1060.34V384.018H1051.54V392.815Z" fill="#54737A"/>
<path d="M1038.52 392.815H1047.32V384.018H1038.52V392.815Z" fill="#54737A"/>
<path d="M813.648 419.693H858.251V286.963H813.648V419.693Z" fill="#709AA3"/>
<path d="M831.541 301.267H840.339V292.469H831.541V301.267Z" fill="#54737A"/>
<path d="M818.539 301.267H827.337V292.469H818.539V301.267Z" fill="#54737A"/>
<path d="M844.561 315.217H853.358V306.419H844.561V315.217Z" fill="#54737A"/>
<path d="M818.539 315.217H827.337V306.419H818.539V315.217Z" fill="#54737A"/>
<path d="M844.561 329.147H853.358V320.35H844.561V329.147Z" fill="#54737A"/>
<path d="M831.541 329.147H840.339V320.35H831.541V329.147Z" fill="#54737A"/>
<path d="M844.561 343.098H853.358V334.3H844.561V343.098Z" fill="#54737A"/>
<path d="M818.539 343.098H827.337V334.3H818.539V343.098Z" fill="#54737A"/>
<path d="M831.541 357.029H840.339V348.231H831.541V357.029Z" fill="#54737A"/>
<path d="M818.539 357.029H827.337V348.231H818.539V357.029Z" fill="#54737A"/>
<path d="M844.561 370.979H853.358V362.182H844.561V370.979Z" fill="#54737A"/>
<path d="M831.541 370.979H840.339V362.182H831.541V370.979Z" fill="#54737A"/>
<path d="M831.541 384.911H840.339V376.113H831.541V384.911Z" fill="#54737A"/>
<path d="M818.539 384.911H827.337V376.113H818.539V384.911Z" fill="#54737A"/>
<path d="M844.561 398.86H853.358V390.062H844.561V398.86Z" fill="#54737A"/>
<path d="M831.541 398.86H840.339V390.062H831.541V398.86Z" fill="#54737A"/>
<path d="M818.539 398.86H827.337V390.062H818.539V398.86Z" fill="#54737A"/>
<path d="M754.779 303.666V284.583H759.615V270.261H804.218V284.583H809.054V303.666H804.218V312.464H809.054V331.548H804.218V340.346H809.054V359.429H804.218V419.693H759.615V359.429H754.779V340.346H759.615V331.548H754.779V312.464H759.615V303.666H754.779Z" fill="#709AA3"/>
<path d="M790.529 284.583H799.327V275.785H790.529V284.583Z" fill="#54737A"/>
<path d="M777.508 284.583H786.324V275.785H777.508V284.583Z" fill="#54737A"/>
<path d="M777.508 298.514H786.324V289.716H777.508V298.514Z" fill="#54737A"/>
<path d="M764.508 298.514H773.306V289.716H764.508V298.514Z" fill="#54737A"/>
<path d="M790.529 312.464H799.327V303.666H790.529V312.464Z" fill="#54737A"/>
<path d="M764.508 312.464H773.306V303.666H764.508V312.464Z" fill="#54737A"/>
<path d="M777.508 326.395H786.324V317.598H777.508V326.395Z" fill="#54737A"/>
<path d="M764.508 326.395H773.306V317.598H764.508V326.395Z" fill="#54737A"/>
<path d="M790.529 340.345H799.327V331.547H790.529V340.345Z" fill="#54737A"/>
<path d="M777.508 340.345H786.324V331.547H777.508V340.345Z" fill="#54737A"/>
<path d="M790.529 354.276H799.327V345.479H790.529V354.276Z" fill="#54737A"/>
<path d="M764.508 354.276H773.306V345.479H764.508V354.276Z" fill="#54737A"/>
<path d="M790.529 368.226H799.327V359.429H790.529V368.226Z" fill="#54737A"/>
<path d="M777.508 368.226H786.324V359.429H777.508V368.226Z" fill="#54737A"/>
<path d="M764.508 368.226H773.306V359.429H764.508V368.226Z" fill="#54737A"/>
<path d="M777.508 382.158H786.324V373.36H777.508V382.158Z" fill="#54737A"/>
<path d="M764.508 382.158H773.306V373.36H764.508V382.158Z" fill="#54737A"/>
<path d="M751.319 420.437H706.697V307.145L751.319 335.026V420.437Z" fill="#709AA3"/>
<path d="M720.407 357.773H711.609V348.976H720.407V357.773Z" fill="#54737A"/>
<path d="M720.407 343.823H711.609V335.025H720.407V343.823Z" fill="#54737A"/>
<path d="M733.407 357.773H724.609V348.976H733.407V357.773Z" fill="#54737A"/>
<path d="M746.429 357.773H737.631V348.976H746.429V357.773Z" fill="#54737A"/>
<path d="M720.407 371.705H711.609V362.907H720.407V371.705Z" fill="#54737A"/>
<path d="M733.407 371.705H724.609V362.907H733.407V371.705Z" fill="#54737A"/>
<path d="M746.429 371.705H737.631V362.907H746.429V371.705Z" fill="#54737A"/>
<path d="M720.407 385.654H711.609V376.856H720.407V385.654Z" fill="#54737A"/>
<path d="M733.407 385.654H724.609V376.856H733.407V385.654Z" fill="#54737A"/>
<path d="M746.429 385.654H737.631V376.856H746.429V385.654Z" fill="#54737A"/>
<path d="M720.407 399.586H711.609V390.788H720.407V399.586Z" fill="#54737A"/>
<path d="M733.407 399.586H724.609V390.788H733.407V399.586Z" fill="#54737A"/>
<path d="M746.429 399.586H737.631V390.788H746.429V399.586Z" fill="#54737A"/>
</g>
<g opacity="0.4">
<path d="M302 420.585H700.319V350.761H302V420.585Z" fill="#54737A"/>
<path d="M638.324 385.301H678.835V264.773H638.324V385.301Z" fill="#54737A"/>
<path d="M654.6 277.775H662.579V269.777H654.6V277.775Z" fill="#3F565C"/>
<path d="M642.771 277.775H650.769V269.777H642.771V277.775Z" fill="#3F565C"/>
<path d="M666.412 290.423H674.392V282.443H666.412V290.423Z" fill="#3F565C"/>
<path d="M642.771 290.423H650.769V282.443H642.771V290.423Z" fill="#3F565C"/>
<path d="M666.412 303.09H674.392V295.092H666.412V303.09Z" fill="#3F565C"/>
<path d="M654.6 303.09H662.579V295.092H654.6V303.09Z" fill="#3F565C"/>
<path d="M666.412 315.737H674.392V307.758H666.412V315.737Z" fill="#3F565C"/>
<path d="M642.771 315.737H650.769V307.758H642.771V315.737Z" fill="#3F565C"/>
<path d="M654.6 328.404H662.579V320.406H654.6V328.404Z" fill="#3F565C"/>
<path d="M642.771 328.404H650.769V320.406H642.771V328.404Z" fill="#3F565C"/>
<path d="M666.412 341.052H674.392V333.072H666.412V341.052Z" fill="#3F565C"/>
<path d="M654.6 341.052H662.579V333.072H654.6V341.052Z" fill="#3F565C"/>
<path d="M654.6 353.719H662.579V345.721H654.6V353.719Z" fill="#3F565C"/>
<path d="M642.771 353.719H650.769V345.721H642.771V353.719Z" fill="#3F565C"/>
<path d="M666.412 366.366H674.392V358.387H666.412V366.366Z" fill="#3F565C"/>
<path d="M654.6 366.366H662.579V358.387H654.6V366.366Z" fill="#3F565C"/>
<path d="M642.771 366.366H650.769V358.387H642.771V366.366Z" fill="#3F565C"/>
<path d="M587.863 356.899H628.374V236.371H587.863V356.899Z" fill="#54737A"/>
<path d="M604.119 249.373H612.099V241.375H604.119V249.373Z" fill="#3F565C"/>
<path d="M592.309 249.373H600.288V241.375H592.309V249.373Z" fill="#3F565C"/>
<path d="M615.932 262.02H623.93V254.041H615.932V262.02Z" fill="#3F565C"/>
<path d="M592.309 262.02H600.288V254.041H592.309V262.02Z" fill="#3F565C"/>
<path d="M615.932 274.687H623.93V266.689H615.932V274.687Z" fill="#3F565C"/>
<path d="M604.119 274.687H612.099V266.689H604.119V274.687Z" fill="#3F565C"/>
<path d="M615.932 287.335H623.93V279.355H615.932V287.335Z" fill="#3F565C"/>
<path d="M592.309 287.335H600.288V279.355H592.309V287.335Z" fill="#3F565C"/>
<path d="M604.119 300.002H612.099V292.004H604.119V300.002Z" fill="#3F565C"/>
<path d="M592.309 300.002H600.288V292.004H592.309V300.002Z" fill="#3F565C"/>
<path d="M615.932 312.649H623.93V304.67H615.932V312.649Z" fill="#3F565C"/>
<path d="M604.119 312.649H612.099V304.67H604.119V312.649Z" fill="#3F565C"/>
<path d="M604.119 325.316H612.099V317.318H604.119V325.316Z" fill="#3F565C"/>
<path d="M592.309 325.316H600.288V317.318H592.309V325.316Z" fill="#3F565C"/>
<path d="M615.932 337.965H623.93V329.985H615.932V337.965Z" fill="#3F565C"/>
<path d="M604.119 337.965H612.099V329.985H604.119V337.965Z" fill="#3F565C"/>
<path d="M592.309 337.965H600.288V329.985H592.309V337.965Z" fill="#3F565C"/>
<path d="M397.084 371.221H437.576V250.693H397.084V371.221Z" fill="#54737A"/>
<path d="M413.34 263.694H421.319V255.696H413.34V263.694Z" fill="#3F565C"/>
<path d="M401.529 263.694H409.509V255.696H401.529V263.694Z" fill="#3F565C"/>
<path d="M425.15 276.343H433.148V268.363H425.15V276.343Z" fill="#3F565C"/>
<path d="M401.529 276.343H409.509V268.363H401.529V276.343Z" fill="#3F565C"/>
<path d="M425.15 289.009H433.148V281.011H425.15V289.009Z" fill="#3F565C"/>
<path d="M413.34 289.01H421.319V281.012H413.34V289.01Z" fill="#3F565C"/>
<path d="M425.15 301.657H433.148V293.678H425.15V301.657Z" fill="#3F565C"/>
<path d="M401.529 301.657H409.509V293.678H401.529V301.657Z" fill="#3F565C"/>
<path d="M413.34 314.324H421.319V306.326H413.34V314.324Z" fill="#3F565C"/>
<path d="M401.529 314.324H409.509V306.326H401.529V314.324Z" fill="#3F565C"/>
<path d="M425.15 326.972H433.148V318.992H425.15V326.972Z" fill="#3F565C"/>
<path d="M413.34 326.972H421.319V318.992H413.34V326.972Z" fill="#3F565C"/>
<path d="M413.34 339.639H421.319V331.641H413.34V339.639Z" fill="#3F565C"/>
<path d="M401.529 339.639H409.509V331.641H401.529V339.639Z" fill="#3F565C"/>
<path d="M425.15 352.305H433.148V344.307H425.15V352.305Z" fill="#3F565C"/>
<path d="M413.34 352.305H421.319V344.307H413.34V352.305Z" fill="#3F565C"/>
<path d="M401.529 352.305H409.509V344.307H401.529V352.305Z" fill="#3F565C"/>
<path d="M337.582 266.168V260.03C337.582 251.288 344.669 244.22 353.392 244.22C362.116 244.22 369.202 251.288 369.202 260.03V266.168H373.648V377.694H333.137V266.168H337.582Z" fill="#54737A"/>
<path d="M349.393 282.815H357.391V274.836H349.393V282.815Z" fill="#3F565C"/>
<path d="M345.58 265.164H361.204V259.398C361.204 255.083 357.707 251.586 353.392 251.586C349.077 251.586 345.58 255.083 345.58 259.398V265.164Z" fill="#3F565C"/>
<path d="M337.582 282.815H345.58V274.836H337.582V282.815Z" fill="#3F565C"/>
<path d="M361.203 295.481H369.201V287.502H361.203V295.481Z" fill="#3F565C"/>
<path d="M337.582 295.482H345.58V287.503H337.582V295.482Z" fill="#3F565C"/>
<path d="M349.393 308.148H357.391V300.15H349.393V308.148Z" fill="#3F565C"/>
<path d="M337.582 308.148H345.58V300.15H337.582V308.148Z" fill="#3F565C"/>
<path d="M361.203 320.797H369.201V312.817H361.203V320.797Z" fill="#3F565C"/>
<path d="M349.393 320.797H357.391V312.817H349.393V320.797Z" fill="#3F565C"/>
<path d="M349.393 333.463H357.391V325.465H349.393V333.463Z" fill="#3F565C"/>
<path d="M337.582 333.463H345.58V325.465H337.582V333.463Z" fill="#3F565C"/>
<path d="M349.393 346.111H357.391V338.132H349.393V346.111Z" fill="#3F565C"/>
<path d="M337.582 346.111H345.58V338.132H337.582V346.111Z" fill="#3F565C"/>
<path d="M361.203 358.777H369.201V350.779H361.203V358.777Z" fill="#3F565C"/>
<path d="M349.393 358.777H357.391V350.779H349.393V358.777Z" fill="#3F565C"/>
<path d="M337.582 358.777H345.58V350.779H337.582V358.777Z" fill="#3F565C"/>
<path d="M460.322 357.308H500.833V279.746H460.322V357.308Z" fill="#54737A"/>
<path d="M488.41 300.392H496.39V292.413H488.41V300.392Z" fill="#3F565C"/>
<path d="M464.77 300.392H472.768V292.413H464.77V300.392Z" fill="#3F565C"/>
<path d="M476.58 313.059H484.578V305.061H476.58V313.059Z" fill="#3F565C"/>
<path d="M464.77 313.059H472.768V305.061H464.77V313.059Z" fill="#3F565C"/>
<path d="M488.41 325.707H496.39V317.728H488.41V325.707Z" fill="#3F565C"/>
<path d="M476.58 325.707H484.578V317.728H476.58V325.707Z" fill="#3F565C"/>
<path d="M488.41 338.374H496.39V330.376H488.41V338.374Z" fill="#3F565C"/>
<path d="M476.58 338.374H484.578V330.376H476.58V338.374Z" fill="#3F565C"/>
<path d="M464.77 338.374H472.768V330.376H464.77V338.374Z" fill="#3F565C"/>
<path d="M562.828 388.649H603.339V311.105H562.828V388.649Z" fill="#54737A"/>
<path d="M590.895 331.752H598.893V323.754H590.895V331.752Z" fill="#3F565C"/>
<path d="M567.273 331.752H575.271V323.754H567.273V331.752Z" fill="#3F565C"/>
<path d="M579.084 344.4H587.082V336.421H579.084V344.4Z" fill="#3F565C"/>
<path d="M567.273 344.4H575.271V336.421H567.273V344.4Z" fill="#3F565C"/>
<path d="M590.895 357.066H598.893V349.087H590.895V357.066Z" fill="#3F565C"/>
<path d="M579.084 357.066H587.082V349.087H579.084V357.066Z" fill="#3F565C"/>
<path d="M590.895 369.733H598.893V361.735H590.895V369.733Z" fill="#3F565C"/>
<path d="M579.084 369.733H587.082V361.735H579.084V369.733Z" fill="#3F565C"/>
<path d="M567.273 369.733H575.271V361.735H567.273V369.733Z" fill="#3F565C"/>
<path d="M442.729 408.253H483.239V330.71H442.729V408.253Z" fill="#54737A"/>
<path d="M470.795 351.356H478.793V343.358H470.795V351.356Z" fill="#3F565C"/>
<path d="M447.174 351.356H455.172V343.358H447.174V351.356Z" fill="#3F565C"/>
<path d="M458.984 364.005H466.982V356.025H458.984V364.005Z" fill="#3F565C"/>
<path d="M447.174 364.005H455.172V356.025H447.174V364.005Z" fill="#3F565C"/>
<path d="M470.795 376.671H478.793V368.673H470.795V376.671Z" fill="#3F565C"/>
<path d="M458.984 376.671H466.982V368.673H458.984V376.671Z" fill="#3F565C"/>
<path d="M470.795 389.319H478.793V381.34H470.795V389.319Z" fill="#3F565C"/>
<path d="M458.984 389.319H466.982V381.34H458.984V389.319Z" fill="#3F565C"/>
<path d="M447.174 389.319H455.172V381.34H447.174V389.319Z" fill="#3F565C"/>
<path d="M573.299 361.735H613.791V258.877L573.299 284.192V361.735Z" fill="#54737A"/>
<path d="M601.367 304.838H609.347V296.84H601.367V304.838Z" fill="#3F565C"/>
<path d="M601.367 292.171H609.347V284.191H601.367V292.171Z" fill="#3F565C"/>
<path d="M589.557 304.838H597.536V296.84H589.557V304.838Z" fill="#3F565C"/>
<path d="M577.744 304.838H585.724V296.84H577.744V304.838Z" fill="#3F565C"/>
<path d="M601.367 317.485H609.347V309.506H601.367V317.485Z" fill="#3F565C"/>
<path d="M589.557 317.485H597.536V309.506H589.557V317.485Z" fill="#3F565C"/>
<path d="M577.744 317.485H585.724V309.506H577.744V317.485Z" fill="#3F565C"/>
<path d="M601.367 330.152H609.347V322.154H601.367V330.152Z" fill="#3F565C"/>
<path d="M589.557 330.152H597.536V322.154H589.557V330.152Z" fill="#3F565C"/>
<path d="M577.744 330.152H585.724V322.154H577.744V330.152Z" fill="#3F565C"/>
<path d="M601.367 342.801H609.347V334.821H601.367V342.801Z" fill="#3F565C"/>
<path d="M589.557 342.801H597.536V334.821H589.557V342.801Z" fill="#3F565C"/>
<path d="M577.744 342.801H585.724V334.821H577.744V342.801Z" fill="#3F565C"/>
<path d="M650.918 422.036H691.429V296.021H650.918V422.036Z" fill="#709AA3"/>
<path d="M667.174 309.022H675.172V301.024H667.174V309.022Z" fill="#54737A"/>
<path d="M655.363 309.022H663.361V301.024H655.363V309.022Z" fill="#54737A"/>
<path d="M678.984 321.671H686.982V313.691H678.984V321.671Z" fill="#54737A"/>
<path d="M655.363 321.671H663.361V313.691H655.363V321.671Z" fill="#54737A"/>
<path d="M678.984 334.337H686.982V326.339H678.984V334.337Z" fill="#54737A"/>
<path d="M667.174 334.337H675.172V326.339H667.174V334.337Z" fill="#54737A"/>
<path d="M678.984 346.985H686.982V339.006H678.984V346.985Z" fill="#54737A"/>
<path d="M655.363 346.985H663.361V339.006H655.363V346.985Z" fill="#54737A"/>
<path d="M667.174 359.652H675.172V351.654H667.174V359.652Z" fill="#54737A"/>
<path d="M655.363 359.652H663.361V351.654H655.363V359.652Z" fill="#54737A"/>
<path d="M678.984 372.3H686.982V364.32H678.984V372.3Z" fill="#54737A"/>
<path d="M667.174 372.3H675.172V364.32H667.174V372.3Z" fill="#54737A"/>
<path d="M667.174 384.967H675.172V376.969H667.174V384.967Z" fill="#54737A"/>
<path d="M655.363 384.967H663.361V376.969H655.363V384.967Z" fill="#54737A"/>
<path d="M678.984 397.614H686.982V389.635H678.984V397.614Z" fill="#54737A"/>
<path d="M667.174 397.614H675.172V389.635H667.174V397.614Z" fill="#54737A"/>
<path d="M655.363 397.614H663.361V389.635H655.363V397.614Z" fill="#54737A"/>
<path d="M517.834 293.957V287.8C517.834 279.077 524.902 271.99 533.625 271.99C542.367 271.99 549.435 279.077 549.435 287.8V293.957H553.881V419.916H513.389V293.957H517.834Z" fill="#709AA3"/>
<path d="M529.645 310.603H537.624V302.605H529.645V310.603Z" fill="#54737A"/>
<path d="M525.814 292.933H541.457V287.186C541.457 282.871 537.96 279.355 533.626 279.355C529.311 279.355 525.814 282.871 525.814 287.186V292.933Z" fill="#54737A"/>
<path d="M517.834 310.603H525.813V302.605H517.834V310.603Z" fill="#54737A"/>
<path d="M541.457 323.252H549.436V315.272H541.457V323.252Z" fill="#54737A"/>
<path d="M517.834 323.252H525.813V315.272H517.834V323.252Z" fill="#54737A"/>
<path d="M529.645 335.918H537.624V327.92H529.645V335.918Z" fill="#54737A"/>
<path d="M517.834 335.918H525.813V327.92H517.834V335.918Z" fill="#54737A"/>
<path d="M541.457 348.585H549.436V340.587H541.457V348.585Z" fill="#54737A"/>
<path d="M529.645 348.585H537.624V340.587H529.645V348.585Z" fill="#54737A"/>
<path d="M529.645 361.233H537.624V353.254H529.645V361.233Z" fill="#54737A"/>
<path d="M517.834 361.233H525.813V353.254H517.834V361.233Z" fill="#54737A"/>
<path d="M529.645 373.899H537.624V365.901H529.645V373.899Z" fill="#54737A"/>
<path d="M517.834 373.899H525.813V365.901H517.834V373.899Z" fill="#54737A"/>
<path d="M541.457 386.548H549.436V378.568H541.457V386.548Z" fill="#54737A"/>
<path d="M529.645 386.548H537.624V378.568H529.645V386.548Z" fill="#54737A"/>
<path d="M517.834 386.548H525.813V378.568H517.834V386.548Z" fill="#54737A"/>
<path d="M555.854 418.391H596.364V326.414H555.854V418.391Z" fill="#709AA3"/>
<path d="M583.92 347.06H591.918V339.062H583.92V347.06Z" fill="#54737A"/>
<path d="M560.299 347.06H568.278V339.062H560.299V347.06Z" fill="#54737A"/>
<path d="M572.109 359.708H580.089V351.729H572.109V359.708Z" fill="#54737A"/>
<path d="M560.299 359.708H568.278V351.729H560.299V359.708Z" fill="#54737A"/>
<path d="M583.92 372.374H591.918V364.376H583.92V372.374Z" fill="#54737A"/>
<path d="M572.109 372.374H580.089V364.376H572.109V372.374Z" fill="#54737A"/>
<path d="M583.92 385.022H591.918V377.043H583.92V385.022Z" fill="#54737A"/>
<path d="M572.109 385.022H580.089V377.043H572.109V385.022Z" fill="#54737A"/>
<path d="M560.299 385.022H568.278V377.043H560.299V385.022Z" fill="#54737A"/>
<path d="M467.633 419.916H508.125V315.645H467.633V419.916Z" fill="#709AA3"/>
<path d="M495.701 336.29H503.681V328.292H495.701V336.29Z" fill="#54737A"/>
<path d="M472.061 336.29H480.059V328.292H472.061V336.29Z" fill="#54737A"/>
<path d="M483.891 348.938H491.87V340.959H483.891V348.938Z" fill="#54737A"/>
<path d="M472.061 348.938H480.059V340.959H472.061V348.938Z" fill="#54737A"/>
<path d="M495.701 361.604H503.681V353.606H495.701V361.604Z" fill="#54737A"/>
<path d="M483.891 361.604H491.87V353.606H483.891V361.604Z" fill="#54737A"/>
<path d="M495.701 374.253H503.681V366.273H495.701V374.253Z" fill="#54737A"/>
<path d="M483.891 374.253H491.87V366.273H483.891V374.253Z" fill="#54737A"/>
<path d="M472.061 374.253H480.059V366.273H472.061V374.253Z" fill="#54737A"/>
<path d="M604.641 419.916H645.151V311.571L604.641 336.886V419.916Z" fill="#709AA3"/>
<path d="M632.727 357.531H640.706V349.552H632.727V357.531Z" fill="#54737A"/>
<path d="M632.727 344.884H640.706V336.886H632.727V344.884Z" fill="#54737A"/>
<path d="M620.916 357.531H628.895V349.552H620.916V357.531Z" fill="#54737A"/>
<path d="M609.086 357.531H617.084V349.552H609.086V357.531Z" fill="#54737A"/>
<path d="M632.727 370.198H640.706V362.2H632.727V370.198Z" fill="#54737A"/>
<path d="M620.916 370.198H628.895V362.2H620.916V370.198Z" fill="#54737A"/>
<path d="M609.086 370.198H617.084V362.2H609.086V370.198Z" fill="#54737A"/>
<path d="M632.727 382.847H640.706V374.867H632.727V382.847Z" fill="#54737A"/>
<path d="M620.916 382.847H628.895V374.867H620.916V382.847Z" fill="#54737A"/>
<path d="M609.086 382.847H617.084V374.867H609.086V382.847Z" fill="#54737A"/>
<path d="M632.727 395.513H640.706V387.515H632.727V395.513Z" fill="#54737A"/>
<path d="M620.916 395.513H628.895V387.515H620.916V395.513Z" fill="#54737A"/>
<path d="M609.086 395.513H617.084V387.515H609.086V395.513Z" fill="#54737A"/>
<path d="M404.895 419.916H445.405V299.388H404.895V419.916Z" fill="#709AA3"/>
<path d="M421.152 312.371H429.15V304.392H421.152V312.371Z" fill="#54737A"/>
<path d="M409.34 312.371H417.338V304.392H409.34V312.371Z" fill="#54737A"/>
<path d="M432.963 325.037H440.961V317.039H432.963V325.037Z" fill="#54737A"/>
<path d="M409.34 325.037H417.338V317.039H409.34V325.037Z" fill="#54737A"/>
<path d="M432.963 337.685H440.961V329.706H432.963V337.685Z" fill="#54737A"/>
<path d="M421.152 337.685H429.15V329.706H421.152V337.685Z" fill="#54737A"/>
<path d="M432.963 350.351H440.961V342.372H432.963V350.351Z" fill="#54737A"/>
<path d="M409.34 350.351H417.338V342.372H409.34V350.351Z" fill="#54737A"/>
<path d="M421.152 363.019H429.15V355.021H421.152V363.019Z" fill="#54737A"/>
<path d="M409.34 363.019H417.338V355.021H409.34V363.019Z" fill="#54737A"/>
<path d="M432.963 375.667H440.961V367.688H432.963V375.667Z" fill="#54737A"/>
<path d="M421.152 375.667H429.15V367.688H421.152V375.667Z" fill="#54737A"/>
<path d="M421.152 388.333H429.15V380.335H421.152V388.333Z" fill="#54737A"/>
<path d="M409.34 388.333H417.338V380.335H409.34V388.333Z" fill="#54737A"/>
<path d="M432.963 400.981H440.961V393.002H432.963V400.981Z" fill="#54737A"/>
<path d="M421.152 400.981H429.15V393.002H421.152V400.981Z" fill="#54737A"/>
<path d="M409.34 400.981H417.338V393.002H409.34V400.981Z" fill="#54737A"/>
<path d="M351.457 314.547V297.211H355.828V284.229H396.339V297.211H400.728V314.547H396.339V322.545H400.728V339.861H396.339V347.859H400.728V365.176H396.339V419.916H355.828V365.176H351.457V347.859H355.828V339.861H351.457V322.545H355.828V314.547H351.457Z" fill="#709AA3"/>
<path d="M383.914 297.212H391.893V289.232H383.914V297.212Z" fill="#54737A"/>
<path d="M372.104 297.212H380.083V289.232H372.104V297.212Z" fill="#54737A"/>
<path d="M372.104 309.878H380.083V301.898H372.104V309.878Z" fill="#54737A"/>
<path d="M360.273 309.878H368.271V301.898H360.273V309.878Z" fill="#54737A"/>
<path d="M383.914 322.545H391.893V314.547H383.914V322.545Z" fill="#54737A"/>
<path d="M360.273 322.545H368.271V314.547H360.273V322.545Z" fill="#54737A"/>
<path d="M372.104 335.193H380.083V327.214H372.104V335.193Z" fill="#54737A"/>
<path d="M360.273 335.193H368.271V327.214H360.273V335.193Z" fill="#54737A"/>
<path d="M383.914 347.859H391.893V339.861H383.914V347.859Z" fill="#54737A"/>
<path d="M372.104 347.859H380.083V339.861H372.104V347.859Z" fill="#54737A"/>
<path d="M383.914 360.508H391.893V352.528H383.914V360.508Z" fill="#54737A"/>
<path d="M360.273 360.508H368.271V352.528H360.273V360.508Z" fill="#54737A"/>
<path d="M383.914 373.174H391.893V365.176H383.914V373.174Z" fill="#54737A"/>
<path d="M372.104 373.174H380.083V365.176H372.104V373.174Z" fill="#54737A"/>
<path d="M360.273 373.174H368.271V365.176H360.273V373.174Z" fill="#54737A"/>
<path d="M372.104 385.822H380.083V377.843H372.104V385.822Z" fill="#54737A"/>
<path d="M360.273 385.822H368.271V377.843H360.273V385.822Z" fill="#54737A"/>
<path d="M348.314 420.586H307.803V317.728L348.314 343.042V420.586Z" fill="#709AA3"/>
<path d="M320.227 363.688H312.248V355.69H320.227V363.688Z" fill="#54737A"/>
<path d="M320.227 351.021H312.248V343.042H320.227V351.021Z" fill="#54737A"/>
<path d="M332.04 363.688H324.061V355.69H332.04V363.688Z" fill="#54737A"/>
<path d="M343.869 363.688H335.871V355.69H343.869V363.688Z" fill="#54737A"/>
<path d="M320.227 376.336H312.248V368.356H320.227V376.336Z" fill="#54737A"/>
<path d="M332.04 376.336H324.061V368.356H332.04V376.336Z" fill="#54737A"/>
<path d="M343.869 376.336H335.871V368.356H343.869V376.336Z" fill="#54737A"/>
<path d="M320.227 389.003H312.248V381.005H320.227V389.003Z" fill="#54737A"/>
<path d="M332.04 389.003H324.061V381.005H332.04V389.003Z" fill="#54737A"/>
<path d="M343.869 389.003H335.871V381.005H343.869V389.003Z" fill="#54737A"/>
<path d="M320.227 401.65H312.248V393.671H320.227V401.65Z" fill="#54737A"/>
<path d="M332.04 401.65H324.061V393.671H332.04V401.65Z" fill="#54737A"/>
<path d="M343.869 401.65H335.871V393.671H343.869V401.65Z" fill="#54737A"/>
</g>
</g>
<path d="M1440 412.886C1261.28 408.043 1004.86 405 720 405C435.136 405 178.72 408.043 0 412.886V549H1440V412.886Z" fill="white"/>
<path d="M1041.7 476.907H902.669C893.629 476.907 886.301 469.578 886.301 460.539V119.954C886.301 110.914 893.629 103.586 902.669 103.586H1041.7C1050.74 103.586 1058.07 110.914 1058.07 119.954V460.539C1058.07 469.578 1050.74 476.907 1041.7 476.907Z" fill="#414042"/>
<path d="M1057.31 476.907H918.292C909.252 476.907 901.924 469.578 901.924 460.539V119.954C901.924 110.914 909.252 103.586 918.292 103.586H1057.31C1066.35 103.586 1073.68 110.914 1073.68 119.954V460.539C1073.68 469.578 1066.35 476.907 1057.31 476.907Z" fill="#D1D3D4"/>
<path d="M1059.37 476.907H920.356C911.317 476.907 903.988 469.578 903.988 460.539V119.954C903.988 110.914 911.317 103.586 920.356 103.586H1059.37C1068.41 103.586 1075.74 110.914 1075.74 119.954V460.539C1075.74 469.578 1068.41 476.907 1059.37 476.907Z" fill="#231F20"/>
<path d="M1013.66 134.778C1013.66 139.075 1010.18 142.553 1005.86 142.553H973.87C969.555 142.553 966.076 139.075 966.076 134.778C966.076 128.733 961.185 123.841 955.14 123.841H918.591C912.676 123.841 907.877 128.622 907.877 134.536V460.185C907.877 467.03 913.438 472.591 920.302 472.591H1059.43C1066.29 472.591 1071.85 467.03 1071.85 460.185V134.536C1071.85 128.622 1067.06 123.841 1061.14 123.841H1024.59C1018.55 123.841 1013.66 128.733 1013.66 134.778Z" fill="#CEC4AF"/>
<path fill-rule="evenodd" clip-rule="evenodd" d="M958.395 204.193L914.294 246.564L1067.73 364.116L1071.85 359.987V374.067L1068.19 371.258L969.871 469.578C970.875 470.601 971.88 471.587 972.884 472.591H959.25L962.263 469.578C944.91 452.187 926.607 433.903 907.877 415.192V407.603C928.932 428.64 948.351 448.058 966.058 465.784L1063.89 367.948L910.927 250.749L907.877 255.771V241.654L909.979 243.253L954.34 200.622L907.877 159.609V145.269L962.133 193.164L1034.3 123.841H1042.06L966.169 196.735L1071.85 290.032V304.373L958.395 204.193ZM1048.62 472.591L1071.85 445.956V454.14L1055.77 472.591H1048.62Z" fill="#F3F0EB"/>
<path d="M1071.85 153.043L953.391 315.645L907.877 279.04V292.841L947.067 324.349L907.877 378.141V396.406L955.437 331.101L1007.42 372.914L911.448 468.89C913.717 471.178 916.842 472.591 920.302 472.591H922.962L1015.85 379.703L1071.24 424.25L999.147 472.591H1018.45L1071.85 436.786V410.932L1023.49 372.04L1071.85 323.698V308.502L1015.07 365.269L961.78 322.396L1071.85 171.29V153.043ZM930.346 123.841L907.877 159.367V179.474L943.068 123.841H930.346Z" fill="#FFF200"/>
<path opacity="0.2" d="M1007.22 103.586H920.356C911.317 103.586 903.988 110.914 903.988 119.954V460.539C903.988 469.578 911.317 476.907 920.356 476.907H987.8C938.715 285.736 989.474 146.459 1007.22 103.586Z" fill="white"/>
<g style="mix-blend-mode:multiply">
<path d="M1046.78 147.221H1044.62V135.131H1046.78V147.221Z" fill="#6D6E71"/>
<path d="M1043.83 147.221H1041.67V138.145H1043.83V147.221Z" fill="#6D6E71"/>
<path d="M1040.87 147.221H1038.71V141.158H1040.87V147.221Z" fill="#6D6E71"/>
<path d="M1037.91 147.221H1035.75V144.171H1037.91V147.221Z" fill="#6D6E71"/>
<path fill-rule="evenodd" clip-rule="evenodd" d="M1058.07 136.099V147.221H1051.45V136.099H1052.98V135.131H1056.55V136.099H1058.07ZM1057.63 138.87V136.601H1051.9V138.87H1057.63Z" fill="#6D6E71"/>
<path d="M962.58 159.497H962.524L959.139 161.636L958.637 159.274L962.878 156.596H965.128V179.511H962.58V159.497Z" fill="#6D6E71"/>
<path fill-rule="evenodd" clip-rule="evenodd" d="M985.18 167.811C985.18 175.586 982.687 179.901 978.409 179.901C974.615 179.901 972.011 175.698 971.955 168.128C971.955 160.409 974.782 156.224 978.744 156.224C982.799 156.224 985.18 160.52 985.18 167.811ZM974.615 168.165C974.615 174.117 976.159 177.502 978.558 177.502C981.218 177.502 982.501 173.801 982.501 167.942C982.501 162.306 981.311 158.604 978.558 158.604C976.289 158.604 974.615 161.915 974.615 168.165Z" fill="#6D6E71"/>
<path d="M987.801 165.263C987.801 163.961 988.545 163.05 989.568 163.05C990.647 163.05 991.335 163.961 991.335 165.263C991.335 166.509 990.647 167.458 989.531 167.458C988.526 167.458 987.801 166.509 987.801 165.263ZM987.801 177.707C987.801 176.405 988.545 175.493 989.568 175.493C990.647 175.493 991.335 176.405 991.335 177.707C991.335 178.934 990.647 179.901 989.531 179.901C988.526 179.901 987.801 178.934 987.801 177.707Z" fill="#6D6E71"/>
<path fill-rule="evenodd" clip-rule="evenodd" d="M1006.72 167.811C1006.72 175.586 1004.22 179.901 999.946 179.901C996.152 179.901 993.548 175.698 993.492 168.128C993.492 160.409 996.319 156.224 1000.28 156.224C1004.35 156.224 1006.72 160.52 1006.72 167.811ZM996.152 168.165C996.152 174.117 997.696 177.502 1000.1 177.502C1002.75 177.502 1004.04 173.801 1004.04 167.942C1004.04 162.306 1002.85 158.604 1000.1 158.604C997.826 158.604 996.152 161.915 996.152 168.165Z" fill="#6D6E71"/>
<path d="M1020.71 159.218H1013.28L1012.54 165.096C1012.99 165.022 1013.41 164.984 1014.14 164.984C1015.66 164.984 1017.12 165.338 1018.32 166.231C1019.85 167.216 1021.1 169.225 1021.1 172.071C1021.1 176.554 1018.08 179.902 1013.86 179.902C1011.74 179.902 1009.97 179.195 1009.01 178.488L1009.68 176.126C1010.48 176.684 1012.07 177.391 1013.86 177.391C1016.32 177.391 1018.47 175.493 1018.44 172.424C1018.44 169.467 1016.72 167.384 1012.87 167.384C1011.74 167.384 1010.87 167.495 1010.16 167.588L1011.41 156.596H1020.71V159.218Z" fill="#6D6E71"/>
</g>
<path d="M972.195 231.852C982.779 231.852 991.372 240.11 991.372 250.303C991.372 260.477 982.779 293.976 972.195 293.976C961.593 293.976 953 260.477 953 250.303C953 240.11 961.593 231.852 972.195 231.852Z" fill="#ED1C24"/>
<path d="M972.194 234.883C980.992 234.883 988.116 241.728 988.116 250.191C988.116 258.654 980.992 265.499 972.194 265.499C963.396 265.499 956.254 258.654 956.254 250.191C956.254 241.728 963.396 234.883 972.194 234.883Z" fill="#E6E7E8"/>
<g style="mix-blend-mode:multiply">
<path d="M856.41 474.339C856.41 475.753 746.931 476.906 611.895 476.906C476.84 476.906 367.379 475.753 367.379 474.339C367.379 472.944 476.84 471.791 611.895 471.791C746.931 471.791 856.41 472.944 856.41 474.339Z" fill="#58595B"/>
</g>
<path d="M627.891 443.947C627.891 427.17 639.683 413.555 654.21 413.555H638.995C624.45 413.555 612.676 427.17 612.676 443.947C612.676 460.743 624.45 474.339 638.995 474.339H654.21C639.683 474.339 627.891 460.743 627.891 443.947Z" fill="#231F20"/>
<path d="M653.614 413.555C668.494 413.555 680.529 427.17 680.529 443.947C680.529 460.743 668.494 474.339 653.614 474.339C638.753 474.339 626.719 460.743 626.719 443.947C626.719 427.17 638.753 413.555 653.614 413.555Z" fill="#939598"/>
<path d="M654.21 413.555C668.755 413.555 680.529 427.17 680.529 443.947C680.529 460.743 668.755 474.339 654.21 474.339C639.683 474.339 627.891 460.743 627.891 443.947C627.891 427.17 639.683 413.555 654.21 413.555Z" fill="black"/>
<path d="M396.952 443.947C396.952 427.17 408.726 413.555 423.271 413.555H408.038C393.511 413.555 381.719 427.17 381.719 443.947C381.719 460.743 393.511 474.339 408.038 474.339H423.271C408.726 474.339 396.952 460.743 396.952 443.947Z" fill="#231F20"/>
<path d="M422.676 413.555C437.537 413.555 449.572 427.17 449.572 443.947C449.572 460.743 437.537 474.339 422.676 474.339C407.815 474.339 395.762 460.743 395.762 443.947C395.762 427.17 407.815 413.555 422.676 413.555Z" fill="#939598"/>
<path d="M423.272 413.555C437.799 413.555 449.573 427.17 449.573 443.947C449.573 460.743 437.799 474.339 423.272 474.339C408.727 474.339 396.953 460.743 396.953 443.947C396.953 427.17 408.727 413.555 423.272 413.555Z" fill="black"/>
<path d="M717.096 394.974H522.67H400.673C386.314 394.974 374.67 406.654 374.67 421.069V443.947C374.67 446.161 377.33 454.903 385.086 454.903H500.648H678.538H800.536C804.218 454.903 807.901 454.252 811.361 452.987L825.85 447.109C833.848 443.854 839.093 436.042 839.093 427.375V394.974H717.096Z" fill="black"/>
<path d="M543.391 474.339H528.176C513.631 474.339 501.857 460.743 501.857 443.947C501.857 427.17 513.631 413.555 528.176 413.555H543.391C528.846 413.555 517.072 427.17 517.072 443.947C517.072 460.743 528.846 474.339 543.391 474.339Z" fill="black"/>
<mask id="mask0_208_4764" style="mask-type:luminance" maskUnits="userSpaceOnUse" x="501" y="413" width="43" height="62">
<path d="M543.389 474.347H528.167C513.629 474.347 501.85 460.74 501.85 443.951C501.85 427.172 513.629 413.562 528.167 413.562H543.389C528.851 413.562 517.072 427.172 517.072 443.951C517.072 460.74 528.851 474.347 543.389 474.347Z" fill="white"/>
</mask>
<g mask="url(#mask0_208_4764)">
<path d="M517.072 443.947C517.072 442.31 517.184 440.711 517.407 439.148H502.192C501.969 440.711 501.857 442.31 501.857 443.947C501.857 460.743 513.631 474.34 528.176 474.34H543.391C528.846 474.34 517.072 460.743 517.072 443.947Z" fill="black"/>
<path d="M508.125 424.25C506.19 426.891 504.628 429.904 503.531 433.215C502.917 435.112 502.47 437.103 502.191 439.149H517.406C517.685 437.103 518.132 435.112 518.764 433.215C519.843 429.904 521.405 426.891 523.358 424.25H508.125Z" fill="black"/>
<path d="M513.221 418.948C511.324 420.455 509.613 422.24 508.125 424.249H523.358C524.846 422.24 526.558 420.455 528.436 418.948H513.221Z" fill="black"/>
<path d="M543.392 413.555H528.177C522.616 413.555 517.463 415.545 513.223 418.949H528.437C532.678 415.545 537.83 413.555 543.392 413.555Z" fill="black"/>
</g>
<path d="M542.795 413.555C557.656 413.555 569.709 427.17 569.709 443.947C569.709 460.743 557.656 474.339 542.795 474.339C527.934 474.339 515.881 460.743 515.881 443.947C515.881 427.17 527.934 413.555 542.795 413.555Z" fill="#939598"/>
<path d="M543.391 413.555C557.918 413.555 569.71 427.17 569.71 443.947C569.71 460.743 557.918 474.339 543.391 474.339C528.846 474.339 517.072 460.743 517.072 443.947C517.072 427.17 528.846 413.555 543.391 413.555Z" fill="#414042"/>
<path d="M543.391 421.349C554.198 421.349 562.959 431.467 562.959 443.948C562.959 456.447 554.198 466.565 543.391 466.565C532.585 466.565 523.824 456.447 523.824 443.948C523.824 431.467 532.585 421.349 543.391 421.349Z" fill="#231F20"/>
<g style="mix-blend-mode:multiply">
<path d="M543.391 424.641C552.617 424.641 560.113 433.29 560.113 443.947C560.113 454.624 552.617 463.273 543.391 463.273C534.147 463.273 526.67 454.624 526.67 443.947C526.67 433.29 534.147 424.641 543.391 424.641Z" fill="black"/>
</g>
<path fill-rule="evenodd" clip-rule="evenodd" d="M562.066 443.966C562.066 455.888 553.714 465.542 543.391 465.542C533.068 465.542 524.717 455.888 524.717 443.966C524.717 432.062 533.068 422.408 543.391 422.408C553.714 422.408 562.066 432.062 562.066 443.966ZM556.095 457.544C557.732 455.479 559.015 453.042 559.796 450.327L546.256 446.123L556.095 457.544ZM546.442 442.18L559.927 437.995C559.183 435.261 557.936 432.806 556.337 430.722L546.442 442.18ZM543.391 423.971C542.201 423.971 541.066 424.101 539.95 424.361L543.559 440.022L547.167 424.454C545.939 424.157 544.693 423.971 543.391 423.971ZM540.341 445.77L526.856 449.955C527.6 452.689 528.846 455.163 530.446 457.246L540.341 445.77ZM540.527 441.808L530.687 430.406C529.051 432.452 527.767 434.889 526.986 437.604L540.527 441.808ZM543.391 463.961C544.563 463.961 545.716 463.83 546.832 463.57L543.205 447.927L539.615 463.477C540.824 463.793 542.089 463.961 543.391 463.961Z" fill="#E6E7E8"/>
<g style="mix-blend-mode:multiply">
<path d="M543.391 443.278C549.733 443.278 555.63 444.561 560.503 446.737C560.614 445.826 560.689 444.896 560.689 443.947C560.689 432.917 552.951 423.971 543.391 423.971C533.83 423.971 526.074 432.917 526.074 443.947C526.074 444.896 526.149 445.826 526.26 446.737C531.152 444.561 537.048 443.278 543.391 443.278Z" fill="#D1D3D4"/>
</g>
<path fill-rule="evenodd" clip-rule="evenodd" d="M562.066 443.966C562.066 455.87 553.714 465.523 543.41 465.523C533.105 465.523 524.754 455.87 524.754 443.966C524.754 432.062 533.105 422.408 543.41 422.408C553.714 422.408 562.066 432.062 562.066 443.966ZM560.745 443.966C560.745 432.899 552.989 423.915 543.41 423.915C533.831 423.915 526.056 432.899 526.056 443.966C526.056 455.033 533.831 463.998 543.41 463.998C552.989 463.998 560.745 455.033 560.745 443.966Z" fill="white"/>
<g style="mix-blend-mode:multiply">
<path d="M540.954 437.363C544.098 437.363 546.665 440.321 546.665 443.948C546.665 447.593 544.098 456.391 540.954 456.391C537.792 456.391 535.244 447.593 535.244 443.948C535.244 440.321 537.792 437.363 540.954 437.363Z" fill="#939598"/>
</g>
<path d="M540.954 437.363C544.098 437.363 546.665 440.321 546.665 443.948C546.665 447.593 544.098 450.551 540.954 450.551C537.792 450.551 535.244 447.593 535.244 443.948C535.244 440.321 537.792 437.363 540.954 437.363Z" fill="black"/>
<path d="M543.39 437.363C546.533 437.363 549.1 440.321 549.1 443.948C549.1 447.593 546.533 450.551 543.39 450.551C540.228 450.551 537.68 447.593 537.68 443.948C537.68 440.321 540.228 437.363 543.39 437.363Z" fill="white"/>
<path d="M774.347 474.339H759.114C744.587 474.339 732.795 460.743 732.795 443.947C732.795 427.17 744.587 413.555 759.114 413.555H774.347C759.802 413.555 748.028 427.17 748.028 443.947C748.028 460.743 759.802 474.339 774.347 474.339Z" fill="black"/>
<mask id="mask1_208_4764" style="mask-type:luminance" maskUnits="userSpaceOnUse" x="732" y="413" width="43" height="62">
<path d="M774.338 474.347H759.118C744.58 474.347 732.801 460.74 732.801 443.951C732.801 427.172 744.58 413.562 759.118 413.562H774.338C759.801 413.562 748.021 427.172 748.021 443.951C748.021 460.74 759.801 474.347 774.338 474.347Z" fill="white"/>
</mask>
<g mask="url(#mask1_208_4764)">
<path d="M748.028 443.947C748.028 442.31 748.14 440.711 748.363 439.148H733.13C732.925 440.711 732.795 442.31 732.795 443.947C732.795 460.743 744.587 474.34 759.114 474.34H774.347C759.802 474.34 748.028 460.743 748.028 443.947Z" fill="black"/>
<path d="M739.081 424.25C737.128 426.891 735.566 429.904 734.487 433.215C733.873 435.112 733.408 437.103 733.129 439.149H748.362C748.641 437.103 749.088 435.112 749.702 433.215C750.799 429.904 752.361 426.891 754.296 424.25H739.081Z" fill="black"/>
<path d="M744.16 418.948C742.281 420.455 740.57 422.24 739.082 424.249H754.297C755.785 422.24 757.496 420.455 759.393 418.948H744.16Z" fill="black"/>
<path d="M774.348 413.555H759.115C753.572 413.555 748.42 415.545 744.16 418.949H759.394C763.634 415.545 768.787 413.555 774.348 413.555Z" fill="black"/>
</g>
<path d="M773.752 413.555C788.613 413.555 800.648 427.17 800.648 443.947C800.648 460.743 788.613 474.339 773.752 474.339C758.891 474.339 746.838 460.743 746.838 443.947C746.838 427.17 758.891 413.555 773.752 413.555Z" fill="#939598"/>
<path d="M774.346 413.555C788.873 413.555 800.647 427.17 800.647 443.947C800.647 460.743 788.873 474.339 774.346 474.339C759.801 474.339 748.027 460.743 748.027 443.947C748.027 427.17 759.801 413.555 774.346 413.555Z" fill="#414042"/>
<path d="M774.348 421.349C785.154 421.349 793.915 431.467 793.915 443.948C793.915 456.447 785.154 466.565 774.348 466.565C763.522 466.565 754.762 456.447 754.762 443.948C754.762 431.467 763.522 421.349 774.348 421.349Z" fill="#231F20"/>
<g style="mix-blend-mode:multiply">
<path d="M774.346 424.641C783.572 424.641 791.068 433.29 791.068 443.947C791.068 454.624 783.572 463.273 774.346 463.273C765.102 463.273 757.625 454.624 757.625 443.947C757.625 433.29 765.102 424.641 774.346 424.641Z" fill="black"/>
</g>
<path fill-rule="evenodd" clip-rule="evenodd" d="M793.021 443.966C793.021 455.888 784.651 465.542 774.328 465.542C764.023 465.542 755.672 455.888 755.672 443.966C755.672 432.062 764.023 422.408 774.328 422.408C784.651 422.408 793.021 432.062 793.021 443.966ZM787.05 457.544C788.687 455.479 789.97 453.042 790.751 450.327L777.211 446.123L787.05 457.544ZM777.397 442.18L790.863 437.995C790.138 435.261 788.891 432.806 787.273 430.722L777.397 442.18ZM774.346 423.971C773.174 423.971 772.021 424.101 770.905 424.361L774.532 440.022L778.122 424.454C776.913 424.157 775.648 423.971 774.346 423.971ZM771.314 445.77L757.829 449.955C758.555 452.689 759.801 455.163 761.419 457.246L771.314 445.77ZM771.482 441.808L761.661 430.406C760.006 432.452 758.741 434.889 757.941 437.604L771.482 441.808ZM774.365 463.961C775.537 463.961 776.69 463.83 777.806 463.57L774.179 447.927L770.589 463.477C771.798 463.793 773.063 463.961 774.365 463.961Z" fill="#E6E7E8"/>
<g style="mix-blend-mode:multiply">
<path d="M774.348 443.278C780.69 443.278 786.587 444.561 791.46 446.737C791.571 445.826 791.646 444.896 791.646 443.947C791.646 432.917 783.908 423.971 774.348 423.971C764.769 423.971 757.031 432.917 757.031 443.947C757.031 444.896 757.106 445.826 757.217 446.737C762.09 444.561 767.987 443.278 774.348 443.278Z" fill="#D1D3D4"/>
</g>
<path fill-rule="evenodd" clip-rule="evenodd" d="M793.023 443.966C793.023 455.87 784.671 465.523 774.367 465.523C764.062 465.523 755.711 455.87 755.711 443.966C755.711 432.062 764.062 422.408 774.367 422.408C784.671 422.408 793.023 432.062 793.023 443.966ZM791.702 443.966C791.702 432.899 783.946 423.915 774.367 423.915C764.769 423.915 757.013 432.899 757.013 443.966C757.013 455.033 764.769 463.998 774.367 463.998C783.946 463.998 791.702 455.033 791.702 443.966Z" fill="white"/>
<g style="mix-blend-mode:multiply">
<path d="M771.909 437.363C775.053 437.363 777.62 440.321 777.62 443.948C777.62 447.593 775.053 456.391 771.909 456.391C768.747 456.391 766.199 447.593 766.199 443.948C766.199 440.321 768.747 437.363 771.909 437.363Z" fill="#939598"/>
</g>
<path d="M771.909 437.363C775.053 437.363 777.62 440.321 777.62 443.948C777.62 447.593 775.053 450.551 771.909 450.551C768.747 450.551 766.199 447.593 766.199 443.948C766.199 440.321 768.747 437.363 771.909 437.363Z" fill="black"/>
<path d="M774.347 437.363C777.49 437.363 780.039 440.321 780.039 443.948C780.039 447.593 777.49 450.551 774.347 450.551C771.185 450.551 768.637 447.593 768.637 443.948C768.637 440.321 771.185 437.363 774.347 437.363Z" fill="white"/>
<path d="M685.756 358.238C746.095 357.922 745.462 327.492 721.859 319.048C721.859 319.048 718.864 317.485 663.883 317.485C555.835 317.485 525.443 323.995 522.076 325.204C489.861 336.662 448.569 365.436 448.569 365.436C448.569 365.436 383.692 376.522 373.295 410.262C372.383 413.238 366.989 412.345 366.989 414.615C366.692 427.728 371.584 451.48 378.633 451.48C378.633 451.48 457.218 451.498 505.02 451.48C504.89 449.657 512.851 418.13 512.851 416.289C512.851 388.63 685.756 358.238 685.756 358.238Z" fill="#EAA947"/>
<path d="M378.632 451.48C378.632 451.48 457.217 451.499 505.019 451.48C504.963 450.624 506.637 443.37 508.46 435.67H369.48C371.545 444.3 374.763 451.48 378.632 451.48Z" fill="#EAA947"/>
<path d="M829.776 358.239H812.125C781.323 341.331 761.886 329.725 738.283 321.28C738.283 321.28 731.531 318.807 710.606 318.807C673.573 318.807 650.472 321.559 647.812 322.229C614.928 330.339 574.938 365.437 574.938 365.437C574.938 365.437 546.331 368.041 508.554 385.134C495.032 391.254 490.066 400.256 484.244 410.263C482.663 412.96 477.939 412.346 477.939 414.615C477.641 427.728 481.398 451.48 483.556 451.48C483.556 451.48 494.121 451.462 511.419 451.443C511.27 449.583 511.195 447.686 511.195 445.77C511.195 418.131 525.685 404.125 543.541 404.125C561.415 404.125 575.886 418.131 575.886 445.77C575.886 447.667 575.812 449.546 575.682 451.406C628.896 451.369 694.554 451.313 742.356 451.276C742.226 449.453 742.151 447.63 742.151 445.77C742.151 418.131 756.641 404.125 774.497 404.125C792.372 404.125 806.842 418.131 806.842 445.77C806.842 447.593 806.78 449.403 806.656 451.201L840.601 443.65C846.832 442.441 852.022 437.995 853.975 431.969C856.021 425.645 856.69 418.093 856.802 410.616C856.858 406.599 855.481 403.623 853.938 401.558C851.501 398.284 849.678 394.285 849.678 389.97C849.678 369.994 851.371 358.239 829.776 358.239Z" fill="#EAA947"/>
<path d="M851.835 417.442H816.03C810.302 417.442 804.777 414.931 800.518 410.392C793.58 402.971 784.392 398.451 774.311 398.451C764.229 398.451 755.041 402.971 748.103 410.392C743.862 414.931 738.338 417.442 732.609 417.442H584.87C579.141 417.442 573.617 414.931 569.357 410.392C562.419 402.971 553.231 398.451 543.15 398.451C533.069 398.451 523.88 402.971 516.942 410.392C512.702 414.931 507.177 417.442 501.449 417.442H376.736C367.882 417.442 370.56 443.035 386.184 443.035C386.966 443.035 501.43 443.035 501.43 443.035C503.327 443.035 503.997 444.244 503.997 444.858C503.997 447.109 504.164 449.304 504.425 451.461C506.601 451.461 508.926 451.443 511.418 451.443C511.269 449.583 511.195 447.685 511.195 445.77C511.195 418.13 525.684 404.124 543.54 404.124C561.415 404.124 575.886 418.13 575.886 445.77C575.886 447.667 575.811 449.545 575.681 451.405C577.727 451.405 579.792 451.405 581.856 451.405C582.005 447.239 581.41 434.535 581.41 434.535C581.41 431.02 636.764 428.137 639.74 428.137H675.954C678.911 428.137 736.106 431.02 736.106 434.535C736.106 434.535 734.972 443.984 735.567 451.275C737.855 451.275 740.124 451.275 742.356 451.275C742.226 449.452 742.151 447.63 742.151 445.77C742.151 418.13 756.641 404.124 774.497 404.124C792.371 404.124 806.842 418.13 806.842 445.77C806.842 447.592 806.78 449.403 806.656 451.201L813.538 449.676C814.115 446.811 815.584 443.035 819.62 443.035C819.62 443.035 833.942 442.217 844.972 436.618C850.478 433.828 852.375 428.211 854.179 421.459C854.718 419.469 853.602 417.442 851.835 417.442Z" fill="#CF8127"/>
<path d="M849.826 376.764C849.584 364.916 851.426 358.239 829.775 358.239H818.913C814.579 358.239 810.357 356.955 806.767 354.556C785.935 340.755 759.969 329.037 738.282 321.28C738.282 321.28 731.53 318.807 710.605 318.807C673.572 318.807 650.471 321.559 647.811 322.229C614.927 330.339 574.937 365.437 574.937 365.437C574.937 365.437 546.33 368.041 508.553 385.134C496.668 390.528 491.404 398.117 486.326 406.692C535.616 388.11 661.947 377.564 849.826 376.764Z" fill="#EAA947"/>
<path d="M376.66 402.859C375.247 405.203 374.094 407.658 373.294 410.262C372.513 412.81 368.458 412.531 367.305 413.815H451.972C489.841 413.815 506.433 409.258 511.883 402.859H376.66Z" fill="#EAA947"/>
<path d="M853.937 401.558C851.5 398.284 849.677 394.285 849.677 389.97C849.677 385.32 849.882 381.116 849.845 377.415H828.176C828.176 383.925 840.563 401.986 856.001 405.501C855.481 403.939 854.718 402.618 853.937 401.558Z" fill="#EAA947"/>
<path d="M738.281 321.28C738.281 321.28 731.529 318.807 710.604 318.807C673.572 318.807 650.471 321.559 647.811 322.229C614.926 330.339 574.936 365.437 574.936 365.437C574.936 365.437 546.329 368.041 508.553 385.134C504.182 387.124 500.722 389.394 497.82 391.905C561.321 363.651 709.247 353.049 798.917 349.608C779.666 337.965 757.328 328.088 738.281 321.28ZM448.568 365.437C448.568 365.437 408.057 372.356 385.941 391.905C385.941 391.905 462.908 386.994 496.258 364.767H449.535C448.921 365.195 448.568 365.437 448.568 365.437Z" fill="#EAA947"/>
<path d="M689.085 410.133H684.379V404.59H689.085V410.133Z" fill="black"/>
<path d="M693.79 404.59H689.084V399.065H693.79V404.59Z" fill="black"/>
<path d="M698.497 410.133H693.791V404.59H698.497V410.133Z" fill="black"/>
<path d="M707.909 410.133H703.203V404.59H707.909V410.133Z" fill="black"/>
<path d="M717.319 410.133H712.613V404.59H717.319V410.133Z" fill="black"/>
<path d="M726.731 410.133H722.025V404.59H726.731V410.133Z" fill="black"/>
<path d="M736.125 410.133H731.438V404.59H736.125V410.133Z" fill="black"/>
<path d="M745.536 410.133H740.83V404.59H745.536V410.133Z" fill="black"/>
<path d="M703.202 404.59H698.496V399.065H703.202V404.59Z" fill="black"/>
<path d="M712.614 404.59H707.908V399.065H712.614V404.59Z" fill="black"/>
<path d="M722.026 404.59H717.32V399.065H722.026V404.59Z" fill="black"/>
<path d="M731.436 404.59H726.73V399.065H731.436V404.59Z" fill="black"/>
<path d="M740.831 404.59H736.125V399.065H740.831V404.59Z" fill="black"/>
<path d="M750.241 404.59H745.535V399.065H750.241V404.59Z" fill="black"/>
<path d="M514.095 394.062H481.917C464.154 394.062 453.18 397.15 446.447 400.666C444.829 401.503 443.043 401.986 441.22 401.986H389.624C388.694 400.684 387.95 399.215 387.504 397.485C387.02 395.625 385.495 394.23 383.616 394.081C378.855 398.787 375.172 404.144 373.293 410.263C373.275 410.356 373.219 410.43 373.182 410.505H484.131C490.12 410.505 508.515 406.431 515.844 400.275C518.169 398.322 516.978 394.062 514.095 394.062Z" fill="black"/>
<path d="M456.641 409.518C463.188 409.518 475.762 409.518 481.007 409.518C495.254 409.518 510.395 404.347 515.361 399.976C517.333 398.247 516.235 394.452 513.799 394.452H486.643C460.212 394.452 443.286 409.518 456.641 409.518Z" fill="#E6E7E8"/>
<path d="M476.878 408.366C496.482 408.868 501.653 404.925 508.684 400.851C511.046 399.494 509.725 396.499 506.805 396.499H500.742C484.206 396.499 477.603 402.99 475.26 406.413C474.627 407.343 475.557 408.329 476.878 408.366Z" fill="#D1D3D4"/>
<path d="M464.656 405.464C472.543 404.943 488.353 402.451 495.086 398.879C497.337 397.689 496.09 395.066 493.3 395.066H487.497C471.669 395.066 465.345 400.758 463.113 403.753C462.499 404.571 463.392 405.557 464.656 405.464Z" fill="white"/>
<path d="M827.245 371.277C826.166 371.277 825.534 372.654 826.111 373.695L830.035 380.67C833.253 386.399 838.721 389.822 844.58 389.822H849.751C851.016 387.106 851.128 383.925 851.128 380.559C851.128 377.174 851.016 374.012 849.751 371.277H827.245Z" fill="#BE1E2D"/>
<path d="M834.275 376.132C833.568 376.132 833.14 377.062 833.531 377.75L836.135 382.4C838.274 386.213 841.92 388.501 845.826 388.501C848.169 388.501 850.104 386.343 850.178 383.59C850.19 383.169 850.197 382.747 850.197 382.326C850.197 382.301 850.197 382.276 850.197 382.251C850.197 378.866 847.816 376.132 844.914 376.132H834.275Z" fill="#ED1C24"/>
<path opacity="0.5" d="M834.035 372.114C833.514 372.114 833.198 372.784 833.477 373.286L835.374 376.653C836.918 379.405 839.559 381.061 842.368 381.061C844.079 381.061 845.474 379.498 845.53 377.508C845.53 377.211 845.53 376.901 845.53 376.578C845.53 376.566 845.53 376.553 845.53 376.541C845.53 374.086 843.818 372.114 841.717 372.114H834.035Z" fill="white"/>
<path d="M849.753 390.249H844.582C838.593 390.249 833.05 386.753 829.758 380.912L825.833 373.937C825.48 373.305 825.442 372.561 825.759 371.91C826.056 371.259 826.614 370.868 827.247 370.868H849.753C849.939 370.868 850.106 371.054 850.106 371.277C850.106 371.501 849.939 371.687 849.753 371.687H827.247C826.875 371.687 826.54 371.91 826.372 372.3C826.186 372.672 826.205 373.119 826.41 373.472L830.334 380.447C833.496 386.064 838.816 389.412 844.582 389.412H849.753C849.939 389.412 850.106 389.598 850.106 389.822C850.106 390.063 849.939 390.249 849.753 390.249Z" fill="black"/>
<path d="M373.555 409.519C374.187 409.519 375.005 409.519 376.066 409.519C384.566 409.519 389.402 406.487 387.17 397.373C386.742 395.643 384.994 394.62 383.227 394.49C378.856 398.88 375.452 403.883 373.555 409.519Z" fill="#E6E7E8"/>
<path d="M377.795 408.551C378.167 408.551 378.651 408.57 379.264 408.57C384.268 408.57 387.132 406.896 385.812 401.855C385.551 400.907 384.528 400.349 383.487 400.274C380.92 402.692 378.911 405.445 377.795 408.551Z" fill="#D1D3D4"/>
<path d="M378.055 402.284C378.408 402.284 378.854 402.302 379.45 402.302C384.118 402.302 386.797 400.87 385.569 396.611C385.327 395.811 384.36 395.327 383.393 395.271C380.975 397.317 379.096 399.661 378.055 402.284Z" fill="white"/>
<path d="M479.575 445.77H375.378C374.43 445.77 373.555 445.23 373.165 444.356C373.128 444.257 373.084 444.158 373.035 444.059C370.003 437.251 375.062 429.606 382.502 429.606H462.649C470.908 429.606 478.441 434.275 482.124 441.659C483.072 443.556 481.677 445.77 479.575 445.77Z" fill="black"/>
<path d="M624.151 327.009H517.313C486.195 339.303 449.237 364.971 448.586 365.418H561.6C565.152 365.418 568.556 364.19 571.29 361.958C579.828 354.946 600.399 338.95 621.547 329.018C622.57 328.534 625.286 327.009 624.151 327.009Z" fill="black"/>
<path d="M732.329 326.47C731.902 326.395 719.347 324.052 700.542 324.052C658.339 324.052 644.091 327.883 643.942 327.921C622.199 334.096 599.656 354.426 586.189 366.553C584.366 368.208 582.674 369.715 581.167 371.054C580.87 371.314 580.795 371.798 581.018 372.3C581.204 372.784 581.651 373.249 582.19 373.249L780.243 360.452C775.872 353.031 750.985 335.323 732.329 326.47Z" fill="#414042"/>
<path d="M454.371 361.53H558.364C564.297 361.53 570.045 359.577 574.732 355.969C584.348 348.566 598.856 338.28 614.015 330.691H508.627C487.088 340.475 464.638 354.723 454.371 361.53Z" fill="#414042"/>
<path d="M486.159 356.192C483.332 357.531 481.062 359.373 479.5 361.53H558.364C559.703 361.53 561.042 361.419 562.363 361.214C564.204 352.119 566.641 342.893 569.915 334.002C550.292 334.746 541.847 336.16 539.262 336.681C523.768 339.898 503.773 347.934 486.159 356.192ZM597.387 333.537C592.216 333.537 587.473 333.574 583.102 333.649C580.461 340.401 578.34 347.45 576.611 354.537C584.925 348.25 596.252 340.289 608.379 333.649C605.18 333.574 601.535 333.537 597.387 333.537ZM629.751 335.323C629.546 335.267 628.914 335.118 627.556 334.914C613.346 342.744 599.898 354.295 589.984 363.148L636.428 360.861C637.786 354.202 639.46 347.524 641.562 340.977C637.767 338.875 633.787 336.941 629.751 335.323ZM661.222 354.351C656.572 350.426 650.211 345.906 643.143 341.851C641.171 348.082 639.553 354.444 638.251 360.768L658.358 359.782C661.91 359.614 663.621 356.359 661.222 354.351Z" fill="#709AA3"/>
<path d="M677.516 329.725C674.893 329.725 673.349 332.663 674.856 334.802L679.227 341.071C683.505 347.209 690.517 350.873 698.013 350.873H770.701C762.294 344.009 749.981 335.77 738.728 329.725H677.516Z" fill="#709AA3"/>
<path d="M694.182 359.54H692.88L693.252 356.099C696.209 356.099 698.665 354.146 698.441 351.97L697.921 346.632C697.567 342.986 693.661 340.289 688.714 340.289H680.381C675.433 340.289 670.932 342.986 669.779 346.632L668.105 351.97C667.417 354.146 669.463 356.099 672.401 356.099H673.964L673.592 359.54H670.727C664.664 359.54 659.288 363.074 658.47 367.594L658.34 368.319L704.356 365.343C703.222 361.958 699.204 359.54 694.182 359.54ZM739.213 359.54C735.028 359.54 731.159 361.233 728.908 363.762L769.177 361.158C767.41 360.135 765.178 359.54 762.686 359.54H761.384L761.756 356.099C764.695 356.099 767.15 354.146 766.945 351.97L766.517 347.562C763.374 345.199 759.896 342.726 756.25 340.289H748.866C743.918 340.289 739.436 342.986 738.283 346.632L736.609 351.97C735.92 354.146 737.948 356.099 740.887 356.099H742.449L742.077 359.54H739.213Z" fill="#58595B"/>
<path fill-rule="evenodd" clip-rule="evenodd" d="M575.122 355.672L575.29 354.035H573.727C570.789 354.035 568.743 351.915 569.431 349.552L571.105 343.768C572.258 339.806 576.759 336.886 581.707 336.886H590.04C593.22 336.886 595.936 338.095 597.591 339.992C588.942 345.423 581.112 351.078 575.122 355.672ZM674.521 366.534L674.484 367.278L627.649 370.31L628.281 366.534C629.1 361.624 634.475 357.774 640.539 357.774H643.403L643.775 354.035H642.213C639.274 354.035 637.246 351.915 637.935 349.552L639.609 343.768C640.762 339.806 645.244 336.886 650.192 336.886H658.543C663.491 336.886 667.397 339.806 667.75 343.768L668.271 349.552C668.476 351.915 666.021 354.035 663.082 354.035L662.71 357.774H664.012C670.075 357.774 674.688 361.624 674.521 366.534ZM562.939 361.14C565.227 359.076 568.519 357.774 572.035 357.774C569.226 359.429 566.139 360.582 562.939 361.14ZM606.017 366.534L605.85 371.705L582.19 373.249C581.651 373.249 581.205 372.784 581.019 372.3C580.795 371.798 580.87 371.314 581.167 371.054C582.674 369.715 584.367 368.208 586.189 366.553C589.091 363.949 592.42 360.954 596.066 357.792C601.851 358.015 606.184 361.773 606.017 366.534Z" fill="#6D6E71"/>
<path d="M472.134 356.75C468.73 356.75 461.922 358.703 458.221 361.53H558.363C563.85 361.53 569.151 359.856 573.634 356.75H472.134Z" fill="#808285"/>
<path opacity="0.5" d="M653.354 346.018C653.484 345.981 667.043 342.15 707.182 342.15C725.075 342.15 737.017 344.493 737.407 344.568C746 348.846 755.951 355.207 764.433 361.475L780.243 360.452C775.872 353.031 750.985 335.323 732.329 326.47C731.902 326.395 719.347 324.052 700.542 324.052C658.339 324.052 644.091 327.883 643.942 327.921C622.199 334.096 599.656 354.426 586.189 366.553C584.366 368.208 582.674 369.715 581.167 371.054C580.87 371.314 580.795 371.798 581.018 372.3C581.204 372.784 581.651 373.249 582.19 373.249L613.029 371.259C624.859 360.973 639.274 350.222 653.354 346.018Z" fill="white"/>
<path opacity="0.5" d="M563.534 343.581H592.03C598.837 339.08 606.333 334.542 614.015 330.691H508.627C487.088 340.475 464.638 354.723 454.371 361.53H485.879C509.985 349.775 536.527 343.581 563.534 343.581Z" fill="white"/>
<path fill-rule="evenodd" clip-rule="evenodd" d="M781.266 361.029C781.192 361.14 781.08 361.215 780.932 361.233L582.302 374.067C582.265 374.067 582.228 374.067 582.191 374.067C581.261 374.067 580.554 373.36 580.256 372.616C579.903 371.779 580.052 370.942 580.628 370.422C582.135 369.101 583.809 367.594 585.632 365.958C599.154 353.756 621.809 333.352 643.719 327.121C643.868 327.084 657.948 323.233 700.542 323.233C719.663 323.233 732.46 325.67 732.59 325.689C732.615 325.701 732.646 325.713 732.683 325.726C751.934 334.858 777.826 353.458 781.285 360.638C781.341 360.768 781.341 360.898 781.266 361.029ZM599.396 369.659L678.204 364.563C678.241 351.747 677.813 338.839 676.623 327.009C653.317 328.014 644.705 330.283 644.612 330.301C632.355 333.78 619.726 341.982 608.677 350.594C602.8 355.17 599.396 362.219 599.396 369.659ZM744.438 360.285C743.992 351.487 743.211 342.745 741.983 334.356C738.468 332.347 734.952 330.469 731.604 328.851C729.596 328.497 717.747 326.526 700.542 326.526C696.116 326.526 692.005 326.563 688.173 326.656C689.345 338.485 689.773 351.208 689.773 363.819L744.438 360.285ZM771.353 354.667C764.694 348.957 754.278 341.592 743.806 335.416C744.922 343.452 745.666 351.803 746.094 360.173L770.013 358.629C772.022 358.499 772.878 355.969 771.353 354.667Z" fill="black"/>
<g style="mix-blend-mode:multiply">
<path d="M619.447 382.102C619.447 380.242 617.847 377.433 615.876 375.834L611.021 371.872C608.231 369.584 605.59 368.115 603.302 367.427C599.303 366.199 596.346 367.389 595.267 370.812L591.026 367.352C590.654 367.036 590.338 367.073 590.338 367.427V370.012C590.338 370.365 590.654 370.923 591.026 371.221L609.124 385.989C609.403 386.213 609.645 386.25 609.756 386.101L611.821 387.794C616.024 391.235 619.447 390.788 619.447 386.826V383.125V382.102Z" fill="#939598"/>
</g>
<path d="M612.768 370.235H593.982V369.138C593.982 361.307 600.325 354.965 608.156 354.965H616.321C618.032 354.965 619.446 356.36 619.446 358.09V363.558C619.446 367.259 616.451 370.235 612.768 370.235Z" fill="#EAA947"/>
<path d="M610.443 359.336H619.446V358.331C619.446 356.471 618.144 354.965 616.544 354.965H607.133C599.879 354.965 593.982 361.81 593.982 370.235H595.433C598.167 363.8 603.84 359.336 610.443 359.336Z" fill="#EAA947"/>
<path d="M605.553 370.626H590.933C590.598 370.626 590.338 370.365 590.338 370.03V367.352C590.338 367.017 590.598 366.738 590.933 366.738H603.153C604.809 366.738 606.148 368.096 606.148 369.751V370.03C606.148 370.365 605.887 370.626 605.553 370.626Z" fill="black"/>
<g style="mix-blend-mode:multiply">
<path d="M678.222 381.023C678.222 383.404 675.47 385.32 672.084 385.32C668.681 385.32 665.928 383.404 665.928 381.023C665.928 378.642 668.681 376.708 672.084 376.708C675.47 376.708 678.222 378.642 678.222 381.023Z" fill="#939598"/>
</g>
<g style="mix-blend-mode:multiply">
<path d="M676.624 383.441H665.984C664.645 383.441 663.566 382.363 663.566 381.023C663.566 379.684 664.645 378.587 665.984 378.587H676.624C677.963 378.587 679.042 379.684 679.042 381.023C679.042 382.363 677.963 383.441 676.624 383.441Z" fill="#939598"/>
</g>
<path d="M678.128 383.441H667.508C666.169 383.441 665.09 382.363 665.09 381.023C665.09 379.684 666.169 378.587 667.508 378.587H678.128C679.468 378.587 680.565 379.684 680.565 381.023C680.565 382.363 679.468 383.441 678.128 383.441Z" fill="black"/>
<g style="mix-blend-mode:multiply">
<path d="M770.868 377.843C770.868 380.223 768.096 382.158 764.711 382.158C761.307 382.158 758.555 380.223 758.555 377.843C758.555 375.462 761.307 373.546 764.711 373.546C768.096 373.546 770.868 375.462 770.868 377.843Z" fill="#939598"/>
</g>
<g style="mix-blend-mode:multiply">
<path d="M769.251 380.279H758.63C757.291 380.279 756.193 379.182 756.193 377.843C756.193 376.504 757.291 375.425 758.63 375.425H769.251C770.59 375.425 771.669 376.504 771.669 377.843C771.669 379.182 770.59 380.279 769.251 380.279Z" fill="#939598"/>
</g>
<path d="M770.776 380.279H760.137C758.798 380.279 757.719 379.182 757.719 377.843C757.719 376.504 758.798 375.425 760.137 375.425H770.776C772.115 375.425 773.194 376.504 773.194 377.843C773.194 379.182 772.115 380.279 770.776 380.279Z" fill="black"/>
<path d="M678.965 447.146C678.953 447.146 678.934 447.146 678.91 447.146C678.686 447.109 678.538 446.905 678.556 446.681C678.649 445.975 687.28 374.365 681.7 323.959C681.662 323.735 681.83 323.531 682.053 323.494C682.295 323.475 682.499 323.642 682.518 323.866C688.098 374.383 679.468 446.068 679.375 446.774C679.356 446.998 679.17 447.146 678.965 447.146Z" fill="black"/>
<path fill-rule="evenodd" clip-rule="evenodd" d="M722.378 447.295H592.346C590.374 447.295 588.644 445.77 588.328 443.743C580.144 390.51 590.263 362.052 590.356 361.773C590.38 361.711 590.418 361.655 590.467 361.605C605.329 348.381 624.803 332.496 643.719 327.121C643.868 327.084 657.948 323.233 700.542 323.233C719.663 323.233 732.46 325.67 732.59 325.689C732.615 325.701 732.646 325.713 732.683 325.726C751.934 334.858 777.825 353.458 781.285 360.638C781.322 360.712 781.34 360.805 781.322 360.88L778.643 376.206C777.453 383.032 770.72 388.445 767.893 390.454C742.801 407.975 738.672 421.032 735.343 431.523C734.227 435.057 733.166 438.386 731.455 441.529C729.484 445.138 726.08 447.295 722.378 447.295ZM591.1 362.145C590.467 364.005 581.242 392.165 589.147 443.613C589.388 445.231 590.765 446.458 592.346 446.458H722.378C725.782 446.458 728.907 444.468 730.73 441.12C732.404 438.051 733.464 434.759 734.561 431.262C737.909 420.66 742.094 407.454 767.409 389.766C770.162 387.813 776.69 382.586 777.825 376.057L780.485 360.88C777.193 354.463 752.548 336.086 732.385 326.488C731.474 326.321 718.975 324.052 700.542 324.052C658.06 324.052 644.091 327.883 643.942 327.921C625.212 333.24 605.868 348.994 591.1 362.145Z" fill="black"/>
<path d="M654.378 320.165H603.6L605.999 300.765C606.204 299.147 607.561 297.938 609.198 297.938H648.779C650.416 297.938 651.774 299.147 651.978 300.765L654.378 320.165Z" fill="#CF8127"/>
<path d="M654.395 320.164L651.977 300.764C651.94 300.374 651.81 300.002 651.643 299.667H648.406C646.788 299.667 645.412 300.876 645.207 302.494L647.03 320.164H654.395Z" fill="black"/>
<path d="M656.925 320.164H601.051V317.69C601.051 316.798 601.776 316.072 602.669 316.072H655.307C656.2 316.072 656.925 316.798 656.925 317.69V320.164Z" fill="black"/>
<path d="M608.082 304.949V303.461H615.857L615.838 304.949H612.806L612.825 313.3H611.095L611.058 304.949H608.082Z" fill="black"/>
<path fill-rule="evenodd" clip-rule="evenodd" d="M623.389 303.461L627.22 313.3H625.267L624.282 310.548H620.524C620.438 310.783 620.351 311.013 620.264 311.236C620.19 311.459 620.109 311.688 620.022 311.924C619.948 312.147 619.873 312.37 619.799 312.594C619.712 312.829 619.632 313.065 619.557 313.3H617.734L621.492 303.461H623.389ZM623.705 309.022L622.403 305.414L621.138 309.022H623.705Z" fill="black"/>
<path d="M629.285 303.461H631.386L633.544 306.921L635.795 303.461H637.766L634.548 308.241L637.989 313.3H635.869L633.525 309.692L631.126 313.3H629.117L632.465 308.223L629.285 303.461Z" fill="black"/>
<path d="M642.491 303.461V313.3H640.761L640.742 303.461H642.491Z" fill="black"/>
<path d="M594.26 399.7V397.4H604.26V399.7H600.46V411H598.06V399.7H594.26ZM611.222 402.96C610.595 402.96 609.995 403.06 609.422 403.26C608.862 403.447 608.322 403.753 607.802 404.18V411H605.502V400.86H607.682V402.42C608.362 401.78 608.969 401.327 609.502 401.06C610.035 400.793 610.609 400.66 611.222 400.66V402.96ZM620.916 411.1C620.236 411.1 619.69 410.96 619.276 410.68C618.876 410.4 618.583 410.053 618.396 409.64C617.823 410.173 617.27 410.567 616.736 410.82C616.203 411.073 615.63 411.2 615.016 411.2C614.123 411.2 613.463 410.913 613.036 410.34C612.623 409.767 612.416 409.04 612.416 408.16C612.416 407.573 612.523 407.06 612.736 406.62C612.963 406.167 613.33 405.813 613.836 405.56C614.343 405.307 615.036 405.18 615.916 405.18C616.263 405.18 616.623 405.207 616.996 405.26C617.37 405.3 617.743 405.353 618.116 405.42V404.24C618.116 403.68 617.963 403.3 617.656 403.1C617.35 402.887 616.936 402.78 616.416 402.78C616.016 402.78 615.576 402.833 615.096 402.94C614.63 403.047 614.123 403.213 613.576 403.44L612.916 401.48C614.263 400.933 615.483 400.66 616.576 400.66C617.563 400.66 618.323 400.827 618.856 401.16C619.403 401.493 619.783 401.933 619.996 402.48C620.21 403.027 620.316 403.613 620.316 404.24V408.14C620.316 408.34 620.37 408.533 620.476 408.72C620.596 408.893 620.823 408.98 621.156 408.98H621.376V411.1H620.916ZM614.636 408.12C614.636 408.48 614.716 408.767 614.876 408.98C615.036 409.18 615.27 409.28 615.576 409.28C615.883 409.28 616.23 409.2 616.616 409.04C617.003 408.88 617.503 408.507 618.116 407.92V407.06C617.423 406.94 616.743 406.88 616.076 406.88C615.556 406.88 615.183 406.987 614.956 407.2C614.743 407.413 614.636 407.72 614.636 408.12ZM631.14 400.86L627.54 411H625.44L621.84 400.86H624.16L625.9 405.92L626.56 408.02L627.2 405.92L628.86 400.86H631.14ZM640.565 410.42C639.872 410.7 639.218 410.9 638.605 411.02C637.992 411.14 637.412 411.2 636.865 411.2C635.358 411.2 634.218 410.773 633.445 409.92C632.672 409.067 632.285 407.933 632.285 406.52V405.32C632.285 404.373 632.458 403.553 632.805 402.86C633.152 402.167 633.645 401.627 634.285 401.24C634.925 400.853 635.678 400.66 636.545 400.66C637.252 400.66 637.912 400.807 638.525 401.1C639.152 401.38 639.658 401.827 640.045 402.44C640.445 403.04 640.645 403.813 640.645 404.76C640.645 405.04 640.625 405.34 640.585 405.66C640.545 405.967 640.478 406.293 640.385 406.64H634.505C634.532 407.467 634.738 408.087 635.125 408.5C635.512 408.913 636.132 409.12 636.985 409.12C637.438 409.12 637.905 409.067 638.385 408.96C638.878 408.853 639.385 408.693 639.905 408.48L640.565 410.42ZM636.545 402.6C635.932 402.6 635.452 402.8 635.105 403.2C634.772 403.587 634.578 404.147 634.525 404.88H638.365C638.378 404.813 638.385 404.753 638.385 404.7C638.385 404.633 638.385 404.573 638.385 404.52C638.385 403.88 638.205 403.4 637.845 403.08C637.485 402.76 637.052 402.6 636.545 402.6ZM643.235 408.14V396.2H645.535V408.14C645.535 408.34 645.582 408.533 645.675 408.72C645.782 408.893 645.982 408.98 646.275 408.98H646.595V411.1H646.035C645.275 411.1 644.695 410.953 644.295 410.66C643.895 410.367 643.615 409.993 643.455 409.54C643.308 409.087 643.235 408.62 643.235 408.14ZM660.286 411H652.046V409.1C652.046 408.14 652.173 407.34 652.426 406.7C652.679 406.047 653.019 405.513 653.446 405.1C653.873 404.673 654.339 404.333 654.846 404.08L656.206 403.4C656.726 403.133 657.146 402.853 657.466 402.56C657.799 402.253 657.966 401.86 657.966 401.38V401.02C657.966 400.527 657.793 400.14 657.446 399.86C657.113 399.567 656.573 399.42 655.826 399.42C655.373 399.42 654.913 399.487 654.446 399.62C653.993 399.753 653.439 399.94 652.786 400.18L652.046 398.12C652.793 397.787 653.473 397.553 654.086 397.42C654.713 397.273 655.319 397.2 655.906 397.2C656.986 397.2 657.846 397.373 658.486 397.72C659.139 398.067 659.606 398.533 659.886 399.12C660.179 399.693 660.326 400.327 660.326 401.02V401.38C660.326 402.1 660.179 402.713 659.886 403.22C659.606 403.727 659.233 404.153 658.766 404.5C658.299 404.847 657.793 405.153 657.246 405.42L655.886 406.1C655.393 406.34 655.026 406.673 654.786 407.1C654.559 407.527 654.433 408.073 654.406 408.74H660.286V411ZM671.444 407.92H670.024V411H667.704V407.92H661.864V405.98C662.464 405.047 663.057 404.1 663.644 403.14C664.244 402.167 664.804 401.2 665.324 400.24C665.844 399.267 666.27 398.32 666.604 397.4H669.224C668.73 398.76 668.064 400.16 667.224 401.6C666.384 403.027 665.517 404.42 664.624 405.78H667.704V403.72H670.024V405.78H671.444V407.92Z" fill="black"/>
</svg>
