<svg width="1440" height="549" viewBox="0 0 1440 549" fill="none" xmlns="http://www.w3.org/2000/svg">
<g clip-path="url(#clip0_208_4498)">
<path d="M629.677 467.909C629.677 467.909 584.85 480.501 529.591 480.501C474.403 480.501 429.576 467.909 429.576 467.909C429.576 467.909 474.403 455.317 529.591 455.317C584.85 455.317 629.677 467.909 629.677 467.909Z" fill="#D8DFFD"/>
<path d="M591.612 466.47H467.638C456.341 466.47 447.203 457.26 447.203 445.963V190.675C447.203 179.378 456.341 170.24 467.638 170.24H591.612C602.909 170.24 612.047 179.378 612.047 190.675V445.963C612.047 457.26 602.909 466.47 591.612 466.47Z" fill="#130C42"/>
<path d="M602.189 190.675V445.963C602.189 451.792 597.44 456.54 591.612 456.54H467.638C461.809 456.54 457.061 451.792 457.061 445.963V190.675C457.061 184.847 461.809 180.098 467.638 180.098H591.612C597.44 180.098 602.189 184.847 602.189 190.675Z" fill="#D5DBEA"/>
<path d="M457.061 368.974V445.963C457.061 451.791 461.809 456.54 467.638 456.54H591.612C597.44 456.54 602.189 451.791 602.189 445.963V368.974H457.061Z" fill="white"/>
<path d="M602.189 190.675V212.908H457.061V190.675C457.061 184.847 461.809 180.098 467.638 180.098H591.612C597.44 180.098 602.189 184.847 602.189 190.675Z" fill="#75BAE6"/>
<path d="M470.805 202.259L464.977 196.503L470.805 190.675L472.532 192.402L468.43 196.503L472.532 200.532L470.805 202.259Z" fill="#EAEDF4"/>
<path d="M552.04 189.452H507.213C502.536 189.452 498.795 185.71 498.795 181.033V174.342H560.458V181.033C560.458 185.71 556.717 189.452 552.04 189.452Z" fill="#130C42"/>
<path d="M541.173 183.048H510.234C509.154 183.048 508.291 182.184 508.291 181.105C508.291 180.098 509.154 179.234 510.234 179.234H541.173C542.253 179.234 543.116 180.098 543.116 181.105C543.116 182.184 542.253 183.048 541.173 183.048Z" fill="#2A2162"/>
<path d="M552.831 181.105C552.831 182.184 551.967 183.048 550.888 183.048C549.809 183.048 548.945 182.184 548.945 181.105C548.945 180.098 549.809 179.234 550.888 179.234C551.967 179.234 552.831 180.098 552.831 181.105Z" fill="#2A2162"/>
<path d="M559.593 450.209H499.657C498.218 450.209 497.066 449.057 497.066 447.618C497.066 446.179 498.218 444.956 499.657 444.956H559.593C561.032 444.956 562.184 446.179 562.184 447.618C562.184 449.057 561.032 450.209 559.593 450.209Z" fill="#130C42"/>
<path d="M553.765 435.026H505.485C500.808 435.026 497.066 431.285 497.066 426.608C497.066 421.931 500.808 418.189 505.485 418.189H553.765C558.442 418.189 562.184 421.931 562.184 426.608C562.184 431.285 558.442 435.026 553.765 435.026Z" fill="#75BAE6"/>
<path d="M564.99 304.576L602.189 309.037V317.24L597.512 316.664L589.166 315.657L457.061 299.683V291.48L559.162 303.856L564.99 304.576Z" fill="#EAEDF4"/>
<path d="M602.189 236.293V244.711L587.583 248.957L580.604 250.971L457.061 286.804V278.313L470.875 274.284L476.632 272.629L486.129 269.895L492.605 268.024L528.222 257.663L535.705 255.504H535.777L602.189 236.293Z" fill="#EAEDF4"/>
<path d="M602.189 348.251V356.454L536.496 346.668L528.006 345.445L484.331 338.898L457.061 349.69V340.912L482.388 330.983C483.036 330.695 483.755 330.623 484.475 330.695L580.819 345.085L588.95 346.309L602.189 348.251Z" fill="#EAEDF4"/>
<path d="M508.724 212.908L502.105 235.501L500.45 241.186L492.607 268.024L490.736 274.356L485.268 272.773L486.131 269.895L502.824 212.908H508.724Z" fill="#EAEDF4"/>
<path d="M535.346 261.908L497.283 239.315L500.233 234.422L538.224 257.016L535.346 261.908Z" fill="#EAEDF4"/>
<path d="M563.12 309.181L557.867 307.023L583.41 244.136L588.663 246.222L563.12 309.181Z" fill="#EAEDF4"/>
<path d="M599.887 315.009L597.512 316.664L577.294 331.199L573.912 333.645L571.681 333.213L481.453 315.585L457.061 319.255V313.498L481.596 309.757L572.617 327.529L589.166 315.657L596.577 310.332L599.887 315.009Z" fill="#EAEDF4"/>
<path d="M586.217 352.065L571.035 332.35L575.496 328.824L590.75 348.611L586.217 352.065Z" fill="#EAEDF4"/>
<path d="M538.368 345.517L536.497 346.668L502.32 368.974H491.887L528.007 345.445L535.202 340.696L538.368 345.517Z" fill="#EAEDF4"/>
<path d="M478.143 275.148L473.322 278.17L470.875 274.284L457.061 251.979V241.186L476.632 272.629L478.143 275.148Z" fill="#EAEDF4"/>
<path d="M587.871 409.052H471.379C469.436 409.052 467.854 407.541 467.854 405.598V380.703C467.854 378.832 469.436 377.249 471.379 377.249H587.871C589.814 377.249 591.396 378.832 591.396 380.703V405.598C591.396 407.541 589.814 409.052 587.871 409.052Z" fill="#EAEDF4"/>
<path fill-rule="evenodd" clip-rule="evenodd" d="M479.079 390.2C477.64 390.2 476.488 388.977 476.488 387.538C476.488 386.098 477.64 384.947 479.079 384.947C480.518 384.947 481.741 386.098 481.741 387.538C481.741 388.977 480.518 390.2 479.079 390.2ZM479.079 385.739C478.143 385.739 477.28 386.53 477.28 387.538C477.28 388.545 478.143 389.336 479.079 389.336C480.086 389.336 480.877 388.545 480.877 387.538C480.877 386.53 480.086 385.739 479.079 385.739Z" fill="#A3B744"/>
<path d="M480.23 387.538C480.23 388.186 479.727 388.689 479.079 388.689C478.503 388.689 477.928 388.186 477.928 387.538C477.928 386.89 478.503 386.387 479.079 386.387C479.727 386.387 480.23 386.89 480.23 387.538Z" fill="#A3B744"/>
<path fill-rule="evenodd" clip-rule="evenodd" d="M479.079 401.424C477.64 401.424 476.488 400.201 476.488 398.762C476.488 397.323 477.64 396.172 479.079 396.172C480.518 396.172 481.741 397.323 481.741 398.762C481.741 400.201 480.518 401.424 479.079 401.424ZM479.079 396.963C478.143 396.963 477.28 397.755 477.28 398.762C477.28 399.77 478.143 400.561 479.079 400.561C480.086 400.561 480.877 399.77 480.877 398.762C480.877 397.755 480.086 396.963 479.079 396.963Z" fill="#F53B3B"/>
<path d="M480.23 398.763C480.23 399.41 479.727 399.914 479.079 399.914C478.503 399.914 477.928 399.41 477.928 398.763C477.928 398.115 478.503 397.611 479.079 397.611C479.727 397.611 480.23 398.115 480.23 398.763Z" fill="#F53B3B"/>
<g opacity="0.3">
<path d="M479.51 395.021H478.719V391.279H479.51V395.021Z" fill="#130C42"/>
</g>
<path d="M583.987 345.517C583.844 345.517 583.724 345.469 583.628 345.374L572.979 331.415C572.883 331.319 572.835 331.223 572.835 331.127C572.883 330.983 572.955 330.887 573.051 330.839L595.356 314.29L559.667 308.174C559.523 308.174 559.428 308.102 559.38 307.958C559.332 307.862 559.332 307.766 559.38 307.67L585.642 245.935L536.786 260.037C536.642 260.085 536.523 260.085 536.427 260.037L498.436 236.581C498.292 236.509 498.22 236.221 498.364 236.077C498.436 235.861 498.723 235.789 498.867 235.933L536.714 259.246L586.218 244.927C586.362 244.855 586.506 244.927 586.65 244.999C586.722 245.143 586.794 245.287 586.722 245.431L560.315 307.454L596.435 313.642C596.579 313.642 596.723 313.786 596.723 313.93C596.795 314.074 596.723 314.218 596.579 314.362L573.842 331.271L584.275 344.87C584.419 345.014 584.419 345.302 584.203 345.445C584.107 345.493 584.035 345.517 583.987 345.517Z" fill="#130C42"/>
<g style="mix-blend-mode:multiply">
<path d="M590.749 349.043C590.749 350.626 587.727 351.921 583.986 351.921C580.172 351.921 577.15 350.626 577.15 349.043C577.15 347.46 580.172 346.165 583.986 346.165C587.727 346.165 590.749 347.46 590.749 349.043Z" fill="#D5DBEA"/>
</g>
<path fill-rule="evenodd" clip-rule="evenodd" d="M590.031 338.034C590.031 341.416 583.987 349.691 583.987 349.691C583.987 349.691 577.871 341.416 577.871 338.034C577.871 334.724 580.605 331.99 583.987 331.99C587.297 331.99 590.031 334.724 590.031 338.034ZM587.225 338.178C587.225 336.379 585.786 334.94 583.987 334.94C582.116 334.94 580.677 336.379 580.677 338.178C580.677 340.049 582.116 341.488 583.987 341.488C585.786 341.488 587.225 340.049 587.225 338.178Z" fill="#A3B744"/>
<g style="mix-blend-mode:multiply">
<path d="M505.486 237.588C505.486 239.171 502.464 240.466 498.65 240.466C494.909 240.466 491.887 239.171 491.887 237.588C491.887 236.005 494.909 234.71 498.65 234.71C502.464 234.71 505.486 236.005 505.486 237.588Z" fill="#D5DBEA"/>
</g>
<path fill-rule="evenodd" clip-rule="evenodd" d="M504.765 226.651C504.765 229.961 498.65 238.236 498.65 238.236C498.65 238.236 492.605 229.961 492.605 226.651C492.605 223.27 495.34 220.607 498.65 220.607C502.031 220.607 504.765 223.27 504.765 226.651ZM501.959 226.795C501.959 224.997 500.52 223.486 498.65 223.486C496.851 223.486 495.412 224.997 495.412 226.795C495.412 228.594 496.851 230.033 498.65 230.033C500.52 230.033 501.959 228.594 501.959 226.795Z" fill="#F53B3B"/>
<path d="M1055.21 498.057C1055.21 498.057 934.541 514.894 785.742 514.894C636.872 514.894 516.207 498.057 516.207 498.057C516.207 498.057 636.872 481.148 785.742 481.148C934.541 481.148 1055.21 498.057 1055.21 498.057Z" fill="#D8DFFD"/>
<path d="M816.033 311.34C816.033 311.34 819.343 291.913 822.149 290.545C824.883 289.25 865.825 288.243 867.839 289.61C869.926 290.977 874.531 311.34 874.531 311.34H816.033Z" fill="#CF8127"/>
<path fill-rule="evenodd" clip-rule="evenodd" d="M869.928 227.227C869.928 240.826 845.248 274.428 845.248 274.428C845.248 274.428 820.641 240.826 820.641 227.227C820.641 213.628 831.649 202.619 845.248 202.619C858.848 202.619 869.928 213.628 869.928 227.227ZM858.632 227.803C858.632 220.463 852.66 214.491 845.248 214.491C837.909 214.491 831.937 220.463 831.937 227.803C831.937 235.214 837.909 241.186 845.248 241.186C852.66 241.186 858.632 235.214 858.632 227.803Z" fill="#FF8000"/>
<path d="M807.76 317.744C807.76 317.744 811.07 310.764 813.156 309.685C816.25 308.03 874.388 307.095 877.698 309.685C881.008 312.203 882.087 317.744 882.087 317.744H807.76Z" fill="#282844"/>
<path d="M1011.39 470.787H568.084V411.21H1011.39V470.787Z" fill="black"/>
<path d="M994.764 461.793C994.764 484.89 976.776 503.597 954.615 503.597C932.453 503.597 914.465 484.89 914.465 461.793C914.465 438.696 932.453 419.988 954.615 419.988C976.776 419.988 994.764 438.696 994.764 461.793Z" fill="#414042"/>
<path d="M977.065 461.793C977.065 474.672 966.991 485.178 954.615 485.178C942.239 485.178 932.166 474.672 932.166 461.793C932.166 448.913 942.239 438.408 954.615 438.408C966.991 438.408 977.065 448.913 977.065 461.793Z" fill="#B8B8C2"/>
<path d="M963.249 461.793C963.249 466.758 959.364 470.787 954.615 470.787C949.794 470.787 945.98 466.758 945.98 461.793C945.98 456.828 949.794 452.799 954.615 452.799C959.364 452.799 963.249 456.828 963.249 461.793Z" fill="#EAEDF4"/>
<path d="M674.862 461.793C674.862 484.89 656.874 503.597 634.712 503.597C612.551 503.597 594.562 484.89 594.562 461.793C594.562 438.696 612.551 419.988 634.712 419.988C656.874 419.988 674.862 438.696 674.862 461.793Z" fill="#414042"/>
<path d="M657.162 461.793C657.162 474.672 647.089 485.178 634.713 485.178C622.337 485.178 612.264 474.672 612.264 461.793C612.264 448.913 622.337 438.408 634.713 438.408C647.089 438.408 657.162 448.913 657.162 461.793Z" fill="#B8B8C2"/>
<path d="M643.347 461.793C643.347 466.758 639.533 470.787 634.712 470.787C629.964 470.787 626.078 466.758 626.078 461.793C626.078 456.828 629.964 452.799 634.712 452.799C639.533 452.799 643.347 456.828 643.347 461.793Z" fill="#EAEDF4"/>
<path d="M1041.25 460.713C1040.38 463.016 1032.61 472.01 1024.27 473.161C1018.01 474.025 1008.22 473.593 1003.83 473.305C1002.9 469.564 1000.88 462.296 998.146 454.166C993.613 440.423 987.425 428.551 980.446 423.874H928.784C922.308 428.191 916.048 440.926 911.443 452.799C910.508 455.317 909.572 457.835 908.781 460.21C906.622 466.254 905.111 471.363 904.464 474.097L684 476.255C682.993 472.658 681.41 466.757 679.251 460.21C678.46 457.835 677.597 455.317 676.733 452.799C672.272 440.495 666.516 427.903 660.472 423.802H608.81C601.542 428.694 594.707 445.819 590.174 459.922C587.799 467.261 586.001 473.737 585.065 477.263L573.265 477.335L568.084 477.407C568.084 477.407 532.324 477.766 530.525 466.829C529.877 463.16 529.374 455.605 529.805 446.611C530.525 428.766 534.986 405.526 549.521 396.316C571.394 382.501 658.457 371.348 658.457 371.348C658.457 371.348 709.76 336.739 736.094 324.219C740.771 321.988 744.729 320.405 747.391 319.902C765.091 316.448 877.625 314.505 911.587 315.297C945.549 316.088 959.508 316.088 969.509 319.11C971.596 319.758 974.33 321.629 977.352 324.219C989.224 334.292 1006.13 355.95 1009.37 364.441C1009.37 364.441 1016.93 364.656 1022.25 369.046C1027.65 373.507 1039.59 389.048 1037.79 390.991C1035.92 392.862 1025.92 392.718 1025.92 392.718V400.345C1025.92 400.345 1028.73 402.863 1030.17 406.677C1031.68 410.562 1031.46 416.103 1031.46 416.103C1031.46 416.103 1037.94 419.413 1039.95 423.586C1040.6 424.953 1041.1 429.198 1041.39 434.307C1041.61 438.192 1041.75 442.653 1041.75 446.755C1041.82 453.662 1041.68 459.706 1041.25 460.713Z" fill="#EAA947"/>
<path d="M1041.25 460.714C1040.38 463.016 1032.61 472.01 1024.27 473.161C1018.01 474.025 1008.22 473.593 1003.83 473.305C1002.9 469.564 1000.88 462.297 998.147 454.166C993.614 440.423 987.426 428.551 980.447 423.874H928.784C917.344 431.501 906.695 465.319 904.464 474.097L684.001 476.255C680.979 464.887 671.193 430.997 660.472 423.802H608.81C601.543 428.695 594.708 445.819 590.175 459.922C587.8 467.261 586.001 473.737 585.066 477.263L573.266 477.335C577.871 462.44 590.103 425.888 603.198 416.391H669.323C669.323 416.391 685.944 444.596 690.693 467.405H893.528C893.528 467.405 908.71 430.493 920.366 416.391H984.548C984.548 416.391 994.549 423.73 1004.48 446.683H1018.58C1018.58 446.683 1022.47 438.552 1025.78 436.25C1027.72 434.882 1035.42 434.451 1041.39 434.307C1041.61 438.192 1041.75 442.653 1041.75 446.755C1041.82 453.662 1041.68 459.706 1041.25 460.714Z" fill="#CF8127"/>
<path d="M590.174 459.922C587.799 467.262 586.001 473.737 585.065 477.263L568.084 477.407C568.084 477.407 532.324 477.767 530.525 466.83C529.877 463.16 529.374 455.605 529.805 446.611C536.929 446.251 550.096 445.748 553.262 446.899C557.723 448.41 564.918 459.922 564.918 459.922H590.174Z" fill="#CF8127"/>
<path d="M1041.25 460.714C1040.38 463.016 1032.61 472.01 1024.27 473.161C1018.01 474.025 1008.22 473.593 1003.83 473.305C1002.9 469.564 1000.88 462.297 998.146 454.166H1023.91C1023.91 454.166 1026.86 447.258 1030.02 446.899C1031.96 446.611 1037.65 446.683 1041.75 446.755C1041.82 453.734 1041.68 459.706 1041.25 460.714Z" fill="black"/>
<path d="M539.878 419.628C538.511 419.844 537.504 418.333 538.079 417.038C539.95 413.081 543.764 406.461 548.153 404.878C554.485 402.576 574.415 400.849 576.358 402.576C578.301 404.302 573.048 414.664 568.084 416.39C563.119 418.117 550.815 414.951 548.297 416.39C547.001 417.182 541.965 419.341 539.878 419.628Z" fill="white"/>
<path d="M748.686 336.668C733.864 350.051 691.699 381.71 688.749 381.998C685.008 382.358 658.457 371.349 658.457 371.349C658.457 371.349 701.269 342.496 728.755 327.961C731.345 326.522 733.792 325.299 736.094 324.22C742.426 326.162 751.996 329.4 753.651 330.911C754.154 331.343 752.212 333.502 748.686 336.668Z" fill="black"/>
<path d="M753.65 330.911C754.153 331.343 752.211 333.502 748.685 336.668C744.008 334.869 735.733 331.127 728.754 327.961C731.344 326.522 733.791 325.299 736.093 324.22C742.425 326.162 751.995 329.4 753.65 330.911Z" fill="#5E5E5E"/>
<path d="M875.826 381.997H708.68C708.68 381.997 741.418 350.914 758.255 339.041C761.709 336.595 764.515 334.94 766.242 334.58C776.171 332.278 857.55 333.357 860.86 334.58C861.651 334.796 862.947 337.746 864.458 341.991C869.134 355.375 875.826 381.997 875.826 381.997Z" fill="black"/>
<path d="M864.458 341.991C820.135 347.748 774.949 341.848 758.256 339.041C761.71 336.595 764.516 334.94 766.243 334.58C776.172 332.278 857.551 333.357 860.861 334.58C861.652 334.796 862.947 337.746 864.458 341.991Z" fill="#5E5E5E"/>
<path d="M960.73 381.997H887.986C887.986 375.162 881.798 353.36 878.273 341.344C876.834 336.451 875.826 333.213 875.826 333.213C875.826 333.213 935.043 330.191 938.641 331.702C939.432 331.99 940.943 334.652 942.886 338.61C949.578 352.497 960.73 381.997 960.73 381.997Z" fill="black"/>
<path d="M942.886 338.61C922.092 342.064 892.016 341.704 878.273 341.344C876.834 336.451 875.826 333.213 875.826 333.213C875.826 333.213 935.043 330.191 938.641 331.702C939.432 331.99 940.943 334.652 942.886 338.61Z" fill="#5E5E5E"/>
<path d="M1009.37 364.441C996.493 370.485 986.779 380.343 986.779 380.343C986.779 380.343 972.677 349.907 966.848 335.516C965.193 331.487 964.186 328.681 964.33 328.249C964.906 326.882 972.245 325.227 977.354 324.22C979.44 326.019 981.671 328.105 983.901 330.408C994.694 341.488 1006.71 357.39 1009.37 364.441Z" fill="black"/>
<path d="M983.901 330.408C978.001 332.782 970.59 334.653 966.848 335.516C965.193 331.487 964.186 328.681 964.33 328.249C964.906 326.882 972.245 325.227 977.354 324.22C979.44 326.019 981.671 328.105 983.901 330.408Z" fill="#5E5E5E"/>
<path d="M712.35 455.821H709.184V386.818H712.35V455.821Z" fill="#CF8127"/>
<path d="M853.737 457.908L852.154 455.102C862.3 448.77 873.668 440.567 874.244 438.337C874.244 434.595 874.244 388.905 874.244 388.905H877.338C877.338 388.905 877.338 434.595 877.338 438.409C877.338 442.582 862.516 452.44 853.737 457.908Z" fill="#CF8127"/>
<path d="M911.444 452.799C910.509 455.317 909.574 457.836 908.782 460.21H679.253C678.461 457.836 677.598 455.317 676.734 452.799H911.444Z" fill="black"/>
<path d="M548.441 399.986C548.441 398.475 568.732 393.438 576.791 392.79C584.706 392.215 680.979 383.508 681.986 383.437L682.202 386.602C681.266 386.746 584.993 395.453 577.079 396.028C569.236 396.676 549.233 401.928 548.441 399.986Z" fill="#CF8127"/>
<path d="M1025.92 392.719C1025.92 392.719 1003.54 393.007 999.081 395.165C994.692 397.324 1004.05 415.528 1005.34 416.391C1006.56 417.255 1031.46 416.103 1031.46 416.103C1031.46 416.103 1033.04 400.274 1025.92 392.719Z" fill="#F53B3B"/>
<path d="M753.723 320.694C753.723 320.694 760.126 327.601 765.667 328.824C771.207 329.976 946.628 326.45 952.456 324.723C958.284 322.996 960.731 318.391 960.731 318.391C960.731 318.391 820.135 315.801 753.723 320.694Z" fill="#CF8127"/>
<path d="M856.687 403.152H835.965V393.87H856.687V403.152Z" fill="#FF9D46"/>
<path d="M861.292 400.561H831.359V396.388H861.292V400.561Z" fill="#282844"/>
<path d="M750.341 353.072C743.505 353.288 737.965 359.116 737.965 366.24C737.965 373.435 743.505 379.263 750.341 379.407V353.072Z" fill="#CF8127"/>
<path d="M743.65 363.865C741.587 364.057 739.74 364.297 738.109 364.585C735.423 365.017 733.288 365.568 731.705 366.24C730.218 366.863 729.259 367.559 728.827 368.326C727.748 370.341 722.999 379.911 721.92 382.069H726.309C728.036 378.616 731.274 372.212 732.209 370.485C732.857 369.909 735.231 369.334 738.253 368.758C740.052 368.47 742.067 368.182 744.081 367.967C745.161 367.823 745.952 366.815 745.808 365.736C745.736 364.585 744.729 363.721 743.65 363.865Z" fill="#CF8127"/>
<path d="M897.412 408.692H885.324V396.172H897.412V408.692Z" fill="#282844"/>
<path d="M921.374 408.548H909.357V396.028H921.374V408.548Z" fill="#282844"/>
<path d="M909.358 421.14H897.27V408.548H909.358V421.14Z" fill="#282844"/>
<path d="M676.231 409.052H664.215V396.532H676.231V409.052Z" fill="#282844"/>
<path d="M700.262 408.907H688.174V396.388H700.262V408.907Z" fill="#282844"/>
<path d="M688.174 421.428H676.158V408.908H688.174V421.428Z" fill="#282844"/>
<path d="M426.338 205.713L402.449 197.223L410.868 185.926L426.338 205.713Z" fill="#FFC359"/>
<path d="M428.351 213.7L415.256 222.766L412.162 214.563L428.351 213.7Z" fill="#FFC359"/>
<path d="M435.762 199.813L427.848 184.847L435.331 181.825L435.762 199.813Z" fill="#FFC359"/>
<path d="M521.243 506.979C521.243 506.979 490.663 514.894 452.959 514.894C415.256 514.894 384.748 506.979 384.748 506.979C384.748 506.979 415.256 499.064 452.959 499.064C490.663 499.064 521.243 506.979 521.243 506.979Z" fill="#D8DFFD"/>
<path d="M426.266 242.769C426.266 242.769 427.345 243.128 429.144 243.704C438.426 246.51 467.638 255.648 483.108 261.404C484.188 259.893 485.483 258.454 486.274 256.727C488.721 251.259 487.785 244.855 486.13 239.099C486.13 239.099 486.13 239.075 486.13 239.027C484.403 233.271 481.957 227.587 481.525 221.615C481.31 218.664 481.525 215.642 480.662 212.836C479.727 210.03 477.136 207.44 474.258 207.8C469.221 203.339 461.882 201.18 455.407 202.907C448.931 204.562 443.462 209.67 441.304 216.002C440.296 218.88 439.937 221.974 438.642 224.78C435.763 231.04 426.985 235.933 426.266 242.769Z" fill="#EDC88D"/>
<path d="M420.006 342.999H415.545L420.006 314.074L422.596 315.01L420.006 342.999Z" fill="#E0E0E0"/>
<path d="M411.947 503.814C412.019 505.828 416.336 512.232 418.783 512.16C421.301 512.088 430.079 506.044 431.087 502.087C431.375 501.008 431.375 498.777 431.231 496.187C431.231 495.707 431.207 495.251 431.159 494.82C430.655 488.344 429.504 480.285 429.504 480.285L418.135 480.501C418.135 480.501 415.041 489.639 413.242 496.762C412.451 499.712 411.947 502.303 411.947 503.814Z" fill="#F3A080"/>
<path d="M411.947 503.814C412.019 505.828 416.336 512.232 418.783 512.16C421.301 512.088 430.079 506.044 431.087 502.087C431.375 501.008 431.375 498.777 431.231 496.187C431.231 495.707 431.207 495.251 431.159 494.82C428.424 496.834 422.308 501.367 421.661 501.223C420.797 501.079 418.711 498.489 418.495 497.194C418.279 495.899 420.582 480.501 420.582 480.501H418.135C418.135 480.501 415.041 489.639 413.242 496.762C412.451 499.712 411.947 502.303 411.947 503.814Z" fill="#EA7C6F"/>
<path d="M411.947 503.814C412.019 505.828 416.336 512.232 418.783 512.16C421.301 512.088 430.079 506.044 431.087 502.087C431.375 501.007 431.375 498.777 431.231 496.187C428.64 499.496 423.604 505.181 420.078 504.677C417.056 504.245 414.681 500 413.242 496.762C412.451 499.712 411.947 502.303 411.947 503.814Z" fill="#323232"/>
<path d="M427.992 380.343C428.064 384.084 428.136 387.97 428.28 391.639C428.568 402.144 428.784 410.994 428.784 410.994C428.784 410.994 420.077 428.623 419.718 435.674C419.502 439.344 418.135 480.501 418.135 480.501L429.503 480.285C429.503 480.285 439.433 427.903 442.095 421.715C443.318 418.981 445.693 406.677 447.995 394.086C448.859 389.193 449.722 384.3 450.442 379.839L427.992 380.343Z" fill="#F3A080"/>
<path d="M427.992 380.343C428.064 384.085 428.136 387.97 428.28 391.64C428.568 402.145 428.784 410.995 428.784 410.995C428.784 410.995 420.077 428.623 419.718 435.675C419.502 439.344 418.135 480.501 418.135 480.501H420.581C421.373 468.701 423.315 441.863 424.179 436.035C425.186 428.48 433.173 410.06 433.173 410.06C433.173 410.06 432.741 393.942 432.453 380.199L427.992 380.343Z" fill="#EA7C6F"/>
<path d="M454.038 504.03L459.363 504.893L460.298 496.619C460.298 496.619 464.112 505.757 465.695 506.332C467.35 506.908 483.251 507.484 489.151 506.188C495.267 504.821 495.052 503.094 495.052 503.094C494.404 501.799 489.871 498.633 485.41 497.122C484.546 496.835 483.395 496.115 482.1 495.18C476.991 491.51 469.94 484.387 469.94 484.387L458.356 484.171C453.535 490.071 454.038 504.03 454.038 504.03Z" fill="#F3A080"/>
<path d="M454.038 504.03L459.363 504.893L460.298 496.619C460.298 496.619 464.112 505.757 465.695 506.332C467.35 506.908 483.251 507.484 489.151 506.188C495.267 504.821 495.052 503.094 495.052 503.094C494.404 501.799 489.871 498.633 485.41 497.122C484.546 496.835 483.395 496.115 482.1 495.18C480.517 496.978 478.502 499.281 477.927 499.713C477.063 500.36 469.077 494.316 467.638 493.453C466.199 492.517 462.817 484.243 462.817 484.243L458.356 484.171C453.535 490.071 454.038 504.03 454.038 504.03Z" fill="#EA7C6F"/>
<path d="M454.038 504.03L459.363 504.893L460.298 496.619C460.298 496.619 464.112 505.757 465.695 506.332C467.35 506.908 483.251 507.484 489.151 506.188C495.267 504.821 495.052 503.094 495.052 503.094C494.404 501.799 489.871 498.633 485.41 497.122C485.41 497.122 483.323 503.023 479.006 502.879C474.761 502.663 464.112 494.748 462.601 491.006C461.162 487.193 458.356 484.171 458.356 484.171C453.535 490.071 454.038 504.03 454.038 504.03Z" fill="#323232"/>
<path d="M457.421 421.356C456.485 424.522 455.478 427.832 454.974 430.278C454.039 434.883 458.356 484.171 458.356 484.171L469.941 484.386C469.941 484.386 474.186 423.658 475.769 417.614L457.421 421.356Z" fill="#F3A080"/>
<path d="M457.421 421.355C456.485 424.521 455.478 427.831 454.974 430.277C454.039 434.882 458.356 484.17 458.356 484.17L462.817 484.242L461.594 476.399C461.594 476.399 456.27 435.602 458.212 431.788C459.148 429.99 460.731 425.025 462.098 420.42L457.421 421.355Z" fill="#EA7C6F"/>
<path d="M413.242 463.305H440.512C440.512 463.305 444.758 426.105 447.06 421.5C449.291 416.895 457.421 375.81 457.709 374.515V374.443L456.558 405.239C456.558 405.239 451.017 420.996 451.089 426.105C451.161 431.214 452.385 463.305 452.385 463.305H480.014C480.014 463.305 486.202 368.183 485.771 358.613C485.339 348.972 480.014 328.177 480.014 328.177L438.57 325.731L433.101 325.371C433.101 325.371 425.474 350.627 425.474 353.505C425.474 356.311 424.611 402.864 424.611 402.864C424.611 402.864 417.2 422.148 416.624 424.882C416.12 427.616 413.242 463.305 413.242 463.305Z" fill="#434356"/>
<path d="M451.089 426.105C451.161 431.214 452.384 463.305 452.384 463.305H461.522C459.939 452.799 456.989 431.357 457.708 426.681C458.644 420.421 462.385 408.117 462.385 408.117L460.011 364.657L457.708 374.443L456.557 405.239C456.557 405.239 451.017 420.996 451.089 426.105Z" fill="#343345"/>
<path d="M421.085 463.305C420.653 454.383 420.078 439.632 420.581 435.171C421.445 428.695 430.655 406.39 430.655 406.39C430.655 406.39 431.95 358.325 431.446 355.735C430.943 353.361 437.706 328.825 438.57 325.731L433.101 325.371C433.101 325.371 425.474 350.627 425.474 353.505C425.474 356.311 424.611 402.864 424.611 402.864C424.611 402.864 417.2 422.148 416.624 424.882C416.12 427.616 413.242 463.305 413.242 463.305H421.085Z" fill="#343345"/>
<path d="M487.138 337.243C487.21 339.905 484.62 344.366 484.62 344.366C484.62 344.366 438.57 347.676 432.454 342.927C426.266 338.106 427.849 335.228 427.849 335.228L432.454 327.026C432.454 327.026 434.253 270.111 439.146 255.289L444.974 255.073L449.147 254.857L463.898 255.289L466.272 256.296L473.395 259.318C473.395 259.318 482.39 279.177 481.238 285.797C480.159 292.344 476.849 295.007 476.849 295.007L481.382 329.04C481.382 329.04 487.138 334.581 487.138 337.243Z" fill="#F3803D"/>
<path d="M449.146 254.857C449.866 253.778 452.025 249.748 452.888 247.014C453.751 244.352 454.471 241.762 454.471 241.762L463.105 246.007C463.105 246.007 461.666 249.677 461.091 252.339C460.803 253.49 463.897 255.289 463.897 255.289C463.897 255.289 461.307 261.189 458.284 261.333C455.262 261.477 449.146 254.857 449.146 254.857Z" fill="#F3A080"/>
<path d="M452.889 247.014C455.119 249.173 457.925 251.763 458.861 252.195C459.652 252.627 460.444 252.555 461.091 252.339C461.667 249.677 463.106 246.007 463.106 246.007L454.472 241.762C454.472 241.762 453.752 244.352 452.889 247.014Z" fill="#EA7C6F"/>
<path d="M452.6 215.715C458.284 210.606 466.847 209.958 472.963 214.563C474.33 215.571 475.409 216.722 475.841 217.873C477.496 222.55 478.575 238.884 474.258 246.223C470.013 253.49 464.904 251.763 463.105 250.972C461.306 250.18 453.032 245.503 451.377 242.409C449.722 239.243 447.204 223.989 448.643 220.32C449.146 219.097 450.729 217.37 452.6 215.715Z" fill="#F8BF92"/>
<path d="M452.168 214.492C457.852 209.383 466.415 208.735 472.531 213.34C473.898 214.348 474.977 215.499 475.409 216.65C476.992 221.255 478.071 237.66 473.826 244.928C469.509 252.267 464.472 250.54 462.673 249.748C460.874 248.957 452.6 244.28 450.945 241.114C449.218 238.02 446.772 222.766 448.211 219.097C448.714 217.801 450.297 216.146 452.168 214.492Z" fill="#F3A080"/>
<path d="M466.415 236.653C465.983 236.509 465.623 236.293 465.191 236.365C465.695 237.3 466.487 238.02 467.494 238.308C467.542 238.308 467.614 238.308 467.71 238.308C467.806 238.308 467.902 238.284 467.998 238.236C468.429 237.876 468.861 237.444 469.221 236.94C469.317 236.844 469.365 236.725 469.365 236.581C469.437 236.221 469.149 236.293 468.933 236.437C468.693 236.533 468.429 236.605 468.141 236.653C467.566 236.797 466.99 236.797 466.415 236.653Z" fill="#EA7C6F"/>
<path d="M467.567 238.092C467.783 237.804 467.999 237.66 468.286 237.372C468.574 237.133 468.814 236.845 469.006 236.509C467.711 235.717 467.639 234.35 467.567 232.839C467.567 232.192 467.711 231.472 467.999 230.825C468.142 230.537 468.334 230.249 468.574 229.961C468.67 229.817 468.79 229.673 468.934 229.53C469.078 229.458 469.222 229.314 469.366 229.242C469.294 229.386 469.222 229.458 469.15 229.601C469.006 229.817 468.862 230.033 468.718 230.321C468.574 230.609 468.454 230.897 468.358 231.184C468.166 231.76 468.07 232.36 468.07 232.983C468.07 233.631 468.214 234.206 468.502 234.782C468.79 235.358 469.294 236.005 469.869 236.293C469.869 236.293 469.078 237.372 469.006 237.516C468.766 237.708 468.526 237.9 468.286 238.092C468.07 238.308 467.783 238.524 467.495 238.524C467.399 238.524 467.303 238.5 467.207 238.452C467.255 238.404 467.303 238.356 467.351 238.308C467.351 238.308 467.351 238.284 467.351 238.236C467.447 238.188 467.519 238.14 467.567 238.092Z" fill="#DD5B67"/>
<path d="M469.437 240.826C466.415 242.481 462.529 242.553 459.363 240.97C460.802 242.193 462.457 243.057 464.328 243.057C466.199 243.057 467.998 241.977 469.437 240.826Z" fill="#DD5B67"/>
<path d="M466.343 243.848C465.408 244.712 463.897 244.927 462.674 244.352C463.249 244.927 463.897 245.431 464.689 245.359C465.552 245.359 465.912 244.568 466.343 243.848Z" fill="#DD5B67"/>
<path d="M451.521 234.278C451.089 234.063 449.074 230.681 447.203 232.336C445.333 233.991 444.541 237.085 445.836 238.955C447.131 240.754 448.858 242.697 451.377 242.409L451.521 234.278Z" fill="#F3A080"/>
<path d="M446.988 234.71C446.844 235.142 446.844 235.573 446.916 236.005C447.276 237.732 448.787 239.243 450.154 240.682C449.795 239.747 449.723 238.811 449.938 237.876C450.01 237.588 450.082 237.3 450.154 236.94C450.298 235.645 447.852 232.335 446.988 234.71Z" fill="#EA7C6F"/>
<path d="M450.946 241.258C450.946 241.258 450.898 241.234 450.802 241.186C450.754 241.138 450.682 241.066 450.586 240.97C450.442 240.826 450.154 240.538 449.938 240.179C449.65 239.819 449.507 239.315 449.435 238.739C449.363 238.164 449.507 237.516 449.866 236.941C449.866 236.845 449.89 236.773 449.938 236.725L450.01 236.653V236.581L449.938 236.509C449.938 236.413 449.914 236.341 449.866 236.293C449.722 236.005 449.602 235.741 449.507 235.502C449.363 235.262 449.195 235.046 449.003 234.854C448.859 234.662 448.715 234.47 448.571 234.278C448.427 234.134 448.283 234.039 448.139 233.991C447.924 233.991 447.78 233.991 447.708 234.063C447.564 234.11 447.492 234.158 447.492 234.206C447.444 234.254 447.42 234.278 447.42 234.278C447.42 234.278 447.42 234.254 447.42 234.206C447.492 234.134 447.492 234.063 447.636 233.991C447.78 233.919 447.924 233.847 448.139 233.847C448.355 233.919 448.571 233.991 448.787 234.134C448.979 234.278 449.171 234.47 449.363 234.71C449.555 234.902 449.722 235.118 449.866 235.358C450.058 235.598 450.226 235.861 450.37 236.149C450.418 236.197 450.442 236.269 450.442 236.365L450.514 236.437L450.586 236.653V236.725C450.586 236.773 450.562 236.797 450.514 236.797L450.442 236.941C450.394 237.037 450.346 237.109 450.298 237.157C450.01 237.66 449.938 238.236 449.866 238.739C449.866 239.243 450.01 239.747 450.154 240.107C450.298 240.466 450.514 240.754 450.658 240.97C450.754 241.066 450.826 241.138 450.874 241.186C450.922 241.234 450.946 241.258 450.946 241.258Z" fill="#B54B57"/>
<path d="M476.272 226.004C476.272 226.004 474.186 223.989 472.675 223.917C471.235 223.917 470.66 225.14 471.164 225.5C471.739 225.788 476.272 226.004 476.272 226.004Z" fill="#FFDDA0"/>
<path d="M455.623 225.788C455.623 225.788 459.293 223.27 461.595 223.126C463.898 222.982 464.545 224.349 463.682 224.781C462.746 225.212 455.623 225.788 455.623 225.788Z" fill="#FFDDA0"/>
<path d="M460.228 236.725C460.084 237.373 458.501 237.516 456.702 237.085C454.904 236.653 453.608 235.718 453.824 234.998C453.968 234.351 455.551 234.207 457.35 234.638C459.077 235.07 460.444 236.005 460.228 236.725Z" fill="#EA7C6F"/>
<path d="M478.288 235.358C478.432 235.861 477.353 236.653 475.842 237.157C474.331 237.66 473.035 237.66 472.82 237.157C472.676 236.653 473.755 235.861 475.266 235.358C476.777 234.854 478.144 234.854 478.288 235.358Z" fill="#EA7C6F"/>
<path d="M456.773 227.946C457.061 228.522 457.853 228.954 458.428 229.169C458.644 228.81 459.004 228.594 459.364 228.594C460.227 228.522 461.091 229.673 461.163 231.184C461.235 232.623 460.587 233.918 459.652 233.918C458.716 233.99 457.925 232.839 457.853 231.4C457.805 230.92 457.829 230.489 457.925 230.105C457.205 229.529 456.773 227.946 456.773 227.946Z" fill="#1D1E1E"/>
<path d="M459.435 231.472C459.435 231.472 458.572 231.832 457.637 231.544C456.773 231.256 456.27 230.393 456.27 230.393C456.27 230.393 457.133 230.033 458.068 230.321C458.932 230.609 459.435 231.472 459.435 231.472Z" fill="white"/>
<path d="M475.122 228.666C474.906 229.098 474.33 229.458 473.899 229.601C473.683 229.386 473.395 229.17 473.107 229.17C472.388 229.098 471.74 230.033 471.668 231.184C471.596 232.408 472.172 233.343 472.891 233.415C473.611 233.415 474.259 232.551 474.33 231.328C474.33 230.992 474.282 230.657 474.187 230.321C474.834 229.889 475.122 228.666 475.122 228.666Z" fill="#1D1E1E"/>
<path d="M473.035 231.4C473.035 231.4 473.755 231.76 474.474 231.472C475.122 231.256 475.554 230.609 475.554 230.609C475.554 230.609 474.834 230.321 474.114 230.537C473.467 230.753 473.035 231.4 473.035 231.4Z" fill="white"/>
<path d="M481.381 264.787C482.029 265.65 482.533 270.615 482.533 270.615C482.533 270.615 497.211 310.405 496.923 314.722C496.635 319.039 478.863 325.083 478.863 325.083L476.057 308.39L473.395 259.318C473.395 259.318 480.806 264.067 481.381 264.787Z" fill="#F3803D"/>
<path d="M470.877 264.642C470.661 264.354 470.301 264.714 470.445 264.93C476.705 275.147 484.116 286.444 474.906 297.381C474.618 297.669 474.69 298.244 474.978 298.46C475.338 306.015 476.345 314.865 478.504 321.989C478.648 322.42 479.223 322.348 479.223 321.917C479.367 314.362 477.928 305.511 476.129 298.172C487.498 289.466 477.784 272.629 470.877 264.642Z" fill="#CC4F29"/>
<path d="M472.243 290.761L481.453 293.999C482.1 294.215 482.82 293.855 483.036 293.208L488.936 276.443C489.152 275.795 488.792 275.076 488.144 274.788L479.006 271.622C478.287 271.334 477.567 271.694 477.352 272.413L471.451 289.106C471.236 289.826 471.595 290.545 472.243 290.761Z" fill="#130C42"/>
<path d="M485.411 276.587C485.267 277.09 485.483 277.594 485.987 277.81C486.418 277.954 486.922 277.666 487.138 277.234C487.282 276.731 487.066 276.227 486.562 276.083C486.059 275.867 485.555 276.155 485.411 276.587Z" fill="#2A2162"/>
<path d="M480.23 276.082C479.367 276.946 486.346 282.198 486.346 282.198L485.698 284.501L482.532 282.63L477.208 282.342C477.208 282.342 476.776 283.278 476.201 284.429C476.153 284.573 476.105 284.717 476.057 284.861C475.697 285.58 475.409 286.3 475.193 287.019C475.193 287.067 475.169 287.115 475.121 287.163C475.025 287.499 474.977 287.811 474.977 288.098C474.929 288.386 474.929 288.626 474.977 288.818L479.007 289.897C479.007 289.897 481.309 295.15 482.029 295.725C482.245 295.941 483.756 296.085 485.482 296.157C486.346 296.157 489.512 296.301 490.375 296.373L491.742 294.574L491.023 288.458C490.951 287.883 490.807 287.163 490.591 286.372C490.447 285.94 490.327 285.508 490.231 285.076C489.728 283.565 489.152 281.982 488.361 280.831C488.073 280.351 487.737 279.968 487.353 279.68C484.907 277.881 481.093 275.147 480.23 276.082Z" fill="#F3A080"/>
<path d="M475.193 287.019C475.193 287.067 475.169 287.115 475.121 287.163C475.313 287.211 475.553 287.259 475.841 287.307C476.416 287.379 477.28 287.523 478.143 287.667C479.078 287.811 479.87 288.027 480.446 288.243C480.59 288.29 480.709 288.338 480.805 288.386C480.901 288.434 480.997 288.482 481.093 288.53C481.285 288.626 481.381 288.674 481.381 288.674C481.381 288.674 481.309 288.578 481.165 288.386C481.117 288.338 481.045 288.267 480.949 288.171C480.853 288.075 480.733 287.979 480.59 287.883C480.086 287.451 479.222 286.947 478.215 286.803C477.28 286.588 476.344 286.732 475.769 286.803C475.529 286.899 475.337 286.971 475.193 287.019Z" fill="#B54B57"/>
<path d="M476.201 284.429C476.153 284.573 476.105 284.717 476.057 284.861C476.057 284.861 476.081 284.861 476.129 284.861C476.776 285.005 477.568 285.077 478.431 285.293C479.366 285.437 480.158 285.652 480.734 285.868C480.877 285.916 480.997 285.964 481.093 286.012C481.237 286.06 481.333 286.108 481.381 286.156C481.573 286.204 481.669 286.252 481.669 286.3C481.669 286.252 481.597 286.156 481.453 286.012C481.405 285.964 481.333 285.892 481.237 285.796C481.141 285.7 481.021 285.58 480.877 285.437C480.374 285.005 479.51 284.573 478.503 284.429C477.64 284.213 476.848 284.285 476.201 284.429Z" fill="#B54B57"/>
<path d="M493.038 293.64L494.549 298.245L480.23 300.403L478.863 297.165L493.038 293.64Z" fill="#CC4F29"/>
<path d="M444.757 224.421L446.843 232.695C446.843 232.695 449.218 231.976 451.52 234.278C451.52 234.278 452.096 226.723 450.945 223.917C450.945 223.917 456.413 222.19 457.996 219.24L457.852 221.902C457.852 221.902 467.206 222.046 469.436 217.369L469.364 221.471C469.364 221.471 474.617 222.118 476.272 219.384C476.272 219.384 476.128 207.296 463.105 208.375C450.153 209.455 444.613 214.995 444.757 224.421Z" fill="#EDC88D"/>
<path d="M439.146 255.217C439.146 255.217 441.592 253.849 443.607 255.073C445.693 256.368 442.743 350.05 442.743 350.05H436.268C436.268 350.05 443.175 270.758 439.146 255.217Z" fill="#E0E0E0"/>
<path d="M439.145 255.289C439.145 255.289 427.992 257.375 427.129 260.397C426.481 262.844 426.913 264.571 426.913 264.571C426.913 264.571 410.868 302.274 410.22 313.283C409.572 324.363 437.85 333.717 437.85 333.717L445.477 318.463L433.749 312.923L439.145 255.289Z" fill="#F3803D"/>
<path d="M442.671 317.024C440.225 315.225 437.634 313.786 434.972 312.347C433.173 311.412 431.374 310.26 429.432 309.541C434.325 297.597 435.836 283.566 437.275 270.902C437.418 269.823 435.764 269.823 435.62 270.902C434.9 277.618 433.917 284.309 432.67 290.977C431.518 297.093 429.648 303.137 428.712 309.253C428.376 309.109 428.041 309.013 427.705 308.965C426.913 308.749 426.626 309.757 427.201 310.188C429.576 311.915 432.526 312.995 435.188 314.218C437.562 315.441 439.937 316.592 442.455 317.6C442.743 317.744 442.887 317.24 442.671 317.024Z" fill="#CC4F29"/>
<path d="M457.997 340.625C458.045 340.577 458.117 340.505 458.213 340.409C458.788 339.977 459.436 339.402 460.012 338.754C460.108 338.61 460.227 338.466 460.371 338.322C460.419 338.322 460.467 338.298 460.515 338.25C460.515 338.25 460.515 338.226 460.515 338.178C460.611 338.082 460.731 337.986 460.875 337.891C462.026 336.595 462.89 335.588 462.89 335.588L459.796 329.112L455.838 326.306L458.357 324.291C458.357 324.291 468.358 330.192 469.078 328.609C469.725 327.098 464.401 323.788 460.875 321.701C460.371 321.341 459.724 321.198 458.932 321.054C457.205 320.694 454.903 320.766 452.744 320.982C452.169 321.078 451.617 321.15 451.089 321.198C450.226 321.341 449.435 321.485 448.787 321.557C448.571 321.629 444.542 320.838 444.326 320.91L440.225 329.472C440.321 329.712 440.416 329.976 440.512 330.264C440.56 330.264 440.584 330.264 440.584 330.264C440.944 331.055 441.232 331.775 441.592 332.494C442.599 334.581 443.534 336.38 443.966 336.595C444.973 337.171 452.6 337.315 452.6 337.315L456.054 341.632C456.342 341.632 456.63 341.56 456.99 341.344C457.277 341.152 457.613 340.913 457.997 340.625Z" fill="#F3A080"/>
<path d="M460.802 337.89C460.658 338.034 460.515 338.178 460.371 338.322C460.371 338.322 460.347 338.298 460.299 338.25C459.867 337.53 459.291 336.595 458.644 335.516C457.996 334.508 457.349 333.645 456.773 333.069C456.629 332.925 456.485 332.781 456.341 332.637C456.245 332.542 456.149 332.446 456.053 332.35C455.862 332.206 455.766 332.134 455.766 332.134C455.766 332.134 455.886 332.158 456.125 332.206C456.269 332.254 456.413 332.302 456.557 332.35C456.749 332.446 456.941 332.542 457.133 332.637C457.924 333.069 458.932 333.933 459.651 335.012C460.299 336.019 460.658 337.099 460.802 337.89Z" fill="#B54B57"/>
<path d="M458.213 340.408C458.118 340.504 458.046 340.576 457.998 340.624C457.854 340.432 457.71 340.169 457.566 339.833C457.134 339.113 456.559 338.178 455.839 337.171C455.191 336.163 454.544 335.3 453.968 334.652C453.824 334.508 453.704 334.388 453.609 334.292C453.465 334.149 453.345 334.053 453.249 334.005C453.057 333.813 452.961 333.717 452.961 333.717C452.961 333.717 453.081 333.765 453.321 333.861C453.465 333.909 453.633 333.957 453.824 334.005C453.968 334.053 454.136 334.149 454.328 334.292C455.12 334.724 456.127 335.516 456.846 336.595C457.566 337.746 457.926 338.825 458.07 339.689C458.118 339.977 458.166 340.217 458.213 340.408Z" fill="#B54B57"/>
<path d="M441.735 315.873L434.684 333.573L438.425 335.228L446.916 317.816L441.735 315.873Z" fill="#CC4F29"/>
<path d="M447.78 343.215L408.278 339.833C408.278 339.833 404.68 377.177 406.191 380.199C407.702 383.293 418.711 392.287 423.388 392.431C428.065 392.646 445.477 383.293 445.477 383.293L447.78 343.215Z" fill="white"/>
<path d="M426.266 242.769C426.266 242.769 427.345 243.128 429.144 243.704C429.575 239.603 431.878 235.645 435.332 233.487C438.138 231.76 441.592 230.968 443.75 228.45C445.477 226.507 446.053 223.773 446.844 221.255C447.636 218.736 448.931 216.146 451.377 215.139C450.945 216.338 450.514 217.537 450.082 218.736C455.407 218.161 460.443 215.57 464.041 211.613C463.609 213.196 463.177 214.779 462.746 216.362C466.415 216.362 470.013 214.923 472.675 212.477C472.771 214.251 472.867 216.05 472.963 217.873C474.162 216.674 475.361 215.451 476.561 214.203C478 223.054 481.238 231.616 486.13 239.099C486.13 239.099 486.13 239.075 486.13 239.027C484.403 233.271 481.957 227.587 481.525 221.615C481.477 221.087 481.453 220.559 481.453 220.032C481.381 217.585 481.381 215.139 480.662 212.836C479.727 210.03 477.136 207.44 474.258 207.8C469.221 203.339 461.882 201.18 455.407 202.907C448.931 204.562 443.462 209.67 441.304 216.002C440.296 218.88 439.937 221.974 438.642 224.78C437.994 226.148 437.059 227.443 436.051 228.738C432.31 233.271 426.841 237.444 426.266 242.769Z" fill="#FFDDA0"/>
<path d="M436.051 228.738C438.209 227.083 440.296 225.284 442.023 223.126C444.181 220.463 445.764 217.369 447.851 214.563C449.866 211.829 452.528 209.239 455.838 208.375C455.646 210.102 455.454 211.805 455.262 213.484L466.631 207.368C466.679 209.335 466.727 211.301 466.775 213.268C469.413 212.021 472.051 210.774 474.689 209.526C474.881 210.726 475.073 211.949 475.265 213.196C476.033 212.333 476.8 211.469 477.568 210.606C478.863 213.724 480.158 216.866 481.453 220.032C481.381 217.585 481.381 215.139 480.662 212.836C479.726 210.03 477.136 207.44 474.258 207.8C469.221 203.339 461.882 201.18 455.406 202.907C448.93 204.562 443.462 209.67 441.303 216.002C440.296 218.88 439.936 221.974 438.641 224.78C437.994 226.148 437.058 227.443 436.051 228.738Z" fill="#FEEAAF"/>
<path d="M745.338 416.31V413.32H758.338V416.31H753.398V431H750.278V416.31H745.338ZM767.388 420.548C766.574 420.548 765.794 420.678 765.048 420.938C764.32 421.181 763.618 421.579 762.942 422.134V431H759.952V417.818H762.786V419.846C763.67 419.014 764.459 418.425 765.152 418.078C765.846 417.731 766.591 417.558 767.388 417.558V420.548ZM779.991 431.13C779.107 431.13 778.396 430.948 777.859 430.584C777.339 430.22 776.958 429.769 776.715 429.232C775.97 429.925 775.25 430.437 774.557 430.766C773.864 431.095 773.118 431.26 772.321 431.26C771.16 431.26 770.302 430.887 769.747 430.142C769.21 429.397 768.941 428.452 768.941 427.308C768.941 426.545 769.08 425.878 769.357 425.306C769.652 424.717 770.128 424.257 770.787 423.928C771.446 423.599 772.347 423.434 773.491 423.434C773.942 423.434 774.41 423.469 774.895 423.538C775.38 423.59 775.866 423.659 776.351 423.746V422.212C776.351 421.484 776.152 420.99 775.753 420.73C775.354 420.453 774.817 420.314 774.141 420.314C773.621 420.314 773.049 420.383 772.425 420.522C771.818 420.661 771.16 420.877 770.449 421.172L769.591 418.624C771.342 417.913 772.928 417.558 774.349 417.558C775.632 417.558 776.62 417.775 777.313 418.208C778.024 418.641 778.518 419.213 778.795 419.924C779.072 420.635 779.211 421.397 779.211 422.212V427.282C779.211 427.542 779.28 427.793 779.419 428.036C779.575 428.261 779.87 428.374 780.303 428.374H780.589V431.13H779.991ZM771.827 427.256C771.827 427.724 771.931 428.097 772.139 428.374C772.347 428.634 772.65 428.764 773.049 428.764C773.448 428.764 773.898 428.66 774.401 428.452C774.904 428.244 775.554 427.759 776.351 426.996V425.878C775.45 425.722 774.566 425.644 773.699 425.644C773.023 425.644 772.538 425.783 772.243 426.06C771.966 426.337 771.827 426.736 771.827 427.256ZM793.282 417.818L788.602 431H785.872L781.192 417.818H784.208L786.47 424.396L787.328 427.126L788.16 424.396L790.318 417.818H793.282ZM805.535 430.246C804.633 430.61 803.784 430.87 802.987 431.026C802.189 431.182 801.435 431.26 800.725 431.26C798.766 431.26 797.284 430.705 796.279 429.596C795.273 428.487 794.771 427.013 794.771 425.176V423.616C794.771 422.385 794.996 421.319 795.447 420.418C795.897 419.517 796.539 418.815 797.371 418.312C798.203 417.809 799.182 417.558 800.309 417.558C801.227 417.558 802.085 417.749 802.883 418.13C803.697 418.494 804.356 419.075 804.859 419.872C805.379 420.652 805.639 421.657 805.639 422.888C805.639 423.252 805.613 423.642 805.561 424.058C805.509 424.457 805.422 424.881 805.301 425.332H797.657C797.691 426.407 797.96 427.213 798.463 427.75C798.965 428.287 799.771 428.556 800.881 428.556C801.47 428.556 802.077 428.487 802.701 428.348C803.342 428.209 804.001 428.001 804.677 427.724L805.535 430.246ZM800.309 420.08C799.511 420.08 798.887 420.34 798.437 420.86C798.003 421.363 797.752 422.091 797.683 423.044H802.675C802.692 422.957 802.701 422.879 802.701 422.81C802.701 422.723 802.701 422.645 802.701 422.576C802.701 421.744 802.467 421.12 801.999 420.704C801.531 420.288 800.967 420.08 800.309 420.08ZM809.005 427.282V411.76H811.995V427.282C811.995 427.542 812.056 427.793 812.177 428.036C812.316 428.261 812.576 428.374 812.957 428.374H813.373V431.13H812.645C811.657 431.13 810.903 430.939 810.383 430.558C809.863 430.177 809.499 429.691 809.291 429.102C809.101 428.513 809.005 427.906 809.005 427.282ZM831.172 431H820.46V428.53C820.46 427.282 820.625 426.242 820.954 425.41C821.283 424.561 821.725 423.867 822.28 423.33C822.835 422.775 823.441 422.333 824.1 422.004L825.868 421.12C826.544 420.773 827.09 420.409 827.506 420.028C827.939 419.629 828.156 419.118 828.156 418.494V418.026C828.156 417.385 827.931 416.882 827.48 416.518C827.047 416.137 826.345 415.946 825.374 415.946C824.785 415.946 824.187 416.033 823.58 416.206C822.991 416.379 822.271 416.622 821.422 416.934L820.46 414.256C821.431 413.823 822.315 413.519 823.112 413.346C823.927 413.155 824.715 413.06 825.478 413.06C826.882 413.06 828 413.285 828.832 413.736C829.681 414.187 830.288 414.793 830.652 415.556C831.033 416.301 831.224 417.125 831.224 418.026V418.494C831.224 419.43 831.033 420.227 830.652 420.886C830.288 421.545 829.803 422.099 829.196 422.55C828.589 423.001 827.931 423.399 827.22 423.746L825.452 424.63C824.811 424.942 824.334 425.375 824.022 425.93C823.727 426.485 823.563 427.195 823.528 428.062H831.172V431ZM845.677 426.996H843.831V431H840.815V426.996H833.223V424.474C834.003 423.261 834.774 422.03 835.537 420.782C836.317 419.517 837.045 418.26 837.721 417.012C838.397 415.747 838.952 414.516 839.385 413.32H842.791C842.15 415.088 841.283 416.908 840.191 418.78C839.099 420.635 837.972 422.446 836.811 424.214H840.815V421.536H843.831V424.214H845.677V426.996Z" fill="black"/>
</g>
<defs>
<clipPath id="clip0_208_4498">
<rect width="1440" height="549" fill="white"/>
</clipPath>
</defs>
</svg>
