<svg width="823" height="549" viewBox="0 0 823 549" fill="none" xmlns="http://www.w3.org/2000/svg">
<path d="M61.5059 444.965C61.5059 363.493 130.364 297.448 215.352 297.448C300.286 297.448 369.198 363.493 369.198 444.965C369.198 458.69 367.168 471.92 363.492 484.547H67.1571C63.4811 471.92 61.5059 458.69 61.5059 444.965Z" fill="#C9D9E1"/>
<path d="M272.523 359.595C272.523 230.086 377.483 125.062 506.914 125.062C636.399 125.062 745.09 230.086 745.09 359.595C745.09 405.546 731.867 448.368 709.043 484.547H308.571C285.746 448.368 272.523 405.546 272.523 359.595Z" fill="#D8DFFD"/>
<mask id="mask0_208_4124" style="mask-type:luminance" maskUnits="userSpaceOnUse" x="61" y="125" width="685" height="360">
<path d="M506.935 125.062C394.453 125.062 300.499 204.338 277.79 310.097C258.702 301.955 237.573 297.421 215.335 297.421C130.374 297.421 61.5 363.471 61.5 444.942C61.5 458.667 63.4971 471.942 67.1568 484.553H308.565H363.519H709.047C731.861 448.374 745.067 405.53 745.067 359.589C745.067 230.064 636.382 125.062 506.935 125.062Z" fill="white"/>
</mask>
<g mask="url(#mask0_208_4124)">
<path d="M461.428 372.825H415.943V431.404H461.428V372.825Z" fill="#A0AFBB"/>
<path d="M541.754 346.474H496.27V411.091H541.754V346.474Z" fill="#87A4AB"/>
<path d="M184.736 404.393H57.5547V485.041H184.736V404.393Z" fill="#87A4AB"/>
<path d="M699.989 368.873H652.584V429.977H699.989V368.873Z" fill="#87A4AB"/>
<path d="M743.004 484.328H283.605V404.174H743.004V484.328Z" fill="#87A4AB"/>
<path d="M395.149 263.52C395.149 273.017 387.468 280.703 377.976 280.703C368.484 280.703 360.803 273.017 360.803 263.52C360.803 254.022 368.484 246.336 377.976 246.336C387.468 246.336 395.149 254.022 395.149 263.52Z" fill="#C9D9E1"/>
<path d="M407.659 291.958H348.293V259.896H407.659V291.958Z" fill="#B5CAD2"/>
<path d="M425.271 484.327H329.09V279.495H425.271V484.327Z" fill="#B5CAD2"/>
<path d="M351.75 314.687H343.246V291.958H351.75V314.687Z" fill="#C9D9E1"/>
<path d="M382.256 314.687H373.752V291.958H382.256V314.687Z" fill="#C9D9E1"/>
<path d="M412.707 314.687H404.203V291.958H412.707V314.687Z" fill="#C9D9E1"/>
<path d="M351.75 347.626H343.246V324.897H351.75V347.626Z" fill="#C9D9E1"/>
<path d="M382.256 347.626H373.752V324.897H382.256V347.626Z" fill="#C9D9E1"/>
<path d="M412.707 347.626H404.203V324.897H412.707V347.626Z" fill="#C9D9E1"/>
<path d="M351.75 380.567H343.246V357.838H351.75V380.567Z" fill="#C9D9E1"/>
<path d="M382.256 380.567H373.752V357.838H382.256V380.567Z" fill="#C9D9E1"/>
<path d="M412.707 380.567H404.203V357.838H412.707V380.567Z" fill="#C9D9E1"/>
<path d="M351.75 413.506H343.246V390.777H351.75V413.506Z" fill="#C9D9E1"/>
<path d="M382.256 413.506H373.752V390.777H382.256V413.506Z" fill="#C9D9E1"/>
<path d="M412.707 413.506H404.203V390.777H412.707V413.506Z" fill="#C9D9E1"/>
<path d="M429.275 431.514H323.986V420.095H429.275V431.514Z" fill="#9AB2BB"/>
<path d="M404.587 444.744H348.678V484.053H404.587V444.744Z" fill="#9AB2BB"/>
<path d="M498.243 285.534H461.428V236.179H498.243V285.534Z" fill="#B5CAD2"/>
<path d="M503.182 484.327H456.49V283.942H503.182V484.327Z" fill="#B5CAD2"/>
<path d="M507.68 338.897H451.99V330.388H507.68V338.897Z" fill="#9AB2BB"/>
<path d="M507.68 288.225H451.99V279.66H507.68V288.225Z" fill="#9AB2BB"/>
<path d="M461.428 236.179L479.863 180.346L498.243 236.179H461.428Z" fill="#B5CAD2"/>
<path d="M507.68 239.089H451.99V233.215H507.68V239.089Z" fill="#9AB2BB"/>
<path d="M481.894 187.428H477.779V167.5H481.894V187.428Z" fill="#9AB2BB"/>
<path d="M490.014 256.438C490.014 262.038 485.46 266.594 479.863 266.594C474.212 266.594 469.658 262.038 469.658 256.438C469.658 250.838 474.212 246.281 479.863 246.281C485.46 246.281 490.014 250.838 490.014 256.438Z" fill="#C9D9E1"/>
<path d="M469.658 322.811H463.842V293.879H469.658V322.811Z" fill="#C9D9E1"/>
<path d="M482.771 322.811H476.955V293.879H482.771V322.811Z" fill="#C9D9E1"/>
<path d="M495.83 322.811H490.014V293.879H495.83V322.811Z" fill="#C9D9E1"/>
<path d="M495.829 351.085H463.842V346.474H495.829V351.085Z" fill="#C9D9E1"/>
<path d="M495.829 363.273H463.842V358.661H495.829V363.273Z" fill="#C9D9E1"/>
<path d="M495.829 375.461H463.842V370.85H495.829V375.461Z" fill="#C9D9E1"/>
<path d="M495.829 387.649H463.842V383.037H495.829V387.649Z" fill="#C9D9E1"/>
<path d="M495.829 399.836H463.842V395.225H495.829V399.836Z" fill="#C9D9E1"/>
<path d="M495.829 412.024H463.842V407.412H495.829V412.024Z" fill="#C9D9E1"/>
<path d="M495.829 424.212H463.842V419.601H495.829V424.212Z" fill="#C9D9E1"/>
<path d="M495.829 436.4H463.842V431.788H495.829V436.4Z" fill="#C9D9E1"/>
<path d="M595.796 265.221H592.34V220.643H595.796V265.221Z" fill="#B5CAD2"/>
<path d="M602.819 292.836H585.316V242.822H602.819V292.836Z" fill="#9AB2BB"/>
<path d="M621.694 274.664H566.443V284.985H621.694V274.664Z" fill="#9AB2BB"/>
<path d="M532.262 309.306L547.405 280.923H640.02L655.876 309.306H532.262Z" fill="#B5CAD2"/>
<path d="M655.876 484.328H532.262V316.663H655.876V484.328Z" fill="#B5CAD2"/>
<path d="M660.485 305.793H527.652V316.663H660.485V305.793Z" fill="#9AB2BB"/>
<path d="M546.691 448.258H540.381V326.271H546.691V448.258Z" fill="#C9D9E1"/>
<path d="M563.534 448.258H557.225V326.271H563.534V448.258Z" fill="#C9D9E1"/>
<path d="M580.38 448.258H574.07V326.271H580.38V448.258Z" fill="#C9D9E1"/>
<path d="M597.224 448.258H590.914V326.271H597.224V448.258Z" fill="#C9D9E1"/>
<path d="M614.067 448.258H607.758V326.271H614.067V448.258Z" fill="#C9D9E1"/>
<path d="M630.911 448.258H624.656V326.271H630.911V448.258Z" fill="#C9D9E1"/>
<path d="M647.755 448.258H641.5V326.271H647.755V448.258Z" fill="#C9D9E1"/>
</g>
<path d="M440.69 71.3701H353.945C353.945 71.3701 354.329 66.8684 363.986 63.2999C373.642 59.7314 380.556 68.8997 391.419 63.2999C402.338 57.755 408.099 49.7395 422.145 54.1864C436.19 58.6882 440.69 71.3701 440.69 71.3701Z" fill="white"/>
<path d="M760.507 271.865H695.051C695.051 271.865 695.38 268.187 702.677 265.277C709.92 262.367 715.132 269.834 723.362 265.277C731.592 260.72 735.926 254.132 746.516 257.811C757.105 261.434 760.507 271.865 760.507 271.865Z" fill="white"/>
<path d="M427.302 157.947H358.17C356.799 157.947 355.646 156.849 355.646 155.477C355.646 154.049 356.799 152.951 358.17 152.951H427.302C428.674 152.951 429.826 154.049 429.826 155.477C429.826 156.849 428.674 157.947 427.302 157.947Z" fill="#4A85E6"/>
<path d="M768.902 341.368H725.557C724.185 341.368 723.088 340.27 723.088 338.897C723.088 337.525 724.185 336.372 725.557 336.372H768.902C770.328 336.372 771.425 337.525 771.425 338.897C771.425 340.27 770.328 341.368 768.902 341.368Z" fill="#4A85E6"/>
<path d="M682.871 70.9308H678.536C677.384 70.9308 676.451 69.9975 676.451 68.8995V64.782C676.451 63.6291 677.384 62.6958 678.536 62.6958H682.871C684.023 62.6958 684.956 63.6291 684.956 64.782V68.8995C684.956 69.9975 684.023 70.9308 682.871 70.9308Z" fill="white"/>
<path d="M47.6792 340.05H43.3447C42.1925 340.05 41.2598 339.172 41.2598 338.019V333.901C41.2598 332.749 42.1925 331.87 43.3447 331.87H47.6792C48.8314 331.87 49.7641 332.749 49.7641 333.901V338.019C49.7641 339.172 48.8314 340.05 47.6792 340.05Z" fill="white"/>
<path d="M768.682 203.844C768.682 206.699 766.378 209.059 763.524 209.059C760.726 209.059 758.422 206.699 758.422 203.844C758.422 200.934 760.726 198.628 763.524 198.628C766.378 198.628 768.682 200.934 768.682 203.844Z" stroke="white" stroke-width="2.4" stroke-miterlimit="10"/>
<path d="M61.5063 147.901C61.5063 150.755 59.2019 153.116 56.3489 153.116C53.4958 153.116 51.1914 150.755 51.1914 147.901C51.1914 144.991 53.4958 142.685 56.3489 142.685C59.2019 142.685 61.5063 144.991 61.5063 147.901Z" stroke="white" stroke-width="2.4" stroke-miterlimit="10"/>
<path d="M30.5059 251.277H66.9373" stroke="white" stroke-width="3.6" stroke-miterlimit="10"/>
<path d="M741.908 152.622H712.664C708.768 152.622 705.586 149.438 705.586 145.54C705.586 141.642 708.768 138.458 712.664 138.458H741.908C745.803 138.458 748.985 141.642 748.985 145.54C748.985 149.438 745.803 152.622 741.908 152.622Z" fill="#404260"/>
<path d="M721.332 145.54C721.332 146.528 720.509 147.351 719.522 147.351C718.534 147.351 717.711 146.583 717.711 145.54C717.711 144.552 718.534 143.728 719.522 143.728C720.509 143.728 721.332 144.552 721.332 145.54Z" fill="white"/>
<path d="M729.123 145.54C729.123 146.528 728.3 147.351 727.313 147.351C726.27 147.351 725.502 146.528 725.502 145.54C725.502 144.552 726.27 143.728 727.258 143.728C728.3 143.728 729.068 144.497 729.123 145.54Z" fill="white"/>
<path d="M736.859 145.485C736.859 146.473 736.036 147.297 735.049 147.297C734.061 147.297 733.238 146.528 733.238 145.485C733.238 144.497 734.061 143.673 735.049 143.673C736.036 143.673 736.859 144.497 736.859 145.485Z" fill="white"/>
<path d="M272.908 484.108H111.49C99.6386 484.108 90.0918 474.501 90.0918 462.642V106.177C90.0918 94.3731 99.6386 84.7656 111.49 84.7656H272.908C284.704 84.7656 294.306 94.3731 294.306 106.177V462.642C294.306 474.501 284.704 484.108 272.908 484.108Z" fill="#4A85E6"/>
<path d="M303.247 484.108H135.959C124.108 484.108 114.506 474.501 114.506 462.642V106.177C114.506 94.3731 124.108 84.7656 135.959 84.7656H303.247C315.098 84.7656 324.7 94.3731 324.7 106.177V462.642C324.7 474.501 315.098 484.108 303.247 484.108Z" fill="#404260"/>
<path d="M295.841 474.611H143.367C132.174 474.611 123.121 465.497 123.121 454.352V113.478C123.121 102.279 132.174 93.2202 143.367 93.2202H295.841C307.034 93.2202 316.087 102.279 316.087 113.478V454.352C316.087 465.497 307.034 474.611 295.841 474.611Z" fill="#E0EBF1"/>
<path d="M173.215 88.938L180.732 99.5886C182.487 102.059 185.34 103.541 188.358 103.541H256.722C259.904 103.541 262.922 101.894 264.623 99.1494L270.987 88.938H173.215Z" fill="#404260"/>
<path d="M246.901 232.996C246.901 236.125 232.69 238.65 215.133 238.65C197.63 238.65 183.42 236.125 183.42 232.996C183.42 229.921 197.63 227.396 215.133 227.396C232.69 227.396 246.901 229.921 246.901 232.996Z" fill="#404260"/>
<path d="M210.854 230.525H220.565L224.625 196.048L212.061 205.161L210.854 230.525Z" fill="#404260"/>
<path fill-rule="evenodd" clip-rule="evenodd" d="M238.725 177.107H238.835L238.506 177.711C238.232 178.535 237.793 179.303 237.409 180.072L214.968 227.89C213.322 231.403 208.329 231.403 206.683 227.89L184.353 180.182C183.914 179.358 183.475 178.535 183.145 177.656L182.871 177.107H182.981C181.774 173.868 181.061 170.464 181.061 166.841C181.061 150.371 194.393 137.03 210.853 137.03C227.313 137.03 240.646 150.371 240.646 166.841C240.646 170.464 239.878 173.868 238.725 177.107ZM226.655 167.5C226.655 159.429 220.126 152.841 212.06 152.841C203.995 152.841 197.411 159.429 197.411 167.5C197.411 175.57 203.995 182.103 212.06 182.103C220.126 182.103 226.655 175.57 226.655 167.5Z" fill="#404260"/>
<path fill-rule="evenodd" clip-rule="evenodd" d="M247.229 177.107H247.339L247.065 177.711C246.736 178.535 246.351 179.303 245.967 180.072L223.527 227.89C221.881 231.403 216.888 231.403 215.242 227.89L192.856 180.182C192.418 179.358 191.979 178.535 191.649 177.656L191.375 177.107H191.485C190.333 173.868 189.564 170.464 189.564 166.841C189.564 150.371 202.897 137.03 219.357 137.03C235.817 137.03 249.15 150.371 249.15 166.841C249.15 170.464 248.436 173.868 247.229 177.107ZM235.159 167.5C235.159 159.429 228.63 152.841 220.564 152.841C212.499 152.841 205.97 159.429 205.97 167.5C205.97 175.57 212.499 182.103 220.564 182.103C228.63 182.103 235.159 175.57 235.159 167.5Z" fill="#FF8000"/>
<mask id="mask1_208_4124" style="mask-type:luminance" maskUnits="userSpaceOnUse" x="123" y="185" width="447" height="300">
<path d="M569.072 484.097H123.1V185.205H569.072V484.097Z" fill="white"/>
</mask>
<g mask="url(#mask1_208_4124)">
<path d="M481.621 385.232H460.168C439.044 385.232 421.98 407.357 421.98 434.642C421.98 461.983 439.044 484.107 460.168 484.107H481.621C502.689 484.107 519.808 461.983 519.808 434.642C519.808 407.357 502.689 385.232 481.621 385.232Z" fill="black"/>
<path d="M232.527 385.232H211.019C189.95 385.232 172.832 407.357 172.832 434.642C172.832 461.983 189.95 484.107 211.019 484.107H232.527C253.596 484.107 270.659 461.983 270.659 434.642C270.659 407.357 253.596 385.232 232.527 385.232Z" fill="black"/>
<path d="M272.799 450.234H377.484L374.412 376.284L298.092 366.951L272.799 379.853V450.234Z" fill="black"/>
<path d="M374.411 434.642C374.411 461.983 357.348 484.107 336.279 484.107C315.155 484.107 298.092 461.983 298.092 434.642C298.092 407.357 315.155 385.232 336.279 385.232C357.348 385.232 374.411 407.357 374.411 434.642Z" fill="black"/>
<path d="M314.771 484.107H336.279L358.226 462.147L336.279 385.232H314.771V484.107Z" fill="black"/>
<path d="M352.958 434.642C352.958 461.983 335.895 484.107 314.771 484.107C293.702 484.107 276.639 461.983 276.639 434.642C276.639 407.357 293.702 385.232 314.771 385.232C335.895 385.232 352.958 407.357 352.958 434.642Z" fill="#404260"/>
<mask id="mask2_208_4124" style="mask-type:luminance" maskUnits="userSpaceOnUse" x="293" y="408" width="38" height="51">
<path d="M330.579 433.621C330.579 447.434 322.332 458.634 312.154 458.634C301.977 458.634 293.725 447.434 293.725 433.621C293.725 419.814 301.977 408.614 312.154 408.614C322.332 408.614 330.579 419.814 330.579 433.621Z" fill="white"/>
</mask>
<g mask="url(#mask2_208_4124)">
<path d="M339.187 433.6C339.187 447.434 330.902 458.634 320.752 458.634C310.546 458.634 302.316 447.434 302.316 433.6C302.316 419.82 310.546 408.62 320.752 408.62C330.902 408.62 339.187 419.82 339.187 433.6Z" fill="white"/>
<path d="M330.574 433.6C330.574 447.434 322.344 458.634 312.138 458.634C301.988 458.634 293.703 447.434 293.703 433.6C293.703 419.82 301.988 408.62 312.138 408.62C322.344 408.62 330.574 419.82 330.574 433.6Z" fill="#B8B8C2"/>
</g>
<mask id="mask3_208_4124" style="mask-type:luminance" maskUnits="userSpaceOnUse" x="-5" y="283" width="561" height="168">
<path d="M431.983 341.439L528.362 364.008C542.852 370.19 552.909 383.849 554.583 399.517C555.334 406.55 555.592 415.268 554.917 425.996H360.086C360.086 425.996 355.554 381.538 316.851 381.142C275.278 380.714 271.597 426.424 272.788 450.256H109.032C109.032 450.256 113.197 380.242 62.5824 379.951C14.1022 379.666 19.7096 444.892 19.7096 444.892H17.3613C5.14795 444.892 -4.75 434.988 -4.75 422.768V402.899C-4.75 399.007 -1.59517 395.845 2.30037 395.845V369.317C2.30037 361.576 7.17801 354.675 14.4698 352.1L29.9532 346.632L93.379 299.742C107.48 289.317 124.554 283.689 142.09 283.689H323.276C327.94 283.689 332.526 284.837 336.636 287.027L431.983 341.439Z" fill="white"/>
</mask>
<g mask="url(#mask3_208_4124)">
<path d="M444.916 320.396L293.045 338.788L373.754 380.896L556.515 382.159L544.554 351.031L444.916 320.396Z" fill="#F0C348"/>
<path d="M431.967 341.423L528.368 363.987C542.853 370.19 552.893 383.86 554.594 399.507C555.307 406.534 555.582 415.263 554.923 426.024H360.092C360.092 426.024 355.538 381.555 316.857 381.115C275.268 380.731 271.592 426.408 272.799 450.235H109.022C109.022 450.235 113.192 380.237 62.6048 379.963C14.1026 379.688 19.699 444.909 19.699 444.909H17.3398C5.15938 444.909 -4.77148 434.972 -4.77148 422.785V402.911C-4.77148 399.013 -1.58922 395.829 2.30632 395.829V369.312C2.30632 361.571 7.18945 354.654 14.4867 352.128L29.9591 346.638L93.385 299.754C107.486 289.323 124.549 283.668 142.107 283.668H323.276C327.94 283.668 332.549 284.821 336.664 287.017L431.967 341.423Z" fill="#EAA947"/>
</g>
<path d="M180.184 283.668L175.246 266.1H256.12L273.019 283.668H180.184Z" fill="white"/>
<path d="M175.246 266.1H168.772L159.609 283.668H180.184L175.246 266.1Z" fill="black"/>
<path d="M541.81 452.156H371.23C365.085 452.156 360.092 447.16 360.092 441.011V426.023H555.307V438.65C555.307 446.117 549.272 452.156 541.81 452.156Z" fill="black"/>
<path d="M510.042 434.642H467.85V419.709H510.042V434.642Z" fill="white"/>
<path d="M425.602 381.555H530.836" stroke="black" stroke-width="2.1" stroke-linecap="round" stroke-linejoin="round"/>
<path d="M387.688 399.616H371.283C365.467 399.616 359.871 397.42 355.756 393.302C350.489 388.087 339.461 381.664 316.855 382.158" stroke="black" stroke-width="2.1" stroke-linecap="round" stroke-linejoin="round"/>
<path d="M437.234 382.159L444.367 391.876C446.891 395.335 450.896 397.366 455.176 397.366H505.598C510.152 397.366 514.377 395.06 516.846 391.272L523.156 381.555L437.234 382.159Z" fill="black"/>
<path d="M366.4 394.676L365.961 398.684C365.522 402.856 368.814 406.48 372.984 406.48H429.332C433.996 406.48 437.398 401.978 436.081 397.476L434.874 393.084L366.4 394.676Z" fill="#CB9D00"/>
<path d="M367.334 384.025L366.401 394.676C366.127 397.86 368.651 400.66 371.888 400.66H429.772C433.613 400.66 436.301 396.707 434.875 393.084L430.595 382.488C429.772 380.402 427.742 379.029 425.493 379.029H372.821C369.968 379.029 367.608 381.225 367.334 384.025Z" fill="white"/>
<path d="M524.416 394.675L524.032 398.682C523.593 402.855 526.83 406.478 531.055 406.478H555.141C554.977 400.714 554.044 395.882 553.605 393.961L524.416 394.675Z" fill="#CB9D00"/>
<path d="M530.836 379.357C527.983 379.357 525.624 381.499 525.35 384.353L524.417 394.949C524.143 398.188 526.666 400.933 529.904 400.933H554.813C553.277 386.44 546.857 379.357 546.857 379.357H530.836Z" fill="white"/>
<path d="M345.058 291.518H255.296C252.443 291.518 251.017 294.921 252.937 297.008L289.753 336.151C292.551 339.171 296.501 340.818 300.561 340.818H431.967L345.058 291.518Z" fill="black"/>
<mask id="mask4_208_4124" style="mask-type:luminance" maskUnits="userSpaceOnUse" x="134" y="291" width="148" height="50">
<path d="M238.173 294.972L281.204 339.803C281.578 340.193 281.298 340.841 280.76 340.841H134.387V302.713C134.387 296.542 139.385 291.535 145.558 291.535H230.113C233.152 291.535 236.066 292.776 238.173 294.972Z" fill="white"/>
</mask>
<g mask="url(#mask4_208_4124)">
<path d="M166.853 283.667L237.741 344.606L224.737 355.312L135.359 276.75L166.853 283.667Z" fill="#565653"/>
<path d="M238.179 294.977L281.194 339.831C281.578 340.215 281.304 340.819 280.755 340.819H134.371V302.718C134.371 296.514 139.364 291.519 145.564 291.519H230.113C233.131 291.519 236.039 292.781 238.179 294.977Z" fill="black"/>
</g>
<path d="M280.644 340.27C280.644 340.27 256.447 348.45 256.447 378.315C256.447 408.126 256.447 434.643 256.447 434.643H134.369V340.819" stroke="black" stroke-width="2.1" stroke-linecap="round" stroke-linejoin="round"/>
<path d="M177.933 362.229H155.932C153.957 362.229 152.311 360.637 152.311 358.66C152.311 356.629 153.957 355.037 155.932 355.037H177.933C179.963 355.037 181.554 356.629 181.554 358.66C181.554 360.637 179.963 362.229 177.933 362.229Z" fill="black"/>
<path d="M275.98 291.518L337.596 340.818H346.484L284.869 291.518H275.98Z" fill="#565653"/>
<path d="M299.299 291.518L367.169 340.818H392.023L324.208 291.518H299.299Z" fill="#565653"/>
</g>
<path d="M617.304 109.635C617.304 109.635 596.51 142.85 608.471 166.676L667.946 167.555C667.946 167.555 675.737 138.622 643.585 106.506L617.304 109.635Z" fill="black"/>
<path d="M612.696 89.1574C612.696 89.1574 599.418 87.73 599.528 101.675C599.638 114.851 613.793 122.317 613.793 122.317L612.696 89.1574Z" fill="black"/>
<path d="M648.305 105.298C648.799 118.035 638.813 128.796 626.084 129.235C613.355 129.674 602.656 119.737 602.217 107C601.723 94.2634 611.654 83.5579 624.438 83.0638C637.167 82.6246 647.866 92.5615 648.305 105.298Z" fill="black"/>
<path d="M613.026 122.152C612.696 120.066 612.038 118.035 610.941 116.168C609.459 113.643 607.21 111.227 604.137 112.874C598.925 115.729 604.686 124.129 610.227 124.568C611.819 124.678 613.245 123.47 613.026 122.152Z" fill="#995348"/>
<path d="M630.419 124.568L635.741 158.825H617.635L616.977 128.521L630.419 124.568Z" fill="#B07361"/>
<path d="M631.132 132.089L617.36 145.156L617.141 134.45L631.132 132.089Z" fill="#995348"/>
<path d="M616.757 93.33C616.757 93.33 603.205 95.0319 604.412 108.043C605.948 123.964 607.265 133.462 616.647 136.427C623.176 138.458 630.474 135.274 634.644 128.411C636.29 125.721 636.125 118.639 636.344 115.51L638.978 108.867C638.978 108.867 641.721 91.683 616.757 93.33Z" fill="#B07361"/>
<path d="M635.741 104.749L635.521 118.584L644.245 106.616L635.741 104.749Z" fill="black"/>
<path d="M634.533 122.317C634.753 120.231 635.356 118.145 636.344 116.278C637.715 113.643 639.855 111.118 642.983 112.6C648.305 115.18 642.983 123.909 637.496 124.568C635.905 124.788 634.423 123.635 634.533 122.317Z" fill="#B07361"/>
<path d="M642.16 116.827C639.636 116.827 637.496 120.066 637.496 120.066" stroke="black" stroke-width="0.7" stroke-linecap="round" stroke-linejoin="round"/>
<path d="M605.619 91.4085C605.619 91.4085 610.008 112.271 641.008 107.275C641.008 107.275 649.732 105.353 641.173 94.977C632.559 84.6558 613.63 87.4008 605.619 91.4085Z" fill="black"/>
<path d="M613.299 119.737L611.982 123.305L614.287 124.403" stroke="black" stroke-width="0.7" stroke-linecap="round" stroke-linejoin="round"/>
<path d="M623.01 117.102C623.01 117.98 622.297 118.694 621.419 118.694C620.541 118.694 619.883 117.98 619.883 117.102C619.883 116.278 620.541 115.564 621.419 115.564C622.297 115.564 623.01 116.278 623.01 117.102Z" fill="black"/>
<path d="M610.502 116.882C610.502 117.651 609.843 118.31 609.02 118.31C608.252 118.31 607.594 117.651 607.594 116.882C607.594 116.059 608.252 115.4 609.02 115.4C609.843 115.4 610.502 116.059 610.502 116.882Z" fill="black"/>
<path d="M611.984 106.945C611.984 106.945 612.587 109.031 610.392 109.47C608.691 109.8 607.649 109.965 606.716 110.459C606.223 110.733 605.619 110.514 605.29 109.91C605.015 109.47 605.015 108.867 605.29 108.427C605.784 107.494 606.881 106.067 608.911 105.627C611.49 105.078 611.984 106.945 611.984 106.945Z" fill="black"/>
<path d="M618.622 107.055C618.622 107.055 617.964 109.141 620.762 109.47C622.902 109.745 625.48 110.733 626.687 111.172C627.401 111.447 628.169 111.172 628.553 110.623C628.827 110.129 628.827 109.58 628.498 109.086C627.785 108.208 625.151 105.957 622.518 105.573C619.171 105.133 618.622 107.055 618.622 107.055Z" fill="black"/>
<path d="M613.08 126.819C613.08 126.819 618.567 126.984 621.749 124.953C621.749 124.953 619.225 130.992 613.08 126.819Z" fill="white"/>
<path d="M587.623 276.257L583.343 278.727C581.039 280.045 579.118 281.857 577.692 283.998L575.223 287.841C574.619 288.774 574.948 289.982 575.936 290.421C576.814 290.805 577.802 290.641 578.46 289.982L581.917 286.578L576.649 304.86C576.43 305.683 576.924 306.507 577.747 306.617L578.241 306.726C578.899 306.836 579.557 306.507 579.777 305.903L583.233 295.142L580.984 308.044C580.764 308.813 581.313 309.581 582.136 309.691L582.52 309.746C583.233 309.801 583.837 309.362 584.002 308.703L586.745 295.362L586.525 306.452C586.471 307.275 587.239 307.989 588.117 307.824H588.281C588.885 307.715 589.324 307.22 589.433 306.617L590.311 295.472L590.915 302.17C590.915 303.213 591.957 303.872 592.835 303.432C593.274 303.213 593.603 302.774 593.603 302.334L596.017 276.586L587.623 276.257Z" fill="#B07361"/>
<path d="M581.916 286.578C581.916 286.578 585.702 286.907 588.829 283.394" stroke="black" stroke-width="0.7" stroke-linecap="round" stroke-linejoin="round"/>
<path d="M587.621 276.257L588.938 256.438L602.38 255.889L596.016 276.586L587.621 276.257Z" fill="#B07361"/>
<path d="M596.346 159.21C596.346 159.21 589.488 161.461 586.854 184.244C583.781 211.036 581.916 269.559 581.916 269.559L599.803 270.877L610.392 184.244L596.346 159.21Z" fill="white"/>
<path d="M606.276 220.039C606.276 220.039 595.797 239.474 593.986 277.08C592.779 301.895 594.315 329.619 595.522 345.65C596.071 353.226 602.326 359.046 609.952 359.046C617.688 359.046 624.053 352.952 624.382 345.211L629.869 220.039H606.276Z" fill="#4A85E6"/>
<path d="M619.555 259.402L624.822 335.604L626.633 294.593L619.555 259.402Z" fill="black"/>
<path d="M628.498 425.53L632.394 463.521L615.55 464.07L608.637 418.997L628.498 425.53Z" fill="#B07361"/>
<mask id="mask5_208_4124" style="mask-type:luminance" maskUnits="userSpaceOnUse" x="571" y="455" width="68" height="24">
<path d="M631.966 459.518C631.966 459.518 620.109 466.425 614.299 455.785L571.914 478.294L638.264 477.888L631.966 459.518Z" fill="white"/>
</mask>
<g mask="url(#mask5_208_4124)">
<path d="M579.502 464.783C579.502 464.783 595.907 467.254 594.645 487.622L566.279 479.881L579.502 464.783Z" fill="white"/>
<path d="M631.954 459.512C631.954 459.512 620.103 466.43 614.287 455.779L571.93 478.288L638.264 477.904L631.954 459.512Z" fill="#101010"/>
</g>
<path d="M571.93 484.108L638.318 483.669L638.263 477.904L571.93 478.289V484.108Z" fill="white"/>
<path d="M609.458 466.76C609.276 466.687 609.129 466.559 609.019 466.376C606.441 463.027 603.862 461.325 603.807 461.325C603.313 460.996 603.149 460.337 603.478 459.843C603.862 459.349 604.52 459.239 605.069 459.568C605.179 459.623 607.977 461.435 610.83 465.168C611.159 465.607 611.05 466.266 610.556 466.595C610.227 466.87 609.788 466.87 609.458 466.76Z" fill="white"/>
<path d="M604.026 469.45C603.844 469.377 603.697 469.267 603.588 469.121C601.009 465.717 598.43 464.07 598.375 464.015C597.881 463.686 597.717 463.027 598.101 462.588C598.43 462.094 599.143 461.929 599.637 462.258C599.747 462.368 602.545 464.125 605.398 467.858C605.727 468.352 605.618 469.011 605.124 469.34C604.795 469.56 604.411 469.615 604.026 469.45Z" fill="white"/>
<path d="M598.651 472.14C598.468 472.067 598.304 471.957 598.157 471.81C595.579 468.407 593 466.76 592.945 466.76C592.451 466.43 592.341 465.771 592.671 465.277C593 464.783 593.713 464.673 594.207 465.003C594.317 465.058 597.115 466.869 599.968 470.548C600.352 471.042 600.242 471.701 599.694 472.03C599.364 472.25 598.98 472.304 598.651 472.14Z" fill="white"/>
<path d="M595.523 345.65L607.375 447.05H634.04L624.383 345.211L595.523 345.65Z" fill="#4A85E6"/>
<path d="M633.051 436.4H606.111" stroke="black" stroke-width="0.7" stroke-linecap="round" stroke-linejoin="round"/>
<path d="M648.305 220.039C648.305 220.039 662.68 241.45 665.478 285.754C667.234 313.589 668.496 331.212 669.319 342.137C669.977 351.305 662.735 359.046 653.572 359.046C646.22 359.046 639.8 353.94 638.209 346.693L626.632 294.593L613.629 220.039H648.305Z" fill="#4A85E6"/>
<path d="M626.632 294.593L619.554 259.403L607.812 249.521" stroke="black" stroke-width="0.7" stroke-linecap="round" stroke-linejoin="round"/>
<path d="M683.967 425.53L692.307 463.082L675.518 463.631L664.051 418.997L683.967 425.53Z" fill="#B07361"/>
<mask id="mask6_208_4124" style="mask-type:luminance" maskUnits="userSpaceOnUse" x="631" y="456" width="67" height="23">
<path d="M691.659 459.519C691.659 459.519 679.413 466.754 673.603 456.109L631.613 478.294L697.958 477.888L691.659 459.519Z" fill="white"/>
</mask>
<g mask="url(#mask6_208_4124)">
<path d="M639.196 464.783C639.196 464.783 655.601 467.254 654.339 487.622L625.973 479.881L639.196 464.783Z" fill="white"/>
<path d="M691.647 459.513C691.647 459.513 679.412 466.76 673.596 456.109L631.623 478.289L697.957 477.905L691.647 459.513Z" fill="#101010"/>
</g>
<path d="M631.625 484.108L698.014 483.669L697.959 477.904L631.625 478.289V484.108Z" fill="white"/>
<path d="M669.153 466.76C668.97 466.687 668.824 466.559 668.714 466.376C666.136 463.027 663.557 461.325 663.502 461.325C663.008 460.996 662.844 460.337 663.228 459.843C663.557 459.349 664.215 459.239 664.764 459.568C664.874 459.623 667.672 461.435 670.525 465.168C670.854 465.607 670.745 466.266 670.251 466.595C669.922 466.87 669.537 466.87 669.153 466.76Z" fill="white"/>
<path d="M663.722 469.45C663.539 469.377 663.393 469.267 663.283 469.121C660.704 465.717 658.125 464.07 658.071 464.015C657.577 463.686 657.412 463.027 657.796 462.588C658.125 462.094 658.839 461.929 659.332 462.258C659.442 462.368 662.24 464.125 665.093 467.858C665.423 468.352 665.313 469.011 664.819 469.34C664.49 469.56 664.106 469.615 663.722 469.45Z" fill="white"/>
<path d="M658.344 472.14C658.162 472.067 657.997 471.957 657.851 471.81C655.272 468.407 652.693 466.76 652.638 466.76C652.144 466.43 652.035 465.771 652.364 465.277C652.693 464.783 653.406 464.673 653.9 465.003C654.01 465.058 656.808 466.869 659.661 470.548C660.045 471.042 659.936 471.701 659.442 472.03C659.113 472.25 658.674 472.304 658.344 472.14Z" fill="white"/>
<path d="M638.209 346.693L664.874 447.051H693.076L669.318 342.137L638.209 346.693Z" fill="#4A85E6"/>
<path d="M662.021 436.4H690.662" stroke="black" stroke-width="0.7" stroke-linecap="round" stroke-linejoin="round"/>
<path d="M609.788 154.983L596.346 159.21L600.077 189.735C600.077 189.735 595.139 209.005 605.783 220.039H648.03C648.03 220.039 652.749 215.044 654.504 206.754L668.989 163.108C669.922 159.32 663.667 155.587 659.826 154.983L651.871 153.72L609.788 154.983Z" fill="white"/>
<path d="M597.717 170.354L600.076 189.734C600.076 189.734 595.577 211.42 605.947 220.094" stroke="black" stroke-width="0.7" stroke-linecap="round" stroke-linejoin="round"/>
<path d="M626.851 149.877L604.85 156.465C604.85 156.465 612.257 162.284 627.125 162.284C641.939 162.284 653.352 153.94 653.352 153.94L626.851 149.877Z" fill="#B07361"/>
<path d="M645.286 171.068L659.167 221.686C660.484 227.286 665.477 231.239 671.183 231.129C678.7 231.074 684.351 224.266 683.089 216.855L670.964 165.853C669.537 157.508 660.649 152.732 652.858 156.08C647.042 158.606 643.86 164.919 645.286 171.068Z" fill="white"/>
<path d="M654.449 204.558L647.865 180.347" stroke="black" stroke-width="0.7" stroke-linecap="round" stroke-linejoin="round"/>
<path d="M649.621 186.879L647.811 203.898L654.449 204.557L649.621 186.879Z" fill="black"/>
<path d="M591.681 171.288H576.044C575.386 171.288 574.947 171.947 575.166 172.606L587.457 204.997C587.566 205.381 587.95 205.601 588.334 205.601H603.917C604.575 205.601 605.014 204.942 604.794 204.338L592.559 171.892C592.449 171.563 592.065 171.288 591.681 171.288Z" fill="black"/>
<path d="M599.857 191.217L604.301 194.181C606.167 195.389 607.758 197.091 608.855 199.068L611.983 204.393L607.374 212.628C607.374 212.628 589.323 215.483 585.976 203.075C585.427 201.154 585.866 199.122 586.909 197.475C588.719 194.676 592.176 193.468 595.358 194.511L601.887 196.707L599.857 191.217Z" fill="#B07361"/>
<path d="M607.373 212.628L622.571 215.482L627.509 205.6L609.677 203.624L607.373 212.628Z" fill="#B07361"/>
<path d="M668.441 230.855L616.592 220.039V199.781L667.453 206.314L668.441 230.855Z" fill="white"/>
<path d="M616.373 204.228V199.781L665.369 206.259" stroke="black" stroke-width="0.7" stroke-linecap="round" stroke-linejoin="round"/>
<path d="M616.373 214.549L616.483 219.82" stroke="black" stroke-width="0.7" stroke-linecap="round" stroke-linejoin="round"/>
<path d="M525.239 147.132C545.595 144.332 559.86 125.611 557.062 105.243C554.264 84.8755 535.554 70.6564 515.199 73.4563C494.843 76.2013 480.633 94.9771 483.376 115.29C486.174 135.658 504.939 149.932 525.239 147.132Z" fill="white"/>
<path d="M547.735 122.646L555.361 143.014L534.402 135.164L547.735 122.646Z" fill="white"/>
<path d="M496.543 109.58V117.212C496.543 117.706 496.982 118.145 497.476 118.145H505.047C505.596 118.145 506.035 117.706 506.035 117.212V109.58C506.035 109.086 506.419 108.647 506.968 108.647H514.539C515.088 108.647 515.472 109.086 515.472 109.58L515.527 117.212C515.527 117.706 515.966 118.145 516.46 118.145H524.031C524.525 118.145 524.964 117.706 524.964 117.212V109.58C524.964 109.086 525.403 108.647 525.897 108.647H533.468C534.017 108.647 534.456 109.086 534.456 109.58V117.212C534.456 117.706 534.84 118.145 535.389 118.145H542.96C543.509 118.145 543.893 117.706 543.893 117.212V109.635C543.893 109.141 543.509 108.702 542.96 108.702L535.389 108.647C534.84 108.647 534.456 108.208 534.456 107.714V100.138C534.456 99.5886 534.017 99.1494 533.468 99.1494H525.897C525.403 99.1494 524.964 99.5886 524.964 100.138V107.714C524.964 108.208 524.525 108.647 524.031 108.647H516.46C515.911 108.647 515.472 108.208 515.472 107.714L515.527 100.138C515.527 99.5886 515.088 99.1494 514.594 99.1494H506.968C506.419 99.1494 506.035 99.5886 506.035 100.138V107.714C506.035 108.208 505.596 108.647 505.047 108.647H497.476C496.982 108.647 496.543 109.086 496.543 109.58Z" fill="black"/>
<path d="M29.2988 484.108H767.036" stroke="black" stroke-width="1.9" stroke-linecap="round" stroke-linejoin="round"/>
<path d="M145.312 386.44V383.68H157.312V386.44H152.752V400H149.872V386.44H145.312ZM165.666 390.352C164.914 390.352 164.194 390.472 163.506 390.712C162.834 390.936 162.186 391.304 161.562 391.816V400H158.802V387.832H161.418V389.704C162.234 388.936 162.962 388.392 163.602 388.072C164.242 387.752 164.93 387.592 165.666 387.592V390.352ZM177.3 400.12C176.484 400.12 175.828 399.952 175.332 399.616C174.852 399.28 174.5 398.864 174.276 398.368C173.588 399.008 172.924 399.48 172.284 399.784C171.644 400.088 170.956 400.24 170.22 400.24C169.148 400.24 168.356 399.896 167.844 399.208C167.348 398.52 167.1 397.648 167.1 396.592C167.1 395.888 167.228 395.272 167.484 394.744C167.756 394.2 168.196 393.776 168.804 393.472C169.412 393.168 170.244 393.016 171.3 393.016C171.716 393.016 172.148 393.048 172.596 393.112C173.044 393.16 173.492 393.224 173.94 393.304V391.888C173.94 391.216 173.756 390.76 173.388 390.52C173.02 390.264 172.524 390.136 171.9 390.136C171.42 390.136 170.892 390.2 170.316 390.328C169.756 390.456 169.148 390.656 168.492 390.928L167.7 388.576C169.316 387.92 170.78 387.592 172.092 387.592C173.276 387.592 174.188 387.792 174.828 388.192C175.484 388.592 175.94 389.12 176.196 389.776C176.452 390.432 176.58 391.136 176.58 391.888V396.568C176.58 396.808 176.644 397.04 176.772 397.264C176.916 397.472 177.188 397.576 177.588 397.576H177.852V400.12H177.3ZM169.764 396.544C169.764 396.976 169.86 397.32 170.052 397.576C170.244 397.816 170.524 397.936 170.892 397.936C171.26 397.936 171.676 397.84 172.14 397.648C172.604 397.456 173.204 397.008 173.94 396.304V395.272C173.108 395.128 172.292 395.056 171.492 395.056C170.868 395.056 170.42 395.184 170.148 395.44C169.892 395.696 169.764 396.064 169.764 396.544ZM189.568 387.832L185.248 400H182.728L178.408 387.832H181.192L183.28 393.904L184.072 396.424L184.84 393.904L186.832 387.832H189.568ZM200.878 399.304C200.046 399.64 199.262 399.88 198.526 400.024C197.79 400.168 197.094 400.24 196.438 400.24C194.63 400.24 193.262 399.728 192.334 398.704C191.406 397.68 190.942 396.32 190.942 394.624V393.184C190.942 392.048 191.15 391.064 191.566 390.232C191.982 389.4 192.574 388.752 193.342 388.288C194.11 387.824 195.014 387.592 196.054 387.592C196.902 387.592 197.694 387.768 198.43 388.12C199.182 388.456 199.79 388.992 200.254 389.728C200.734 390.448 200.974 391.376 200.974 392.512C200.974 392.848 200.95 393.208 200.902 393.592C200.854 393.96 200.774 394.352 200.662 394.768H193.606C193.638 395.76 193.886 396.504 194.35 397C194.814 397.496 195.558 397.744 196.582 397.744C197.126 397.744 197.686 397.68 198.262 397.552C198.854 397.424 199.462 397.232 200.086 396.976L200.878 399.304ZM196.054 389.92C195.318 389.92 194.742 390.16 194.326 390.64C193.926 391.104 193.694 391.776 193.63 392.656H198.238C198.254 392.576 198.262 392.504 198.262 392.44C198.262 392.36 198.262 392.288 198.262 392.224C198.262 391.456 198.046 390.88 197.614 390.496C197.182 390.112 196.662 389.92 196.054 389.92ZM204.082 396.568V382.24H206.842V396.568C206.842 396.808 206.898 397.04 207.01 397.264C207.138 397.472 207.378 397.576 207.73 397.576H208.114V400.12H207.442C206.53 400.12 205.834 399.944 205.354 399.592C204.874 399.24 204.538 398.792 204.346 398.248C204.17 397.704 204.082 397.144 204.082 396.568ZM224.543 400H214.655V397.72C214.655 396.568 214.807 395.608 215.111 394.84C215.415 394.056 215.823 393.416 216.335 392.92C216.847 392.408 217.407 392 218.015 391.696L219.647 390.88C220.271 390.56 220.775 390.224 221.159 389.872C221.559 389.504 221.759 389.032 221.759 388.456V388.024C221.759 387.432 221.551 386.968 221.135 386.632C220.735 386.28 220.087 386.104 219.191 386.104C218.647 386.104 218.095 386.184 217.535 386.344C216.991 386.504 216.327 386.728 215.543 387.016L214.655 384.544C215.551 384.144 216.367 383.864 217.103 383.704C217.855 383.528 218.583 383.44 219.287 383.44C220.583 383.44 221.615 383.648 222.383 384.064C223.167 384.48 223.727 385.04 224.063 385.744C224.415 386.432 224.591 387.192 224.591 388.024V388.456C224.591 389.32 224.415 390.056 224.063 390.664C223.727 391.272 223.279 391.784 222.719 392.2C222.159 392.616 221.551 392.984 220.895 393.304L219.263 394.12C218.671 394.408 218.231 394.808 217.943 395.32C217.671 395.832 217.519 396.488 217.487 397.288H224.543V400ZM237.932 396.304H236.229V400H233.445V396.304H226.437V393.976C227.157 392.856 227.869 391.72 228.573 390.568C229.293 389.4 229.965 388.24 230.589 387.088C231.213 385.92 231.725 384.784 232.125 383.68H235.269C234.677 385.312 233.877 386.992 232.868 388.72C231.861 390.432 230.821 392.104 229.749 393.736H233.445V391.264H236.229V393.736H237.932V396.304Z" fill="black"/>
</svg>
