<svg width="34" height="34" viewBox="0 0 34 34" fill="none" xmlns="http://www.w3.org/2000/svg">
<circle cx="17" cy="17" r="17" fill="#004C78"/>
<path d="M17.8567 8.66602C18.7942 8.66852 19.2701 8.67352 19.6809 8.68518L19.8426 8.69102C20.0292 8.69768 20.2134 8.70602 20.4359 8.71602C21.3226 8.75768 21.9276 8.89768 22.4584 9.10352C23.0084 9.31518 23.4717 9.60185 23.9351 10.0643C24.3588 10.4809 24.6867 10.9848 24.8959 11.541C25.1017 12.0718 25.2417 12.6768 25.2834 13.5643C25.2934 13.786 25.3017 13.9702 25.3084 14.1577L25.3134 14.3193C25.3259 14.7293 25.3309 15.2052 25.3326 16.1427L25.3334 16.7643V17.856C25.3355 18.4639 25.3291 19.0717 25.3142 19.6793L25.3092 19.841C25.3026 20.0285 25.2942 20.2127 25.2842 20.4343C25.2426 21.3218 25.1009 21.926 24.8959 22.4577C24.6873 23.0142 24.3593 23.5182 23.9351 23.9343C23.5184 24.3579 23.0145 24.6858 22.4584 24.8952C21.9276 25.101 21.3226 25.241 20.4359 25.2827C20.2382 25.292 20.0404 25.3003 19.8426 25.3077L19.6809 25.3127C19.2701 25.3243 18.7942 25.3302 17.8567 25.3318L17.2351 25.3327H16.1442C15.5361 25.3348 14.928 25.3284 14.3201 25.3135L14.1584 25.3085C13.9606 25.301 13.7628 25.2924 13.5651 25.2827C12.6784 25.241 12.0734 25.101 11.5417 24.8952C10.9856 24.6863 10.4819 24.3584 10.0659 23.9343C9.64178 23.5179 9.31359 23.014 9.10424 22.4577C8.89841 21.9268 8.75841 21.3218 8.71674 20.4343C8.70746 20.2366 8.69912 20.0388 8.69174 19.841L8.68757 19.6793C8.67222 19.0717 8.66527 18.4639 8.66674 17.856V16.1427C8.66441 15.5348 8.67053 14.927 8.68507 14.3193L8.69091 14.1577C8.69757 13.9702 8.70591 13.786 8.71591 13.5643C8.75757 12.6768 8.89757 12.0727 9.10341 11.541C9.31267 10.9843 9.64151 10.4802 10.0667 10.0643C10.4827 9.64058 10.986 9.31267 11.5417 9.10352C12.0734 8.89768 12.6776 8.75768 13.5651 8.71602C13.7867 8.70602 13.9717 8.69768 14.1584 8.69102L14.3201 8.68602C14.9277 8.67121 15.5356 8.66482 16.1434 8.66685L17.8567 8.66602ZM17.0001 12.8327C15.895 12.8327 14.8352 13.2717 14.0538 14.0531C13.2724 14.8345 12.8334 15.8943 12.8334 16.9993C12.8334 18.1044 13.2724 19.1642 14.0538 19.9456C14.8352 20.727 15.895 21.166 17.0001 21.166C18.1051 21.166 19.165 20.727 19.9464 19.9456C20.7278 19.1642 21.1667 18.1044 21.1667 16.9993C21.1667 15.8943 20.7278 14.8345 19.9464 14.0531C19.165 13.2717 18.1051 12.8327 17.0001 12.8327ZM17.0001 14.4993C17.3284 14.4993 17.6535 14.5639 17.9568 14.6895C18.2601 14.8151 18.5358 14.9992 18.768 15.2313C19.0001 15.4634 19.1843 15.739 19.31 16.0423C19.4357 16.3455 19.5004 16.6706 19.5005 16.9989C19.5005 17.3272 19.4359 17.6523 19.3103 17.9557C19.1848 18.259 19.0007 18.5346 18.7686 18.7668C18.5364 18.999 18.2609 19.1832 17.9576 19.3089C17.6543 19.4346 17.3292 19.4993 17.0009 19.4993C16.3379 19.4993 15.702 19.236 15.2331 18.7671C14.7643 18.2983 14.5009 17.6624 14.5009 16.9993C14.5009 16.3363 14.7643 15.7004 15.2331 15.2316C15.702 14.7627 16.3379 14.4993 17.0009 14.4993M21.3759 11.5827C21.0996 11.5827 20.8347 11.6924 20.6393 11.8878C20.444 12.0831 20.3342 12.3481 20.3342 12.6243C20.3342 12.9006 20.444 13.1656 20.6393 13.3609C20.8347 13.5563 21.0996 13.666 21.3759 13.666C21.6522 13.666 21.9171 13.5563 22.1125 13.3609C22.3078 13.1656 22.4176 12.9006 22.4176 12.6243C22.4176 12.3481 22.3078 12.0831 22.1125 11.8878C21.9171 11.6924 21.6522 11.5827 21.3759 11.5827Z" fill="white"/>
</svg>
