<svg width="32" height="26" viewBox="0 0 32 26" fill="none" xmlns="http://www.w3.org/2000/svg">
<g clip-path="url(#clip0_208_3612)">
<path d="M32 20.671C32 23.5477 29.7701 25.8902 27.0317 25.8902H0V5.21917C0 2.34249 2.22987 0 4.96825 0H32V20.671Z" fill="white"/>
<path d="M23.1982 15.3696H25.252C25.3107 15.3696 25.4476 15.3491 25.5064 15.3491C25.8976 15.2669 26.2301 14.897 26.2301 14.3833C26.2301 13.8902 25.8976 13.5203 25.5064 13.4176C25.4476 13.397 25.3304 13.397 25.2521 13.397H23.1984L23.1982 15.3696Z" fill="url(#paint0_linear_208_3612)"/>
<path d="M25.017 1.74658C23.061 1.74658 21.457 3.41111 21.457 5.48638V9.36997H26.484C26.6014 9.36997 26.7382 9.36997 26.836 9.39045C27.9705 9.45217 28.8116 10.0685 28.8116 11.1369C28.8116 11.9794 28.2444 12.6986 27.1881 12.8425V12.8835C28.3421 12.9657 29.2224 13.6438 29.2224 14.6917C29.2224 15.8219 28.2444 16.5616 26.9534 16.5616H21.4375V24.1644H26.66C28.616 24.1644 30.22 22.5 30.22 20.4246V1.74658H25.017Z" fill="url(#paint1_linear_208_3612)"/>
<path d="M25.9757 11.3837C25.9757 10.8905 25.6432 10.5617 25.252 10.5C25.213 10.5 25.1151 10.4795 25.0565 10.4795H23.1982V12.2877H25.0565C25.1152 12.2877 25.2325 12.2877 25.2521 12.2672C25.6434 12.2055 25.9759 11.8768 25.9759 11.3836" fill="url(#paint2_linear_208_3612)"/>
<path d="M5.34024 1.74658C3.38424 1.74658 1.78024 3.41111 1.78024 5.48638V14.7124C2.77787 15.226 3.81449 15.5548 4.85124 15.5548C6.08349 15.5548 6.74849 14.774 6.74849 13.7055V9.34935H9.79987V13.6849C9.79987 15.3698 8.80237 16.7466 5.41849 16.7466C3.36474 16.7466 1.76074 16.2739 1.76074 16.2739V24.1437H6.98324C8.93924 24.1437 10.5432 22.4794 10.5432 20.4039V1.74684L5.34024 1.74658Z" fill="url(#paint3_linear_208_3612)"/>
<path d="M15.1782 1.74658C13.2222 1.74658 11.6182 3.41111 11.6182 5.48638V10.3767C12.518 9.57534 14.0828 9.06164 16.606 9.18495C17.9557 9.24666 19.403 9.63706 19.403 9.63706V11.2192C18.6793 10.8289 17.8188 10.4794 16.7038 10.3972C14.7869 10.2534 13.6329 11.2397 13.6329 12.9657C13.6329 14.7123 14.7869 15.6986 16.7038 15.5342C17.8188 15.452 18.6794 15.0822 19.403 14.7123V16.2945C19.403 16.2945 17.9752 16.6849 16.606 16.7466C14.0828 16.8698 12.518 16.3561 11.6183 15.5548V24.1848H16.8408C18.7968 24.1848 20.4007 22.5205 20.4007 20.445V1.74684L15.1782 1.74658Z" fill="url(#paint4_linear_208_3612)"/>
</g>
<defs>
<linearGradient id="paint0_linear_208_3612" x1="-151.216" y1="112.271" x2="727.779" y2="112.271" gradientUnits="userSpaceOnUse">
<stop stop-color="#007940"/>
<stop offset="0.2285" stop-color="#00873F"/>
<stop offset="0.7433" stop-color="#40A737"/>
<stop offset="1" stop-color="#5CB531"/>
</linearGradient>
<linearGradient id="paint1_linear_208_3612" x1="23.0447" y1="1121.74" x2="902.085" y2="1121.74" gradientUnits="userSpaceOnUse">
<stop stop-color="#007940"/>
<stop offset="0.2285" stop-color="#00873F"/>
<stop offset="0.7433" stop-color="#40A737"/>
<stop offset="1" stop-color="#5CB531"/>
</linearGradient>
<linearGradient id="paint2_linear_208_3612" x1="-151.242" y1="100.632" x2="727.801" y2="100.632" gradientUnits="userSpaceOnUse">
<stop stop-color="#007940"/>
<stop offset="0.2285" stop-color="#00873F"/>
<stop offset="0.7433" stop-color="#40A737"/>
<stop offset="1" stop-color="#5CB531"/>
</linearGradient>
<linearGradient id="paint3_linear_208_3612" x1="3.30646" y1="1121.74" x2="895.89" y2="1121.74" gradientUnits="userSpaceOnUse">
<stop stop-color="#1F286F"/>
<stop offset="0.4751" stop-color="#004E94"/>
<stop offset="0.8261" stop-color="#0066B1"/>
<stop offset="1" stop-color="#006FBC"/>
</linearGradient>
<linearGradient id="paint4_linear_208_3612" x1="6.55944" y1="1121.73" x2="873.471" y2="1121.73" gradientUnits="userSpaceOnUse">
<stop stop-color="#6C2C2F"/>
<stop offset="0.1735" stop-color="#882730"/>
<stop offset="0.5731" stop-color="#BE1833"/>
<stop offset="0.8585" stop-color="#DC0436"/>
<stop offset="1" stop-color="#E60039"/>
</linearGradient>
<clipPath id="clip0_208_3612">
<rect width="32" height="26" fill="white"/>
</clipPath>
</defs>
</svg>
