<svg width="35" height="26" viewBox="0 0 35 26" fill="none" xmlns="http://www.w3.org/2000/svg">
<g clip-path="url(#clip0_208_3598)">
<path d="M6.36262 25.871V24.1502C6.36262 23.4904 5.94234 23.0603 5.22197 23.0603C4.86186 23.0603 4.47166 23.175 4.2015 23.5479C3.9915 23.2323 3.69141 23.0603 3.24119 23.0603C2.94096 23.0603 2.641 23.1462 2.40078 23.4618V23.1176H1.77051V25.871H2.40078V24.3508C2.40078 23.8634 2.67094 23.6338 3.09121 23.6338C3.51121 23.6338 3.72148 23.892 3.72148 24.3508V25.871H4.35176V24.3508C4.35176 23.8634 4.65172 23.6338 5.04191 23.6338C5.46219 23.6338 5.67219 23.892 5.67219 24.3508V25.871H6.36262ZM15.6965 23.1176H14.6762V22.2859H14.0459V23.1176H13.4757V23.6624H14.0458V24.9245C14.0458 25.5556 14.316 25.9284 15.0363 25.9284C15.3065 25.9284 15.6064 25.8424 15.8167 25.7277L15.6365 25.2113C15.4565 25.326 15.2465 25.3548 15.0963 25.3548C14.7962 25.3548 14.6762 25.1827 14.6762 24.8958V23.6624H15.6965V23.1176ZM21.039 23.0601C20.6788 23.0601 20.4388 23.2323 20.2887 23.4618V23.1176H19.6584V25.871H20.2887V24.3222C20.2887 23.8634 20.4987 23.6052 20.8888 23.6052C21.0089 23.6052 21.159 23.634 21.279 23.6626L21.4591 23.089C21.3391 23.0603 21.159 23.0603 21.039 23.0603M12.9654 23.3472C12.6652 23.1464 12.2451 23.0604 11.7949 23.0604C11.0746 23.0604 10.5945 23.4045 10.5945 23.9495C10.5945 24.4085 10.9546 24.6665 11.5849 24.7526L11.885 24.7814C12.2151 24.8386 12.3952 24.9247 12.3952 25.0681C12.3952 25.2688 12.1551 25.4123 11.7348 25.4123C11.3147 25.4123 10.9845 25.2688 10.7744 25.1255L10.4743 25.5843C10.8045 25.8138 11.2547 25.9285 11.7048 25.9285C12.5452 25.9285 13.0255 25.5557 13.0255 25.0394C13.0255 24.5518 12.6353 24.2936 12.0349 24.2077L11.7348 24.1789C11.4647 24.1502 11.2547 24.0929 11.2547 23.9209C11.2547 23.7201 11.4647 23.6053 11.7949 23.6053C12.1551 23.6053 12.5152 23.7487 12.6953 23.8348L12.9654 23.3472ZM29.7128 23.0604C29.3526 23.0604 29.1125 23.2325 28.9624 23.4619V23.1177H28.3321V25.8711H28.9624V24.3224C28.9624 23.8635 29.1725 23.6053 29.5626 23.6053C29.6827 23.6053 29.8329 23.6341 29.9529 23.6627L30.1329 23.0891C30.0129 23.0604 29.8329 23.0604 29.7128 23.0604ZM21.6692 24.4944C21.6692 25.3262 22.2694 25.9285 23.1999 25.9285C23.6201 25.9285 23.9202 25.8425 24.2203 25.6131L23.9202 25.1255C23.6801 25.2976 23.44 25.3835 23.1699 25.3835C22.6596 25.3835 22.2995 25.0394 22.2995 24.4944C22.2995 23.9782 22.6596 23.634 23.1699 23.6053C23.44 23.6053 23.6801 23.6913 23.9202 23.8635L24.2203 23.3759C23.9202 23.1464 23.6201 23.0604 23.1999 23.0604C22.2694 23.0604 21.6692 23.6627 21.6692 24.4944ZM27.4918 24.4944V23.1177H26.8615V23.4619C26.6514 23.2038 26.3513 23.0604 25.9611 23.0604C25.1508 23.0604 24.5205 23.6627 24.5205 24.4944C24.5205 25.3262 25.1508 25.9285 25.9611 25.9285C26.3813 25.9285 26.6815 25.7852 26.8615 25.527V25.8711H27.4918V24.4944ZM25.1807 24.4944C25.1807 24.0068 25.5109 23.6053 26.0511 23.6053C26.5613 23.6053 26.9216 23.9782 26.9216 24.4944C26.9216 24.982 26.5613 25.3835 26.0511 25.3835C25.5109 25.3548 25.1807 24.982 25.1807 24.4944ZM17.6475 23.0604C16.8071 23.0604 16.2068 23.634 16.2068 24.4944C16.2068 25.3549 16.807 25.9285 17.6775 25.9285C18.0976 25.9285 18.5179 25.8138 18.848 25.5557L18.5478 25.1255C18.3077 25.2976 18.0076 25.4123 17.7075 25.4123C17.3173 25.4123 16.9271 25.2402 16.8371 24.7525H18.9681V24.5232C18.9982 23.634 18.458 23.0604 17.6475 23.0604ZM17.6474 23.5766C18.0374 23.5766 18.3077 23.8062 18.3676 24.2364H16.867C16.927 23.8635 17.1972 23.5766 17.6474 23.5766ZM33.2842 24.4944V22.0278H32.6539V23.4619C32.4438 23.2038 32.1437 23.0604 31.7535 23.0604C30.9431 23.0604 30.3129 23.6627 30.3129 24.4944C30.3129 25.3262 30.9431 25.9285 31.7535 25.9285C32.1738 25.9285 32.4738 25.7852 32.6539 25.527V25.8711H33.2842V24.4944ZM30.9732 24.4944C30.9732 24.0068 31.3033 23.6053 31.8436 23.6053C32.3538 23.6053 32.7139 23.9782 32.7139 24.4944C32.7139 24.982 32.3538 25.3835 31.8436 25.3835C31.3033 25.3548 30.9732 24.982 30.9732 24.4944ZM9.90391 24.4944V23.1177H9.27363V23.4619C9.0635 23.2038 8.7634 23.0604 8.3732 23.0604C7.56287 23.0604 6.9326 23.6627 6.9326 24.4944C6.9326 25.3262 7.56287 25.9285 8.3732 25.9285C8.79348 25.9285 9.09357 25.7852 9.27363 25.527V25.8711H9.90391V24.4944ZM7.56287 24.4944C7.56287 24.0068 7.89305 23.6053 8.43322 23.6053C8.94346 23.6053 9.30371 23.9782 9.30371 24.4944C9.30371 24.982 8.94346 25.3835 8.43322 25.3835C7.89305 25.3548 7.56287 24.982 7.56287 24.4944Z" fill="white"/>
<path d="M12.7559 2.2085H22.21V18.4423H12.7559V2.2085Z" fill="#FF5F00"/>
<path d="M13.3559 10.3254C13.3559 7.02706 14.9766 4.10147 17.4676 2.20843C15.6369 0.831739 13.326 0 10.8049 0C4.83205 0 0 4.61768 0 10.3254C0 16.033 4.83205 20.6508 10.8047 20.6508C13.3258 20.6508 15.6368 19.8191 17.4676 18.4422C14.9766 16.5779 13.3559 13.6237 13.3559 10.3254Z" fill="#EB001B"/>
<path d="M34.9656 10.3254C34.9656 16.033 30.1336 20.6508 24.1609 20.6508C21.6398 20.6508 19.3288 19.8191 17.498 18.4422C20.0191 16.5493 21.6099 13.6237 21.6099 10.3254C21.6099 7.02706 19.9891 4.10147 17.498 2.20843C19.3287 0.831739 21.6398 0 24.1609 0C30.1336 0 34.9656 4.64642 34.9656 10.3254Z" fill="#F79E1B"/>
</g>
<defs>
<clipPath id="clip0_208_3598">
<rect width="35" height="26" fill="white"/>
</clipPath>
</defs>
</svg>
