<svg width="1439" height="443" viewBox="0 0 1439 443" fill="none" xmlns="http://www.w3.org/2000/svg">
<g style="mix-blend-mode:multiply" opacity="0.2">
<path d="M27.7807 0C12.3914 0 0 12.5257 0 27.8572V342.003L60.8577 266.748L28.8799 231.475L92.6356 158.125L165.385 187.385L174.579 35.3727L244.13 76.3568L367.944 0H27.7807Z" fill="#072535"/>
</g>
<path d="M1344.87 260.736L1310.79 239.793L1322.58 270.456L1344.87 260.736Z" fill="#F7C841"/>
<path d="M1355.66 112.131L1307.79 117.843L1342.07 145.9L1355.66 112.131Z" fill="#00B5B5"/>
<path d="M1120.52 398.318L1135.81 370.461L1152.5 385.792L1120.52 398.318Z" fill="#F7C841"/>
<path d="M202.659 76.3574L236.036 103.613L197.063 104.315L202.659 76.3574Z" fill="#00B5B5"/>
<path d="M346.059 70.7455L367.444 95.6967L380.835 60.0234L346.059 70.7455Z" fill="#FF9A15"/>
<path d="M537.726 17.0352L528.233 37.878H560.81L537.726 17.0352Z" fill="#00B5B5"/>
<path d="M78.6455 237.387L135.006 268.751L84.9411 284.483L78.6455 237.387Z" fill="#FF9A15"/>
<path d="M33.9763 416.456L59.8583 408.139L57.3601 439.303L33.9763 416.456Z" fill="#EA2143"/>
<path d="M1415.42 41.6854L1387.64 39.0801L1392.73 70.8453L1415.42 41.6854Z" fill="#EA2143"/>
<path d="M895.877 403.63L855.406 393.609L867.597 416.657L895.877 403.63Z" fill="#00FFF0"/>
<path d="M438.395 31.4644L418.109 26.4541L424.305 37.9778L438.395 31.4644Z" fill="#FF5065"/>
<path d="M1012.3 417.658L992.011 412.748L998.206 424.172L1012.3 417.658Z" fill="#FF5065"/>
<g style="mix-blend-mode:multiply" opacity="0.2">
<path d="M1438.6 124.856L1338.17 188.888L1390.63 293.703L1292.2 274.865L1306.09 365.35L1256.33 358.937L1247.13 402.527L1183.88 373.066L1133.01 442.91H1410.82C1426.11 442.91 1438.6 430.484 1438.6 415.052V124.856Z" fill="#072535"/>
</g>
<path d="M1438.6 374.168L1263.82 369.559L1239.64 442.909H1410.82C1426.11 442.909 1438.6 430.484 1438.6 415.052V374.168Z" fill="#F7C841"/>
<path d="M1438.6 304.725L1303.79 286.889L1318.38 442.909H1410.82C1426.11 442.909 1438.6 430.484 1438.6 415.052V304.725Z" fill="#FF9A15"/>
<path d="M1438.6 415.052V304.725L1303.79 286.889C1303.79 286.889 1367.65 358.536 1430.21 435.093C1435.4 429.983 1438.6 422.968 1438.6 415.052Z" fill="#F7C841"/>
<path d="M1438.6 379.278L1351.46 192.795L1438.6 137.281V379.278Z" fill="#00FFF0"/>
<path d="M1351.46 192.795L1438.6 137.281V187.785L1351.46 192.795Z" fill="#028480"/>
<path d="M1438.6 271.056L1351.46 192.795L1438.6 187.785V271.056Z" fill="#00B5B5"/>
<path d="M1263.82 369.559L1239.64 442.909H1308.09L1263.82 369.559Z" fill="#FF9A15"/>
<path d="M1341.17 442.909L1187.67 385.592L1145.9 442.909H1341.17Z" fill="#FF5065"/>
<path d="M1341.17 442.909L1187.67 385.592L1210.76 442.909H1341.17Z" fill="#EA2143"/>
<path style="mix-blend-mode:overlay" d="M1438.6 379.379L1303.79 286.889L1399.43 299.515L1438.6 379.379Z" fill="url(#paint0_linear_138_73)"/>
<path opacity="0.4" d="M1187.67 385.592L1145.9 442.909L1210.36 394.109L1187.67 385.592Z" fill="#C90D36"/>
<g style="mix-blend-mode:multiply" opacity="0.3">
<path d="M1366.05 358.536L1322.38 435.895L1317.58 434.191L1303.79 286.889C1303.79 286.889 1330.38 316.75 1366.05 358.536Z" fill="#FF7517"/>
</g>
<g style="mix-blend-mode:multiply" opacity="0.3">
<path d="M1351.46 192.795L1401.43 299.815L1399.43 299.515L1352.26 293.302L1303.79 286.889L1305.19 302.12L1311.69 370.861L1263.82 369.558L1250.73 409.14L1187.67 385.591L1145.9 442.909H1210.76H1239.64H1308.09H1318.38H1341.17H1410.82C1418.31 442.909 1425.21 439.903 1430.21 435.093C1432.1 433.189 1433.8 430.985 1435.1 428.58C1435.5 427.845 1435.87 427.077 1436.2 426.275C1436.27 426.208 1436.3 426.141 1436.3 426.074C1436.64 425.34 1436.93 424.605 1437.2 423.87C1437.2 423.736 1437.23 423.603 1437.3 423.469C1437.5 422.801 1437.7 422.066 1437.9 421.265C1437.9 421.131 1437.93 420.964 1438 420.764C1438.13 420.029 1438.23 419.294 1438.3 418.559C1438.37 418.359 1438.4 418.158 1438.4 417.958C1438.53 417.023 1438.6 416.054 1438.6 415.052V379.278V374.168V304.725V271.056V187.785V137.281L1351.46 192.795Z" fill="#FF7517"/>
</g>
<path d="M166.284 0L155.892 172.254L89.6377 145.599L0 109.425V27.8572C0 12.5257 12.3914 0 27.7807 0H166.284Z" fill="#FF5065"/>
<path d="M166.284 0L155.892 172.254L34.376 0H166.284Z" fill="#EA2143"/>
<path d="M0 248.711L89.6377 145.599L0 109.425V248.711Z" fill="#00FFF0"/>
<path d="M166.284 0L155.892 172.254L116.619 0H166.284Z" fill="#AA0428"/>
<path d="M348.058 0L244.031 64.1317L135.406 0H348.058Z" fill="#F9D640"/>
<path d="M244.031 64.1317L135.406 0H236.036L244.031 64.1317Z" fill="#FF9A15"/>
<path d="M236.036 0L244.03 64.1317L292.297 0H236.036Z" fill="#F7C841"/>
<path d="M0 248.711L89.6377 145.6L0 166.543V248.711Z" fill="#00B5B5"/>
<path style="mix-blend-mode:overlay" d="M199.361 0H27.7807C12.3914 0 0 12.5257 0 27.8572V169.147L199.361 0Z" fill="url(#paint1_linear_138_73)"/>
<path d="M0 325.469L47.1672 267.149L0 215.242V325.469Z" fill="#FF9A15"/>
<path d="M0 272.66V325.468L47.1672 267.148L0 272.66Z" fill="#F7C841"/>
<defs>
<linearGradient id="paint0_linear_138_73" x1="1303.8" y1="286.936" x2="1438.59" y2="286.936" gradientUnits="userSpaceOnUse">
<stop stop-color="white" stop-opacity="0"/>
<stop offset="1" stop-color="white"/>
</linearGradient>
<linearGradient id="paint1_linear_138_73" x1="99.4879" y1="173.05" x2="-59.7342" y2="164.27" gradientUnits="userSpaceOnUse">
<stop stop-color="white" stop-opacity="0"/>
<stop offset="1" stop-color="white"/>
</linearGradient>
</defs>
</svg>
