<svg width="180" height="26" viewBox="0 0 180 26" fill="none" xmlns="http://www.w3.org/2000/svg">
<g clip-path="url(#clip0_138_478)">
<path d="M6.36286 25.8705V24.1497C6.36286 23.4899 5.94259 23.0598 5.22222 23.0598C4.8621 23.0598 4.4719 23.1745 4.20175 23.5474C3.99175 23.2318 3.69165 23.0598 3.24144 23.0598C2.9412 23.0598 2.64124 23.1457 2.40103 23.4613V23.1171H1.77075V25.8705H2.40103V24.3504C2.40103 23.8629 2.67118 23.6333 3.09146 23.6333C3.51146 23.6333 3.72173 23.8915 3.72173 24.3504V25.8705H4.352V24.3504C4.352 23.8629 4.65196 23.6333 5.04216 23.6333C5.46243 23.6333 5.67243 23.8915 5.67243 24.3504V25.8705H6.36286ZM15.6968 23.1171H14.6765V22.2854H14.0462V23.1171H13.4759V23.6619H14.046V24.9241C14.046 25.5551 14.3162 25.9279 15.0366 25.9279C15.3067 25.9279 15.6067 25.8419 15.817 25.7272L15.6368 25.2108C15.4567 25.3256 15.2467 25.3543 15.0966 25.3543C14.7965 25.3543 14.6765 25.1822 14.6765 24.8953V23.6619H15.6968V23.1171ZM21.0392 23.0596C20.6791 23.0596 20.439 23.2318 20.2889 23.4613V23.1171H19.6586V25.8705H20.2889V24.3217C20.2889 23.8629 20.4989 23.6047 20.8891 23.6047C21.0091 23.6047 21.1593 23.6335 21.2793 23.6621L21.4593 23.0885C21.3393 23.0598 21.1592 23.0598 21.0392 23.0598M12.9657 23.3467C12.6655 23.1459 12.2453 23.0599 11.7951 23.0599C11.0749 23.0599 10.5947 23.404 10.5947 23.949C10.5947 24.408 10.9548 24.666 11.5851 24.7521L11.8852 24.7809C12.2154 24.8381 12.3954 24.9242 12.3954 25.0676C12.3954 25.2683 12.1554 25.4118 11.7351 25.4118C11.315 25.4118 10.9848 25.2683 10.7746 25.125L10.4745 25.5839C10.8047 25.8133 11.2549 25.928 11.705 25.928C12.5454 25.928 13.0257 25.5552 13.0257 25.0389C13.0257 24.5513 12.6355 24.2931 12.0352 24.2072L11.7351 24.1784C11.4649 24.1497 11.2549 24.0925 11.2549 23.9204C11.2549 23.7196 11.4649 23.6049 11.7951 23.6049C12.1554 23.6049 12.5155 23.7482 12.6955 23.8343L12.9657 23.3467ZM29.7131 23.0599C29.3528 23.0599 29.1127 23.232 28.9626 23.4614V23.1173H28.3323V25.8706H28.9626V24.3219C28.9626 23.863 29.1727 23.6049 29.5628 23.6049C29.683 23.6049 29.8331 23.6336 29.9531 23.6622L30.1332 23.0886C30.0132 23.0599 29.8331 23.0599 29.7131 23.0599ZM21.6695 24.4939C21.6695 25.3257 22.2697 25.928 23.2002 25.928C23.6203 25.928 23.9204 25.842 24.2205 25.6126L23.9204 25.125C23.6803 25.2971 23.4403 25.383 23.1701 25.383C22.6599 25.383 22.2998 25.0389 22.2998 24.4939C22.2998 23.9777 22.6599 23.6335 23.1701 23.6049C23.4403 23.6049 23.6803 23.6908 23.9204 23.863L24.2205 23.3754C23.9204 23.1459 23.6203 23.0599 23.2002 23.0599C22.2697 23.0599 21.6695 23.6622 21.6695 24.4939ZM27.4921 24.4939V23.1173H26.8618V23.4614C26.6517 23.2034 26.3516 23.0599 25.9614 23.0599C25.151 23.0599 24.5208 23.6622 24.5208 24.4939C24.5208 25.3257 25.151 25.928 25.9614 25.928C26.3815 25.928 26.6817 25.7847 26.8618 25.5265V25.8706H27.4921V24.4939ZM25.181 24.4939C25.181 24.0064 25.5111 23.6049 26.0513 23.6049C26.5616 23.6049 26.9218 23.9777 26.9218 24.4939C26.9218 24.9815 26.5616 25.383 26.0513 25.383C25.5111 25.3543 25.181 24.9815 25.181 24.4939ZM17.6478 23.0599C16.8074 23.0599 16.207 23.6335 16.207 24.4939C16.207 25.3544 16.8072 25.928 17.6777 25.928C18.0978 25.928 18.5181 25.8133 18.8483 25.5552L18.5481 25.125C18.308 25.2971 18.0079 25.4118 17.7078 25.4118C17.3176 25.4118 16.9274 25.2397 16.8373 24.752H18.9683V24.5227C18.9984 23.6335 18.4582 23.0599 17.6478 23.0599ZM17.6476 23.5761C18.0377 23.5761 18.308 23.8057 18.3679 24.2359H16.8672C16.9273 23.863 17.1974 23.5761 17.6476 23.5761ZM33.2844 24.4939V22.0273H32.6542V23.4614C32.444 23.2034 32.1439 23.0599 31.7537 23.0599C30.9434 23.0599 30.3131 23.6622 30.3131 24.4939C30.3131 25.3257 30.9434 25.928 31.7537 25.928C32.174 25.928 32.4741 25.7847 32.6542 25.5265V25.8706H33.2844V24.4939ZM30.9735 24.4939C30.9735 24.0064 31.3035 23.6049 31.8438 23.6049C32.3541 23.6049 32.7142 23.9777 32.7142 24.4939C32.7142 24.9815 32.3541 25.383 31.8438 25.383C31.3035 25.3543 30.9735 24.9815 30.9735 24.4939ZM9.90415 24.4939V23.1173H9.27388V23.4614C9.06374 23.2034 8.76364 23.0599 8.37345 23.0599C7.56312 23.0599 6.93284 23.6622 6.93284 24.4939C6.93284 25.3257 7.56312 25.928 8.37345 25.928C8.79372 25.928 9.09382 25.7847 9.27388 25.5265V25.8706H9.90415V24.4939ZM7.56312 24.4939C7.56312 24.0064 7.89329 23.6049 8.43347 23.6049C8.9437 23.6049 9.30396 23.9777 9.30396 24.4939C9.30396 24.9815 8.9437 25.383 8.43347 25.383C7.89329 25.3543 7.56312 24.9815 7.56312 24.4939Z" fill="white"/>
<path d="M12.7556 2.20801H22.2097V18.4418H12.7556V2.20801Z" fill="#FF5F00"/>
<path d="M13.3559 10.3254C13.3559 7.02706 14.9766 4.10147 17.4676 2.20843C15.6369 0.831739 13.326 0 10.8049 0C4.83205 0 0 4.61768 0 10.3254C0 16.033 4.83205 20.6508 10.8047 20.6508C13.3258 20.6508 15.6368 19.8191 17.4676 18.4422C14.9766 16.5779 13.3559 13.6237 13.3559 10.3254Z" fill="#EB001B"/>
<path d="M34.9652 10.3254C34.9652 16.033 30.1331 20.6508 24.1604 20.6508C21.6393 20.6508 19.3284 19.8191 17.4976 18.4422C20.0187 16.5493 21.6094 13.6237 21.6094 10.3254C21.6094 7.02706 19.9886 4.10147 17.4976 2.20843C19.3282 0.831739 21.6393 0 24.1604 0C30.1331 0 34.9652 4.64642 34.9652 10.3254Z" fill="#F79E1B"/>
</g>
<g clip-path="url(#clip1_138_478)">
<path d="M61.5025 1.30737L54.4325 18.1406H49.8201L46.3409 4.70611C46.13 3.88063 45.9467 3.57684 45.3048 3.22779C44.2556 2.65895 42.523 2.12695 41 1.796L41.1027 1.30737H48.5286C49.4736 1.30737 50.3245 1.93537 50.5409 3.02274L52.3792 12.7644L56.9178 1.30737H61.5025ZM67.7378 1.30737L64.1301 18.1406H59.7663L63.3744 1.30737H67.7378ZM79.5748 12.6446C79.5929 8.20274 73.4209 7.95621 73.4612 5.97158C73.4759 5.36821 74.0518 4.72589 75.3124 4.56168C75.9367 4.48105 77.6618 4.41684 79.6157 5.31537L80.3801 1.74358C79.3303 1.36463 77.9792 1 76.2987 1C71.985 1 68.9507 3.28674 68.9264 6.56379C68.8982 8.98779 71.0938 10.3387 72.745 11.1461C74.4458 11.9705 75.0162 12.5004 75.0084 13.2373C74.9962 14.3667 73.65 14.8667 72.3985 14.8853C70.2039 14.92 68.9317 14.2933 67.9169 13.8215L67.1248 17.5116C68.1458 17.9785 70.0273 18.3842 71.9762 18.4048C76.562 18.4048 79.5613 16.1442 79.5748 12.6446ZM90.9654 18.1408H95L91.4752 1.30737H87.7528C86.9133 1.30737 86.2077 1.79368 85.8947 2.54126L79.3472 18.1406H83.9294L84.8383 15.6261H90.4366L90.9654 18.1408ZM86.0949 12.1768L88.3924 5.85537L89.7122 12.1768H86.0949ZM73.3226 22.7743H71.5494V24.4213H73.5327V24.9164H70.9521V20.3474H73.431V20.8425H71.5494V22.2861H73.3224L73.3226 22.7743ZM74.4488 20.1036H75.0462V24.9162H74.4488V20.1036ZM76.5535 23.3842C76.567 24.1912 77.0766 24.5232 77.6808 24.5232C78.109 24.5232 78.3737 24.4486 78.5914 24.3539L78.6998 24.7811C78.4893 24.8758 78.1227 24.9909 77.5993 24.9909C76.5877 24.9909 75.9834 24.32 75.9834 23.3301C75.9834 22.3406 76.567 21.5676 77.5249 21.5676C78.6049 21.5676 78.8833 22.5034 78.8833 23.1065C78.8833 23.2284 78.8764 23.3164 78.8626 23.3844L76.5535 23.3842ZM78.3058 22.9573C78.3127 22.5846 78.1497 21.9947 77.4772 21.9947C76.8659 21.9947 76.6077 22.5438 76.5601 22.9573H78.3058ZM82.1351 24.8011C81.979 24.8758 81.6325 24.9912 81.1912 24.9912C80.1996 24.9912 79.5543 24.32 79.5543 23.3166C79.5543 22.3065 80.2468 21.5678 81.3201 21.5678C81.6732 21.5678 81.9856 21.6556 82.1486 21.744L82.0132 22.1981C81.87 22.1236 81.646 22.0419 81.3201 22.0419C80.566 22.0419 80.1589 22.6046 80.1589 23.2829C80.1589 24.0419 80.6478 24.5097 81.2998 24.5097C81.6394 24.5097 81.8634 24.4284 82.0332 24.3539L82.1351 24.8011ZM83.8117 20.8491V21.6354H84.6672V22.0893H83.8117V23.8587C83.8117 24.2659 83.9273 24.496 84.2599 24.496C84.4227 24.496 84.5181 24.4827 84.6065 24.4552L84.6337 24.9099C84.5181 24.9503 84.3348 24.9909 84.1038 24.9909C83.8252 24.9909 83.6009 24.896 83.4586 24.7404C83.2955 24.5571 83.2276 24.2659 83.2276 23.8794V22.0893H82.718V21.6354H83.2276V21.0253L83.8117 20.8491ZM85.5019 22.6592C85.5019 22.2726 85.4947 21.9406 85.4747 21.6354H85.9978L86.0252 22.2859H86.0451C86.1948 21.8457 86.5612 21.5676 86.9618 21.5676C87.0232 21.5676 87.0709 21.5745 87.1253 21.5811V22.144C87.0641 22.1301 87.0031 22.1301 86.9211 22.1301C86.5005 22.1301 86.2012 22.4419 86.12 22.8897C86.1059 22.9816 86.0991 23.0746 86.0995 23.1676V24.9166H85.5019V22.6592ZM90.7988 23.2486C90.7988 24.4621 89.9495 24.9909 89.1619 24.9909C88.2787 24.9909 87.5862 24.34 87.5862 23.3032C87.5862 22.2116 88.3129 21.5678 89.2163 21.5678C90.1602 21.5678 90.7988 22.2518 90.7988 23.2486ZM88.1973 23.2829C88.1973 24.0015 88.6048 24.544 89.1889 24.544C89.7597 24.544 90.1873 24.008 90.1873 23.2693C90.1873 22.7135 89.9088 22.0149 89.2024 22.0149C88.5031 22.0149 88.1973 22.6661 88.1973 23.2829ZM91.7146 22.5236C91.7146 22.1781 91.7075 21.9067 91.6872 21.6358H92.2171L92.2511 22.1781H92.2646C92.4276 21.8728 92.8079 21.568 93.3513 21.568C93.8061 21.568 94.5127 21.8392 94.5127 22.964V24.9166H93.9151V23.0253C93.9151 22.4968 93.7181 22.0558 93.1545 22.0558C92.7672 22.0558 92.4614 22.3339 92.3532 22.6659C92.3257 22.7406 92.3122 22.8421 92.3122 22.944V24.9166H91.7146V22.5236Z" fill="white"/>
</g>
<g clip-path="url(#clip2_138_478)">
<path d="M109.015 0.0527344H119.229C120.655 0.0527344 121.542 1.22722 121.209 2.67296L116.454 23.3054C116.118 24.7461 114.69 25.9216 113.264 25.9216H103.05C101.626 25.9216 100.737 24.7461 101.07 23.3054L105.828 2.67296C106.16 1.22722 107.587 0.0527344 109.015 0.0527344Z" fill="#E21836"/>
<path d="M118.379 0.0527344H130.125C131.551 0.0527344 130.908 1.22722 130.573 2.67296L125.818 23.3054C125.484 24.7461 125.588 25.9216 124.16 25.9216H112.413C110.985 25.9216 110.101 24.7461 110.436 23.3054L115.191 2.67296C115.529 1.22722 116.952 0.0527344 118.379 0.0527344Z" fill="#00447C"/>
<path d="M129.66 0.0527344H139.874C141.302 0.0527344 142.189 1.22722 141.854 2.67296L137.098 23.3054C136.763 24.7461 135.334 25.9216 133.907 25.9216H123.697C122.268 25.9216 121.382 24.7461 121.717 23.3054L126.472 2.67296C126.805 1.22722 128.231 0.0527344 129.66 0.0527344Z" fill="#007B84"/>
<path d="M111.682 6.66532C110.632 6.67616 110.322 6.66532 110.222 6.64169C110.184 6.82457 109.476 10.1287 109.474 10.1315C109.321 10.7999 109.21 11.2765 108.833 11.5842C108.619 11.763 108.369 11.8494 108.079 11.8494C107.613 11.8494 107.342 11.6156 107.296 11.1723L107.287 11.0202C107.287 11.0202 107.429 10.1247 107.429 10.1197C107.429 10.1197 108.173 7.10861 108.306 6.71064C108.313 6.68798 108.315 6.67616 108.317 6.66532C106.869 6.67827 106.612 6.66532 106.595 6.64169C106.585 6.67406 106.549 6.86083 106.549 6.86083L105.79 10.2547L105.724 10.5424L105.598 11.4838C105.598 11.763 105.652 11.9911 105.76 12.1838C106.106 12.7949 107.094 12.8865 107.652 12.8865C108.372 12.8865 109.047 12.732 109.503 12.4499C110.294 11.9773 110.502 11.2383 110.686 10.5816L110.772 10.2448C110.772 10.2448 111.538 7.11751 111.669 6.71064C111.673 6.68798 111.675 6.67616 111.682 6.66532ZM114.29 9.18812C114.105 9.18812 113.767 9.23343 113.464 9.38362C113.354 9.44075 113.25 9.50662 113.14 9.57233L113.239 9.21077L113.185 9.14992C112.542 9.2815 112.398 9.29914 111.804 9.38362L111.754 9.41712C111.685 9.9949 111.624 10.4294 111.368 11.5654C111.27 11.9856 111.17 12.4053 111.068 12.8245L111.096 12.8775C111.705 12.8451 111.889 12.8451 112.418 12.8538L112.461 12.8069C112.528 12.4589 112.537 12.3774 112.686 11.6726C112.756 11.3385 112.902 10.6044 112.974 10.343C113.106 10.281 113.236 10.2202 113.361 10.2202C113.658 10.2202 113.621 10.4816 113.61 10.5858C113.597 10.7606 113.489 11.3317 113.378 11.8221L113.304 12.1385C113.253 12.3724 113.196 12.5994 113.145 12.8312L113.167 12.8775C113.767 12.8451 113.95 12.8451 114.463 12.8538L114.523 12.8069C114.616 12.2634 114.643 12.1179 114.807 11.3267L114.89 10.9632C115.05 10.2516 115.131 9.89083 115.009 9.59693C114.881 9.26758 114.573 9.18812 114.29 9.18812ZM117.203 9.93307C116.884 9.99506 116.68 10.0362 116.478 10.0629C116.278 10.0952 116.082 10.1249 115.774 10.1681L115.749 10.1904L115.727 10.2082C115.695 10.4403 115.673 10.6408 115.63 10.8766C115.594 11.1203 115.538 11.3974 115.448 11.7954C115.378 12.1 115.342 12.2061 115.302 12.3133C115.263 12.4206 115.22 12.5248 115.142 12.8244L115.16 12.8521L115.176 12.8775C115.464 12.8637 115.652 12.8538 115.846 12.8521C116.039 12.8451 116.24 12.8521 116.55 12.8537L116.577 12.8315L116.606 12.8067C116.651 12.5365 116.658 12.4638 116.685 12.3321C116.712 12.1906 116.759 11.9949 116.874 11.472C116.928 11.2265 116.989 10.9816 117.045 10.7311C117.103 10.4816 117.165 10.2359 117.223 9.99021L117.214 9.96059L117.203 9.93307ZM117.209 8.92868C116.919 8.75584 116.411 8.8107 116.069 9.04942C115.727 9.28344 115.688 9.61554 115.977 9.79065C116.262 9.95865 116.773 9.90864 117.112 9.66782C117.453 9.42877 117.495 9.09975 117.209 8.92868ZM118.962 12.9317C119.548 12.9317 120.149 12.7682 120.602 12.2838C120.95 11.8909 121.109 11.3061 121.165 11.0653C121.345 10.2673 121.204 9.89472 121.029 9.66782C120.761 9.3218 120.288 9.21077 119.798 9.21077C119.504 9.21077 118.801 9.24023 118.253 9.75133C117.859 10.1198 117.677 10.6201 117.567 11.0995C117.456 11.5882 117.329 12.4677 118.129 12.7951C118.376 12.9022 118.732 12.9317 118.962 12.9317ZM118.916 11.136C119.051 10.5317 119.211 10.0245 119.618 10.0245C119.937 10.0245 119.961 10.4019 119.819 11.0082C119.793 11.1428 119.677 11.6433 119.519 11.8562C119.409 12.0136 119.279 12.1089 119.135 12.1089C119.092 12.1089 118.837 12.1089 118.833 11.7268C118.832 11.5381 118.87 11.3453 118.916 11.136ZM122.63 12.854L122.676 12.8069C122.741 12.4589 122.752 12.3772 122.896 11.6727C122.968 11.3385 123.117 10.6046 123.187 10.343C123.319 10.2809 123.447 10.22 123.576 10.22C123.87 10.22 123.834 10.4814 123.823 10.5856C123.812 10.7607 123.704 11.3316 123.591 11.8219L123.521 12.1383C123.468 12.3724 123.409 12.5993 123.358 12.8313L123.38 12.8776C123.982 12.8453 124.158 12.8453 124.674 12.854L124.736 12.8069C124.826 12.2631 124.851 12.1178 125.02 11.3267L125.101 10.963C125.262 10.2514 125.344 9.891 125.224 9.59709C125.092 9.26774 124.782 9.18828 124.503 9.18828C124.318 9.18828 123.978 9.23327 123.677 9.38378C123.569 9.44075 123.461 9.50646 123.355 9.57249L123.447 9.21094L123.398 9.14976C122.755 9.2815 122.608 9.29914 122.015 9.38378L121.969 9.41712C121.897 9.99506 121.839 10.4293 121.583 11.5656C121.485 11.9857 121.385 12.4053 121.283 12.8245L121.311 12.8776C121.92 12.8453 122.102 12.8453 122.63 12.854ZM127.053 12.8775C127.091 12.6907 127.316 11.5843 127.318 11.5843C127.318 11.5843 127.509 10.7724 127.521 10.7429C127.521 10.7429 127.582 10.6585 127.642 10.6249H127.73C128.567 10.6249 129.511 10.6249 130.251 10.0747C130.755 9.69727 131.099 9.14005 131.253 8.46274C131.293 8.29669 131.322 8.09924 131.322 7.90179C131.322 7.64236 131.271 7.38568 131.122 7.18516C130.744 6.65156 129.993 6.64169 129.125 6.63765L128.697 6.64169C127.586 6.65561 127.141 6.65156 126.958 6.62891C126.943 6.71064 126.914 6.85613 126.914 6.85613C126.914 6.85613 126.516 8.71942 126.516 8.72233L125.519 12.8707C126.488 12.8589 126.886 12.8589 127.053 12.8775ZM127.791 9.56747C127.791 9.56747 128.213 7.70791 128.212 7.71503L128.225 7.61954L128.231 7.54704L128.4 7.56452C128.4 7.56452 129.273 7.64026 129.293 7.6422C129.637 7.77685 129.779 8.12384 129.68 8.57668C129.59 8.99067 129.324 9.33863 128.983 9.50662C128.702 9.64904 128.357 9.66086 128.003 9.66086H127.773L127.791 9.56747ZM130.424 11.1705C130.312 11.652 130.184 12.5316 130.981 12.8451C131.235 12.9542 131.462 12.9867 131.693 12.9749C131.938 12.9616 132.164 12.8378 132.374 12.6596L132.317 12.8796L132.353 12.9265C132.926 12.9022 133.104 12.9022 133.724 12.9071L133.781 12.8637C133.871 12.3253 133.957 11.8025 134.192 10.7724C134.307 10.2791 134.421 9.79049 134.539 9.29914L134.521 9.24508C133.88 9.36501 133.709 9.39074 133.092 9.47895L133.045 9.51746C133.039 9.56764 133.032 9.6157 133.027 9.66377C132.931 9.50727 132.792 9.37359 132.577 9.2904C132.303 9.18132 131.659 9.3218 131.106 9.83095C130.717 10.1946 130.53 10.6928 130.424 11.1705ZM131.77 11.2C131.907 10.6063 132.065 10.1043 132.473 10.1043C132.731 10.1043 132.867 10.345 132.84 10.7556C132.816 10.8666 132.792 10.9774 132.766 11.088C132.725 11.2644 132.681 11.4392 132.638 11.6143C132.594 11.7341 132.543 11.847 132.487 11.9223C132.382 12.0728 132.132 12.166 131.988 12.166C131.947 12.166 131.695 12.166 131.687 11.7905C131.685 11.6038 131.723 11.4113 131.77 11.2ZM138.799 9.24007L138.749 9.18294C138.115 9.31273 138 9.33345 137.418 9.41291L137.375 9.45613C137.373 9.46325 137.371 9.47393 137.368 9.4838L137.366 9.47409C136.933 10.4853 136.945 10.2671 136.592 11.0631C136.59 11.0268 136.59 11.0043 136.588 10.9658L136.5 9.24007L136.444 9.18294C135.78 9.31273 135.764 9.33345 135.151 9.41291L135.103 9.45613C135.096 9.47684 135.096 9.4995 135.092 9.5241L135.096 9.533C135.173 9.92887 135.155 9.8405 135.232 10.4655C135.267 10.7722 135.315 11.0807 135.351 11.3837C135.412 11.8906 135.446 12.1401 135.519 12.9139C135.105 13.6046 135.007 13.8662 134.608 14.4724L134.611 14.4784L134.33 14.9274C134.298 14.9746 134.269 15.007 134.228 15.0209C134.183 15.0432 134.125 15.0473 134.044 15.0473H133.888L133.657 15.8248L134.451 15.8385C134.916 15.8366 135.209 15.6165 135.367 15.3206L135.866 14.4566H135.858L135.91 14.3957C136.246 13.6656 138.799 9.24007 138.799 9.24007ZM130.424 19.4504H130.088L131.334 15.2862H131.747L131.878 14.8573L131.891 15.3342C131.875 15.6291 132.105 15.8905 132.708 15.8473H133.405L133.645 15.0455H133.383C133.232 15.0455 133.162 15.007 133.171 14.9244L133.158 14.4391H131.867V14.4417C131.449 14.4504 130.202 14.4821 129.95 14.5501C129.644 14.6294 129.322 14.8636 129.322 14.8636L129.449 14.4341H128.241L127.989 15.2862L126.727 19.514H126.482L126.241 20.3101H128.647L128.567 20.5755H129.752L129.831 20.3101H130.164L130.424 19.4504ZM129.437 16.1323C129.244 16.1863 128.884 16.3504 128.884 16.3504L129.204 15.2862H130.164L129.932 16.0616C129.932 16.0616 129.636 16.0794 129.437 16.1323M129.456 17.6526C129.456 17.6526 129.154 17.691 128.956 17.7361C128.76 17.796 128.394 17.9847 128.394 17.9847L128.725 16.8772H129.689L129.456 17.6526ZM128.918 19.4601H127.955L128.234 18.5254H129.194L128.918 19.4601ZM131.236 16.8772H132.624L132.425 17.5299H131.019L130.808 18.2433H132.038L131.106 19.569C131.041 19.6664 130.983 19.7009 130.918 19.7282C130.852 19.7617 130.767 19.8011 130.668 19.8011H130.326L130.092 20.5824H130.985C131.449 20.5824 131.723 20.3691 131.925 20.0892L132.564 19.2055L132.701 20.1027C132.73 20.2707 132.85 20.3691 132.931 20.4073C133.02 20.4526 133.113 20.5303 133.243 20.542C133.383 20.548 133.484 20.5528 133.551 20.5528H133.99L134.253 19.6782H134.08C133.981 19.6782 133.81 19.6614 133.781 19.63C133.752 19.5917 133.752 19.5329 133.736 19.4432L133.597 18.544H133.027L133.277 18.2433H134.68L134.896 17.5299H133.597L133.799 16.8772H135.095L135.335 16.0724H131.473L131.236 16.8772ZM119.515 19.6418L119.839 18.5529H121.171L121.414 17.7431H120.081L120.285 17.0729H121.587L121.828 16.2886H118.57L118.334 17.0729H119.074L118.877 17.7429H118.134L117.888 18.5667H118.628L118.197 20.0074C118.138 20.1981 118.224 20.2707 118.278 20.3594C118.334 20.4457 118.39 20.5028 118.517 20.5352C118.647 20.5646 118.736 20.5823 118.858 20.5823H120.359L120.626 19.685L119.961 19.7774C119.832 19.7774 119.476 19.7619 119.515 19.6418ZM119.668 14.4292L119.331 15.0453C119.259 15.1798 119.193 15.2635 119.135 15.3019C119.083 15.3342 118.981 15.348 118.833 15.348H118.657L118.422 16.1362H119.007C119.288 16.1362 119.504 16.0321 119.607 15.98C119.718 15.9201 119.747 15.9542 119.832 15.8707L120.03 15.6979H121.855L122.098 14.8774H120.761L120.995 14.429L119.668 14.4292ZM122.363 19.6577C122.332 19.6124 122.354 19.5326 122.402 19.3665L122.901 17.6978H124.676C124.934 17.6941 125.121 17.691 125.243 17.6822C125.373 17.6683 125.515 17.6212 125.67 17.5367C125.829 17.4482 125.911 17.3548 125.98 17.2477C126.057 17.1409 126.18 16.9067 126.286 16.5459L126.914 14.4341L125.072 14.4449C125.072 14.4449 124.504 14.5294 124.255 14.6229C124.003 14.727 123.643 15.0178 123.643 15.0178L123.809 14.4389H122.671L121.078 19.7774C121.022 19.9846 120.984 20.1351 120.975 20.2256C120.972 20.3229 121.097 20.4193 121.178 20.492C121.273 20.5646 121.414 20.5528 121.549 20.5646C121.691 20.5755 121.893 20.5823 122.172 20.5823H123.047L123.315 19.6664L122.532 19.7412C122.449 19.7412 122.388 19.6959 122.363 19.6577ZM123.223 16.5707H125.087L124.968 16.946C124.952 16.9548 124.912 16.9274 124.722 16.9501H123.108L123.223 16.5707ZM123.596 15.3116H125.476L125.341 15.7638C125.341 15.7638 124.455 15.755 124.313 15.7814C123.688 15.8906 123.324 16.2278 123.324 16.2278L123.596 15.3116ZM125.01 18.203C124.995 18.2592 124.97 18.2934 124.936 18.3191C124.898 18.3437 124.837 18.3524 124.746 18.3524H124.48L124.496 17.8954H123.391L123.346 20.1303C123.344 20.2915 123.36 20.3848 123.477 20.4596C123.593 20.5528 123.953 20.5648 124.437 20.5648H125.13L125.38 19.7281L124.777 19.7616L124.577 19.7734C124.549 19.7616 124.523 19.7507 124.494 19.7214C124.469 19.696 124.426 19.7116 124.433 19.5504L124.437 18.9775L125.069 18.9511C125.411 18.9511 125.557 18.8388 125.681 18.7319C125.8 18.6295 125.839 18.5118 125.884 18.3524L125.99 17.8452H125.121L125.01 18.203Z" fill="#FEFEFE"/>
</g>
<g clip-path="url(#clip3_138_478)">
<path d="M180 20.671C180 23.5477 177.77 25.8902 175.032 25.8902H148V5.21917C148 2.34249 150.23 0 152.968 0H180V20.671Z" fill="white"/>
<path d="M171.198 15.37H173.252C173.31 15.37 173.447 15.3496 173.506 15.3496C173.897 15.2674 174.23 14.8975 174.23 14.3838C174.23 13.8907 173.897 13.5208 173.506 13.4181C173.447 13.3975 173.33 13.3975 173.252 13.3975H171.198L171.198 15.37Z" fill="url(#paint0_linear_138_478)"/>
<path d="M173.017 1.74609C171.061 1.74609 169.457 3.41062 169.457 5.48589V9.36948H174.484C174.602 9.36948 174.738 9.36948 174.836 9.38996C175.971 9.45168 176.812 10.0681 176.812 11.1364C176.812 11.9789 176.245 12.6981 175.188 12.8421V12.883C176.342 12.9652 177.223 13.6433 177.223 14.6912C177.223 15.8214 176.245 16.5611 174.954 16.5611H169.438V24.1639H174.66C176.616 24.1639 178.22 22.4995 178.22 20.4241V1.74609H173.017Z" fill="url(#paint1_linear_138_478)"/>
<path d="M173.975 11.3837C173.975 10.8905 173.643 10.5617 173.252 10.5C173.213 10.5 173.115 10.4795 173.056 10.4795H171.198V12.2877H173.056C173.115 12.2877 173.232 12.2877 173.252 12.2672C173.643 12.2055 173.976 11.8768 173.976 11.3836" fill="url(#paint2_linear_138_478)"/>
<path d="M153.34 1.74609C151.384 1.74609 149.78 3.41062 149.78 5.48589V14.712C150.777 15.2255 151.814 15.5543 152.851 15.5543C154.083 15.5543 154.748 14.7735 154.748 13.705V9.34886H157.799V13.6844C157.799 15.3693 156.802 16.7461 153.418 16.7461C151.364 16.7461 149.76 16.2734 149.76 16.2734V24.1433H154.983C156.939 24.1433 158.543 22.4789 158.543 20.4035V1.74636L153.34 1.74609Z" fill="url(#paint3_linear_138_478)"/>
<path d="M163.178 1.74609C161.222 1.74609 159.618 3.41062 159.618 5.48589V10.3763C160.518 9.57485 162.083 9.06116 164.606 9.18446C165.956 9.24618 167.403 9.63657 167.403 9.63657V11.2188C166.68 10.8284 165.819 10.4789 164.704 10.3967C162.787 10.253 161.633 11.2392 161.633 12.9652C161.633 14.7118 162.787 15.6981 164.704 15.5337C165.819 15.4515 166.68 15.0817 167.403 14.7118V16.294C167.403 16.294 165.975 16.6844 164.606 16.7461C162.083 16.8693 160.518 16.3556 159.619 15.5543V24.1844H164.841C166.797 24.1844 168.401 22.52 168.401 20.4446V1.74636L163.178 1.74609Z" fill="url(#paint4_linear_138_478)"/>
</g>
<defs>
<linearGradient id="paint0_linear_138_478" x1="-3.21669" y1="112.271" x2="875.779" y2="112.271" gradientUnits="userSpaceOnUse">
<stop stop-color="#007940"/>
<stop offset="0.2285" stop-color="#00873F"/>
<stop offset="0.7433" stop-color="#40A737"/>
<stop offset="1" stop-color="#5CB531"/>
</linearGradient>
<linearGradient id="paint1_linear_138_478" x1="171.045" y1="1121.74" x2="1050.09" y2="1121.74" gradientUnits="userSpaceOnUse">
<stop stop-color="#007940"/>
<stop offset="0.2285" stop-color="#00873F"/>
<stop offset="0.7433" stop-color="#40A737"/>
<stop offset="1" stop-color="#5CB531"/>
</linearGradient>
<linearGradient id="paint2_linear_138_478" x1="-3.24234" y1="100.632" x2="875.801" y2="100.632" gradientUnits="userSpaceOnUse">
<stop stop-color="#007940"/>
<stop offset="0.2285" stop-color="#00873F"/>
<stop offset="0.7433" stop-color="#40A737"/>
<stop offset="1" stop-color="#5CB531"/>
</linearGradient>
<linearGradient id="paint3_linear_138_478" x1="151.306" y1="1121.74" x2="1043.89" y2="1121.74" gradientUnits="userSpaceOnUse">
<stop stop-color="#1F286F"/>
<stop offset="0.4751" stop-color="#004E94"/>
<stop offset="0.8261" stop-color="#0066B1"/>
<stop offset="1" stop-color="#006FBC"/>
</linearGradient>
<linearGradient id="paint4_linear_138_478" x1="154.56" y1="1121.73" x2="1021.47" y2="1121.73" gradientUnits="userSpaceOnUse">
<stop stop-color="#6C2C2F"/>
<stop offset="0.1735" stop-color="#882730"/>
<stop offset="0.5731" stop-color="#BE1833"/>
<stop offset="0.8585" stop-color="#DC0436"/>
<stop offset="1" stop-color="#E60039"/>
</linearGradient>
<clipPath id="clip0_138_478">
<rect width="35" height="26" fill="white"/>
</clipPath>
<clipPath id="clip1_138_478">
<rect width="54" height="24" fill="white" transform="translate(41 1)"/>
</clipPath>
<clipPath id="clip2_138_478">
<rect width="41" height="25.8947" fill="white" transform="translate(101 0.0527344)"/>
</clipPath>
<clipPath id="clip3_138_478">
<rect width="32" height="26" fill="white" transform="translate(148)"/>
</clipPath>
</defs>
</svg>
