<svg width="20" height="20" viewBox="0 0 20 20" fill="none" xmlns="http://www.w3.org/2000/svg">
<path d="M10.2499 10.1837C10.6946 9.79877 11.0512 9.32273 11.2956 8.78785C11.5401 8.25296 11.6666 7.67175 11.6666 7.08366C11.6666 5.97859 11.2276 4.91878 10.4462 4.13738C9.66479 3.35598 8.60499 2.91699 7.49992 2.91699C6.39485 2.91699 5.33504 3.35598 4.55364 4.13738C3.77224 4.91878 3.33325 5.97859 3.33325 7.08366C3.33325 7.67175 3.45975 8.25296 3.70419 8.78785C3.94863 9.32273 4.30527 9.79877 4.74992 10.1837C3.58337 10.7119 2.59364 11.5649 1.89907 12.6408C1.2045 13.7166 0.834478 14.9698 0.833252 16.2503C0.833252 16.4713 0.921049 16.6833 1.07733 16.8396C1.23361 16.9959 1.44557 17.0837 1.66659 17.0837C1.8876 17.0837 2.09956 16.9959 2.25584 16.8396C2.41212 16.6833 2.49992 16.4713 2.49992 16.2503C2.49992 14.9242 3.0267 13.6525 3.96438 12.7148C4.90207 11.7771 6.17384 11.2503 7.49992 11.2503C8.826 11.2503 10.0978 11.7771 11.0355 12.7148C11.9731 13.6525 12.4999 14.9242 12.4999 16.2503C12.4999 16.4713 12.5877 16.6833 12.744 16.8396C12.9003 16.9959 13.1122 17.0837 13.3333 17.0837C13.5543 17.0837 13.7662 16.9959 13.9225 16.8396C14.0788 16.6833 14.1666 16.4713 14.1666 16.2503C14.1654 14.9698 13.7953 13.7166 13.1008 12.6408C12.4062 11.5649 11.4165 10.7119 10.2499 10.1837ZM7.49992 9.58366C7.00546 9.58366 6.52212 9.43704 6.11099 9.16233C5.69987 8.88763 5.37944 8.49718 5.19022 8.04037C5.001 7.58355 4.95149 7.08089 5.04796 6.59593C5.14442 6.11098 5.38252 5.66552 5.73215 5.31589C6.08178 4.96626 6.52724 4.72816 7.01219 4.6317C7.49714 4.53523 7.99981 4.58474 8.45663 4.77396C8.91344 4.96318 9.30389 5.28361 9.57859 5.69473C9.8533 6.10586 9.99992 6.58921 9.99992 7.08366C9.99992 7.7467 9.73653 8.38259 9.26768 8.85143C8.79884 9.32027 8.16296 9.58366 7.49992 9.58366ZM15.6166 9.85033C16.1499 9.24977 16.4983 8.50787 16.6198 7.71394C16.7412 6.92001 16.6307 6.10789 16.3014 5.37533C15.9721 4.64276 15.4381 4.02099 14.7636 3.58484C14.0892 3.1487 13.3031 2.91678 12.4999 2.91699C12.2789 2.91699 12.0669 3.00479 11.9107 3.16107C11.7544 3.31735 11.6666 3.52931 11.6666 3.75033C11.6666 3.97134 11.7544 4.1833 11.9107 4.33958C12.0669 4.49586 12.2789 4.58366 12.4999 4.58366C13.163 4.58366 13.7988 4.84705 14.2677 5.31589C14.7365 5.78473 14.9999 6.42062 14.9999 7.08366C14.9987 7.52136 14.8827 7.95108 14.6633 8.32984C14.4439 8.70861 14.129 9.02314 13.7499 9.24199C13.6264 9.31326 13.5232 9.41505 13.4502 9.53761C13.3773 9.66017 13.337 9.79941 13.3333 9.94199C13.3298 10.0835 13.3624 10.2235 13.428 10.3489C13.4936 10.4743 13.59 10.5809 13.7083 10.6587L14.0333 10.8753L14.1416 10.9337C15.1461 11.4101 15.9935 12.1637 16.5841 13.1056C17.1746 14.0475 17.4837 15.1386 17.4749 16.2503C17.4749 16.4713 17.5627 16.6833 17.719 16.8396C17.8753 16.9959 18.0872 17.0837 18.3083 17.0837C18.5293 17.0837 18.7412 16.9959 18.8975 16.8396C19.0538 16.6833 19.1416 16.4713 19.1416 16.2503C19.1484 14.9715 18.8281 13.7122 18.2111 12.592C17.5942 11.4719 16.701 10.5281 15.6166 9.85033Z" fill="#004C78"/>
</svg>
