<svg width="74" height="52" viewBox="0 0 74 52" fill="none" xmlns="http://www.w3.org/2000/svg">
<rect width="74" height="52" rx="8" fill="#E6EDF2"/>
<path d="M45.0999 12.0723L50.6639 17.8723V39.9283H29.8789V40.0003H50.7349V17.9453L45.0999 12.0723Z" fill="#909090"/>
<path d="M45.0316 12H29.8086V39.928H50.6646V17.873L45.0316 12Z" fill="#F4F4F4"/>
<path d="M29.6556 13.5H23.2656V20.327H43.3656V13.5H29.6556Z" fill="#7A7B7C"/>
<path d="M43.4715 20.2109H23.3945V13.3789H43.4715V20.2109Z" fill="#DD2025"/>
<path d="M30.0511 14.5337H28.7441V19.3337H29.7721V17.7147L29.9991 17.7277C30.2197 17.7239 30.4382 17.6844 30.6461 17.6107C30.8284 17.548 30.9962 17.449 31.1391 17.3197C31.2846 17.1965 31.3994 17.0411 31.4741 16.8657C31.5744 16.5742 31.6103 16.2644 31.5791 15.9577C31.5729 15.7386 31.5345 15.5216 31.4651 15.3137C31.402 15.1636 31.3083 15.0283 31.1901 14.9164C31.0718 14.8045 30.9315 14.7184 30.7781 14.6637C30.6456 14.6157 30.5086 14.5809 30.3691 14.5597C30.2636 14.5434 30.157 14.5347 30.0501 14.5337M29.8611 16.8277H29.7721V15.3477H29.9651C30.0503 15.3416 30.1358 15.3546 30.2152 15.386C30.2947 15.4173 30.3661 15.4661 30.4241 15.5287C30.5445 15.6897 30.6087 15.8857 30.6071 16.0867C30.6071 16.3327 30.6071 16.5557 30.3851 16.7127C30.2252 16.8007 30.0432 16.8413 29.8611 16.8277ZM33.5321 14.5207C33.4211 14.5207 33.3131 14.5287 33.2371 14.5317L32.9991 14.5377H32.2191V19.3377H33.1371C33.488 19.3473 33.8373 19.2879 34.1651 19.1627C34.4291 19.058 34.6627 18.8893 34.8451 18.6717C35.0225 18.4522 35.1498 18.1965 35.2181 17.9227C35.2967 17.6126 35.335 17.2936 35.3321 16.9737C35.3515 16.5959 35.3223 16.2171 35.2451 15.8467C35.1719 15.5741 35.0348 15.3228 34.8451 15.1137C34.6963 14.9449 34.5142 14.8087 34.3101 14.7137C34.1349 14.6326 33.9506 14.5729 33.7611 14.5357C33.6858 14.5233 33.6095 14.5176 33.5331 14.5187M33.3511 18.4557H33.2511V15.3917H33.2641C33.4703 15.368 33.6789 15.4052 33.8641 15.4987C33.9998 15.607 34.1103 15.7435 34.1881 15.8987C34.2721 16.062 34.3205 16.2413 34.3301 16.4247C34.3391 16.6447 34.3301 16.8247 34.3301 16.9737C34.3342 17.1453 34.3232 17.317 34.2971 17.4867C34.2663 17.6609 34.2093 17.8295 34.1281 17.9867C34.0362 18.1329 33.9121 18.256 33.7651 18.3467C33.6418 18.4265 33.4957 18.4637 33.3491 18.4527M38.4291 14.5377H35.9991V19.3377H37.0271V17.4337H38.3271V16.5417H37.0271V15.4297H38.4271V14.5377" fill="#464648"/>
<path d="M42.7807 30.2555C42.7807 30.2555 45.9687 29.6775 45.9687 30.7665C45.9687 31.8555 43.9937 31.4125 42.7807 30.2555ZM40.4237 30.3385C39.9172 30.4504 39.4236 30.6143 38.9507 30.8275L39.3507 29.9275C39.7507 29.0275 40.1657 27.8005 40.1657 27.8005C40.643 28.6038 41.1984 29.3581 41.8237 30.0525C41.3521 30.1228 40.8847 30.219 40.4237 30.3405V30.3385ZM39.1617 23.8385C39.1617 22.8895 39.4687 22.6305 39.7077 22.6305C39.9467 22.6305 40.2157 22.7455 40.2247 23.5695C40.1468 24.3981 39.9733 25.2148 39.7077 26.0035C39.3438 25.3413 39.1555 24.597 39.1607 23.8415L39.1617 23.8385ZM34.5127 34.3545C33.5347 33.7695 36.5637 31.9685 37.1127 31.9105C37.1097 31.9115 35.5367 34.9665 34.5127 34.3545ZM46.8997 30.8955C46.8897 30.7955 46.7997 29.6885 44.8297 29.7355C44.0086 29.7223 43.1878 29.7801 42.3767 29.9085C41.591 29.1169 40.9143 28.224 40.3647 27.2535C40.711 26.2529 40.9205 25.2102 40.9877 24.1535C40.9587 22.9535 40.6717 22.2655 39.7517 22.2755C38.8317 22.2855 38.6977 23.0905 38.8187 24.2885C38.9372 25.0935 39.1608 25.8796 39.4837 26.6265C39.4837 26.6265 39.0587 27.9495 38.4967 29.2655C37.9347 30.5815 37.5507 31.2715 37.5507 31.2715C36.5734 31.5896 35.6534 32.0623 34.8257 32.6715C34.0017 33.4385 33.6667 34.0275 34.1007 34.6165C34.4747 35.1245 35.7837 35.2395 36.9537 33.7065C37.5753 32.9147 38.1433 32.0822 38.6537 31.2145C38.6537 31.2145 40.4377 30.7255 40.9927 30.5915C41.5477 30.4575 42.2187 30.3515 42.2187 30.3515C42.2187 30.3515 43.8477 31.9905 45.4187 31.9325C46.9897 31.8745 46.9137 30.9935 46.9037 30.8975" fill="#DD2025"/>
<path d="M44.9531 12.0771V17.9501H50.5861L44.9531 12.0771Z" fill="#909090"/>
<path d="M45.0312 12V17.873H50.6642L45.0312 12Z" fill="#F4F4F4"/>
<path d="M29.975 14.4565H28.668V19.2565H29.7V17.6385L29.928 17.6515C30.1485 17.6478 30.367 17.6082 30.575 17.5345C30.7573 17.4718 30.925 17.3728 31.068 17.2435C31.2124 17.12 31.326 16.9646 31.4 16.7895C31.5003 16.498 31.5361 16.1882 31.505 15.8815C31.4987 15.6625 31.4603 15.4455 31.391 15.2375C31.3278 15.0875 31.2342 14.9521 31.1159 14.8402C30.9976 14.7283 30.8573 14.6423 30.704 14.5875C30.5708 14.5391 30.4331 14.5039 30.293 14.4825C30.1874 14.4663 30.0808 14.4576 29.974 14.4565M29.785 16.7505H29.696V15.2705H29.89C29.9751 15.2644 30.0606 15.2775 30.1401 15.3088C30.2195 15.3401 30.2909 15.3889 30.349 15.4515C30.4693 15.6126 30.5336 15.8086 30.532 16.0095C30.532 16.2555 30.532 16.4785 30.31 16.6355C30.15 16.7235 29.968 16.7631 29.786 16.7495M33.456 14.4435C33.345 14.4435 33.237 14.4515 33.161 14.4545L32.926 14.4605H32.146V19.2605H33.064C33.4148 19.2702 33.7641 19.2107 34.092 19.0855C34.3559 18.9809 34.5896 18.8121 34.772 18.5945C34.9493 18.375 35.0766 18.1194 35.145 17.8455C35.2235 17.5354 35.2618 17.2165 35.259 16.8965C35.2784 16.5187 35.2491 16.1399 35.172 15.7695C35.0988 15.4969 34.9616 15.2456 34.772 15.0365C34.6232 14.8677 34.441 14.7315 34.237 14.6365C34.0617 14.5555 33.8774 14.4957 33.688 14.4585C33.6126 14.4461 33.5363 14.4404 33.46 14.4415M33.278 18.3785H33.178V15.3145H33.191C33.3971 15.2908 33.6057 15.328 33.791 15.4215C33.9266 15.5299 34.0372 15.6663 34.115 15.8215C34.1989 15.9849 34.2473 16.1642 34.257 16.3475C34.266 16.5675 34.257 16.7475 34.257 16.8965C34.261 17.0682 34.25 17.2398 34.224 17.4095C34.1931 17.5838 34.1362 17.7523 34.055 17.9095C33.9631 18.0557 33.8389 18.1789 33.692 18.2695C33.5686 18.3493 33.4225 18.3866 33.276 18.3755M38.353 14.4605H35.923V19.2605H36.951V17.3565H38.251V16.4645H36.951V15.3525H38.351V14.4605" fill="white"/>
</svg>
