<svg width="28" height="28" viewBox="0 0 28 28" fill="none" xmlns="http://www.w3.org/2000/svg">
<path d="M14 5.25C11.6794 5.25 9.45376 6.17187 7.81282 7.81282C6.17187 9.45376 5.25 11.6794 5.25 14C5.25 16.3206 6.17187 18.5462 7.81282 20.1872C9.45376 21.8281 11.6794 22.75 14 22.75C16.3206 22.75 18.5462 21.8281 20.1872 20.1872C21.8281 18.5462 22.75 16.3206 22.75 14C22.75 11.6794 21.8281 9.45376 20.1872 7.81282C18.5462 6.17187 16.3206 5.25 14 5.25ZM3.5 14C3.5 12.6211 3.77159 11.2557 4.29926 9.98182C4.82694 8.70791 5.60036 7.55039 6.57538 6.57538C7.55039 5.60036 8.70791 4.82694 9.98182 4.29927C11.2557 3.77159 12.6211 3.5 14 3.5C15.3789 3.5 16.7443 3.77159 18.0182 4.29927C19.2921 4.82694 20.4496 5.60036 21.4246 6.57538C22.3996 7.55039 23.1731 8.70791 23.7007 9.98182C24.2284 11.2557 24.5 12.6211 24.5 14C24.5 16.7848 23.3938 19.4555 21.4246 21.4246C19.4555 23.3938 16.7848 24.5 14 24.5C11.2152 24.5 8.54451 23.3938 6.57538 21.4246C4.60625 19.4555 3.5 16.7848 3.5 14Z" fill="#848484"/>
</svg>
