<svg width="32" height="32" viewBox="0 0 32 32" fill="none" xmlns="http://www.w3.org/2000/svg">
<circle cx="16" cy="16" r="16" fill="#E6EDF2"/>
<path d="M12.6667 14.9997V11.6663C12.6667 10.7823 13.0179 9.93444 13.6431 9.30932C14.2682 8.6842 15.116 8.33301 16.0001 8.33301C16.8841 8.33301 17.732 8.6842 18.3571 9.30932C18.9822 9.93444 19.3334 10.7823 19.3334 11.6663V14.9997" stroke="#004C78" stroke-width="2" stroke-linecap="round"/>
<path d="M9.07843 15.5567C9.19926 14.1058 9.2601 13.3808 9.73843 12.94C10.2168 12.5 10.9451 12.5 12.4009 12.5H19.6001C21.0551 12.5 21.7834 12.5 22.2618 12.94C22.7401 13.38 22.8009 14.1058 22.9218 15.5567L23.3501 20.695C23.4201 21.5392 23.4551 21.9617 23.2084 22.2308C22.9601 22.5 22.5368 22.5 21.6884 22.5H10.3118C9.46426 22.5 9.0401 22.5 8.7926 22.2308C8.5451 21.9617 8.5801 21.5392 8.65093 20.695L9.07843 15.5567Z" stroke="#004C78" stroke-width="2"/>
</svg>
