<svg width="34" height="34" viewBox="0 0 34 34" fill="none" xmlns="http://www.w3.org/2000/svg">
<circle cx="17" cy="17" r="17" fill="#004C78"/>
<path d="M25.7168 12.0007C25.0751 12.2923 24.3834 12.484 23.6668 12.5757C24.4001 12.134 24.9668 11.434 25.2334 10.5923C24.5418 11.009 23.7751 11.3007 22.9668 11.4673C22.3084 10.7507 21.3834 10.334 20.3334 10.334C18.3751 10.334 16.7751 11.934 16.7751 13.909C16.7751 14.1923 16.8084 14.4673 16.8668 14.7257C13.9001 14.5757 11.2584 13.1507 9.50011 10.9923C9.19178 11.5173 9.01678 12.134 9.01678 12.784C9.01678 14.0257 9.64178 15.1257 10.6084 15.7507C10.0168 15.7507 9.46678 15.584 8.98345 15.334V15.359C8.98345 17.0923 10.2168 18.5423 11.8501 18.8673C11.3257 19.0108 10.7752 19.0308 10.2418 18.9257C10.4681 19.6361 10.9114 20.2577 11.5093 20.7031C12.1072 21.1485 12.8297 21.3954 13.5751 21.409C12.3115 22.4094 10.7451 22.9501 9.13345 22.9423C8.85011 22.9423 8.56678 22.9257 8.28345 22.8923C9.86678 23.909 11.7501 24.5007 13.7668 24.5007C20.3334 24.5007 23.9418 19.0507 23.9418 14.3257C23.9418 14.1673 23.9418 14.0173 23.9334 13.859C24.6334 13.359 25.2334 12.7257 25.7168 12.0007Z" fill="white"/>
</svg>
