<svg width="41" height="26" viewBox="0 0 41 26" fill="none" xmlns="http://www.w3.org/2000/svg">
<g clip-path="url(#clip0_208_3606)">
<path d="M8.01449 0.0527344H18.2289C19.6548 0.0527344 20.5416 1.22722 20.2091 2.67296L15.4534 23.3054C15.1179 24.7461 13.6901 25.9216 12.2634 25.9216H2.04979C0.626004 25.9216 -0.262864 24.7461 0.0697809 23.3054L4.82738 2.67296C5.16003 1.22722 6.58686 0.0527344 8.01449 0.0527344Z" fill="#E21836"/>
<path d="M17.379 0.0527344H29.1255C30.551 0.0527344 29.9083 1.22722 29.5729 2.67296L24.8179 23.3054C24.4845 24.7461 24.5884 25.9216 23.1598 25.9216H11.4135C9.98487 25.9216 9.1008 24.7461 9.43633 23.3054L14.1909 2.67296C14.5285 1.22722 15.9524 0.0527344 17.379 0.0527344Z" fill="#00447C"/>
<path d="M28.6598 0.0527344H38.8742C40.3022 0.0527344 41.189 1.22722 40.8538 2.67296L36.0987 23.3054C35.7632 24.7461 34.3346 25.9216 32.9068 25.9216H22.6972C21.2686 25.9216 20.3824 24.7461 20.7172 23.3054L25.4727 2.67296C25.8053 1.22722 27.2312 0.0527344 28.6598 0.0527344Z" fill="#007B84"/>
<path d="M10.6817 6.66483C9.63137 6.67568 9.32115 6.66483 9.22201 6.6412C9.18389 6.82408 8.47504 10.1283 8.47312 10.131C8.32049 10.7994 8.2095 11.276 7.83217 11.5837C7.6182 11.7625 7.3682 11.849 7.07832 11.849C6.61258 11.849 6.34112 11.6151 6.29563 11.1718L6.28682 11.0197C6.28682 11.0197 6.42872 10.1242 6.42872 10.1192C6.42872 10.1192 7.17265 7.10812 7.3059 6.71015C7.31295 6.68749 7.31487 6.67568 7.31663 6.66483C5.86866 6.67778 5.61193 6.66483 5.59431 6.6412C5.58454 6.67357 5.54866 6.86034 5.54866 6.86034L4.78904 10.2542L4.72386 10.5419L4.59766 11.4834C4.59766 11.7625 4.65195 11.9906 4.75989 12.1833C5.10599 12.7944 6.0932 12.886 6.65166 12.886C7.37108 12.886 8.04614 12.7315 8.50227 12.4494C9.29392 11.9768 9.50116 11.2378 9.68582 10.5811L9.7715 10.2443C9.7715 10.2443 10.5379 7.11702 10.6681 6.71015C10.6729 6.68749 10.6749 6.67568 10.6817 6.66483ZM13.289 9.18763C13.1044 9.18763 12.7669 9.23294 12.4636 9.38313C12.3535 9.44026 12.2494 9.50613 12.1396 9.57184L12.2387 9.21028L12.1844 9.14943C11.5414 9.28101 11.3974 9.29865 10.8034 9.38313L10.7537 9.41663C10.6847 9.99441 10.6234 10.429 10.3678 11.5649C10.2698 11.9851 10.1699 12.4048 10.068 12.8241L10.0952 12.877C10.7041 12.8446 10.8888 12.8446 11.4179 12.8534L11.4607 12.8064C11.5279 12.4585 11.5366 12.3769 11.6855 11.6721C11.7555 11.338 11.9014 10.6039 11.9733 10.3425C12.1055 10.2805 12.236 10.2197 12.3604 10.2197C12.657 10.2197 12.6208 10.4811 12.6095 10.5853C12.5967 10.7601 12.4887 11.3312 12.3779 11.8216L12.3039 12.138C12.2525 12.3719 12.196 12.5989 12.1444 12.8307L12.1668 12.877C12.7667 12.8446 12.9498 12.8446 13.4621 12.8534L13.5224 12.8064C13.6151 12.263 13.6422 12.1175 13.8065 11.3262L13.8891 10.9627C14.0498 10.2511 14.1305 9.89035 14.0089 9.59644C13.8805 9.26709 13.572 9.18763 13.289 9.18763ZM16.2021 9.93259C15.8831 9.99457 15.6797 10.0357 15.4776 10.0624C15.2772 10.0948 15.0816 10.1244 14.7735 10.1676L14.749 10.1899L14.7266 10.2077C14.6945 10.4398 14.6721 10.6403 14.6295 10.8761C14.5935 11.1199 14.5379 11.3969 14.4476 11.7949C14.3776 12.0995 14.3416 12.2057 14.3017 12.3128C14.2628 12.4201 14.22 12.5243 14.1414 12.8239L14.1598 12.8516L14.1752 12.877C14.4633 12.8632 14.6518 12.8534 14.8454 12.8516C15.0389 12.8446 15.2394 12.8516 15.5495 12.8532L15.5767 12.831L15.6058 12.8063C15.6507 12.536 15.6572 12.4633 15.6846 12.3316C15.7119 12.1901 15.7586 11.9945 15.8735 11.4715C15.9278 11.226 15.9881 10.9812 16.0445 10.7306C16.103 10.4811 16.1641 10.2354 16.2224 9.98972L16.2138 9.9601L16.2021 9.93259ZM16.2088 8.92819C15.9189 8.75535 15.4104 8.81021 15.068 9.04893C14.7267 9.28295 14.6878 9.61505 14.9767 9.79017C15.2615 9.95816 15.7721 9.90815 16.1115 9.66733C16.4521 9.42829 16.4947 9.09926 16.2088 8.92819ZM17.9614 12.9312C18.5477 12.9312 19.1488 12.7677 19.6013 12.2833C19.9493 11.8904 20.109 11.3057 20.1642 11.0648C20.3441 10.2668 20.2039 9.89423 20.0281 9.66733C19.7606 9.32131 19.288 9.21028 18.7978 9.21028C18.5031 9.21028 17.8009 9.23974 17.2524 9.75084C16.8584 10.1194 16.6765 10.6196 16.5668 11.099C16.4559 11.5877 16.3285 12.4672 17.1289 12.7946C17.3759 12.9017 17.7319 12.9312 17.9614 12.9312ZM17.9156 11.1356C18.0508 10.5312 18.2105 10.024 18.6177 10.024C18.9369 10.024 18.9601 10.4014 18.8183 11.0077C18.7928 11.1424 18.6764 11.6428 18.5188 11.8558C18.4086 12.0131 18.2785 12.1084 18.1344 12.1084C18.0916 12.1084 17.837 12.1084 17.833 11.7263C17.831 11.5376 17.8692 11.3448 17.9156 11.1356ZM21.6298 12.8535L21.6756 12.8064C21.7406 12.4585 21.7514 12.3767 21.8952 11.6722C21.9672 11.338 22.1162 10.6041 22.186 10.3425C22.3185 10.2804 22.4468 10.2195 22.5752 10.2195C22.8697 10.2195 22.8338 10.4809 22.8222 10.5851C22.8114 10.7602 22.7033 11.3311 22.5906 11.8214L22.5206 12.1378C22.4671 12.3719 22.4088 12.5988 22.3572 12.8309L22.3796 12.8771C22.9818 12.8448 23.1577 12.8448 23.6731 12.8535L23.7354 12.8064C23.8257 12.2626 23.8502 12.1173 24.0195 11.3262L24.1 10.9626C24.2615 10.2509 24.3432 9.89051 24.2235 9.5966C24.0914 9.26725 23.7812 9.18779 23.502 9.18779C23.317 9.18779 22.9778 9.23278 22.6763 9.38329C22.5685 9.44026 22.4604 9.50597 22.3543 9.572L22.4468 9.21045L22.3971 9.14927C21.7542 9.28101 21.6075 9.29865 21.0142 9.38329L20.9685 9.41663C20.8966 9.99457 20.8381 10.4288 20.5825 11.5651C20.4845 11.9852 20.3846 12.4049 20.2829 12.8241L20.3101 12.8771C20.9198 12.8448 21.1018 12.8448 21.6298 12.8535ZM26.053 12.877C26.0908 12.6902 26.3156 11.5839 26.3176 11.5839C26.3176 11.5839 26.509 10.7719 26.5208 10.7424C26.5208 10.7424 26.581 10.658 26.6412 10.6245H26.7298C27.5661 10.6245 28.5106 10.6245 29.2507 10.0742C29.7544 9.69678 30.0987 9.13956 30.2523 8.46225C30.2922 8.2962 30.3215 8.09875 30.3215 7.90131C30.3215 7.64187 30.2701 7.38519 30.1211 7.18467C29.7436 6.65108 28.992 6.6412 28.1243 6.63716L27.6967 6.6412C26.586 6.65512 26.1406 6.65108 25.9575 6.62842C25.9422 6.71015 25.913 6.85564 25.913 6.85564C25.913 6.85564 25.5152 8.71893 25.5152 8.72185L24.5182 12.8702C25.488 12.8584 25.8856 12.8584 26.053 12.877ZM26.7902 9.56698C26.7902 9.56698 27.213 7.70742 27.2111 7.71454L27.2249 7.61905L27.2308 7.54655L27.3999 7.56403C27.3999 7.56403 28.2723 7.63977 28.2926 7.64171C28.637 7.77636 28.7789 8.12335 28.6799 8.57619C28.5894 8.99018 28.3238 9.33814 27.9824 9.50613C27.7013 9.64855 27.357 9.66037 27.0022 9.66037H26.7727L26.7902 9.56698ZM29.4238 11.17C29.312 11.6515 29.1836 12.5311 29.98 12.8446C30.234 12.9537 30.4616 12.9862 30.6927 12.9744C30.9371 12.9611 31.1634 12.8373 31.3731 12.6591L31.3162 12.8791L31.3524 12.926C31.9253 12.9017 32.1031 12.9017 32.7237 12.9066L32.78 12.8632C32.8705 12.3248 32.956 11.802 33.1916 10.7719C33.3063 10.2786 33.4208 9.79 33.5385 9.29865L33.5201 9.2446C32.8793 9.36452 32.7081 9.39025 32.0915 9.47846L32.0448 9.51698C32.0385 9.56715 32.0319 9.61521 32.026 9.66328C31.9302 9.50678 31.7912 9.3731 31.5769 9.28991C31.3028 9.18083 30.6589 9.32131 30.1056 9.83046C29.7166 10.1941 29.5298 10.6923 29.4238 11.17ZM30.7698 11.1995C30.907 10.6058 31.0644 10.1038 31.4728 10.1038C31.731 10.1038 31.867 10.3445 31.8393 10.7551C31.8156 10.8661 31.7911 10.9769 31.7656 11.0875C31.7248 11.2639 31.6806 11.4387 31.6375 11.6138C31.5936 11.7336 31.5425 11.8465 31.4866 11.9218C31.3815 12.0723 31.1315 12.1655 30.9876 12.1655C30.9467 12.1655 30.6948 12.1655 30.6862 11.79C30.6841 11.6033 30.7222 11.4109 30.7698 11.1995ZM37.7984 9.23958L37.7487 9.18245C37.1147 9.31225 36.9998 9.33296 36.4173 9.41243L36.3744 9.45564C36.3725 9.46276 36.3707 9.47344 36.3677 9.48331L36.3658 9.4736C35.9321 10.4848 35.9447 10.2666 35.5917 11.0626C35.5897 11.0263 35.5897 11.0038 35.5877 10.9653L35.4993 9.23958L35.4439 9.18245C34.7796 9.31225 34.7639 9.33296 34.1505 9.41243L34.1026 9.45564C34.0959 9.47635 34.0959 9.49901 34.0919 9.52361L34.0959 9.53251C34.1726 9.92838 34.1542 9.84001 34.2311 10.465C34.2669 10.7717 34.3148 11.0802 34.3505 11.3832C34.4111 11.8901 34.445 12.1396 34.5189 12.9134C34.1047 13.6041 34.0065 13.8657 33.6076 14.4719L33.6104 14.4779L33.3295 14.9269C33.2975 14.9741 33.2683 15.0065 33.2275 15.0204C33.1827 15.0428 33.1244 15.0468 33.0435 15.0468H32.8878L32.6566 15.8243L33.4501 15.838C33.9159 15.8361 34.2086 15.616 34.3662 15.3201L34.8653 14.4561H34.8573L34.9098 14.3952C35.2455 13.6652 37.7984 9.23958 37.7984 9.23958ZM29.4238 19.4499H29.0872L30.3332 15.2857H30.7464L30.8777 14.8568L30.8902 15.3337C30.8748 15.6286 31.1043 15.89 31.7073 15.8468H32.4048L32.6447 15.045H32.3824C32.2315 15.045 32.1614 15.0065 32.1702 14.924L32.1575 14.4386H30.8662V14.4412C30.4486 14.4499 29.2017 14.4816 28.9493 14.5496C28.6438 14.6289 28.3219 14.8631 28.3219 14.8631L28.4484 14.4336H27.2404L26.9886 15.2857L25.7261 19.5135H25.4811L25.2408 20.3096H27.6469L27.5663 20.575H28.7518L28.8306 20.3096H29.1631L29.4238 19.4499ZM28.4366 16.1318C28.2431 16.1858 27.8833 16.3499 27.8833 16.3499L28.2034 15.2857H29.1631L28.9316 16.0611C28.9316 16.0611 28.635 16.0789 28.4368 16.1318M28.4552 17.6521C28.4552 17.6521 28.1538 17.6905 27.9553 17.7356C27.7599 17.7955 27.3933 17.9842 27.3933 17.9842L27.7241 16.8767H28.6887L28.4552 17.6521ZM27.9174 19.4596H26.9547L27.2338 18.5249H28.1935L27.9174 19.4596ZM30.236 16.8767H31.6237L31.4243 17.5295H30.0181L29.8071 18.2429H31.0375L30.1057 19.5685C30.0406 19.6659 29.9821 19.7004 29.9171 19.7278C29.8519 19.7613 29.7662 19.8006 29.6672 19.8006H29.3258L29.0913 20.582H29.984C30.4482 20.582 30.7223 20.3687 30.9246 20.0887L31.5636 19.205L31.7007 20.1023C31.7299 20.2703 31.8494 20.3687 31.9302 20.4068C32.0196 20.4522 32.112 20.5298 32.2425 20.5415C32.3824 20.5475 32.4834 20.5523 32.5507 20.5523H32.9895L33.2528 19.6777H33.0798C32.9805 19.6777 32.8093 19.6609 32.7804 19.6295C32.751 19.5912 32.751 19.5324 32.7355 19.4428L32.5962 18.5436H32.0263L32.2763 18.2429H33.6798L33.8957 17.5295H32.5963L32.7986 16.8767H34.0941L34.3344 16.0719H30.4723L30.236 16.8767ZM18.5149 19.6413L18.8388 18.5525H20.1701L20.4132 17.7426H19.0807L19.2841 17.0724H20.5862L20.8276 16.2881H17.5695L17.3333 17.0724H18.0735L17.8761 17.7424H17.1339L16.8879 18.5662H17.6278L17.196 20.0069C17.1379 20.1976 17.2234 20.2703 17.2777 20.3589C17.3333 20.4452 17.3895 20.5023 17.516 20.5347C17.6465 20.5642 17.7359 20.5818 17.8573 20.5818H19.3581L19.6256 19.6845L18.9603 19.777C18.8319 19.777 18.476 19.7614 18.5149 19.6413ZM18.6675 14.4287L18.3303 15.0449C18.2582 15.1793 18.193 15.263 18.1345 15.3014C18.083 15.3337 17.9808 15.3475 17.833 15.3475H17.657L17.4217 16.1357H18.0063C18.2875 16.1357 18.5032 16.0316 18.6064 15.9795C18.7172 15.9196 18.7463 15.9538 18.8319 15.8702L19.0293 15.6974H20.8548L21.0971 14.8769H19.7608L19.9941 14.4286L18.6675 14.4287ZM21.3625 19.6572C21.3314 19.6119 21.3538 19.5321 21.4014 19.366L21.9003 17.6973H23.6753C23.934 17.6936 24.1205 17.6905 24.2423 17.6817C24.3726 17.6678 24.5145 17.6207 24.6691 17.5363C24.8288 17.4477 24.9104 17.3543 24.9793 17.2472C25.0562 17.1404 25.1798 16.9062 25.2858 16.5455L25.913 14.4336L24.0712 14.4444C24.0712 14.4444 23.5039 14.5289 23.2543 14.6224C23.0023 14.7265 22.6423 15.0173 22.6423 15.0173L22.8085 14.4384H21.6708L20.0779 19.777C20.0213 19.9841 19.9834 20.1346 19.9747 20.2251C19.9719 20.3224 20.0963 20.4188 20.177 20.4915C20.2723 20.5642 20.4132 20.5523 20.5484 20.5642C20.6906 20.575 20.8928 20.5818 21.1719 20.5818H22.0464L22.3146 19.6659L21.5319 19.7407C21.4482 19.7407 21.3878 19.6954 21.3625 19.6572ZM22.2222 16.5702H24.0864L23.9679 16.9455C23.9514 16.9543 23.9115 16.9269 23.7218 16.9496H22.1074L22.2222 16.5702ZM22.5957 15.3111H24.4758L24.3404 15.7633C24.3404 15.7633 23.4545 15.7545 23.3126 15.7809C22.6879 15.8902 22.3233 16.2273 22.3233 16.2273L22.5957 15.3111ZM24.0099 18.2026C23.9943 18.2587 23.9698 18.2929 23.9359 18.3186C23.8979 18.3432 23.8366 18.3519 23.7453 18.3519H23.4798L23.4955 17.8949H22.3904L22.3455 20.1298C22.3439 20.291 22.3593 20.3843 22.4761 20.4591C22.593 20.5523 22.9527 20.5643 23.437 20.5643H24.1294L24.3792 19.7276L23.7765 19.7611L23.576 19.7729C23.5488 19.7611 23.5225 19.7503 23.4934 19.721C23.4681 19.6956 23.4251 19.7111 23.4322 19.5499L23.437 18.977L24.069 18.9506C24.4104 18.9506 24.5563 18.8383 24.6808 18.7315C24.7994 18.629 24.8384 18.5114 24.8832 18.3519L24.9892 17.8447H24.1205L24.0099 18.2026Z" fill="#FEFEFE"/>
</g>
<defs>
<clipPath id="clip0_208_3606">
<rect width="41" height="25.8947" fill="white" transform="translate(0 0.0527344)"/>
</clipPath>
</defs>
</svg>
