<svg width="32" height="32" viewBox="0 0 32 32" fill="none" xmlns="http://www.w3.org/2000/svg">
<circle cx="16" cy="16" r="16" fill="#E6EDF2"/>
<path d="M12.668 14.9997V11.6663C12.668 10.7823 13.0192 9.93444 13.6443 9.30932C14.2694 8.6842 15.1172 8.33301 16.0013 8.33301C16.8854 8.33301 17.7332 8.6842 18.3583 9.30932C18.9834 9.93444 19.3346 10.7823 19.3346 11.6663V14.9997" stroke="#004C78" stroke-width="2" stroke-linecap="round"/>
<path d="M9.07916 15.5567C9.2 14.1058 9.26083 13.3808 9.73916 12.94C10.2175 12.5 10.9458 12.5 12.4017 12.5H19.6008C21.0558 12.5 21.7842 12.5 22.2625 12.94C22.7408 13.38 22.8017 14.1058 22.9225 15.5567L23.3508 20.695C23.4208 21.5392 23.4558 21.9617 23.2092 22.2308C22.9608 22.5 22.5375 22.5 21.6892 22.5H10.3125C9.465 22.5 9.04083 22.5 8.79333 22.2308C8.54583 21.9617 8.58083 21.5392 8.65166 20.695L9.07916 15.5567Z" stroke="#004C78" stroke-width="2"/>
</svg>
